<?xml version="1.0" encoding="utf-8" standalone="no"?>
<!DOCTYPE svg PUBLIC "-//W3C//DTD SVG 1.1//EN" "http://www.w3.org/Graphics/SVG/1.1/DTD/svg11.dtd">
<svg version="1.1" width="594.8pt" height="841.5pt" viewBox="0 0 594.75 841.5" xmlns="http://www.w3.org/2000/svg">
  <defs />
  <g id="Make2D">
    <g id="Make2D::Visible">
      <g id="Make2D::Visible::Curves">
        <g id="Make2D::Visible::Curves::黑色钣金">
          <path d="M389.4114,770.5277 L238.57462,770.5277" stroke="#000000" stroke-width="0.75" stroke-linecap="round" stroke-linejoin="round" fill="none" />
          <path d="M370.6859,752.9529 A4.5354333,4.5354333 0 1 1 370.6859,762.02374" stroke="#000000" stroke-width="0.75" stroke-linecap="round" stroke-linejoin="round" fill="none" />
          <path d="M257.3001,752.9529 L370.6859,752.9529" stroke="#000000" stroke-width="0.75" stroke-linecap="round" stroke-linejoin="round" fill="none" />
          <path d="M257.3001,762.02374 A4.5354333,4.5354333 0 1 1 257.3001,752.9529" stroke="#000000" stroke-width="0.75" stroke-linecap="round" stroke-linejoin="round" fill="none" />
          <path d="M370.6859,762.02374 L257.3001,762.02374" stroke="#000000" stroke-width="0.75" stroke-linecap="round" stroke-linejoin="round" fill="none" />
          <circle cx="245.1" cy="668.1" r="5.953" stroke="#000000" stroke-width="0.75" fill="none" />
          <circle cx="382.9" cy="668.1" r="5.953" stroke="#000000" stroke-width="0.75" fill="none" />
          <circle cx="157.4" cy="628.7" r="4.535" stroke="#000000" stroke-width="0.75" fill="none" />
          <path d="M252.24042,647.15515 A6.094488,6.094488 0 0 0 240.05144,647.15515" stroke="#000000" stroke-width="0.75" stroke-linecap="round" stroke-linejoin="round" fill="none" />
          <path d="M240.05144,647.15515 A6.094488,6.094488 0 0 0 252.24042,647.15515" stroke="#000000" stroke-width="0.75" stroke-linecap="round" stroke-linejoin="round" fill="none" />
          <path d="M387.93463,647.15515 A6.094488,6.094488 0 0 0 375.74564,647.15515" stroke="#000000" stroke-width="0.75" stroke-linecap="round" stroke-linejoin="round" fill="none" />
          <path d="M375.74564,647.15515 A6.094488,6.094488 0 0 0 387.93463,647.15515" stroke="#000000" stroke-width="0.75" stroke-linecap="round" stroke-linejoin="round" fill="none" />
          <circle cx="234.6" cy="722.5" r="3.827" stroke="#000000" stroke-width="0.75" fill="none" />
          <circle cx="393.4" cy="722.5" r="3.827" stroke="#000000" stroke-width="0.75" fill="none" />
          <circle cx="381.8" cy="734.6" r="6.094" stroke="#000000" stroke-width="0.75" fill="none" />
          <circle cx="246.1" cy="734.6" r="6.094" stroke="#000000" stroke-width="0.75" fill="none" />
          <circle cx="359.3" cy="640.6" r="6.094" stroke="#000000" stroke-width="0.75" fill="none" />
          <circle cx="268.6" cy="640.6" r="6.094" stroke="#000000" stroke-width="0.75" fill="none" />
          <circle cx="294.2" cy="640.6" r="4.535" stroke="#000000" stroke-width="0.75" fill="none" />
          <circle cx="314" cy="640.6" r="12.76" stroke="#000000" stroke-width="0.75" fill="none" />
          <circle cx="333.8" cy="640.6" r="4.535" stroke="#000000" stroke-width="0.75" fill="none" />
          <circle cx="314" cy="660.4" r="4.535" stroke="#000000" stroke-width="0.75" fill="none" />
          <circle cx="314" cy="700.1" r="4.535" stroke="#000000" stroke-width="0.75" fill="none" />
          <circle cx="314" cy="739.8" r="4.535" stroke="#000000" stroke-width="0.75" fill="none" />
          <circle cx="294.2" cy="719.9" r="4.535" stroke="#000000" stroke-width="0.75" fill="none" />
          <circle cx="314" cy="719.9" r="12.76" stroke="#000000" stroke-width="0.75" fill="none" />
          <circle cx="333.8" cy="719.9" r="4.535" stroke="#000000" stroke-width="0.75" fill="none" />
          <circle cx="422" cy="693" r="6.094" stroke="#000000" stroke-width="0.75" fill="none" />
          <circle cx="206" cy="693" r="6.094" stroke="#000000" stroke-width="0.75" fill="none" />
          <circle cx="292.4" cy="697.9" r="3.827" stroke="#000000" stroke-width="0.75" fill="none" />
          <circle cx="335.6" cy="697.9" r="3.827" stroke="#000000" stroke-width="0.75" fill="none" />
          <circle cx="245.1" cy="631.5" r="3.827" stroke="#000000" stroke-width="0.75" fill="none" />
          <circle cx="210.5" cy="350.4" r="4.535" stroke="#000000" stroke-width="0.75" fill="none" />
          <circle cx="253.1" cy="350.4" r="4.535" stroke="#000000" stroke-width="0.75" fill="none" />
          <circle cx="374.9" cy="350.4" r="4.535" stroke="#000000" stroke-width="0.75" fill="none" />
          <circle cx="417.5" cy="350.4" r="4.535" stroke="#000000" stroke-width="0.75" fill="none" />
          <circle cx="374.9" cy="489.3" r="4.535" stroke="#000000" stroke-width="0.75" fill="none" />
          <circle cx="417.5" cy="489.3" r="4.535" stroke="#000000" stroke-width="0.75" fill="none" />
          <circle cx="253.1" cy="489.3" r="4.535" stroke="#000000" stroke-width="0.75" fill="none" />
          <circle cx="210.5" cy="489.3" r="4.535" stroke="#000000" stroke-width="0.75" fill="none" />
          <circle cx="253.1" cy="73.52" r="4.535" stroke="#000000" stroke-width="0.75" fill="none" />
          <circle cx="210.5" cy="73.52" r="4.535" stroke="#000000" stroke-width="0.75" fill="none" />
          <circle cx="374.9" cy="73.52" r="4.535" stroke="#000000" stroke-width="0.75" fill="none" />
          <circle cx="417.5" cy="73.52" r="4.535" stroke="#000000" stroke-width="0.75" fill="none" />
          <circle cx="417.5" cy="212.4" r="4.535" stroke="#000000" stroke-width="0.75" fill="none" />
          <circle cx="374.9" cy="212.4" r="4.535" stroke="#000000" stroke-width="0.75" fill="none" />
          <circle cx="253.1" cy="212.4" r="4.535" stroke="#000000" stroke-width="0.75" fill="none" />
          <circle cx="210.5" cy="212.4" r="4.535" stroke="#000000" stroke-width="0.75" fill="none" />
          <circle cx="427.4" cy="124.4" r="3.827" stroke="#000000" stroke-width="0.75" fill="none" />
          <circle cx="444.4" cy="124.4" r="3.827" stroke="#000000" stroke-width="0.75" fill="none" />
          <circle cx="183.6" cy="124.4" r="3.827" stroke="#000000" stroke-width="0.75" fill="none" />
          <circle cx="200.6" cy="124.4" r="3.827" stroke="#000000" stroke-width="0.75" fill="none" />
          <circle cx="200.6" cy="288.8" r="3.827" stroke="#000000" stroke-width="0.75" fill="none" />
          <circle cx="183.6" cy="288.8" r="3.827" stroke="#000000" stroke-width="0.75" fill="none" />
          <circle cx="427.4" cy="288.8" r="3.827" stroke="#000000" stroke-width="0.75" fill="none" />
          <circle cx="444.4" cy="288.8" r="3.827" stroke="#000000" stroke-width="0.75" fill="none" />
          <circle cx="280" cy="350.4" r="3.827" stroke="#000000" stroke-width="0.75" fill="none" />
          <circle cx="348" cy="350.4" r="3.827" stroke="#000000" stroke-width="0.75" fill="none" />
          <circle cx="348" cy="480.8" r="3.827" stroke="#000000" stroke-width="0.75" fill="none" />
          <circle cx="280" cy="480.8" r="3.827" stroke="#000000" stroke-width="0.75" fill="none" />
          <circle cx="245.1" cy="430.1" r="3.827" stroke="#000000" stroke-width="0.75" fill="none" />
          <path d="M456.87775,331.14154 L456.87775,453.05206" stroke="#000000" stroke-width="0.75" stroke-linecap="round" stroke-linejoin="round" fill="none" />
          <path d="M441.87323,331.14154 L441.87323,453.05206" stroke="#000000" stroke-width="0.75" stroke-linecap="round" stroke-linejoin="round" fill="none" />
          <path d="M456.87775,453.05203 A7.5022464,7.5022464 0 0 1 441.87326,453.05203" stroke="#000000" stroke-width="0.75" stroke-linecap="round" stroke-linejoin="round" fill="none" />
          <path d="M441.87326,331.14154 A7.5022464,7.5022464 0 0 1 456.87775,331.14154" stroke="#000000" stroke-width="0.75" stroke-linecap="round" stroke-linejoin="round" fill="none" />
          <path d="M166.15427,242.8564 A4.5354333,4.5354333 0 0 1 175.22513,242.8564" stroke="#000000" stroke-width="0.75" stroke-linecap="round" stroke-linejoin="round" fill="none" />
          <path d="M175.22513,242.8564 A4.5354333,4.5354333 0 0 1 166.15427,242.8564" stroke="#000000" stroke-width="0.75" stroke-linecap="round" stroke-linejoin="round" fill="none" />
          <path d="M452.7609,242.8564 A4.5354333,4.5354333 0 0 1 461.83176,242.8564" stroke="#000000" stroke-width="0.75" stroke-linecap="round" stroke-linejoin="round" fill="none" />
          <path d="M461.83176,242.8564 A4.5354333,4.5354333 0 0 1 452.7609,242.8564" stroke="#000000" stroke-width="0.75" stroke-linecap="round" stroke-linejoin="round" fill="none" />
          <path d="M187.0448,311.12772 A3.543307,3.543307 0 0 1 194.13141,311.12772" stroke="#000000" stroke-width="0.75" stroke-linecap="round" stroke-linejoin="round" fill="none" />
          <path d="M194.13141,311.12772 A3.543307,3.543307 0 0 1 187.0448,311.12772" stroke="#000000" stroke-width="0.75" stroke-linecap="round" stroke-linejoin="round" fill="none" />
          <path d="M433.8546,311.12772 A3.543307,3.543307 0 0 1 440.94122,311.12772" stroke="#000000" stroke-width="0.75" stroke-linecap="round" stroke-linejoin="round" fill="none" />
          <path d="M440.94122,311.12772 A3.543307,3.543307 0 0 1 433.8546,311.12772" stroke="#000000" stroke-width="0.75" stroke-linecap="round" stroke-linejoin="round" fill="none" />
          <circle cx="292.4" cy="363.8" r="3.827" stroke="#000000" stroke-width="0.75" fill="none" />
          <circle cx="335.6" cy="363.8" r="3.827" stroke="#000000" stroke-width="0.75" fill="none" />
          <circle cx="438.2" cy="25.19" r="4.535" stroke="#000000" stroke-width="0.75" fill="none" />
          <circle cx="189.8" cy="25.19" r="4.535" stroke="#000000" stroke-width="0.75" fill="none" />
          <path d="M458.08658,58.107136 A3.543307,3.543307 0 0 1 465.1732,58.107136" stroke="#000000" stroke-width="0.75" stroke-linecap="round" stroke-linejoin="round" fill="none" />
          <path d="M465.1732,58.107136 A3.543307,3.543307 0 0 1 458.08658,58.107136" stroke="#000000" stroke-width="0.75" stroke-linecap="round" stroke-linejoin="round" fill="none" />
          <path d="M162.81284,58.107136 A3.543307,3.543307 0 0 1 169.89946,58.107136" stroke="#000000" stroke-width="0.75" stroke-linecap="round" stroke-linejoin="round" fill="none" />
          <path d="M169.89946,58.107136 A3.543307,3.543307 0 0 1 162.81284,58.107136" stroke="#000000" stroke-width="0.75" stroke-linecap="round" stroke-linejoin="round" fill="none" />
          <path d="M410.422,32.5588 L217.56403,32.5588" stroke="#000000" stroke-width="0.75" stroke-linecap="round" stroke-linejoin="round" fill="none" />
          <path d="M217.56403,17.321712 L410.422,17.321712" stroke="#000000" stroke-width="0.75" stroke-linecap="round" stroke-linejoin="round" fill="none" />
          <path d="M410.422,17.321712 A7.6185436,7.6185436 0 0 1 410.422,32.5588" stroke="#000000" stroke-width="0.75" stroke-linecap="round" stroke-linejoin="round" fill="none" />
          <path d="M217.56401,32.5588 A7.6185436,7.6185436 0 0 1 217.56401,17.321712" stroke="#000000" stroke-width="0.75" stroke-linecap="round" stroke-linejoin="round" fill="none" />
          <circle cx="422" cy="42.43" r="6.094" stroke="#000000" stroke-width="0.75" fill="none" />
          <circle cx="206" cy="42.43" r="6.094" stroke="#000000" stroke-width="0.75" fill="none" />
          <path d="M186.11276,453.05206 L186.11276,331.14154" stroke="#000000" stroke-width="0.75" stroke-linecap="round" stroke-linejoin="round" fill="none" />
          <path d="M171.10828,453.05206 L171.10828,331.14154" stroke="#000000" stroke-width="0.75" stroke-linecap="round" stroke-linejoin="round" fill="none" />
          <path d="M171.10828,453.05203 A7.5022464,7.5022464 0 0 0 186.11278,453.05203" stroke="#000000" stroke-width="0.75" stroke-linecap="round" stroke-linejoin="round" fill="none" />
          <path d="M186.11278,331.14154 A7.5022464,7.5022464 0 0 0 171.10828,331.14154" stroke="#000000" stroke-width="0.75" stroke-linecap="round" stroke-linejoin="round" fill="none" />
          <path d="M223.28435,90.7927 L404.70166,90.7927" stroke="#000000" stroke-width="0.75" stroke-linecap="round" stroke-linejoin="round" fill="none" />
          <path d="M404.70166,102.98169 L223.28435,102.98169" stroke="#000000" stroke-width="0.75" stroke-linecap="round" stroke-linejoin="round" fill="none" />
          <path d="M404.70166,90.79271 A6.094488,6.094488 0 1 1 404.70166,102.98168" stroke="#000000" stroke-width="0.75" stroke-linecap="round" stroke-linejoin="round" fill="none" />
          <path d="M223.28435,102.98168 A6.094488,6.094488 0 1 1 223.28435,90.79271" stroke="#000000" stroke-width="0.75" stroke-linecap="round" stroke-linejoin="round" fill="none" />
          <path d="M223.28435,136.14703 L404.70166,136.14703" stroke="#000000" stroke-width="0.75" stroke-linecap="round" stroke-linejoin="round" fill="none" />
          <path d="M404.70166,148.33601 L223.28435,148.33601" stroke="#000000" stroke-width="0.75" stroke-linecap="round" stroke-linejoin="round" fill="none" />
          <path d="M404.70166,136.14703 A6.094488,6.094488 0 1 1 404.70166,148.33601" stroke="#000000" stroke-width="0.75" stroke-linecap="round" stroke-linejoin="round" fill="none" />
          <path d="M223.28435,148.33601 A6.094488,6.094488 0 1 1 223.28435,136.14703" stroke="#000000" stroke-width="0.75" stroke-linecap="round" stroke-linejoin="round" fill="none" />
          <path d="M223.28435,226.85571 L404.70166,226.85571" stroke="#000000" stroke-width="0.75" stroke-linecap="round" stroke-linejoin="round" fill="none" />
          <path d="M404.70166,239.04468 L223.28435,239.04468" stroke="#000000" stroke-width="0.75" stroke-linecap="round" stroke-linejoin="round" fill="none" />
          <path d="M223.28435,239.04468 A6.094488,6.094488 0 1 1 223.28435,226.8557" stroke="#000000" stroke-width="0.75" stroke-linecap="round" stroke-linejoin="round" fill="none" />
          <path d="M404.70166,226.8557 A6.094488,6.094488 0 1 1 404.70166,239.04468" stroke="#000000" stroke-width="0.75" stroke-linecap="round" stroke-linejoin="round" fill="none" />
          <path d="M223.28435,181.50137 L404.70166,181.50137" stroke="#000000" stroke-width="0.75" stroke-linecap="round" stroke-linejoin="round" fill="none" />
          <path d="M404.70166,193.69034 L223.28435,193.69034" stroke="#000000" stroke-width="0.75" stroke-linecap="round" stroke-linejoin="round" fill="none" />
          <path d="M223.28435,193.69034 A6.094488,6.094488 0 1 1 223.28435,181.50137" stroke="#000000" stroke-width="0.75" stroke-linecap="round" stroke-linejoin="round" fill="none" />
          <path d="M404.70166,181.50137 A6.094488,6.094488 0 1 1 404.70166,193.69034" stroke="#000000" stroke-width="0.75" stroke-linecap="round" stroke-linejoin="round" fill="none" />
          <path d="M377.99585,313.61154 L249.99017,313.61154" stroke="#000000" stroke-width="0.75" stroke-linecap="round" stroke-linejoin="round" fill="none" />
          <path d="M249.99017,272.27118 L377.99585,272.27118" stroke="#000000" stroke-width="0.75" stroke-linecap="round" stroke-linejoin="round" fill="none" />
          <path d="M377.99585,272.27118 A20.670181,20.670181 0 0 1 377.99585,313.61154" stroke="#000000" stroke-width="0.75" stroke-linecap="round" stroke-linejoin="round" fill="none" />
          <path d="M249.99016,313.61154 A20.670181,20.670181 0 0 1 249.99016,272.27118" stroke="#000000" stroke-width="0.75" stroke-linecap="round" stroke-linejoin="round" fill="none" />
          <circle cx="445.6" cy="180.9" r="6.094" stroke="#000000" stroke-width="0.75" fill="none" />
          <circle cx="445.6" cy="104.6" r="6.094" stroke="#000000" stroke-width="0.75" fill="none" />
          <circle cx="182.4" cy="104.6" r="6.094" stroke="#000000" stroke-width="0.75" fill="none" />
          <circle cx="182.4" cy="180.9" r="6.094" stroke="#000000" stroke-width="0.75" fill="none" />
          <circle cx="257.3" cy="524.1" r="3.827" stroke="#000000" stroke-width="0.75" fill="none" />
          <circle cx="370.7" cy="524.1" r="3.827" stroke="#000000" stroke-width="0.75" fill="none" />
          <circle cx="381.8" cy="507.9" r="6.094" stroke="#000000" stroke-width="0.75" fill="none" />
          <circle cx="246.1" cy="507.9" r="6.094" stroke="#000000" stroke-width="0.75" fill="none" />
          <circle cx="470.6" cy="628.7" r="4.535" stroke="#000000" stroke-width="0.75" fill="none" />
          <circle cx="314" cy="620.7" r="4.535" stroke="#000000" stroke-width="0.75" fill="none" />
          <circle cx="382.8" cy="631.5" r="3.827" stroke="#000000" stroke-width="0.75" fill="none" />
          <circle cx="292.4" cy="565.2" r="3.827" stroke="#000000" stroke-width="0.75" fill="none" />
          <circle cx="335.6" cy="565.2" r="3.827" stroke="#000000" stroke-width="0.75" fill="none" />
          <path d="M194.10023,474.45352 A4.5354333,4.5354333 0 0 1 203.17111,474.45352" stroke="#000000" stroke-width="0.75" stroke-linecap="round" stroke-linejoin="round" fill="none" />
          <path d="M203.17111,474.45352 A4.5354333,4.5354333 0 0 1 194.10023,474.45352" stroke="#000000" stroke-width="0.75" stroke-linecap="round" stroke-linejoin="round" fill="none" />
          <path d="M424.8149,474.45352 A4.5354333,4.5354333 0 0 1 433.88577,474.45352" stroke="#000000" stroke-width="0.75" stroke-linecap="round" stroke-linejoin="round" fill="none" />
          <path d="M433.88577,474.45352 A4.5354333,4.5354333 0 0 1 424.8149,474.45352" stroke="#000000" stroke-width="0.75" stroke-linecap="round" stroke-linejoin="round" fill="none" />
          <circle cx="382.8" cy="430.1" r="3.827" stroke="#000000" stroke-width="0.75" fill="none" />
          <circle cx="292.4" cy="496.4" r="3.827" stroke="#000000" stroke-width="0.75" fill="none" />
          <circle cx="335.6" cy="496.4" r="3.827" stroke="#000000" stroke-width="0.75" fill="none" />
          <path d="M345.70694,457.75208 L281.9927,457.75208" stroke="#000000" stroke-width="0.75" stroke-linecap="round" stroke-linejoin="round" fill="none" />
          <path d="M364.00113,411.7012 L364.00113,439.4579" stroke="#000000" stroke-width="0.75" stroke-linecap="round" stroke-linejoin="round" fill="none" />
          <path d="M281.9927,393.40698 L345.70694,393.40698" stroke="#000000" stroke-width="0.75" stroke-linecap="round" stroke-linejoin="round" fill="none" />
          <path d="M263.69852,439.4579 L263.69852,411.7012" stroke="#000000" stroke-width="0.75" stroke-linecap="round" stroke-linejoin="round" fill="none" />
          <path d="M364.00113,439.4579 A18.294188,18.294188 0 0 1 345.70694,457.75208" stroke="#000000" stroke-width="0.75" stroke-linecap="round" stroke-linejoin="round" fill="none" />
          <path d="M345.70694,393.407 A18.294188,18.294188 0 0 1 364.00113,411.7012" stroke="#000000" stroke-width="0.75" stroke-linecap="round" stroke-linejoin="round" fill="none" />
          <path d="M263.69852,411.7012 A18.294188,18.294188 0 0 1 281.9927,393.407" stroke="#000000" stroke-width="0.75" stroke-linecap="round" stroke-linejoin="round" fill="none" />
          <path d="M281.9927,457.75208 A18.294188,18.294188 0 0 1 263.69852,439.4579" stroke="#000000" stroke-width="0.75" stroke-linecap="round" stroke-linejoin="round" fill="none" />
          <path d="M219.57602,596.7186 L219.57602,558.2336" stroke="#000000" stroke-width="0.75" stroke-linecap="round" stroke-linejoin="round" fill="none" />
          <path d="M248.77158,558.2336 L248.77158,596.7186" stroke="#000000" stroke-width="0.75" stroke-linecap="round" stroke-linejoin="round" fill="none" />
          <path d="M234.1738,611.3164 A14.597771,14.597771 0 0 1 219.57603,596.7186" stroke="#000000" stroke-width="0.75" stroke-linecap="round" stroke-linejoin="round" fill="none" />
          <path d="M219.57603,558.2336 A14.597771,14.597771 0 0 1 248.77158,558.2336" stroke="#000000" stroke-width="0.75" stroke-linecap="round" stroke-linejoin="round" fill="none" />
          <path d="M248.77158,596.7186 A14.597771,14.597771 0 0 1 234.1738,611.3164" stroke="#000000" stroke-width="0.75" stroke-linecap="round" stroke-linejoin="round" fill="none" />
          <path d="M194.29037,524.77856 L194.29037,559.90137 L194.29037,572.16534" stroke="#000000" stroke-width="0.75" stroke-linecap="round" stroke-linejoin="round" fill="none" />
          <path d="M447.56677,5.349716 L313.993,5.349716 L180.41925,5.349716" stroke="#000000" stroke-width="0.75" stroke-linecap="round" stroke-linejoin="round" fill="none" />
          <path d="M433.69565,572.16534 L433.69565,559.90137 L433.69565,524.77856" stroke="#000000" stroke-width="0.75" stroke-linecap="round" stroke-linejoin="round" fill="none" />
          <path d="M173.12811,9.476867 L168.83029,16.636446 L167.17863,19.38788 L146.92755,53.12346" stroke="#000000" stroke-width="0.75" stroke-linecap="round" stroke-linejoin="round" fill="none" />
          <path d="M481.05844,53.12346 L460.80737,19.38788 L454.8579,9.476867" stroke="#000000" stroke-width="0.75" stroke-linecap="round" stroke-linejoin="round" fill="none" />
          <path d="M192.50166,576.2984 L177.98761,589.92596 L147.64978,618.4107" stroke="#000000" stroke-width="0.75" stroke-linecap="round" stroke-linejoin="round" fill="none" />
          <path d="M480.33624,618.4107 L449.9984,589.92596 L435.48438,576.2984" stroke="#000000" stroke-width="0.75" stroke-linecap="round" stroke-linejoin="round" fill="none" />
          <path d="M378.92807,596.7186 L378.92807,558.2336" stroke="#000000" stroke-width="0.75" stroke-linecap="round" stroke-linejoin="round" fill="none" />
          <path d="M408.1236,558.2336 L408.1236,596.7186" stroke="#000000" stroke-width="0.75" stroke-linecap="round" stroke-linejoin="round" fill="none" />
          <path d="M393.52585,611.3164 A14.597771,14.597771 0 0 1 378.92807,596.7186" stroke="#000000" stroke-width="0.75" stroke-linecap="round" stroke-linejoin="round" fill="none" />
          <path d="M378.92807,558.2336 A14.597771,14.597771 0 0 1 408.12363,558.2336" stroke="#000000" stroke-width="0.75" stroke-linecap="round" stroke-linejoin="round" fill="none" />
          <path d="M408.12363,596.7186 A14.597771,14.597771 0 0 1 393.52585,611.3164" stroke="#000000" stroke-width="0.75" stroke-linecap="round" stroke-linejoin="round" fill="none" />
          <path d="M460.59186,658.0814 L396.73615,766.3441" stroke="#000000" stroke-width="0.75" stroke-linecap="round" stroke-linejoin="round" fill="none" />
          <path d="M167.39415,658.0814 L231.24988,766.3441" stroke="#000000" stroke-width="0.75" stroke-linecap="round" stroke-linejoin="round" fill="none" />
          <path d="M145.71533,57.598568 A8.503937,8.503937 0 0 1 146.92755,53.123455" stroke="#000000" stroke-width="0.75" stroke-linecap="round" stroke-linejoin="round" fill="none" />
          <path d="M481.05847,53.123455 A8.503937,8.503937 0 0 1 482.2707,57.598568" stroke="#000000" stroke-width="0.75" stroke-linecap="round" stroke-linejoin="round" fill="none" />
          <path d="M477.77448,446.44235 L482.2707,57.598564" stroke="#000000" stroke-width="0.75" stroke-linecap="round" stroke-linejoin="round" fill="none" />
          <path d="M477.7745,446.44235 A8.503937,8.503937 0 0 1 476.57034,450.70734" stroke="#000000" stroke-width="0.75" stroke-linecap="round" stroke-linejoin="round" fill="none" />
          <path d="M151.41566,450.70734 A8.503937,8.503937 0 0 1 150.2115,446.44235" stroke="#000000" stroke-width="0.75" stroke-linecap="round" stroke-linejoin="round" fill="none" />
          <path d="M151.41566,450.70734 L193.08563,520.4153" stroke="#000000" stroke-width="0.75" stroke-linecap="round" stroke-linejoin="round" fill="none" />
          <path d="M150.21152,446.44235 L145.71533,57.598564" stroke="#000000" stroke-width="0.75" stroke-linecap="round" stroke-linejoin="round" fill="none" />
          <path d="M447.56677,5.349716 A8.503937,8.503937 0 0 1 454.8579,9.476867" stroke="#000000" stroke-width="0.75" stroke-linecap="round" stroke-linejoin="round" fill="none" />
          <path d="M173.12811,9.476867 A8.503937,8.503937 0 0 1 180.41925,5.349716" stroke="#000000" stroke-width="0.75" stroke-linecap="round" stroke-linejoin="round" fill="none" />
          <path d="M167.39415,658.0814 C166.98697,657.39014 166.47554,656.75104 165.89027,656.2022" stroke="#000000" stroke-width="0.75" stroke-linecap="round" stroke-linejoin="round" fill="none" />
          <path d="M462.09576,656.2022 C461.51047,656.75104 460.99905,657.39014 460.59186,658.0814" stroke="#000000" stroke-width="0.75" stroke-linecap="round" stroke-linejoin="round" fill="none" />
          <path d="M480.33624,639.07587 L462.09576,656.2022" stroke="#000000" stroke-width="0.75" stroke-linecap="round" stroke-linejoin="round" fill="none" />
          <path d="M165.89027,656.2022 L147.64978,639.07587" stroke="#000000" stroke-width="0.75" stroke-linecap="round" stroke-linejoin="round" fill="none" />
          <path d="M193.08565,520.4153 A8.503937,8.503937 0 0 1 194.29037,524.77856" stroke="#000000" stroke-width="0.75" stroke-linecap="round" stroke-linejoin="round" fill="none" />
          <path d="M433.69565,524.77856 A8.503937,8.503937 0 0 1 434.9004,520.4153" stroke="#000000" stroke-width="0.75" stroke-linecap="round" stroke-linejoin="round" fill="none" />
          <path d="M434.9004,520.4153 L476.57034,450.70734" stroke="#000000" stroke-width="0.75" stroke-linecap="round" stroke-linejoin="round" fill="none" />
          <path d="M435.48434,576.2984 A5.6692915,5.6692915 0 0 1 433.69565,572.1654" stroke="#000000" stroke-width="0.75" stroke-linecap="round" stroke-linejoin="round" fill="none" />
          <path d="M194.29037,572.1654 A5.6692915,5.6692915 0 0 1 192.50166,576.2984" stroke="#000000" stroke-width="0.75" stroke-linecap="round" stroke-linejoin="round" fill="none" />
          <path d="M147.64977,618.4107 A14.173228,14.173228 0 0 0 143.178,628.7433" stroke="#000000" stroke-width="0.75" stroke-linecap="round" stroke-linejoin="round" fill="none" />
          <path d="M143.178,628.7433 A14.173228,14.173228 0 0 0 147.64977,639.07587" stroke="#000000" stroke-width="0.75" stroke-linecap="round" stroke-linejoin="round" fill="none" />
          <path d="M480.33624,618.4107 A14.173228,14.173228 0 0 1 484.808,628.7433" stroke="#000000" stroke-width="0.75" stroke-linecap="round" stroke-linejoin="round" fill="none" />
          <path d="M484.808,628.7433 A14.173228,14.173228 0 0 1 480.33624,639.07587" stroke="#000000" stroke-width="0.75" stroke-linecap="round" stroke-linejoin="round" fill="none" />
          <path d="M231.24988,766.34406 A8.503937,8.503937 0 0 0 238.57463,770.5277" stroke="#000000" stroke-width="0.75" stroke-linecap="round" stroke-linejoin="round" fill="none" />
          <path d="M389.4114,770.5277 A8.503937,8.503937 0 0 0 396.73615,766.34406" stroke="#000000" stroke-width="0.75" stroke-linecap="round" stroke-linejoin="round" fill="none" />
        </g>
      </g>
    </g>
  </g>
</svg>