  0
SECTION
  2
HEADER
  9
$ACADVER
  1
AC1024
  9
$ACADMAINTVER
 70
6
  9
$DWGCODEPAGE
  3
ANSI_1252
  9
$LASTSAVEDBY
  1
ezdxf
  9
$INSBASE
 10
0.0
 20
0.0
 30
0.0
  9
$EXTMIN
 10
1e+20
 20
1e+20
 30
1e+20
  9
$EXTMAX
 10
-1e+20
 20
-1e+20
 30
-1e+20
  9
$LIMMIN
 10
0.0
 20
0.0
  9
$LIMMAX
 10
420.0
 20
297.0
  9
$ORTHOMODE
 70
0
  9
$REGENMODE
 70
1
  9
$FILLMODE
 70
1
  9
$QTEXTMODE
 70
0
  9
$MIRRTEXT
 70
1
  9
$LTSCALE
 40
1.0
  9
$ATTMODE
 70
1
  9
$TEXTSIZE
 40
2.5
  9
$TRACEWID
 40
1.0
  9
$TEXTSTYLE
  7
OpenSans
  9
$CLAYER
  8
0
  9
$CELTYPE
  6
ByLayer
  9
$CECOLOR
 62
256
  9
$CELTSCALE
 40
1.0
  9
$DISPSILH
 70
0
  9
$DIMSCALE
 40
1.0
  9
$DIMASZ
 40
0.175
  9
$DIMEXO
 40
0.125
  9
$DIMDLI
 40
3.75
  9
$DIMRND
 40
0.0
  9
$DIMDLE
 40
0.0
  9
$DIMEXE
 40
0.375
  9
$DIMTP
 40
0.0
  9
$DIMTM
 40
0.0
  9
$DIMTXT
 40
0.25
  9
$DIMCEN
 40
2.5
  9
$DIMTSZ
 40
0.0
  9
$DIMTOL
 70
0
  9
$DIMLIM
 70
0
  9
$DIMTIH
 70
0
  9
$DIMTOH
 70
0
  9
$DIMSE1
 70
0
  9
$DIMSE2
 70
0
  9
$DIMTAD
 70
1
  9
$DIMZIN
 70
12
  9
$DIMBLK
  1
ARCHTICK
  9
$DIMASO
 70
1
  9
$DIMSHO
 70
1
  9
$DIMPOST
  1

  9
$DIMAPOST
  1

  9
$DIMALT
 70
0
  9
$DIMALTD
 70
3
  9
$DIMALTF
 40
0.03937007874
  9
$DIMLFAC
 40
100.0
  9
$DIMTOFL
 70
1
  9
$DIMTVP
 40
0.0
  9
$DIMTIX
 70
0
  9
$DIMSOXD
 70
0
  9
$DIMSAH
 70
0
  9
$DIMBLK1
  1

  9
$DIMBLK2
  1

  9
$DIMSTYLE
  2
EZDXF
  9
$DIMCLRD
 70
0
  9
$DIMCLRE
 70
0
  9
$DIMCLRT
 70
0
  9
$DIMTFAC
 40
0.5
  9
$DIMGAP
 40
0.1
  9
$DIMJUST
 70
0
  9
$DIMSD1
 70
0
  9
$DIMSD2
 70
0
  9
$DIMTOLJ
 70
0
  9
$DIMTZIN
 70
8
  9
$DIMALTZ
 70
0
  9
$DIMALTTZ
 70
0
  9
$DIMUPT
 70
1
  9
$DIMDEC
 70
2
  9
$DIMTDEC
 70
2
  9
$DIMALTU
 70
2
  9
$DIMALTTD
 70
3
  9
$DIMTXSTY
  7
OpenSansCondensed-Light
  9
$DIMAUNIT
 70
0
  9
$DIMADEC
 70
2
  9
$DIMALTRND
 40
0.0
  9
$DIMAZIN
 70
3
  9
$DIMDSEP
 70
46
  9
$DIMATFIT
 70
3
  9
$DIMFRAC
 70
0
  9
$DIMLDRBLK
  1

  9
$DIMLUNIT
 70
2
  9
$DIMLWD
 70
-2
  9
$DIMLWE
 70
-2
  9
$DIMTMOVE
 70
2
  9
$DIMFXL
 40
1.0
  9
$DIMFXLON
 70
0
  9
$DIMJOGANG
 40
0.785398163397
  9
$DIMTFILL
 70
0
  9
$DIMTFILLCLR
 70
0
  9
$DIMARCSYM
 70
0
  9
$DIMLTYPE
  6

  9
$DIMLTEX1
  6

  9
$DIMLTEX2
  6

  9
$DIMTXTDIRECTION
 70
0
  9
$LUNITS
 70
2
  9
$LUPREC
 70
4
  9
$SKETCHINC
 40
1.0
  9
$FILLETRAD
 40
10.0
  9
$AUNITS
 70
0
  9
$AUPREC
 70
2
  9
$MENU
  1
.
  9
$ELEVATION
 40
0.0
  9
$PELEVATION
 40
0.0
  9
$THICKNESS
 40
0.0
  9
$LIMCHECK
 70
0
  9
$CHAMFERA
 40
0.0
  9
$CHAMFERB
 40
0.0
  9
$CHAMFERC
 40
0.0
  9
$CHAMFERD
 40
0.0
  9
$SKPOLY
 70
0
  9
$TDCREATE
 40
2461317.4391087964
  9
$TDUCREATE
 40
2458532.153996898
  9
$TDUPDATE
 40
2461317.4391087964
  9
$TDUUPDATE
 40
2458532.1544311
  9
$TDINDWG
 40
0.0
  9
$TDUSRTIMER
 40
0.0
  9
$USRTIMER
 70
1
  9
$ANGBASE
 50
0.0
  9
$ANGDIR
 70
0
  9
$PDMODE
 70
0
  9
$PDSIZE
 40
0.0
  9
$PLINEWID
 40
0.0
  9
$SPLFRAME
 70
0
  9
$SPLINETYPE
 70
6
  9
$SPLINESEGS
 70
8
  9
$HANDSEED
  5
EE
  9
$SURFTAB1
 70
6
  9
$SURFTAB2
 70
6
  9
$SURFTYPE
 70
6
  9
$SURFU
 70
6
  9
$SURFV
 70
6
  9
$UCSBASE
  2

  9
$UCSNAME
  2

  9
$UCSORG
 10
0.0
 20
0.0
 30
0.0
  9
$UCSXDIR
 10
1.0
 20
0.0
 30
0.0
  9
$UCSYDIR
 10
0.0
 20
1.0
 30
0.0
  9
$UCSORTHOREF
  2

  9
$UCSORTHOVIEW
 70
0
  9
$UCSORGTOP
 10
0.0
 20
0.0
 30
0.0
  9
$UCSORGBOTTOM
 10
0.0
 20
0.0
 30
0.0
  9
$UCSORGLEFT
 10
0.0
 20
0.0
 30
0.0
  9
$UCSORGRIGHT
 10
0.0
 20
0.0
 30
0.0
  9
$UCSORGFRONT
 10
0.0
 20
0.0
 30
0.0
  9
$UCSORGBACK
 10
0.0
 20
0.0
 30
0.0
  9
$PUCSBASE
  2

  9
$PUCSNAME
  2

  9
$PUCSORG
 10
0.0
 20
0.0
 30
0.0
  9
$PUCSXDIR
 10
1.0
 20
0.0
 30
0.0
  9
$PUCSYDIR
 10
0.0
 20
1.0
 30
0.0
  9
$PUCSORTHOREF
  2

  9
$PUCSORTHOVIEW
 70
0
  9
$PUCSORGTOP
 10
0.0
 20
0.0
 30
0.0
  9
$PUCSORGBOTTOM
 10
0.0
 20
0.0
 30
0.0
  9
$PUCSORGLEFT
 10
0.0
 20
0.0
 30
0.0
  9
$PUCSORGRIGHT
 10
0.0
 20
0.0
 30
0.0
  9
$PUCSORGFRONT
 10
0.0
 20
0.0
 30
0.0
  9
$PUCSORGBACK
 10
0.0
 20
0.0
 30
0.0
  9
$USERI1
 70
0
  9
$USERI2
 70
0
  9
$USERI3
 70
0
  9
$USERI4
 70
0
  9
$USERI5
 70
0
  9
$USERR1
 40
0.0
  9
$USERR2
 40
0.0
  9
$USERR3
 40
0.0
  9
$USERR4
 40
0.0
  9
$USERR5
 40
0.0
  9
$WORLDVIEW
 70
1
  9
$SHADEDGE
 70
3
  9
$SHADEDIF
 70
70
  9
$TILEMODE
 70
1
  9
$MAXACTVP
 70
64
  9
$PINSBASE
 10
0.0
 20
0.0
 30
0.0
  9
$PLIMCHECK
 70
0
  9
$PEXTMIN
 10
1e+20
 20
1e+20
 30
1e+20
  9
$PEXTMAX
 10
-1e+20
 20
-1e+20
 30
-1e+20
  9
$PLIMMIN
 10
0.0
 20
0.0
  9
$PLIMMAX
 10
420.0
 20
297.0
  9
$UNITMODE
 70
0
  9
$VISRETAIN
 70
1
  9
$PLINEGEN
 70
0
  9
$PSLTSCALE
 70
1
  9
$TREEDEPTH
 70
3020
  9
$CMLSTYLE
  2
Standard
  9
$CMLJUST
 70
0
  9
$CMLSCALE
 40
20.0
  9
$PROXYGRAPHICS
 70
1
  9
$MEASUREMENT
 70
1
  9
$CELWEIGHT
370
-1
  9
$ENDCAPS
280
0
  9
$JOINSTYLE
280
0
  9
$LWDISPLAY
290
0
  9
$INSUNITS
 70
4
  9
$HYPERLINKBASE
  1

  9
$STYLESHEET
  1

  9
$XEDIT
290
1
  9
$CEPSNTYPE
380
0
  9
$PSTYLEMODE
290
1
  9
$FINGERPRINTGUID
  2
{41EA1D27-1E0A-4373-80D0-96E2F2B65D6E}
  9
$VERSIONGUID
  2
{A2836E93-BB5F-464A-B420-6186C6BA2C39}
  9
$EXTNAMES
290
1
  9
$PSVPSCALE
 40
0.0
  9
$OLESTARTUP
290
0
  9
$SORTENTS
280
127
  9
$INDEXCTL
280
0
  9
$HIDETEXT
280
1
  9
$XCLIPFRAME
280
1
  9
$HALOGAP
280
0
  9
$OBSCOLOR
 70
257
  9
$OBSLTYPE
280
0
  9
$INTERSECTIONDISPLAY
280
0
  9
$INTERSECTIONCOLOR
 70
257
  9
$DIMASSOC
280
2
  9
$PROJECTNAME
  1

  9
$CAMERADISPLAY
290
0
  9
$LENSLENGTH
 40
50.0
  9
$CAMERAHEIGHT
 40
0.0
  9
$STEPSPERSEC
 40
24.0
  9
$STEPSIZE
 40
100.0
  9
$3DDWFPREC
 40
2.0
  9
$PSOLWIDTH
 40
0.005
  9
$PSOLHEIGHT
 40
0.08
  9
$LOFTANG1
 40
1.570796326795
  9
$LOFTANG2
 40
1.570796326795
  9
$LOFTMAG1
 40
0.0
  9
$LOFTMAG2
 40
0.0
  9
$LOFTPARAM
 70
7
  9
$LOFTNORMALS
280
1
  9
$LATITUDE
 40
37.795
  9
$LONGITUDE
 40
-122.394
  9
$NORTHDIRECTION
 40
0.0
  9
$TIMEZONE
 70
-8000
  9
$LIGHTGLYPHDISPLAY
280
1
  9
$TILEMODELIGHTSYNCH
280
1
  9
$CMATERIAL
347
20
  9
$SOLIDHIST
280
0
  9
$SHOWHIST
280
1
  9
$DWFFRAME
280
2
  9
$DGNFRAME
280
2
  9
$REALWORLDSCALE
290
1
  9
$INTERFERECOLOR
 62
256
  9
$CSHADOW
280
0
  9
$SHADOWPLANELOCATION
 40
0.0
  0
ENDSEC
  0
SECTION
  2
CLASSES
  0
CLASS
  1
ACDBDICTIONARYWDFLT
  2
AcDbDictionaryWithDefault
  3
ObjectDBX Classes
 90
0
 91
0
280
0
281
0
  0
CLASS
  1
SUN
  2
AcDbSun
  3
SCENEOE
 90
1153
 91
0
280
0
281
0
  0
CLASS
  1
VISUALSTYLE
  2
AcDbVisualStyle
  3
ObjectDBX Classes
 90
4095
 91
0
280
0
281
0
  0
CLASS
  1
MATERIAL
  2
AcDbMaterial
  3
ObjectDBX Classes
 90
1153
 91
0
280
0
281
0
  0
CLASS
  1
SCALE
  2
AcDbScale
  3
ObjectDBX Classes
 90
1153
 91
0
280
0
281
0
  0
CLASS
  1
TABLESTYLE
  2
AcDbTableStyle
  3
ObjectDBX Classes
 90
4095
 91
0
280
0
281
0
  0
CLASS
  1
MLEADERSTYLE
  2
AcDbMLeaderStyle
  3
ACDB_MLEADERSTYLE_CLASS
 90
4095
 91
0
280
0
281
0
  0
CLASS
  1
DICTIONARYVAR
  2
AcDbDictionaryVar
  3
ObjectDBX Classes
 90
0
 91
0
280
0
281
0
  0
CLASS
  1
CELLSTYLEMAP
  2
AcDbCellStyleMap
  3
ObjectDBX Classes
 90
1152
 91
0
280
0
281
0
  0
CLASS
  1
MENTALRAYRENDERSETTINGS
  2
AcDbMentalRayRenderSettings
  3
SCENEOE
 90
1024
 91
0
280
0
281
0
  0
CLASS
  1
ACDBDETAILVIEWSTYLE
  2
AcDbDetailViewStyle
  3
ObjectDBX Classes
 90
1025
 91
0
280
0
281
0
  0
CLASS
  1
ACDBSECTIONVIEWSTYLE
  2
AcDbSectionViewStyle
  3
ObjectDBX Classes
 90
1025
 91
0
280
0
281
0
  0
CLASS
  1
RASTERVARIABLES
  2
AcDbRasterVariables
  3
ISM
 90
0
 91
0
280
0
281
0
  0
CLASS
  1
LAYOUT
  2
AcDbLayout
  3
ObjectDBX Classes
 90
0
 91
0
280
0
281
0
  0
CLASS
  1
ACDBPLACEHOLDER
  2
AcDbPlaceHolder
  3
ObjectDBX Classes
 90
0
 91
0
280
0
281
0
  0
ENDSEC
  0
SECTION
  2
TABLES
  0
TABLE
  2
VPORT
  5
8
330
0
100
AcDbSymbolTable
 70
1
  0
VPORT
  5
23
330
8
100
AcDbSymbolTableRecord
100
AcDbViewportTableRecord
  2
*Active
 70
0
 10
0.0
 20
0.0
 11
1.0
 21
1.0
 12
0.0
 22
0.0
 13
0.0
 23
0.0
 14
0.5
 24
0.5
 15
0.5
 25
0.5
 16
0.0
 26
0.0
 36
1.0
 17
0.0
 27
0.0
 37
0.0
 40
1000.0
 41
1.34
 42
50.0
 43
0.0
 44
0.0
 50
0.0
 51
0.0
 71
0
 72
1000
 73
1
 74
3
 75
0
 76
0
 77
0
 78
0
281
0
 65
0
146
0.0
  0
ENDTAB
  0
TABLE
  2
LTYPE
  5
2
330
0
100
AcDbSymbolTable
 70
21
  0
LTYPE
  5
24
330
2
100
AcDbSymbolTableRecord
100
AcDbLinetypeTableRecord
  2
ByBlock
 70
0
  3

 72
65
 73
0
 40
0.0
  0
LTYPE
  5
25
330
2
100
AcDbSymbolTableRecord
100
AcDbLinetypeTableRecord
  2
ByLayer
 70
0
  3

 72
65
 73
0
 40
0.0
  0
LTYPE
  5
26
330
2
100
AcDbSymbolTableRecord
100
AcDbLinetypeTableRecord
  2
Continuous
 70
0
  3

 72
65
 73
0
 40
0.0
  0
LTYPE
  5
2F
330
2
100
AcDbSymbolTableRecord
100
AcDbLinetypeTableRecord
  2
CENTER
 70
0
  3
Center ____ _ ____ _ ____ _ ____ _ ____ _ ____
 72
65
 73
4
 40
5.08
 49
3.175
 74
0
 49
-0.635
 74
0
 49
0.635
 74
0
 49
-0.635
 74
0
  0
LTYPE
  5
30
330
2
100
AcDbSymbolTableRecord
100
AcDbLinetypeTableRecord
  2
CENTERX2
 70
0
  3
Center (2x) ________  __  ________  __  ________
 72
65
 73
4
 40
8.89
 49
6.35
 74
0
 49
-0.635
 74
0
 49
1.27
 74
0
 49
-0.635
 74
0
  0
LTYPE
  5
31
330
2
100
AcDbSymbolTableRecord
100
AcDbLinetypeTableRecord
  2
CENTER2
 70
0
  3
Center (.5x) ____ _ ____ _ ____ _ ____ _ ____
 72
65
 73
4
 40
2.54
 49
1.587
 74
0
 49
-0.318
 74
0
 49
0.318
 74
0
 49
-0.318
 74
0
  0
LTYPE
  5
32
330
2
100
AcDbSymbolTableRecord
100
AcDbLinetypeTableRecord
  2
DASHED
 70
0
  3
Dashed __ __ __ __ __ __ __ __ __ __ __ __ __ _
 72
65
 73
2
 40
1.524
 49
1.27
 74
0
 49
-0.254
 74
0
  0
LTYPE
  5
33
330
2
100
AcDbSymbolTableRecord
100
AcDbLinetypeTableRecord
  2
DASHEDX2
 70
0
  3
Dashed (2x) ____  ____  ____  ____  ____  ____
 72
65
 73
2
 40
3.048
 49
2.54
 74
0
 49
-0.508
 74
0
  0
LTYPE
  5
34
330
2
100
AcDbSymbolTableRecord
100
AcDbLinetypeTableRecord
  2
DASHED2
 70
0
  3
Dashed (.5x) _ _ _ _ _ _ _ _ _ _ _ _ _ _
 72
65
 73
2
 40
0.762
 49
0.635
 74
0
 49
-0.127
 74
0
  0
LTYPE
  5
35
330
2
100
AcDbSymbolTableRecord
100
AcDbLinetypeTableRecord
  2
PHANTOM
 70
0
  3
Phantom ______  __  __  ______  __  __  ______
 72
65
 73
6
 40
6.35
 49
3.175
 74
0
 49
-0.635
 74
0
 49
0.635
 74
0
 49
-0.635
 74
0
 49
0.635
 74
0
 49
-0.635
 74
0
  0
LTYPE
  5
36
330
2
100
AcDbSymbolTableRecord
100
AcDbLinetypeTableRecord
  2
PHANTOMX2
 70
0
  3
Phantom (2x)____________    ____    ____    ____________
 72
65
 73
6
 40
10.795
 49
6.35
 74
0
 49
-0.635
 74
0
 49
1.27
 74
0
 49
-0.635
 74
0
 49
1.27
 74
0
 49
-0.635
 74
0
  0
LTYPE
  5
37
330
2
100
AcDbSymbolTableRecord
100
AcDbLinetypeTableRecord
  2
PHANTOM2
 70
0
  3
Phantom (.5x) ___ _ _ ___ _ _ ___ _ _ ___ _ _ ___
 72
65
 73
6
 40
3.175
 49
1.587
 74
0
 49
-0.318
 74
0
 49
0.318
 74
0
 49
-0.318
 74
0
 49
0.318
 74
0
 49
-0.318
 74
0
  0
LTYPE
  5
38
330
2
100
AcDbSymbolTableRecord
100
AcDbLinetypeTableRecord
  2
DASHDOT
 70
0
  3
Dash dot __ . __ . __ . __ . __ . __ . __ . __
 72
65
 73
4
 40
3.556
 49
2.54
 74
0
 49
-0.508
 74
0
 49
0.0
 74
0
 49
-0.508
 74
0
  0
LTYPE
  5
39
330
2
100
AcDbSymbolTableRecord
100
AcDbLinetypeTableRecord
  2
DASHDOTX2
 70
0
  3
Dash dot (2x) ____  .  ____  .  ____  .  ____
 72
65
 73
4
 40
6.096
 49
5.08
 74
0
 49
-0.508
 74
0
 49
0.0
 74
0
 49
-0.508
 74
0
  0
LTYPE
  5
3A
330
2
100
AcDbSymbolTableRecord
100
AcDbLinetypeTableRecord
  2
DASHDOT2
 70
0
  3
Dash dot (.5x) _ . _ . _ . _ . _ . _ . _ . _
 72
65
 73
4
 40
1.778
 49
1.27
 74
0
 49
-0.254
 74
0
 49
0.0
 74
0
 49
-0.254
 74
0
  0
LTYPE
  5
3B
330
2
100
AcDbSymbolTableRecord
100
AcDbLinetypeTableRecord
  2
DOT
 70
0
  3
Dot .  .  .  .  .  .  .  .  .  .  .  .  .  .  .  .
 72
65
 73
2
 40
0.508
 49
0.0
 74
0
 49
-0.508
 74
0
  0
LTYPE
  5
3C
330
2
100
AcDbSymbolTableRecord
100
AcDbLinetypeTableRecord
  2
DOTX2
 70
0
  3
Dot (2x) .    .    .    .    .    .    .    . 
 72
65
 73
2
 40
1.016
 49
0.0
 74
0
 49
-1.016
 74
0
  0
LTYPE
  5
3D
330
2
100
AcDbSymbolTableRecord
100
AcDbLinetypeTableRecord
  2
DOT2
 70
0
  3
Dot (.5) . . . . . . . . . . . . . . . . . . . 
 72
65
 73
2
 40
0.254
 49
0.0
 74
0
 49
-0.254
 74
0
  0
LTYPE
  5
3E
330
2
100
AcDbSymbolTableRecord
100
AcDbLinetypeTableRecord
  2
DIVIDE
 70
0
  3
Divide __ . . __ . . __ . . __ . . __ . . __
 72
65
 73
6
 40
4.064
 49
2.54
 74
0
 49
-0.508
 74
0
 49
0.0
 74
0
 49
-0.508
 74
0
 49
0.0
 74
0
 49
-0.508
 74
0
  0
LTYPE
  5
3F
330
2
100
AcDbSymbolTableRecord
100
AcDbLinetypeTableRecord
  2
DIVIDEX2
 70
0
  3
Divide (2x) ____  . .  ____  . .  ____  . .  ____
 72
65
 73
6
 40
6.604
 49
5.08
 74
0
 49
-0.508
 74
0
 49
0.0
 74
0
 49
-0.508
 74
0
 49
0.0
 74
0
 49
-0.508
 74
0
  0
LTYPE
  5
40
330
2
100
AcDbSymbolTableRecord
100
AcDbLinetypeTableRecord
  2
DIVIDE2
 70
0
  3
Divide(.5x) _ . _ . _ . _ . _ . _ . _ . _
 72
65
 73
6
 40
2.032
 49
1.27
 74
0
 49
-0.254
 74
0
 49
0.0
 74
0
 49
-0.254
 74
0
 49
0.0
 74
0
 49
-0.254
 74
0
  0
ENDTAB
  0
TABLE
  2
LAYER
  5
1
330
0
100
AcDbSymbolTable
 70
2
  0
LAYER
  5
27
330
1
100
AcDbSymbolTableRecord
100
AcDbLayerTableRecord
  2
0
 70
0
 62
7
  6
Continuous
370
-3
390
13
347
21
  0
LAYER
  5
28
330
1
100
AcDbSymbolTableRecord
100
AcDbLayerTableRecord
  2
Defpoints
 70
0
 62
7
  6
Continuous
290
0
370
-3
390
13
347
21
  0
ENDTAB
  0
TABLE
  2
STYLE
  5
5
330
0
100
AcDbSymbolTable
 70
26
  0
STYLE
  5
29
330
5
100
AcDbSymbolTableRecord
100
AcDbTextStyleTableRecord
  2
Standard
 70
0
 40
0.0
 41
1.0
 50
0.0
 71
0
 42
2.5
  3
txt
  4

  0
STYLE
  5
41
330
5
100
AcDbSymbolTableRecord
100
AcDbTextStyleTableRecord
  2
OpenSans-Light
 70
0
 40
0.0
 41
1.0
 50
0.0
 71
0
 42
2.5
  3
OpenSans-Light.ttf
  4

  0
STYLE
  5
42
330
5
100
AcDbSymbolTableRecord
100
AcDbTextStyleTableRecord
  2
OpenSans-Light-Italic
 70
0
 40
0.0
 41
1.0
 50
0.0
 71
0
 42
2.5
  3
OpenSans-LightItalic.ttf
  4

  0
STYLE
  5
43
330
5
100
AcDbSymbolTableRecord
100
AcDbTextStyleTableRecord
  2
OpenSans
 70
0
 40
0.0
 41
1.0
 50
0.0
 71
0
 42
2.5
  3
OpenSans-Regular.ttf
  4

  0
STYLE
  5
44
330
5
100
AcDbSymbolTableRecord
100
AcDbTextStyleTableRecord
  2
OpenSans-Italic
 70
0
 40
0.0
 41
1.0
 50
0.0
 71
0
 42
2.5
  3
OpenSans-Italic.ttf
  4

  0
STYLE
  5
45
330
5
100
AcDbSymbolTableRecord
100
AcDbTextStyleTableRecord
  2
OpenSans-SemiBold
 70
0
 40
0.0
 41
1.0
 50
0.0
 71
0
 42
2.5
  3
OpenSans-SemiBold.ttf
  4

  0
STYLE
  5
46
330
5
100
AcDbSymbolTableRecord
100
AcDbTextStyleTableRecord
  2
OpenSans-SemiBoldItalic
 70
0
 40
0.0
 41
1.0
 50
0.0
 71
0
 42
2.5
  3
OpenSans-SemiBoldItalic.ttf
  4

  0
STYLE
  5
47
330
5
100
AcDbSymbolTableRecord
100
AcDbTextStyleTableRecord
  2
OpenSans-Bold
 70
0
 40
0.0
 41
1.0
 50
0.0
 71
0
 42
2.5
  3
OpenSans-Bold.ttf
  4

  0
STYLE
  5
48
330
5
100
AcDbSymbolTableRecord
100
AcDbTextStyleTableRecord
  2
OpenSans-BoldItalic
 70
0
 40
0.0
 41
1.0
 50
0.0
 71
0
 42
2.5
  3
OpenSans-BoldItalic.ttf
  4

  0
STYLE
  5
49
330
5
100
AcDbSymbolTableRecord
100
AcDbTextStyleTableRecord
  2
OpenSans-ExtraBold
 70
0
 40
0.0
 41
1.0
 50
0.0
 71
0
 42
2.5
  3
OpenSans-ExtraBold.ttf
  4

  0
STYLE
  5
4A
330
5
100
AcDbSymbolTableRecord
100
AcDbTextStyleTableRecord
  2
OpenSans-ExtraBoldItalic
 70
0
 40
0.0
 41
1.0
 50
0.0
 71
0
 42
2.5
  3
OpenSans-ExtraBoldItalic.ttf
  4

  0
STYLE
  5
4B
330
5
100
AcDbSymbolTableRecord
100
AcDbTextStyleTableRecord
  2
OpenSansCondensed-Bold
 70
0
 40
0.0
 41
1.0
 50
0.0
 71
0
 42
2.5
  3
OpenSansCondensed-Bold.ttf
  4

  0
STYLE
  5
4C
330
5
100
AcDbSymbolTableRecord
100
AcDbTextStyleTableRecord
  2
OpenSansCondensed-Light
 70
0
 40
0.0
 41
1.0
 50
0.0
 71
0
 42
2.5
  3
OpenSansCondensed-Light.ttf
  4

  0
STYLE
  5
4D
330
5
100
AcDbSymbolTableRecord
100
AcDbTextStyleTableRecord
  2
OpenSansCondensed-Italic
 70
0
 40
0.0
 41
1.0
 50
0.0
 71
0
 42
2.5
  3
OpenSansCondensed-LightItalic.ttf
  4

  0
STYLE
  5
4E
330
5
100
AcDbSymbolTableRecord
100
AcDbTextStyleTableRecord
  2
LiberationSans
 70
0
 40
0.0
 41
1.0
 50
0.0
 71
0
 42
2.5
  3
LiberationSans-Regular.ttf
  4

  0
STYLE
  5
4F
330
5
100
AcDbSymbolTableRecord
100
AcDbTextStyleTableRecord
  2
LiberationSans-Bold
 70
0
 40
0.0
 41
1.0
 50
0.0
 71
0
 42
2.5
  3
LiberationSans-Bold.ttf
  4

  0
STYLE
  5
50
330
5
100
AcDbSymbolTableRecord
100
AcDbTextStyleTableRecord
  2
LiberationSans-BoldItalic
 70
0
 40
0.0
 41
1.0
 50
0.0
 71
0
 42
2.5
  3
LiberationSans-BoldItalic.ttf
  4

  0
STYLE
  5
51
330
5
100
AcDbSymbolTableRecord
100
AcDbTextStyleTableRecord
  2
LiberationSans-Italic
 70
0
 40
0.0
 41
1.0
 50
0.0
 71
0
 42
2.5
  3
LiberationSans-Italic.ttf
  4

  0
STYLE
  5
52
330
5
100
AcDbSymbolTableRecord
100
AcDbTextStyleTableRecord
  2
LiberationSerif
 70
0
 40
0.0
 41
1.0
 50
0.0
 71
0
 42
2.5
  3
LiberationSerif-Regular.ttf
  4

  0
STYLE
  5
53
330
5
100
AcDbSymbolTableRecord
100
AcDbTextStyleTableRecord
  2
LiberationSerif-Bold
 70
0
 40
0.0
 41
1.0
 50
0.0
 71
0
 42
2.5
  3
LiberationSerif-Bold.ttf
  4

  0
STYLE
  5
54
330
5
100
AcDbSymbolTableRecord
100
AcDbTextStyleTableRecord
  2
LiberationSerif-BoldItalic
 70
0
 40
0.0
 41
1.0
 50
0.0
 71
0
 42
2.5
  3
LiberationSerif-BoldItalic.ttf
  4

  0
STYLE
  5
55
330
5
100
AcDbSymbolTableRecord
100
AcDbTextStyleTableRecord
  2
LiberationSerif-Italic
 70
0
 40
0.0
 41
1.0
 50
0.0
 71
0
 42
2.5
  3
LiberationSerif-Italic.ttf
  4

  0
STYLE
  5
56
330
5
100
AcDbSymbolTableRecord
100
AcDbTextStyleTableRecord
  2
LiberationMono
 70
0
 40
0.0
 41
1.0
 50
0.0
 71
0
 42
2.5
  3
LiberationMono-Regular.ttf
  4

  0
STYLE
  5
57
330
5
100
AcDbSymbolTableRecord
100
AcDbTextStyleTableRecord
  2
LiberationMono-Bold
 70
0
 40
0.0
 41
1.0
 50
0.0
 71
0
 42
2.5
  3
LiberationMono-Bold.ttf
  4

  0
STYLE
  5
58
330
5
100
AcDbSymbolTableRecord
100
AcDbTextStyleTableRecord
  2
LiberationMono-BoldItalic
 70
0
 40
0.0
 41
1.0
 50
0.0
 71
0
 42
2.5
  3
LiberationMono-BoldItalic.ttf
  4

  0
STYLE
  5
59
330
5
100
AcDbSymbolTableRecord
100
AcDbTextStyleTableRecord
  2
LiberationMono-Italic
 70
0
 40
0.0
 41
1.0
 50
0.0
 71
0
 42
2.5
  3
LiberationMono-Italic.ttf
  4

  0
ENDTAB
  0
TABLE
  2
VIEW
  5
7
330
0
100
AcDbSymbolTable
 70
0
  0
ENDTAB
  0
TABLE
  2
UCS
  5
6
330
0
100
AcDbSymbolTable
 70
0
  0
ENDTAB
  0
TABLE
  2
APPID
  5
3
330
0
100
AcDbSymbolTable
 70
3
  0
APPID
  5
2A
330
3
100
AcDbSymbolTableRecord
100
AcDbRegAppTableRecord
  2
ACAD
 70
0
  0
APPID
  5
EB
330
3
100
AcDbSymbolTableRecord
100
AcDbRegAppTableRecord
  2
HATCHBACKGROUNDCOLOR
 70
0
  0
APPID
  5
EC
330
3
100
AcDbSymbolTableRecord
100
AcDbRegAppTableRecord
  2
EZDXF
 70
0
  0
ENDTAB
  0
TABLE
  2
DIMSTYLE
  5
4
330
0
100
AcDbSymbolTable
 70
12
100
AcDbDimStyleTable
  0
DIMSTYLE
105
2B
330
4
100
AcDbSymbolTableRecord
100
AcDbDimStyleTableRecord
  2
Standard
 70
0
 40
1.0
 41
2.5
 42
0.625
 43
3.75
 44
1.25
 45
0.0
 46
0.0
 47
0.0
 48
0.0
 49
2.5
140
2.5
141
2.5
142
0.0
143
0.03937007874
144
1.0
145
0.0
146
1.0
147
0.625
148
0.0
 69
0
 70
0
 71
0
 72
0
 73
0
 74
0
 75
0
 76
0
 77
1
 78
8
 79
3
170
0
171
3
172
1
173
0
174
0
175
0
176
0
177
0
178
0
179
2
271
2
272
2
273
2
274
3
275
0
276
0
277
2
278
44
279
0
280
0
281
0
282
0
283
0
284
8
285
0
286
0
288
0
289
3
290
0
371
-2
372
-2
  0
DIMSTYLE
105
73
330
4
100
AcDbSymbolTableRecord
100
AcDbDimStyleTableRecord
  2
EZDXF
 70
0
 40
1.0
 41
0.175
 42
0.125
 43
3.75
 44
0.375
 45
0.0
 46
0.0
 47
0.0
 48
0.0
 49
2.5
140
0.25
141
2.5
142
0.0
143
0.03937007874
144
100.0
145
0.0
146
0.5
147
0.1
148
0.0
 69
0
 70
0
 71
0
 72
0
 73
0
 74
0
 75
0
 76
0
 77
1
 78
12
 79
3
170
0
171
3
172
1
173
0
174
0
175
0
176
0
177
0
178
0
179
2
271
2
272
2
273
2
274
3
275
0
276
0
277
2
278
46
279
2
280
0
281
0
282
0
283
0
284
8
285
0
286
0
288
1
289
3
290
0
340
4C
342
74
371
-2
372
-2
  0
DIMSTYLE
105
7C
330
4
100
AcDbSymbolTableRecord
100
AcDbDimStyleTableRecord
  2
EZ_M_100_H25_CM
 70
0
 40
1.0
 41
0.25
 42
0.125
 43
3.75
 44
0.375
 45
0.0
 46
0.0
 47
0.0
 48
0.0
 49
2.5
140
0.25
141
2.5
142
0.125
143
0.03937007874
144
100.0
145
0.0
146
0.5
147
0.1
148
0.0
 69
0
 70
0
 71
0
 72
0
 73
0
 74
0
 75
0
 76
0
 77
1
 78
12
 79
3
170
0
171
3
172
1
173
0
174
0
175
0
176
0
177
0
178
0
179
2
271
2
272
2
273
2
274
3
275
0
276
0
277
2
278
46
279
2
280
0
281
0
282
0
283
0
284
8
285
0
286
0
288
1
289
3
290
0
340
4C
371
-2
372
-2
  0
DIMSTYLE
105
7D
330
4
100
AcDbSymbolTableRecord
100
AcDbDimStyleTableRecord
  2
EZ_M_50_H25_CM
 70
0
 40
1.0
 41
0.125
 42
0.0625
 43
3.75
 44
0.1875
 45
0.0
 46
0.0
 47
0.0
 48
0.0
 49
2.5
140
0.125
141
2.5
142
0.0625
143
0.03937007874
144
100.0
145
0.0
146
0.5
147
0.05
148
0.0
 69
0
 70
0
 71
0
 72
0
 73
0
 74
0
 75
0
 76
0
 77
1
 78
12
 79
3
170
0
171
3
172
1
173
0
174
0
175
0
176
0
177
0
178
0
179
2
271
2
272
2
273
2
274
3
275
0
276
0
277
2
278
46
279
2
280
0
281
0
282
0
283
0
284
8
285
0
286
0
288
1
289
3
290
0
340
4C
371
-2
372
-2
  0
DIMSTYLE
105
7E
330
4
100
AcDbSymbolTableRecord
100
AcDbDimStyleTableRecord
  2
EZ_M_25_H25_CM
 70
0
 40
1.0
 41
0.0625
 42
0.03125
 43
3.75
 44
0.09375
 45
0.0
 46
0.0
 47
0.0
 48
0.0
 49
2.5
140
0.0625
141
2.5
142
0.03125
143
0.03937007874
144
100.0
145
0.0
146
0.5
147
0.025
148
0.0
 69
0
 70
0
 71
0
 72
0
 73
0
 74
0
 75
0
 76
0
 77
1
 78
12
 79
3
170
0
171
3
172
1
173
0
174
0
175
0
176
0
177
0
178
0
179
2
271
2
272
2
273
2
274
3
275
0
276
0
277
2
278
46
279
2
280
0
281
0
282
0
283
0
284
8
285
0
286
0
288
1
289
3
290
0
340
4C
371
-2
372
-2
  0
DIMSTYLE
105
7F
330
4
100
AcDbSymbolTableRecord
100
AcDbDimStyleTableRecord
  2
EZ_M_20_H25_CM
 70
0
 40
1.0
 41
0.05
 42
0.025
 43
3.75
 44
0.07500000000000001
 45
0.0
 46
0.0
 47
0.0
 48
0.0
 49
2.5
140
0.05
141
2.5
142
0.025
143
0.03937007874
144
100.0
145
0.0
146
0.5
147
0.020000000000000004
148
0.0
 69
0
 70
0
 71
0
 72
0
 73
0
 74
0
 75
0
 76
0
 77
1
 78
12
 79
3
170
0
171
3
172
1
173
0
174
0
175
0
176
0
177
0
178
0
179
2
271
2
272
2
273
2
274
3
275
0
276
0
277
2
278
46
279
2
280
0
281
0
282
0
283
0
284
8
285
0
286
0
288
1
289
3
290
0
340
4C
371
-2
372
-2
  0
DIMSTYLE
105
80
330
4
100
AcDbSymbolTableRecord
100
AcDbDimStyleTableRecord
  2
EZ_M_10_H25_CM
 70
0
 40
1.0
 41
0.025
 42
0.0125
 43
3.75
 44
0.037500000000000006
 45
0.0
 46
0.0
 47
0.0
 48
0.0
 49
2.5
140
0.025
141
2.5
142
0.0125
143
0.03937007874
144
100.0
145
0.0
146
0.5
147
0.010000000000000002
148
0.0
 69
0
 70
0
 71
0
 72
0
 73
0
 74
0
 75
0
 76
0
 77
1
 78
12
 79
3
170
0
171
3
172
1
173
0
174
0
175
0
176
0
177
0
178
0
179
2
271
2
272
2
273
2
274
3
275
0
276
0
277
2
278
46
279
2
280
0
281
0
282
0
283
0
284
8
285
0
286
0
288
1
289
3
290
0
340
4C
371
-2
372
-2
  0
DIMSTYLE
105
81
330
4
100
AcDbSymbolTableRecord
100
AcDbDimStyleTableRecord
  2
EZ_M_5_H25_CM
 70
0
 40
1.0
 41
0.0125
 42
0.00625
 43
3.75
 44
0.018750000000000003
 45
0.0
 46
0.0
 47
0.0
 48
0.0
 49
2.5
140
0.0125
141
2.5
142
0.00625
143
0.03937007874
144
100.0
145
0.0
146
0.5
147
0.005000000000000001
148
0.0
 69
0
 70
0
 71
0
 72
0
 73
0
 74
0
 75
0
 76
0
 77
1
 78
12
 79
3
170
0
171
3
172
1
173
0
174
0
175
0
176
0
177
0
178
0
179
2
271
2
272
2
273
2
274
3
275
0
276
0
277
2
278
46
279
2
280
0
281
0
282
0
283
0
284
8
285
0
286
0
288
1
289
3
290
0
340
4C
371
-2
372
-2
  0
DIMSTYLE
105
82
330
4
100
AcDbSymbolTableRecord
100
AcDbDimStyleTableRecord
  2
EZ_M_1_H25_CM
 70
0
 40
1.0
 41
0.0025
 42
0.00125
 43
3.75
 44
0.00375
 45
0.0
 46
0.0
 47
0.0
 48
0.0
 49
2.5
140
0.0025
141
2.5
142
0.00125
143
0.03937007874
144
100.0
145
0.0
146
0.5
147
0.001
148
0.0
 69
0
 70
0
 71
0
 72
0
 73
0
 74
0
 75
0
 76
0
 77
1
 78
12
 79
3
170
0
171
3
172
1
173
0
174
0
175
0
176
0
177
0
178
0
179
2
271
2
272
2
273
2
274
3
275
0
276
0
277
2
278
46
279
2
280
0
281
0
282
0
283
0
284
8
285
0
286
0
288
1
289
3
290
0
340
4C
371
-2
372
-2
  0
DIMSTYLE
105
83
330
4
100
AcDbSymbolTableRecord
100
AcDbDimStyleTableRecord
  2
EZ_RADIUS
 70
0
 40
1.0
 41
0.25
 42
0.125
 43
3.75
 44
0.375
 45
0.0
 46
0.0
 47
0.0
 48
0.0
 49
2.5
140
0.25
141
0.0
142
0.0
143
0.03937007874
144
100.0
145
0.0
146
0.5
147
0.1
148
0.0
 69
0
 70
0
 71
0
 72
0
 73
0
 74
0
 75
0
 76
0
 77
1
 78
12
 79
3
170
0
171
3
172
0
173
0
174
0
175
0
176
0
177
0
178
0
179
2
271
2
272
2
273
2
274
3
275
0
276
0
277
2
278
46
279
1
280
0
281
0
282
0
283
0
284
8
285
0
286
0
288
1
289
3
290
0
340
4C
342
84
371
-2
372
-2
  0
DIMSTYLE
105
88
330
4
100
AcDbSymbolTableRecord
100
AcDbDimStyleTableRecord
  2
EZ_RADIUS_INSIDE
 70
0
 40
1.0
 41
0.25
 42
0.125
 43
3.75
 44
0.375
 45
0.0
 46
0.0
 47
0.0
 48
0.0
 49
2.5
140
0.25
141
0.0
142
0.0
143
0.03937007874
144
100.0
145
0.0
146
0.5
147
0.1
148
0.0
 69
0
 70
0
 71
0
 72
0
 73
0
 74
0
 75
0
 76
0
 77
0
 78
12
 79
3
170
0
171
3
172
0
173
0
174
1
175
0
176
0
177
0
178
0
179
2
271
2
272
2
273
2
274
3
275
0
276
0
277
2
278
46
279
0
280
0
281
0
282
0
283
0
284
8
285
0
286
0
288
1
289
0
290
0
340
4C
342
84
371
-2
372
-2
  0
DIMSTYLE
105
89
330
4
100
AcDbSymbolTableRecord
100
AcDbDimStyleTableRecord
  2
EZ_CURVED
 70
0
 40
1.0
 41
0.25
 42
0.125
 43
3.75
 44
0.375
 45
0.0
 46
0.0
 47
0.0
 48
0.0
 49
2.5
140
0.25
141
2.5
142
0.0
143
0.03937007874
144
100.0
145
0.0
146
0.5
147
0.1
148
0.0
 69
0
 70
0
 71
0
 72
0
 73
0
 74
0
 75
0
 76
0
 77
1
 78
12
 79
2
 90
2
170
0
171
3
172
1
173
0
174
0
175
0
176
0
177
0
178
0
179
2
271
2
272
2
273
2
274
3
275
0
276
0
277
2
278
46
279
2
280
0
281
0
282
0
283
0
284
8
285
0
286
0
288
1
289
3
290
0
340
4C
371
-2
372
-2
  0
ENDTAB
  0
TABLE
  2
BLOCK_RECORD
  5
9
330
0
100
AcDbSymbolTable
 70
5
  0
BLOCK_RECORD
  5
17
330
9
100
AcDbSymbolTableRecord
100
AcDbBlockTableRecord
  2
*Model_Space
340
1A
 70
0
280
1
281
0
  0
BLOCK_RECORD
  5
1B
330
9
100
AcDbSymbolTableRecord
100
AcDbBlockTableRecord
  2
*Paper_Space
340
1E
 70
0
280
1
281
0
  0
BLOCK_RECORD
  5
74
330
9
100
AcDbSymbolTableRecord
100
AcDbBlockTableRecord
  2
_ARCHTICK
340
0
 70
0
280
1
281
0
  0
BLOCK_RECORD
  5
78
330
9
100
AcDbSymbolTableRecord
100
AcDbBlockTableRecord
  2
_CLOSEDFILLED
340
0
 70
0
280
1
281
0
  0
BLOCK_RECORD
  5
84
330
9
100
AcDbSymbolTableRecord
100
AcDbBlockTableRecord
  2
_CLOSEDBLANK
340
0
 70
0
280
1
281
0
  0
ENDTAB
  0
ENDSEC
  0
SECTION
  2
BLOCKS
  0
BLOCK
  5
18
330
17
100
AcDbEntity
  8
0
100
AcDbBlockBegin
  2
*Model_Space
 70
0
 10
0.0
 20
0.0
 30
0.0
  3
*Model_Space
  1

  0
ENDBLK
  5
19
330
17
100
AcDbEntity
  8
0
100
AcDbBlockEnd
  0
BLOCK
  5
1C
330
1B
100
AcDbEntity
  8
0
100
AcDbBlockBegin
  2
*Paper_Space
 70
0
 10
0.0
 20
0.0
 30
0.0
  3
*Paper_Space
  1

  0
ENDBLK
  5
1D
330
1B
100
AcDbEntity
  8
0
100
AcDbBlockEnd
  0
BLOCK
  5
75
330
74
100
AcDbEntity
  8
0
100
AcDbBlockBegin
  2
_ARCHTICK
 70
0
 10
0.0
 20
0.0
 30
0.0
  3
_ARCHTICK
  1

  0
LWPOLYLINE
  5
77
330
74
100
AcDbEntity
  8
0
  6
BYBLOCK
 62
0
100
AcDbPolyline
 90
2
 70
0
 43
0.15
 10
-0.5
 20
-0.5
 10
0.5
 20
0.5
  0
ENDBLK
  5
76
330
74
100
AcDbEntity
  8
0
100
AcDbBlockEnd
  0
BLOCK
  5
79
330
78
100
AcDbEntity
  8
0
100
AcDbBlockBegin
  2
_CLOSEDFILLED
 70
0
 10
0.0
 20
0.0
 30
0.0
  3
_CLOSEDFILLED
  1

  0
SOLID
  5
7B
330
78
100
AcDbEntity
  8
0
  6
BYBLOCK
 62
0
100
AcDbTrace
 10
-1.0
 20
0.16439898372402537
 30
0.0
 11
0.0
 21
0.0
 31
0.0
 12
-1.0
 22
-0.16439898372402537
 32
0.0
 13
-1.0
 23
-0.16439898372402537
 33
0.0
  0
ENDBLK
  5
7A
330
78
100
AcDbEntity
  8
0
100
AcDbBlockEnd
  0
BLOCK
  5
85
330
84
100
AcDbEntity
  8
0
100
AcDbBlockBegin
  2
_CLOSEDBLANK
 70
0
 10
0.0
 20
0.0
 30
0.0
  3
_CLOSEDBLANK
  1

  0
LWPOLYLINE
  5
87
330
84
100
AcDbEntity
  8
0
  6
BYBLOCK
 62
0
100
AcDbPolyline
 90
3
 70
1
 10
-1.0
 20
0.16439898372402537
 10
0.0
 20
0.0
 10
-1.0
 20
-0.16439898372402537
  0
ENDBLK
  5
86
330
84
100
AcDbEntity
  8
0
100
AcDbBlockEnd
  0
ENDSEC
  0
SECTION
  2
ENTITIES
  0
LWPOLYLINE
  5
8A
330
17
100
AcDbEntity
  8
OUTLINE
100
AcDbPolyline
 90
390
 70
1
 10
26.6059
 20
134.9689
 10
-0.0
 20
134.9689
 10
-26.6059
 20
134.9689
 10
-26.8004
 20
134.9626
 10
-26.994
 20
134.9437
 10
-27.1861
 20
134.9123
 10
-27.3756
 20
134.8685
 10
-27.562
 20
134.8125
 10
-27.7443
 20
134.7445
 10
-27.9218
 20
134.6649
 10
-28.0938
 20
134.5739
 10
-28.2596
 20
134.472
 10
-28.4183
 20
134.3595
 10
-28.5695
 20
134.237
 10
-28.7124
 20
134.105
 10
-28.8464
 20
133.9639
 10
-28.971
 20
133.8145
 10
-29.0857
 20
133.6573
 10
-29.1899
 20
133.493
 10
-40.4534
 20
114.3967
 10
-51.7168
 20
95.3004
 10
-51.7443
 20
95.2547
 10
-51.7726
 20
95.2096
 10
-51.8016
 20
95.165
 10
-51.8315
 20
95.1209
 10
-51.8622
 20
95.0774
 10
-51.8936
 20
95.0344
 10
-51.9257
 20
94.992
 10
-51.9586
 20
94.9501
 10
-51.9923
 20
94.9088
 10
-52.0266
 20
94.8681
 10
-52.0617
 20
94.8281
 10
-52.0974
 20
94.7886
 10
-52.1339
 20
94.7498
 10
-52.171
 20
94.7117
 10
-52.2089
 20
94.6742
 10
-52.2474
 20
94.6374
 10
-55.4648
 20
91.6165
 10
-58.6822
 20
88.5956
 10
-58.8636
 20
88.4161
 10
-59.0354
 20
88.2273
 10
-59.1974
 20
88.0302
 10
-59.3494
 20
87.8251
 10
-59.4909
 20
87.6127
 10
-59.6216
 20
87.3935
 10
-59.7409
 20
87.1679
 10
-59.8484
 20
86.9364
 10
-59.9436
 20
86.6996
 10
-60.0264
 20
86.4582
 10
-60.0967
 20
86.2128
 10
-60.1547
 20
85.9643
 10
-60.2002
 20
85.7132
 10
-60.233
 20
85.4601
 10
-60.253
 20
85.2056
 10
-60.2597
 20
84.9505
 10
-60.253
 20
84.6954
 10
-60.233
 20
84.4409
 10
-60.2002
 20
84.1878
 10
-60.1547
 20
83.9367
 10
-60.0967
 20
83.6881
 10
-60.0264
 20
83.4428
 10
-59.9436
 20
83.2014
 10
-59.8484
 20
82.9646
 10
-59.7409
 20
82.7331
 10
-59.6216
 20
82.5075
 10
-59.4909
 20
82.2883
 10
-59.3494
 20
82.0759
 10
-59.1974
 20
81.8708
 10
-59.0354
 20
81.6736
 10
-58.8636
 20
81.4849
 10
-58.6822
 20
81.3054
 10
-57.6933
 20
80.3769
 10
-56.7044
 20
79.4484
 10
-55.7154
 20
78.5198
 10
-54.7265
 20
77.5913
 10
-53.7376
 20
76.6628
 10
-52.7487
 20
75.7343
 10
-51.7597
 20
74.8058
 10
-50.7708
 20
73.8773
 10
-49.7819
 20
72.9487
 10
-48.793
 20
72.0202
 10
-47.8041
 20
71.0917
 10
-46.8151
 20
70.1632
 10
-45.8262
 20
69.2347
 10
-44.8373
 20
68.3062
 10
-43.8484
 20
67.3776
 10
-42.8594
 20
66.4491
 10
-42.7872
 20
66.3772
 10
-42.7191
 20
66.3014
 10
-42.6553
 20
66.2219
 10
-42.5956
 20
66.1393
 10
-42.5401
 20
66.0538
 10
-42.4888
 20
65.9658
 10
-42.4418
 20
65.8753
 10
-42.3992
 20
65.7828
 10
-42.3609
 20
65.6883
 10
-42.3271
 20
65.5921
 10
-42.298
 20
65.4945
 10
-42.2736
 20
65.3955
 10
-42.2543
 20
65.2954
 10
-42.2401
 20
65.1945
 10
-42.2314
 20
65.0929
 10
-42.2284
 20
64.9911
 10
-42.2284
 20
56.6326
 10
-42.2284
 20
48.2741
 10
-42.2302
 20
48.1731
 10
-42.2356
 20
48.0723
 10
-42.2444
 20
47.9717
 10
-42.2567
 20
47.8714
 10
-42.2723
 20
47.7717
 10
-42.2911
 20
47.6724
 10
-42.3132
 20
47.5739
 10
-42.3385
 20
47.4761
 10
-42.367
 20
47.3793
 10
-42.3986
 20
47.2833
 10
-42.4333
 20
47.1885
 10
-42.4711
 20
47.0949
 10
-42.512
 20
47.0026
 10
-42.556
 20
46.9117
 10
-42.6032
 20
46.8224
 10
-42.6534
 20
46.7348
 10
-50.0036
 20
34.4391
 10
-57.3537
 20
22.1434
 10
-57.4029
 20
22.0577
 10
-57.4491
 20
21.9704
 10
-57.4924
 20
21.8815
 10
-57.5327
 20
21.7913
 10
-57.57
 20
21.6998
 10
-57.6044
 20
21.6071
 10
-57.6357
 20
21.5134
 10
-57.6641
 20
21.4188
 10
-57.6894
 20
21.3232
 10
-57.7117
 20
21.227
 10
-57.7309
 20
21.13
 10
-57.7469
 20
21.0325
 10
-57.7598
 20
20.9345
 10
-57.7693
 20
20.8362
 10
-57.7756
 20
20.7376
 10
-57.7785
 20
20.6388
 10
-58.5716
 20
-47.9489
 10
-59.3646
 20
-116.5367
 10
-59.3639
 20
-116.6402
 10
-59.3595
 20
-116.7435
 10
-59.3514
 20
-116.8467
 10
-59.3397
 20
-116.9495
 10
-59.3245
 20
-117.0519
 10
-59.3058
 20
-117.1537
 10
-59.2838
 20
-117.2548
 10
-59.2584
 20
-117.3552
 10
-59.2297
 20
-117.4546
 10
-59.1977
 20
-117.553
 10
-59.1624
 20
-117.6503
 10
-59.1238
 20
-117.7463
 10
-59.082
 20
-117.841
 10
-59.0369
 20
-117.9342
 10
-58.9886
 20
-118.0257
 10
-58.937
 20
-118.1154
 10
-58.3593
 20
-119.0777
 10
-57.7816
 20
-120.0401
 10
-57.2039
 20
-121.0024
 10
-56.6262
 20
-121.9648
 10
-56.0486
 20
-122.9271
 10
-55.4709
 20
-123.8895
 10
-54.8932
 20
-124.8518
 10
-54.3155
 20
-125.8142
 10
-53.7378
 20
-126.7765
 10
-53.1601
 20
-127.7388
 10
-52.5824
 20
-128.7012
 10
-52.0048
 20
-129.6635
 10
-51.4271
 20
-130.6259
 10
-50.8494
 20
-131.5882
 10
-50.2717
 20
-132.5506
 10
-49.694
 20
-133.5129
 10
-49.5891
 20
-133.675
 10
-49.4737
 20
-133.8297
 10
-49.3486
 20
-133.9769
 10
-49.2147
 20
-134.1159
 10
-49.0723
 20
-134.2463
 10
-48.9221
 20
-134.3675
 10
-48.7644
 20
-134.4789
 10
-48.5997
 20
-134.5797
 10
-48.4285
 20
-134.669
 10
-48.2519
 20
-134.7469
 10
-48.0706
 20
-134.8133
 10
-47.8855
 20
-134.8682
 10
-47.6974
 20
-134.9116
 10
-47.5069
 20
-134.943
 10
-47.3148
 20
-134.9623
 10
-47.1219
 20
-134.9689
 10
0.0
 20
-134.9689
 10
47.1219
 20
-134.9689
 10
47.3148
 20
-134.9623
 10
47.5069
 20
-134.943
 10
47.6974
 20
-134.9116
 10
47.8855
 20
-134.8682
 10
48.0706
 20
-134.8133
 10
48.2519
 20
-134.7469
 10
48.4285
 20
-134.669
 10
48.5997
 20
-134.5797
 10
48.7644
 20
-134.4789
 10
48.9221
 20
-134.3675
 10
49.0723
 20
-134.2463
 10
49.2147
 20
-134.1159
 10
49.3486
 20
-133.9769
 10
49.4737
 20
-133.8297
 10
49.5891
 20
-133.675
 10
49.694
 20
-133.5129
 10
50.2717
 20
-132.5506
 10
50.8494
 20
-131.5882
 10
51.4271
 20
-130.6259
 10
52.0048
 20
-129.6635
 10
52.5824
 20
-128.7012
 10
53.1601
 20
-127.7388
 10
53.7378
 20
-126.7765
 10
54.3155
 20
-125.8142
 10
54.8932
 20
-124.8518
 10
55.4709
 20
-123.8895
 10
56.0486
 20
-122.9271
 10
56.6262
 20
-121.9648
 10
57.2039
 20
-121.0024
 10
57.7816
 20
-120.0401
 10
58.3593
 20
-119.0777
 10
58.937
 20
-118.1154
 10
58.9886
 20
-118.0257
 10
59.0369
 20
-117.9342
 10
59.082
 20
-117.841
 10
59.1238
 20
-117.7463
 10
59.1624
 20
-117.6503
 10
59.1977
 20
-117.553
 10
59.2297
 20
-117.4546
 10
59.2584
 20
-117.3552
 10
59.2838
 20
-117.2548
 10
59.3058
 20
-117.1537
 10
59.3245
 20
-117.0519
 10
59.3397
 20
-116.9495
 10
59.3514
 20
-116.8467
 10
59.3595
 20
-116.7435
 10
59.3639
 20
-116.6402
 10
59.3646
 20
-116.5367
 10
59.2655
 20
-107.9632
 10
59.1664
 20
-99.3897
 10
59.0672
 20
-90.8163
 10
58.9681
 20
-82.2428
 10
58.869
 20
-73.6693
 10
58.7698
 20
-65.0959
 10
58.6707
 20
-56.5224
 10
58.5716
 20
-47.9489
 10
58.4724
 20
-39.3755
 10
58.3733
 20
-30.802
 10
58.2741
 20
-22.2285
 10
58.175
 20
-13.6551
 10
58.0759
 20
-5.0816
 10
57.9767
 20
3.4919
 10
57.8776
 20
12.0653
 10
57.7785
 20
20.6388
 10
57.7756
 20
20.7376
 10
57.7693
 20
20.8362
 10
57.7598
 20
20.9345
 10
57.7469
 20
21.0325
 10
57.7309
 20
21.13
 10
57.7117
 20
21.227
 10
57.6894
 20
21.3232
 10
57.6641
 20
21.4188
 10
57.6357
 20
21.5134
 10
57.6044
 20
21.6071
 10
57.57
 20
21.6998
 10
57.5327
 20
21.7913
 10
57.4924
 20
21.8815
 10
57.4491
 20
21.9704
 10
57.4029
 20
22.0577
 10
57.3537
 20
22.1434
 10
50.0036
 20
34.4391
 10
42.6534
 20
46.7348
 10
42.6032
 20
46.8224
 10
42.556
 20
46.9117
 10
42.512
 20
47.0026
 10
42.4711
 20
47.0949
 10
42.4333
 20
47.1885
 10
42.3986
 20
47.2833
 10
42.367
 20
47.3793
 10
42.3385
 20
47.4761
 10
42.3132
 20
47.5739
 10
42.2911
 20
47.6724
 10
42.2723
 20
47.7717
 10
42.2567
 20
47.8714
 10
42.2444
 20
47.9717
 10
42.2356
 20
48.0723
 10
42.2302
 20
48.1731
 10
42.2284
 20
48.2741
 10
42.2284
 20
56.6326
 10
42.2284
 20
64.9911
 10
42.2314
 20
65.0929
 10
42.2401
 20
65.1945
 10
42.2543
 20
65.2954
 10
42.2736
 20
65.3955
 10
42.298
 20
65.4945
 10
42.3271
 20
65.5921
 10
42.3609
 20
65.6883
 10
42.3992
 20
65.7828
 10
42.4418
 20
65.8753
 10
42.4888
 20
65.9658
 10
42.5401
 20
66.0538
 10
42.5956
 20
66.1393
 10
42.6553
 20
66.2219
 10
42.7191
 20
66.3014
 10
42.7872
 20
66.3772
 10
42.8594
 20
66.4491
 10
43.8484
 20
67.3776
 10
44.8373
 20
68.3062
 10
45.8262
 20
69.2347
 10
46.8151
 20
70.1632
 10
47.8041
 20
71.0917
 10
48.793
 20
72.0202
 10
49.7819
 20
72.9487
 10
50.7708
 20
73.8773
 10
51.7597
 20
74.8058
 10
52.7487
 20
75.7343
 10
53.7376
 20
76.6628
 10
54.7265
 20
77.5913
 10
55.7154
 20
78.5198
 10
56.7044
 20
79.4484
 10
57.6933
 20
80.3769
 10
58.6822
 20
81.3054
 10
58.8636
 20
81.4849
 10
59.0354
 20
81.6736
 10
59.1974
 20
81.8708
 10
59.3494
 20
82.0759
 10
59.4909
 20
82.2883
 10
59.6216
 20
82.5075
 10
59.7409
 20
82.7331
 10
59.8484
 20
82.9646
 10
59.9436
 20
83.2014
 10
60.0264
 20
83.4428
 10
60.0967
 20
83.6881
 10
60.1547
 20
83.9367
 10
60.2002
 20
84.1878
 10
60.233
 20
84.4409
 10
60.253
 20
84.6954
 10
60.2597
 20
84.9505
 10
60.253
 20
85.2056
 10
60.233
 20
85.4601
 10
60.2002
 20
85.7132
 10
60.1547
 20
85.9643
 10
60.0967
 20
86.2128
 10
60.0264
 20
86.4582
 10
59.9436
 20
86.6996
 10
59.8484
 20
86.9364
 10
59.7409
 20
87.1679
 10
59.6216
 20
87.3935
 10
59.4909
 20
87.6127
 10
59.3494
 20
87.8251
 10
59.1974
 20
88.0302
 10
59.0354
 20
88.2273
 10
58.8636
 20
88.4161
 10
58.6822
 20
88.5956
 10
55.4648
 20
91.6165
 10
52.2474
 20
94.6374
 10
52.2089
 20
94.6742
 10
52.171
 20
94.7117
 10
52.1339
 20
94.7498
 10
52.0974
 20
94.7886
 10
52.0617
 20
94.8281
 10
52.0266
 20
94.8681
 10
51.9923
 20
94.9088
 10
51.9586
 20
94.9501
 10
51.9257
 20
94.992
 10
51.8936
 20
95.0344
 10
51.8622
 20
95.0774
 10
51.8315
 20
95.1209
 10
51.8016
 20
95.165
 10
51.7726
 20
95.2096
 10
51.7443
 20
95.2547
 10
51.7168
 20
95.3004
 10
40.4534
 20
114.3967
 10
29.1899
 20
133.493
 10
29.0857
 20
133.6573
 10
28.971
 20
133.8145
 10
28.8464
 20
133.9639
 10
28.7124
 20
134.105
 10
28.5695
 20
134.237
 10
28.4183
 20
134.3595
 10
28.2596
 20
134.472
 10
28.0938
 20
134.5739
 10
27.9218
 20
134.6649
 10
27.7443
 20
134.7445
 10
27.562
 20
134.8125
 10
27.3756
 20
134.8685
 10
27.1861
 20
134.9123
 10
26.994
 20
134.9437
 10
26.8004
 20
134.9626
  0
LWPOLYLINE
  5
8B
330
17
100
AcDbEntity
  8
HOLES
100
AcDbPolyline
 90
52
 70
1
 10
-22.9076
 20
60.0762
 10
-23.0068
 20
59.0717
 10
-23.2997
 20
58.1057
 10
-23.7769
 20
57.2161
 10
-24.416
 20
56.4347
 10
-25.1971
 20
55.7953
 10
-26.0869
 20
55.3185
 10
-27.0529
 20
55.0255
 10
-28.0574
 20
54.9265
 10
-29.062
 20
55.0255
 10
-30.028
 20
55.3185
 10
-30.9178
 20
55.7953
 10
-31.6988
 20
56.4347
 10
-32.3379
 20
57.2161
 10
-32.8151
 20
58.1057
 10
-33.108
 20
59.0717
 10
-33.2072
 20
60.0762
 10
-33.2072
 20
66.8646
 10
-33.2072
 20
73.6529
 10
-33.1821
 20
74.1576
 10
-33.108
 20
74.6575
 10
-32.9855
 20
75.1477
 10
-32.8151
 20
75.6235
 10
-32.5981
 20
76.0798
 10
-32.3381
 20
76.5131
 10
-32.0377
 20
76.9194
 10
-31.6989
 20
77.2943
 10
-31.324
 20
77.6332
 10
-30.9176
 20
77.9336
 10
-30.4843
 20
78.1936
 10
-30.028
 20
78.4106
 10
-29.5523
 20
78.581
 10
-29.062
 20
78.7035
 10
-28.5621
 20
78.7776
 10
-28.0574
 20
78.8027
 10
-27.5527
 20
78.7776
 10
-27.0529
 20
78.7035
 10
-26.5626
 20
78.581
 10
-26.0869
 20
78.4106
 10
-25.6305
 20
78.1936
 10
-25.1972
 20
77.9336
 10
-24.7909
 20
77.6332
 10
-24.416
 20
77.2943
 10
-24.0772
 20
76.9194
 10
-23.7768
 20
76.5131
 10
-23.5167
 20
76.0798
 10
-23.2997
 20
75.6235
 10
-23.1293
 20
75.1477
 10
-23.0068
 20
74.6575
 10
-22.9327
 20
74.1576
 10
-22.9076
 20
73.6529
 10
-22.9076
 20
66.8646
  0
LWPOLYLINE
  5
8C
330
17
100
AcDbEntity
  8
HOLES
100
AcDbPolyline
 90
52
 70
1
 10
33.3082
 20
60.0762
 10
33.2091
 20
59.0717
 10
32.9161
 20
58.1057
 10
32.4389
 20
57.2161
 10
31.7998
 20
56.4347
 10
31.0188
 20
55.7953
 10
30.129
 20
55.3185
 10
29.163
 20
55.0255
 10
28.1584
 20
54.9265
 10
27.1539
 20
55.0255
 10
26.1879
 20
55.3185
 10
25.2981
 20
55.7953
 10
24.5171
 20
56.4347
 10
23.878
 20
57.2161
 10
23.4008
 20
58.1057
 10
23.1078
 20
59.0717
 10
23.0087
 20
60.0762
 10
23.0087
 20
66.8646
 10
23.0087
 20
73.6529
 10
23.0337
 20
74.1576
 10
23.1079
 20
74.6575
 10
23.2303
 20
75.1477
 10
23.4007
 20
75.6235
 10
23.6177
 20
76.0798
 10
23.8778
 20
76.5131
 10
24.1782
 20
76.9194
 10
24.517
 20
77.2943
 10
24.8919
 20
77.6332
 10
25.2983
 20
77.9336
 10
25.7315
 20
78.1936
 10
26.1879
 20
78.4106
 10
26.6636
 20
78.581
 10
27.1539
 20
78.7035
 10
27.6537
 20
78.7776
 10
28.1584
 20
78.8027
 10
28.6631
 20
78.7776
 10
29.163
 20
78.7035
 10
29.6533
 20
78.581
 10
30.129
 20
78.4106
 10
30.5854
 20
78.1936
 10
31.0186
 20
77.9336
 10
31.425
 20
77.6332
 10
31.7999
 20
77.2943
 10
32.1387
 20
76.9194
 10
32.4391
 20
76.5131
 10
32.6992
 20
76.0798
 10
32.9162
 20
75.6235
 10
33.0866
 20
75.1477
 10
33.209
 20
74.6575
 10
33.2832
 20
74.1576
 10
33.3082
 20
73.6529
 10
33.3082
 20
66.8646
  0
LWPOLYLINE
  5
8D
330
17
100
AcDbEntity
  8
HOLES
100
AcDbPolyline
 90
72
 70
1
 10
-11.188
 20
24.6286
 10
0.0505
 20
24.6286
 10
11.289
 20
24.6286
 10
11.9215
 20
24.5972
 10
12.5479
 20
24.5043
 10
13.1623
 20
24.3508
 10
13.7585
 20
24.1373
 10
14.3304
 20
23.8653
 10
14.8734
 20
23.5394
 10
15.3827
 20
23.1629
 10
15.8525
 20
22.7383
 10
16.2771
 20
22.2685
 10
16.6536
 20
21.7593
 10
16.9795
 20
21.2163
 10
17.2514
 20
20.6443
 10
17.465
 20
20.0482
 10
17.6185
 20
19.4338
 10
17.7114
 20
18.8073
 10
17.7428
 20
18.1748
 10
17.7428
 20
13.2788
 10
17.7428
 20
8.3829
 10
17.7114
 20
7.7504
 10
17.6185
 20
7.1239
 10
17.465
 20
6.5095
 10
17.2514
 20
5.9134
 10
16.9795
 20
5.3414
 10
16.6536
 20
4.7984
 10
16.2771
 20
4.2892
 10
15.8525
 20
3.8194
 10
15.3827
 20
3.3948
 10
14.8734
 20
3.0183
 10
14.3304
 20
2.6924
 10
13.7585
 20
2.4204
 10
13.1623
 20
2.2069
 10
12.5479
 20
2.0534
 10
11.9215
 20
1.9605
 10
11.289
 20
1.9291
 10
0.0505
 20
1.9291
 10
-11.188
 20
1.9291
 10
-11.8205
 20
1.9605
 10
-12.4469
 20
2.0534
 10
-13.0613
 20
2.2069
 10
-13.6575
 20
2.4204
 10
-14.2294
 20
2.6924
 10
-14.7724
 20
3.0183
 10
-15.2816
 20
3.3948
 10
-15.7515
 20
3.8194
 10
-16.1761
 20
4.2892
 10
-16.5526
 20
4.7984
 10
-16.8785
 20
5.3414
 10
-17.1504
 20
5.9134
 10
-17.364
 20
6.5095
 10
-17.5174
 20
7.1239
 10
-17.6104
 20
7.7504
 10
-17.6418
 20
8.3829
 10
-17.6418
 20
13.2788
 10
-17.6418
 20
18.1748
 10
-17.6104
 20
18.8073
 10
-17.5174
 20
19.4338
 10
-17.364
 20
20.0482
 10
-17.1504
 20
20.6443
 10
-16.8785
 20
21.2163
 10
-16.5526
 20
21.7593
 10
-16.1761
 20
22.2685
 10
-15.7515
 20
22.7383
 10
-15.2816
 20
23.1629
 10
-14.7724
 20
23.5394
 10
-14.2294
 20
23.8653
 10
-13.6575
 20
24.1373
 10
-13.0613
 20
24.3508
 10
-12.4469
 20
24.5043
 10
-11.8205
 20
24.5972
  0
LWPOLYLINE
  5
8E
330
17
100
AcDbEntity
  8
HOLES
100
AcDbPolyline
 90
32
 70
1
 10
-6.28
 20
38.2684
 10
-6.3061
 20
38.0051
 10
-6.3828
 20
37.7518
 10
-6.5077
 20
37.5185
 10
-6.6754
 20
37.3138
 10
-6.8805
 20
37.1466
 10
-7.1136
 20
37.0212
 10
-7.3666
 20
36.9438
 10
-7.63
 20
36.9184
 10
-7.8934
 20
36.9438
 10
-8.1464
 20
37.0212
 10
-8.3795
 20
37.1466
 10
-8.5846
 20
37.3138
 10
-8.7523
 20
37.5185
 10
-8.8772
 20
37.7518
 10
-8.9539
 20
38.0051
 10
-8.98
 20
38.2684
 10
-8.9539
 20
38.5318
 10
-8.8772
 20
38.785
 10
-8.7523
 20
39.0183
 10
-8.5846
 20
39.223
 10
-8.3795
 20
39.3902
 10
-8.1464
 20
39.5156
 10
-7.8934
 20
39.5931
 10
-7.63
 20
39.6184
 10
-7.3666
 20
39.5931
 10
-7.1136
 20
39.5156
 10
-6.8805
 20
39.3902
 10
-6.6754
 20
39.223
 10
-6.5077
 20
39.0183
 10
-6.3828
 20
38.785
 10
-6.3061
 20
38.5318
  0
LWPOLYLINE
  5
8F
330
17
100
AcDbEntity
  8
HOLES
100
AcDbPolyline
 90
32
 70
1
 10
6.28
 20
38.2684
 10
6.3061
 20
38.5318
 10
6.3828
 20
38.785
 10
6.5077
 20
39.0183
 10
6.6754
 20
39.223
 10
6.8805
 20
39.3902
 10
7.1136
 20
39.5156
 10
7.3666
 20
39.5931
 10
7.63
 20
39.6184
 10
7.8934
 20
39.5931
 10
8.1464
 20
39.5156
 10
8.3795
 20
39.3902
 10
8.5846
 20
39.223
 10
8.7523
 20
39.0183
 10
8.8772
 20
38.785
 10
8.9539
 20
38.5318
 10
8.98
 20
38.2684
 10
8.9539
 20
38.0051
 10
8.8772
 20
37.7518
 10
8.7523
 20
37.5185
 10
8.5846
 20
37.3138
 10
8.3795
 20
37.1466
 10
8.1464
 20
37.0212
 10
7.8934
 20
36.9438
 10
7.63
 20
36.9184
 10
7.3666
 20
36.9438
 10
7.1136
 20
37.0212
 10
6.8805
 20
37.1466
 10
6.6754
 20
37.3138
 10
6.5077
 20
37.5185
 10
6.3828
 20
37.7518
 10
6.3061
 20
38.0051
  0
LWPOLYLINE
  5
90
330
17
100
AcDbEntity
  8
HOLES
100
AcDbPolyline
 90
32
 70
1
 10
-25.64
 20
14.8684
 10
-25.6139
 20
15.1318
 10
-25.5372
 20
15.385
 10
-25.4123
 20
15.6183
 10
-25.2446
 20
15.823
 10
-25.0395
 20
15.9902
 10
-24.8064
 20
16.1156
 10
-24.5534
 20
16.1931
 10
-24.29
 20
16.2184
 10
-24.0266
 20
16.1931
 10
-23.7736
 20
16.1156
 10
-23.5405
 20
15.9902
 10
-23.3354
 20
15.823
 10
-23.1677
 20
15.6183
 10
-23.0428
 20
15.385
 10
-22.9661
 20
15.1318
 10
-22.94
 20
14.8684
 10
-22.9661
 20
14.6051
 10
-23.0428
 20
14.3518
 10
-23.1677
 20
14.1185
 10
-23.3354
 20
13.9138
 10
-23.5405
 20
13.7466
 10
-23.7736
 20
13.6212
 10
-24.0266
 20
13.5438
 10
-24.29
 20
13.5184
 10
-24.5534
 20
13.5438
 10
-24.8064
 20
13.6212
 10
-25.0395
 20
13.7466
 10
-25.2446
 20
13.9138
 10
-25.4123
 20
14.1185
 10
-25.5372
 20
14.3518
 10
-25.6139
 20
14.6051
  0
LWPOLYLINE
  5
91
330
17
100
AcDbEntity
  8
HOLES
100
AcDbPolyline
 90
32
 70
1
 10
-39.0955
 20
30.5205
 10
-39.1264
 20
30.2084
 10
-39.2173
 20
29.9082
 10
-39.3653
 20
29.6317
 10
-39.5641
 20
29.3891
 10
-39.8072
 20
29.191
 10
-40.0834
 20
29.0423
 10
-40.3833
 20
28.9506
 10
-40.6955
 20
28.9205
 10
-41.0077
 20
28.9506
 10
-41.3076
 20
29.0423
 10
-41.5838
 20
29.191
 10
-41.8269
 20
29.3891
 10
-42.0257
 20
29.6317
 10
-42.1737
 20
29.9082
 10
-42.2646
 20
30.2084
 10
-42.2955
 20
30.5205
 10
-42.2646
 20
30.8326
 10
-42.1737
 20
31.1328
 10
-42.0257
 20
31.4093
 10
-41.8269
 20
31.6519
 10
-41.5838
 20
31.85
 10
-41.3076
 20
31.9987
 10
-41.0077
 20
32.0905
 10
-40.6955
 20
32.1205
 10
-40.3833
 20
32.0905
 10
-40.0834
 20
31.9987
 10
-39.8072
 20
31.85
 10
-39.5641
 20
31.6519
 10
-39.3653
 20
31.4093
 10
-39.2173
 20
31.1328
 10
-39.1264
 20
30.8326
  0
LWPOLYLINE
  5
92
330
17
100
AcDbEntity
  8
HOLES
100
AcDbPolyline
 90
32
 70
1
 10
42.2955
 20
30.5205
 10
42.2646
 20
30.2084
 10
42.1737
 20
29.9082
 10
42.0257
 20
29.6317
 10
41.8269
 20
29.3891
 10
41.5838
 20
29.191
 10
41.3076
 20
29.0423
 10
41.0077
 20
28.9506
 10
40.6955
 20
28.9205
 10
40.3833
 20
28.9506
 10
40.0834
 20
29.0423
 10
39.8072
 20
29.191
 10
39.5641
 20
29.3891
 10
39.3653
 20
29.6317
 10
39.2173
 20
29.9082
 10
39.1264
 20
30.2084
 10
39.0955
 20
30.5205
 10
39.1264
 20
30.8326
 10
39.2173
 20
31.1328
 10
39.3653
 20
31.4093
 10
39.5641
 20
31.6519
 10
39.8072
 20
31.85
 10
40.0834
 20
31.9987
 10
40.3833
 20
32.0905
 10
40.6955
 20
32.1205
 10
41.0077
 20
32.0905
 10
41.3076
 20
31.9987
 10
41.5838
 20
31.85
 10
41.8269
 20
31.6519
 10
42.0257
 20
31.4093
 10
42.1737
 20
31.1328
 10
42.2646
 20
30.8326
  0
LWPOLYLINE
  5
93
330
17
100
AcDbEntity
  8
HOLES
100
AcDbPolyline
 90
32
 70
1
 10
-6.28
 20
62.533
 10
-6.3061
 20
62.2697
 10
-6.3828
 20
62.0164
 10
-6.5077
 20
61.7831
 10
-6.6754
 20
61.5784
 10
-6.8805
 20
61.4112
 10
-7.1136
 20
61.2858
 10
-7.3666
 20
61.2084
 10
-7.63
 20
61.183
 10
-7.8934
 20
61.2084
 10
-8.1464
 20
61.2858
 10
-8.3795
 20
61.4112
 10
-8.5846
 20
61.5784
 10
-8.7523
 20
61.7831
 10
-8.8772
 20
62.0164
 10
-8.9539
 20
62.2697
 10
-8.98
 20
62.533
 10
-8.9539
 20
62.7963
 10
-8.8772
 20
63.0496
 10
-8.7523
 20
63.2829
 10
-8.5846
 20
63.4876
 10
-8.3795
 20
63.6548
 10
-8.1464
 20
63.7802
 10
-7.8934
 20
63.8576
 10
-7.63
 20
63.883
 10
-7.3666
 20
63.8576
 10
-7.1136
 20
63.7802
 10
-6.8805
 20
63.6548
 10
-6.6754
 20
63.4876
 10
-6.5077
 20
63.2829
 10
-6.3828
 20
63.0496
 10
-6.3061
 20
62.7963
  0
LWPOLYLINE
  5
94
330
17
100
AcDbEntity
  8
HOLES
100
AcDbPolyline
 90
32
 70
1
 10
6.28
 20
62.533
 10
6.3061
 20
62.7963
 10
6.3828
 20
63.0496
 10
6.5077
 20
63.2829
 10
6.6754
 20
63.4876
 10
6.8805
 20
63.6548
 10
7.1136
 20
63.7802
 10
7.3666
 20
63.8576
 10
7.63
 20
63.883
 10
7.8934
 20
63.8576
 10
8.1464
 20
63.7802
 10
8.3795
 20
63.6548
 10
8.5846
 20
63.4876
 10
8.7523
 20
63.2829
 10
8.8772
 20
63.0496
 10
8.9539
 20
62.7963
 10
8.98
 20
62.533
 10
8.9539
 20
62.2697
 10
8.8772
 20
62.0164
 10
8.7523
 20
61.7831
 10
8.5846
 20
61.5784
 10
8.3795
 20
61.4112
 10
8.1464
 20
61.2858
 10
7.8934
 20
61.2084
 10
7.63
 20
61.183
 10
7.3666
 20
61.2084
 10
7.1136
 20
61.2858
 10
6.8805
 20
61.4112
 10
6.6754
 20
61.5784
 10
6.5077
 20
61.7831
 10
6.3828
 20
62.0164
 10
6.3061
 20
62.2697
  0
LWPOLYLINE
  5
95
330
17
100
AcDbEntity
  8
HOLES
100
AcDbPolyline
 90
32
 70
1
 10
-25.64
 20
85.933
 10
-25.6139
 20
86.1963
 10
-25.5372
 20
86.4496
 10
-25.4123
 20
86.6829
 10
-25.2446
 20
86.8876
 10
-25.0395
 20
87.0548
 10
-24.8064
 20
87.1802
 10
-24.5534
 20
87.2576
 10
-24.29
 20
87.283
 10
-24.0266
 20
87.2576
 10
-23.7736
 20
87.1802
 10
-23.5405
 20
87.0548
 10
-23.3354
 20
86.8876
 10
-23.1677
 20
86.6829
 10
-23.0428
 20
86.4496
 10
-22.9661
 20
86.1963
 10
-22.94
 20
85.933
 10
-22.9661
 20
85.6697
 10
-23.0428
 20
85.4164
 10
-23.1677
 20
85.1831
 10
-23.3354
 20
84.9784
 10
-23.5405
 20
84.8112
 10
-23.7736
 20
84.6858
 10
-24.0266
 20
84.6084
 10
-24.29
 20
84.583
 10
-24.5534
 20
84.6084
 10
-24.8064
 20
84.6858
 10
-25.0395
 20
84.8112
 10
-25.2446
 20
84.9784
 10
-25.4123
 20
85.1831
 10
-25.5372
 20
85.4164
 10
-25.6139
 20
85.6697
  0
LWPOLYLINE
  5
96
330
17
100
AcDbEntity
  8
HOLES
100
AcDbPolyline
 90
32
 70
1
 10
-1.6
 20
82.1257
 10
-1.5691
 20
82.4378
 10
-1.4782
 20
82.738
 10
-1.3302
 20
83.0145
 10
-1.1314
 20
83.2571
 10
-0.8883
 20
83.4552
 10
-0.6121
 20
83.6039
 10
-0.3122
 20
83.6957
 10
-0.0
 20
83.7257
 10
0.3122
 20
83.6957
 10
0.6121
 20
83.6039
 10
0.8883
 20
83.4552
 10
1.1314
 20
83.2571
 10
1.3302
 20
83.0145
 10
1.4782
 20
82.738
 10
1.5691
 20
82.4378
 10
1.6
 20
82.1257
 10
1.5691
 20
81.8136
 10
1.4782
 20
81.5135
 10
1.3302
 20
81.2369
 10
1.1314
 20
80.9944
 10
0.8883
 20
80.7962
 10
0.6121
 20
80.6476
 10
0.3122
 20
80.5558
 10
-0.0
 20
80.5257
 10
-0.3122
 20
80.5558
 10
-0.6121
 20
80.6476
 10
-0.8883
 20
80.7962
 10
-1.1314
 20
80.9944
 10
-1.3302
 20
81.2369
 10
-1.4782
 20
81.5135
 10
-1.5691
 20
81.8136
  0
LWPOLYLINE
  5
97
330
17
100
AcDbEntity
  8
HOLES
100
AcDbPolyline
 90
32
 70
1
 10
-56.8597
 20
84.9505
 10
-56.8289
 20
85.2626
 10
-56.7379
 20
85.5628
 10
-56.5899
 20
85.8393
 10
-56.3911
 20
86.0819
 10
-56.148
 20
86.28
 10
-55.8718
 20
86.4287
 10
-55.5719
 20
86.5204
 10
-55.2597
 20
86.5505
 10
-54.9475
 20
86.5204
 10
-54.6477
 20
86.4287
 10
-54.3715
 20
86.28
 10
-54.1284
 20
86.0819
 10
-53.9296
 20
85.8393
 10
-53.7815
 20
85.5628
 10
-53.6906
 20
85.2626
 10
-53.6597
 20
84.9505
 10
-53.6906
 20
84.6384
 10
-53.7815
 20
84.3382
 10
-53.9296
 20
84.0617
 10
-54.1284
 20
83.8191
 10
-54.3715
 20
83.621
 10
-54.6477
 20
83.4723
 10
-54.9475
 20
83.3805
 10
-55.2597
 20
83.3505
 10
-55.5719
 20
83.3805
 10
-55.8718
 20
83.4723
 10
-56.148
 20
83.621
 10
-56.3911
 20
83.8191
 10
-56.5899
 20
84.0617
 10
-56.7379
 20
84.3382
 10
-56.8289
 20
84.6384
  0
LWPOLYLINE
  5
98
330
17
100
AcDbEntity
  8
HOLES
100
AcDbPolyline
 90
32
 70
1
 10
21.7849
 20
42.3159
 10
21.8264
 20
42.7353
 10
21.9486
 20
43.1387
 10
22.1475
 20
43.5102
 10
22.4147
 20
43.8362
 10
22.7413
 20
44.1024
 10
23.1125
 20
44.3022
 10
23.5154
 20
44.4255
 10
23.9349
 20
44.4659
 10
24.3545
 20
44.4255
 10
24.7574
 20
44.3022
 10
25.1286
 20
44.1024
 10
25.4552
 20
43.8362
 10
25.7224
 20
43.5102
 10
25.9213
 20
43.1387
 10
26.0435
 20
42.7353
 10
26.0849
 20
42.3159
 10
26.0435
 20
41.8965
 10
25.9213
 20
41.4932
 10
25.7224
 20
41.1216
 10
25.4552
 20
40.7957
 10
25.1286
 20
40.5294
 10
24.7574
 20
40.3296
 10
24.3545
 20
40.2063
 10
23.9349
 20
40.1659
 10
23.5154
 20
40.2063
 10
23.1125
 20
40.3296
 10
22.7413
 20
40.5294
 10
22.4147
 20
40.7957
 10
22.1475
 20
41.1216
 10
21.9486
 20
41.4932
 10
21.8264
 20
41.8965
  0
LWPOLYLINE
  5
99
330
17
100
AcDbEntity
  8
HOLES
100
AcDbPolyline
 90
32
 70
1
 10
-26.0849
 20
42.3159
 10
-26.0435
 20
42.7353
 10
-25.9213
 20
43.1387
 10
-25.7224
 20
43.5102
 10
-25.4552
 20
43.8362
 10
-25.1286
 20
44.1024
 10
-24.7574
 20
44.3022
 10
-24.3545
 20
44.4255
 10
-23.9349
 20
44.4659
 10
-23.5154
 20
44.4255
 10
-23.1125
 20
44.3022
 10
-22.7413
 20
44.1024
 10
-22.4147
 20
43.8362
 10
-22.1475
 20
43.5102
 10
-21.9486
 20
43.1387
 10
-21.8264
 20
42.7353
 10
-21.7849
 20
42.3159
 10
-21.8264
 20
41.8965
 10
-21.9486
 20
41.4932
 10
-22.1475
 20
41.1216
 10
-22.4147
 20
40.7957
 10
-22.7413
 20
40.5294
 10
-23.1125
 20
40.3296
 10
-23.5154
 20
40.2063
 10
-23.9349
 20
40.1659
 10
-24.3545
 20
40.2063
 10
-24.7574
 20
40.3296
 10
-25.1286
 20
40.5294
 10
-25.4552
 20
40.7957
 10
-25.7224
 20
41.1216
 10
-25.9213
 20
41.4932
 10
-26.0435
 20
41.8965
  0
LWPOLYLINE
  5
9A
330
17
100
AcDbEntity
  8
HOLES
100
AcDbPolyline
 90
32
 70
1
 10
-21.35
 20
48.0176
 10
-21.3239
 20
48.281
 10
-21.2472
 20
48.5342
 10
-21.1223
 20
48.7675
 10
-20.9546
 20
48.9722
 10
-20.7495
 20
49.1394
 10
-20.5164
 20
49.2648
 10
-20.2634
 20
49.3423
 10
-20.0
 20
49.3676
 10
-19.7366
 20
49.3423
 10
-19.4836
 20
49.2648
 10
-19.2505
 20
49.1394
 10
-19.0454
 20
48.9722
 10
-18.8777
 20
48.7675
 10
-18.7528
 20
48.5342
 10
-18.6761
 20
48.281
 10
-18.65
 20
48.0176
 10
-18.6761
 20
47.7543
 10
-18.7528
 20
47.501
 10
-18.8777
 20
47.2677
 10
-19.0454
 20
47.063
 10
-19.2505
 20
46.8958
 10
-19.4836
 20
46.7704
 10
-19.7366
 20
46.693
 10
-20.0
 20
46.6676
 10
-20.2634
 20
46.693
 10
-20.5164
 20
46.7704
 10
-20.7495
 20
46.8958
 10
-20.9546
 20
47.063
 10
-21.1223
 20
47.2677
 10
-21.2472
 20
47.501
 10
-21.3239
 20
47.7543
  0
LWPOLYLINE
  5
9B
330
17
100
AcDbEntity
  8
HOLES
100
AcDbPolyline
 90
32
 70
1
 10
18.65
 20
48.0176
 10
18.6761
 20
48.281
 10
18.7528
 20
48.5342
 10
18.8777
 20
48.7675
 10
19.0454
 20
48.9722
 10
19.2505
 20
49.1394
 10
19.4836
 20
49.2648
 10
19.7366
 20
49.3423
 10
20.0
 20
49.3676
 10
20.2634
 20
49.3423
 10
20.5164
 20
49.2648
 10
20.7495
 20
49.1394
 10
20.9546
 20
48.9722
 10
21.1223
 20
48.7675
 10
21.2472
 20
48.5342
 10
21.3239
 20
48.281
 10
21.35
 20
48.0176
 10
21.3239
 20
47.7543
 10
21.2472
 20
47.501
 10
21.1223
 20
47.2677
 10
20.9546
 20
47.063
 10
20.7495
 20
46.8958
 10
20.5164
 20
46.7704
 10
20.2634
 20
46.693
 10
20.0
 20
46.6676
 10
19.7366
 20
46.693
 10
19.4836
 20
46.7704
 10
19.2505
 20
46.8958
 10
19.0454
 20
47.063
 10
18.8777
 20
47.2677
 10
18.7528
 20
47.501
 10
18.6761
 20
47.7543
  0
LWPOLYLINE
  5
9C
330
17
100
AcDbEntity
  8
HOLES
100
AcDbPolyline
 90
32
 70
1
 10
48.58
 20
-73.0534
 10
48.5385
 20
-73.4728
 10
48.4163
 20
-73.8761
 10
48.2174
 20
-74.2477
 10
47.9503
 20
-74.5736
 10
47.6236
 20
-74.8399
 10
47.2524
 20
-75.0396
 10
46.8495
 20
-75.163
 10
46.43
 20
-75.2034
 10
46.0105
 20
-75.163
 10
45.6075
 20
-75.0396
 10
45.2364
 20
-74.8399
 10
44.9097
 20
-74.5736
 10
44.6426
 20
-74.2477
 10
44.4437
 20
-73.8761
 10
44.3215
 20
-73.4728
 10
44.28
 20
-73.0534
 10
44.3215
 20
-72.634
 10
44.4437
 20
-72.2306
 10
44.6426
 20
-71.859
 10
44.9097
 20
-71.5331
 10
45.2364
 20
-71.2668
 10
45.6075
 20
-71.0671
 10
46.0105
 20
-70.9437
 10
46.43
 20
-70.9034
 10
46.8495
 20
-70.9437
 10
47.2524
 20
-71.0671
 10
47.6236
 20
-71.2668
 10
47.9503
 20
-71.5331
 10
48.2174
 20
-71.859
 10
48.4163
 20
-72.2306
 10
48.5385
 20
-72.634
  0
LWPOLYLINE
  5
9D
330
17
100
AcDbEntity
  8
HOLES
100
AcDbPolyline
 90
32
 70
1
 10
48.58
 20
-99.9534
 10
48.5385
 20
-100.3728
 10
48.4163
 20
-100.7761
 10
48.2174
 20
-101.1477
 10
47.9503
 20
-101.4736
 10
47.6236
 20
-101.7399
 10
47.2524
 20
-101.9396
 10
46.8495
 20
-102.063
 10
46.43
 20
-102.1034
 10
46.0105
 20
-102.063
 10
45.6075
 20
-101.9396
 10
45.2364
 20
-101.7399
 10
44.9097
 20
-101.4736
 10
44.6426
 20
-101.1477
 10
44.4437
 20
-100.7761
 10
44.3215
 20
-100.3728
 10
44.28
 20
-99.9534
 10
44.3215
 20
-99.534
 10
44.4437
 20
-99.1306
 10
44.6426
 20
-98.759
 10
44.9097
 20
-98.4331
 10
45.2364
 20
-98.1668
 10
45.6075
 20
-97.9671
 10
46.0105
 20
-97.8437
 10
46.43
 20
-97.8034
 10
46.8495
 20
-97.8437
 10
47.2524
 20
-97.9671
 10
47.6236
 20
-98.1668
 10
47.9503
 20
-98.4331
 10
48.2174
 20
-98.759
 10
48.4163
 20
-99.1306
 10
48.5385
 20
-99.534
  0
LWPOLYLINE
  5
9E
330
17
100
AcDbEntity
  8
HOLES
100
AcDbPolyline
 90
32
 70
1
 10
-48.58
 20
-99.9534
 10
-48.5385
 20
-99.534
 10
-48.4163
 20
-99.1306
 10
-48.2174
 20
-98.759
 10
-47.9503
 20
-98.4331
 10
-47.6236
 20
-98.1668
 10
-47.2524
 20
-97.9671
 10
-46.8495
 20
-97.8437
 10
-46.43
 20
-97.8034
 10
-46.0105
 20
-97.8437
 10
-45.6075
 20
-97.9671
 10
-45.2364
 20
-98.1668
 10
-44.9097
 20
-98.4331
 10
-44.6426
 20
-98.759
 10
-44.4437
 20
-99.1306
 10
-44.3215
 20
-99.534
 10
-44.28
 20
-99.9534
 10
-44.3215
 20
-100.3728
 10
-44.4437
 20
-100.7761
 10
-44.6426
 20
-101.1477
 10
-44.9097
 20
-101.4736
 10
-45.2364
 20
-101.7399
 10
-45.6075
 20
-101.9396
 10
-46.0105
 20
-102.063
 10
-46.43
 20
-102.1034
 10
-46.8495
 20
-102.063
 10
-47.2524
 20
-101.9396
 10
-47.6236
 20
-101.7399
 10
-47.9503
 20
-101.4736
 10
-48.2174
 20
-101.1477
 10
-48.4163
 20
-100.7761
 10
-48.5385
 20
-100.3728
  0
LWPOLYLINE
  5
9F
330
17
100
AcDbEntity
  8
HOLES
100
AcDbPolyline
 90
32
 70
1
 10
-48.58
 20
-73.0534
 10
-48.5385
 20
-72.634
 10
-48.4163
 20
-72.2306
 10
-48.2174
 20
-71.859
 10
-47.9503
 20
-71.5331
 10
-47.6236
 20
-71.2668
 10
-47.2524
 20
-71.0671
 10
-46.8495
 20
-70.9437
 10
-46.43
 20
-70.9034
 10
-46.0105
 20
-70.9437
 10
-45.6075
 20
-71.0671
 10
-45.2364
 20
-71.2668
 10
-44.9097
 20
-71.5331
 10
-44.6426
 20
-71.859
 10
-44.4437
 20
-72.2306
 10
-44.3215
 20
-72.634
 10
-44.28
 20
-73.0534
 10
-44.3215
 20
-73.4728
 10
-44.4437
 20
-73.8761
 10
-44.6426
 20
-74.2477
 10
-44.9097
 20
-74.5736
 10
-45.2364
 20
-74.8399
 10
-45.6075
 20
-75.0396
 10
-46.0105
 20
-75.163
 10
-46.43
 20
-75.2034
 10
-46.8495
 20
-75.163
 10
-47.2524
 20
-75.0396
 10
-47.6236
 20
-74.8399
 10
-47.9503
 20
-74.5736
 10
-48.2174
 20
-74.2477
 10
-48.4163
 20
-73.8761
 10
-48.5385
 20
-73.4728
  0
LWPOLYLINE
  5
A0
330
17
100
AcDbEntity
  8
HOLES
100
AcDbPolyline
 90
36
 70
1
 10
-22.5788
 20
-26.221
 10
-0.0
 20
-26.221
 10
22.5788
 20
-26.221
 10
24.0013
 20
-26.3614
 10
25.3691
 20
-26.7761
 10
26.6287
 20
-27.4519
 10
27.7351
 20
-28.3568
 10
28.6406
 20
-29.4628
 10
29.3157
 20
-30.7227
 10
29.7306
 20
-32.0905
 10
29.8708
 20
-33.513
 10
29.7306
 20
-34.9354
 10
29.3157
 20
-36.3032
 10
28.6406
 20
-37.5631
 10
27.7351
 20
-38.6691
 10
26.6287
 20
-39.574
 10
25.3691
 20
-40.2498
 10
24.0013
 20
-40.6645
 10
22.5788
 20
-40.8049
 10
-0.0
 20
-40.8049
 10
-22.5788
 20
-40.8049
 10
-24.0013
 20
-40.6645
 10
-25.3691
 20
-40.2498
 10
-26.6287
 20
-39.574
 10
-27.7351
 20
-38.6691
 10
-28.6406
 20
-37.5631
 10
-29.3157
 20
-36.3032
 10
-29.7306
 20
-34.9354
 10
-29.8708
 20
-33.513
 10
-29.7306
 20
-32.0905
 10
-29.3157
 20
-30.7227
 10
-28.6406
 20
-29.4628
 10
-27.7351
 20
-28.3568
 10
-26.6287
 20
-27.4519
 10
-25.3691
 20
-26.7761
 10
-24.0013
 20
-26.3614
  0
LWPOLYLINE
  5
A1
330
17
100
AcDbEntity
  8
HOLES
100
AcDbPolyline
 90
36
 70
1
 10
32.0
 20
-68.5265
 10
32.4188
 20
-68.5703
 10
32.8212
 20
-68.6947
 10
33.1934
 20
-68.8919
 10
33.5209
 20
-69.1568
 10
33.7877
 20
-69.4825
 10
33.9852
 20
-69.8545
 10
34.1078
 20
-70.2575
 10
34.15
 20
-70.6765
 10
34.1078
 20
-71.0955
 10
33.9852
 20
-71.4985
 10
33.7877
 20
-71.8705
 10
33.5209
 20
-72.1962
 10
33.1934
 20
-72.4611
 10
32.8212
 20
-72.6583
 10
32.4188
 20
-72.7827
 10
32.0
 20
-72.8265
 10
-0.0
 20
-72.8265
 10
-32.0
 20
-72.8265
 10
-32.4188
 20
-72.7827
 10
-32.8212
 20
-72.6583
 10
-33.1934
 20
-72.4611
 10
-33.5209
 20
-72.1962
 10
-33.7877
 20
-71.8705
 10
-33.9852
 20
-71.4985
 10
-34.1078
 20
-71.0955
 10
-34.15
 20
-70.6765
 10
-34.1078
 20
-70.2575
 10
-33.9852
 20
-69.8545
 10
-33.7877
 20
-69.4825
 10
-33.5209
 20
-69.1568
 10
-33.1934
 20
-68.8919
 10
-32.8212
 20
-68.6947
 10
-32.4188
 20
-68.5703
 10
-32.0
 20
-68.5265
 10
-0.0
 20
-68.5265
  0
LWPOLYLINE
  5
A2
330
17
100
AcDbEntity
  8
HOLES
100
AcDbPolyline
 90
36
 70
1
 10
32.0
 20
-52.5265
 10
32.4188
 20
-52.5703
 10
32.8212
 20
-52.6947
 10
33.1934
 20
-52.8919
 10
33.5209
 20
-53.1568
 10
33.7877
 20
-53.4825
 10
33.9852
 20
-53.8545
 10
34.1078
 20
-54.2575
 10
34.15
 20
-54.6765
 10
34.1078
 20
-55.0955
 10
33.9852
 20
-55.4985
 10
33.7877
 20
-55.8705
 10
33.5209
 20
-56.1962
 10
33.1934
 20
-56.4611
 10
32.8212
 20
-56.6583
 10
32.4188
 20
-56.7827
 10
32.0
 20
-56.8265
 10
-0.0
 20
-56.8265
 10
-32.0
 20
-56.8265
 10
-32.4188
 20
-56.7827
 10
-32.8212
 20
-56.6583
 10
-33.1934
 20
-56.4611
 10
-33.5209
 20
-56.1962
 10
-33.7877
 20
-55.8705
 10
-33.9852
 20
-55.4985
 10
-34.1078
 20
-55.0955
 10
-34.15
 20
-54.6765
 10
-34.1078
 20
-54.2575
 10
-33.9852
 20
-53.8545
 10
-33.7877
 20
-53.4825
 10
-33.5209
 20
-53.1568
 10
-33.1934
 20
-52.8919
 10
-32.8212
 20
-52.6947
 10
-32.4188
 20
-52.5703
 10
-32.0
 20
-52.5265
 10
-0.0
 20
-52.5265
  0
LWPOLYLINE
  5
A3
330
17
100
AcDbEntity
  8
HOLES
100
AcDbPolyline
 90
36
 70
1
 10
32.0
 20
-88.8265
 10
-0.0
 20
-88.8265
 10
-32.0
 20
-88.8265
 10
-32.4188
 20
-88.7827
 10
-32.8212
 20
-88.6583
 10
-33.1934
 20
-88.4611
 10
-33.5209
 20
-88.1962
 10
-33.7877
 20
-87.8705
 10
-33.9852
 20
-87.4985
 10
-34.1078
 20
-87.0955
 10
-34.15
 20
-86.6765
 10
-34.1078
 20
-86.2575
 10
-33.9852
 20
-85.8545
 10
-33.7877
 20
-85.4825
 10
-33.5209
 20
-85.1568
 10
-33.1934
 20
-84.8919
 10
-32.8212
 20
-84.6947
 10
-32.4188
 20
-84.5703
 10
-32.0
 20
-84.5265
 10
-0.0
 20
-84.5265
 10
32.0
 20
-84.5265
 10
32.4188
 20
-84.5703
 10
32.8212
 20
-84.6947
 10
33.1934
 20
-84.8919
 10
33.5209
 20
-85.1568
 10
33.7877
 20
-85.4825
 10
33.9852
 20
-85.8545
 10
34.1078
 20
-86.2575
 10
34.15
 20
-86.6765
 10
34.1078
 20
-87.0955
 10
33.9852
 20
-87.4985
 10
33.7877
 20
-87.8705
 10
33.5209
 20
-88.1962
 10
33.1934
 20
-88.4611
 10
32.8212
 20
-88.6583
 10
32.4188
 20
-88.7827
  0
LWPOLYLINE
  5
A4
330
17
100
AcDbEntity
  8
HOLES
100
AcDbPolyline
 90
36
 70
1
 10
32.0
 20
-104.8265
 10
-0.0
 20
-104.8265
 10
-32.0
 20
-104.8265
 10
-32.4188
 20
-104.7827
 10
-32.8212
 20
-104.6583
 10
-33.1934
 20
-104.4611
 10
-33.5209
 20
-104.1962
 10
-33.7877
 20
-103.8705
 10
-33.9852
 20
-103.4985
 10
-34.1078
 20
-103.0955
 10
-34.15
 20
-102.6765
 10
-34.1078
 20
-102.2575
 10
-33.9852
 20
-101.8545
 10
-33.7877
 20
-101.4825
 10
-33.5209
 20
-101.1568
 10
-33.1934
 20
-100.8919
 10
-32.8212
 20
-100.6947
 10
-32.4188
 20
-100.5703
 10
-32.0
 20
-100.5265
 10
-0.0
 20
-100.5265
 10
32.0
 20
-100.5265
 10
32.4188
 20
-100.5703
 10
32.8212
 20
-100.6947
 10
33.1934
 20
-100.8919
 10
33.5209
 20
-101.1568
 10
33.7877
 20
-101.4825
 10
33.9852
 20
-101.8545
 10
34.1078
 20
-102.2575
 10
34.15
 20
-102.6765
 10
34.1078
 20
-103.0955
 10
33.9852
 20
-103.4985
 10
33.7877
 20
-103.8705
 10
33.5209
 20
-104.1962
 10
33.1934
 20
-104.4611
 10
32.8212
 20
-104.6583
 10
32.4188
 20
-104.7827
  0
LWPOLYLINE
  5
A5
330
17
100
AcDbEntity
  8
HOLES
100
AcDbPolyline
 90
36
 70
1
 10
45.1133
 20
22.9705
 10
45.1644
 20
23.4868
 10
45.3148
 20
23.9833
 10
45.5596
 20
24.4407
 10
45.8885
 20
24.842
 10
46.2906
 20
25.1697
 10
46.7475
 20
25.4156
 10
47.2435
 20
25.5675
 10
47.7599
 20
25.6172
 10
48.2763
 20
25.5675
 10
48.7724
 20
25.4156
 10
49.2292
 20
25.1697
 10
49.6314
 20
24.842
 10
49.9602
 20
24.4407
 10
50.2051
 20
23.9833
 10
50.3555
 20
23.4868
 10
50.4066
 20
22.9705
 10
50.4066
 20
1.4669
 10
50.4066
 20
-20.0368
 10
50.3555
 20
-20.5531
 10
50.2051
 20
-21.0496
 10
49.9602
 20
-21.507
 10
49.6314
 20
-21.9082
 10
49.2292
 20
-22.236
 10
48.7724
 20
-22.4819
 10
48.2763
 20
-22.6337
 10
47.7599
 20
-22.6834
 10
47.2435
 20
-22.6337
 10
46.7475
 20
-22.4819
 10
46.2906
 20
-22.236
 10
45.8885
 20
-21.9082
 10
45.5596
 20
-21.507
 10
45.3148
 20
-21.0496
 10
45.1644
 20
-20.5531
 10
45.1133
 20
-20.0368
 10
45.1133
 20
1.4669
  0
LWPOLYLINE
  5
A6
330
17
100
AcDbEntity
  8
HOLES
100
AcDbPolyline
 90
32
 70
1
 10
35.9416
 20
-121.8873
 10
35.9831
 20
-121.4679
 10
36.1052
 20
-121.0646
 10
36.3041
 20
-120.693
 10
36.5713
 20
-120.367
 10
36.8979
 20
-120.1008
 10
37.2691
 20
-119.901
 10
37.672
 20
-119.7777
 10
38.0916
 20
-119.7373
 10
38.5111
 20
-119.7777
 10
38.914
 20
-119.901
 10
39.2852
 20
-120.1008
 10
39.6118
 20
-120.367
 10
39.879
 20
-120.693
 10
40.0779
 20
-121.0646
 10
40.2001
 20
-121.4679
 10
40.2416
 20
-121.8873
 10
40.2001
 20
-122.3067
 10
40.0779
 20
-122.71
 10
39.879
 20
-123.0816
 10
39.6118
 20
-123.4076
 10
39.2852
 20
-123.6738
 10
38.914
 20
-123.8736
 10
38.5111
 20
-123.9969
 10
38.0916
 20
-124.0373
 10
37.672
 20
-123.9969
 10
37.2691
 20
-123.8736
 10
36.8979
 20
-123.6738
 10
36.5713
 20
-123.4076
 10
36.3041
 20
-123.0816
 10
36.1052
 20
-122.71
 10
35.9831
 20
-122.3067
  0
LWPOLYLINE
  5
A7
330
17
100
AcDbEntity
  8
HOLES
100
AcDbPolyline
 90
32
 70
1
 10
-35.9416
 20
-121.8873
 10
-35.9831
 20
-122.3067
 10
-36.1052
 20
-122.71
 10
-36.3041
 20
-123.0816
 10
-36.5713
 20
-123.4076
 10
-36.8979
 20
-123.6738
 10
-37.2691
 20
-123.8736
 10
-37.672
 20
-123.9969
 10
-38.0916
 20
-124.0373
 10
-38.5111
 20
-123.9969
 10
-38.914
 20
-123.8736
 10
-39.2852
 20
-123.6738
 10
-39.6118
 20
-123.4076
 10
-39.879
 20
-123.0816
 10
-40.0779
 20
-122.71
 10
-40.2001
 20
-122.3067
 10
-40.2416
 20
-121.8873
 10
-40.2001
 20
-121.4679
 10
-40.0779
 20
-121.0646
 10
-39.879
 20
-120.693
 10
-39.6118
 20
-120.367
 10
-39.2852
 20
-120.1008
 10
-38.914
 20
-119.901
 10
-38.5111
 20
-119.7777
 10
-38.0916
 20
-119.7373
 10
-37.672
 20
-119.7777
 10
-37.2691
 20
-119.901
 10
-36.8979
 20
-120.1008
 10
-36.5713
 20
-120.367
 10
-36.3041
 20
-120.693
 10
-36.1052
 20
-121.0646
 10
-35.9831
 20
-121.4679
  0
LWPOLYLINE
  5
A8
330
17
100
AcDbEntity
  8
HOLES
100
AcDbPolyline
 90
36
 70
1
 10
-34.018
 20
-125.3701
 10
-0.0
 20
-125.3701
 10
34.018
 20
-125.3701
 10
34.5423
 20
-125.422
 10
35.0465
 20
-125.5747
 10
35.511
 20
-125.8234
 10
35.9184
 20
-126.1573
 10
36.2513
 20
-126.5657
 10
36.501
 20
-127.0297
 10
36.6552
 20
-127.5334
 10
36.7057
 20
-128.0578
 10
36.6552
 20
-128.5822
 10
36.501
 20
-129.0859
 10
36.2513
 20
-129.5499
 10
35.9184
 20
-129.9583
 10
35.511
 20
-130.2922
 10
35.0465
 20
-130.5408
 10
34.5423
 20
-130.6936
 10
34.018
 20
-130.7454
 10
-0.0
 20
-130.7454
 10
-34.018
 20
-130.7454
 10
-34.5423
 20
-130.6936
 10
-35.0465
 20
-130.5408
 10
-35.511
 20
-130.2922
 10
-35.9184
 20
-129.9583
 10
-36.2513
 20
-129.5499
 10
-36.501
 20
-129.0859
 10
-36.6552
 20
-128.5822
 10
-36.7057
 20
-128.0578
 10
-36.6552
 20
-127.5334
 10
-36.501
 20
-127.0297
 10
-36.2513
 20
-126.5657
 10
-35.9184
 20
-126.1573
 10
-35.511
 20
-125.8234
 10
-35.0465
 20
-125.5747
 10
-34.5423
 20
-125.422
  0
LWPOLYLINE
  5
A9
330
17
100
AcDbEntity
  8
HOLES
100
AcDbPolyline
 90
32
 70
1
 10
53.333
 20
-116.3572
 10
53.3067
 20
-116.6006
 10
53.2342
 20
-116.8345
 10
53.1202
 20
-117.0513
 10
52.9663
 20
-117.2417
 10
52.7766
 20
-117.3964
 10
52.5608
 20
-117.5122
 10
52.3267
 20
-117.5838
 10
52.083
 20
-117.6072
 10
51.8393
 20
-117.5838
 10
51.6052
 20
-117.5122
 10
51.3894
 20
-117.3964
 10
51.1997
 20
-117.2417
 10
51.0458
 20
-117.0513
 10
50.9318
 20
-116.8345
 10
50.8593
 20
-116.6006
 10
50.833
 20
-116.3572
 10
50.8593
 20
-116.1139
 10
50.9318
 20
-115.88
 10
51.0458
 20
-115.6632
 10
51.1997
 20
-115.4728
 10
51.3894
 20
-115.3181
 10
51.6052
 20
-115.2023
 10
51.8393
 20
-115.1307
 10
52.083
 20
-115.1072
 10
52.3267
 20
-115.1307
 10
52.5608
 20
-115.2023
 10
52.7766
 20
-115.3181
 10
52.9663
 20
-115.4728
 10
53.1202
 20
-115.6632
 10
53.2342
 20
-115.88
 10
53.3067
 20
-116.1139
  0
LWPOLYLINE
  5
AA
330
17
100
AcDbEntity
  8
HOLES
100
AcDbPolyline
 90
32
 70
1
 10
-50.833
 20
-116.3572
 10
-50.8593
 20
-116.6006
 10
-50.9318
 20
-116.8345
 10
-51.0458
 20
-117.0513
 10
-51.1997
 20
-117.2417
 10
-51.3894
 20
-117.3964
 10
-51.6052
 20
-117.5122
 10
-51.8393
 20
-117.5838
 10
-52.083
 20
-117.6072
 10
-52.3267
 20
-117.5838
 10
-52.5608
 20
-117.5122
 10
-52.7766
 20
-117.3964
 10
-52.9663
 20
-117.2417
 10
-53.1202
 20
-117.0513
 10
-53.2342
 20
-116.8345
 10
-53.3067
 20
-116.6006
 10
-53.333
 20
-116.3572
 10
-53.3067
 20
-116.1139
 10
-53.2342
 20
-115.88
 10
-53.1202
 20
-115.6632
 10
-52.9663
 20
-115.4728
 10
-52.7766
 20
-115.3181
 10
-52.5608
 20
-115.2023
 10
-52.3267
 20
-115.1307
 10
-52.083
 20
-115.1072
 10
-51.8393
 20
-115.1307
 10
-51.6052
 20
-115.2023
 10
-51.3894
 20
-115.3181
 10
-51.1997
 20
-115.4728
 10
-51.0458
 20
-115.6632
 10
-50.9318
 20
-115.88
 10
-50.8593
 20
-116.1139
  0
LWPOLYLINE
  5
AB
330
17
100
AcDbEntity
  8
HOLES
100
AcDbPolyline
 90
32
 70
1
 10
42.22
 20
-127.9689
 10
42.2509
 20
-127.6568
 10
42.3418
 20
-127.3566
 10
42.4898
 20
-127.0801
 10
42.6886
 20
-126.8375
 10
42.9317
 20
-126.6394
 10
43.208
 20
-126.4907
 10
43.5078
 20
-126.3989
 10
43.82
 20
-126.3689
 10
44.1322
 20
-126.3989
 10
44.4321
 20
-126.4907
 10
44.7083
 20
-126.6394
 10
44.9514
 20
-126.8375
 10
45.1502
 20
-127.0801
 10
45.2982
 20
-127.3566
 10
45.3891
 20
-127.6568
 10
45.42
 20
-127.9689
 10
45.3891
 20
-128.281
 10
45.2982
 20
-128.5812
 10
45.1502
 20
-128.8577
 10
44.9514
 20
-129.1003
 10
44.7083
 20
-129.2984
 10
44.4321
 20
-129.4471
 10
44.1322
 20
-129.5388
 10
43.82
 20
-129.5689
 10
43.5078
 20
-129.5388
 10
43.208
 20
-129.4471
 10
42.9317
 20
-129.2984
 10
42.6886
 20
-129.1003
 10
42.4898
 20
-128.8577
 10
42.3418
 20
-128.5812
 10
42.2509
 20
-128.281
  0
LWPOLYLINE
  5
AC
330
17
100
AcDbEntity
  8
HOLES
100
AcDbPolyline
 90
32
 70
1
 10
-42.22
 20
-127.9689
 10
-42.2509
 20
-128.281
 10
-42.3418
 20
-128.5812
 10
-42.4898
 20
-128.8577
 10
-42.6886
 20
-129.1003
 10
-42.9317
 20
-129.2984
 10
-43.208
 20
-129.4471
 10
-43.5078
 20
-129.5388
 10
-43.82
 20
-129.5689
 10
-44.1322
 20
-129.5388
 10
-44.4321
 20
-129.4471
 10
-44.7083
 20
-129.2984
 10
-44.9514
 20
-129.1003
 10
-45.1502
 20
-128.8577
 10
-45.2982
 20
-128.5812
 10
-45.3891
 20
-128.281
 10
-45.42
 20
-127.9689
 10
-45.3891
 20
-127.6568
 10
-45.2982
 20
-127.3566
 10
-45.1502
 20
-127.0801
 10
-44.9514
 20
-126.8375
 10
-44.7083
 20
-126.6394
 10
-44.4321
 20
-126.4907
 10
-44.1322
 20
-126.3989
 10
-43.82
 20
-126.3689
 10
-43.5078
 20
-126.3989
 10
-43.208
 20
-126.4907
 10
-42.9317
 20
-126.6394
 10
-42.6886
 20
-126.8375
 10
-42.4898
 20
-127.0801
 10
-42.3418
 20
-127.3566
 10
-42.2509
 20
-127.6568
  0
LWPOLYLINE
  5
AD
330
17
100
AcDbEntity
  8
HOLES
100
AcDbPolyline
 90
32
 70
1
 10
-6.28
 20
-8.5316
 10
-6.3061
 20
-8.7949
 10
-6.3828
 20
-9.0482
 10
-6.5077
 20
-9.2815
 10
-6.6754
 20
-9.4862
 10
-6.8805
 20
-9.6534
 10
-7.1136
 20
-9.7788
 10
-7.3666
 20
-9.8562
 10
-7.63
 20
-9.8816
 10
-7.8934
 20
-9.8562
 10
-8.1464
 20
-9.7788
 10
-8.3795
 20
-9.6534
 10
-8.5846
 20
-9.4862
 10
-8.7523
 20
-9.2815
 10
-8.8772
 20
-9.0482
 10
-8.9539
 20
-8.7949
 10
-8.98
 20
-8.5316
 10
-8.9539
 20
-8.2682
 10
-8.8772
 20
-8.015
 10
-8.7523
 20
-7.7817
 10
-8.5846
 20
-7.577
 10
-8.3795
 20
-7.4098
 10
-8.1464
 20
-7.2844
 10
-7.8934
 20
-7.2069
 10
-7.63
 20
-7.1816
 10
-7.3666
 20
-7.2069
 10
-7.1136
 20
-7.2844
 10
-6.8805
 20
-7.4098
 10
-6.6754
 20
-7.577
 10
-6.5077
 20
-7.7817
 10
-6.3828
 20
-8.015
 10
-6.3061
 20
-8.2682
  0
LWPOLYLINE
  5
AE
330
17
100
AcDbEntity
  8
HOLES
100
AcDbPolyline
 90
32
 70
1
 10
6.28
 20
-8.5316
 10
6.3061
 20
-8.2682
 10
6.3828
 20
-8.015
 10
6.5077
 20
-7.7817
 10
6.6754
 20
-7.577
 10
6.8805
 20
-7.4098
 10
7.1136
 20
-7.2844
 10
7.3666
 20
-7.2069
 10
7.63
 20
-7.1816
 10
7.8934
 20
-7.2069
 10
8.1464
 20
-7.2844
 10
8.3795
 20
-7.4098
 10
8.5846
 20
-7.577
 10
8.7523
 20
-7.7817
 10
8.8772
 20
-8.015
 10
8.9539
 20
-8.2682
 10
8.98
 20
-8.5316
 10
8.9539
 20
-8.7949
 10
8.8772
 20
-9.0482
 10
8.7523
 20
-9.2815
 10
8.5846
 20
-9.4862
 10
8.3795
 20
-9.6534
 10
8.1464
 20
-9.7788
 10
7.8934
 20
-9.8562
 10
7.63
 20
-9.8816
 10
7.3666
 20
-9.8562
 10
7.1136
 20
-9.7788
 10
6.8805
 20
-9.6534
 10
6.6754
 20
-9.4862
 10
6.5077
 20
-9.2815
 10
6.3828
 20
-9.0482
 10
6.3061
 20
-8.7949
  0
LWPOLYLINE
  5
AF
330
17
100
AcDbEntity
  8
HOLES
100
AcDbPolyline
 90
32
 70
1
 10
-42.2845
 20
-27.0972
 10
-42.3108
 20
-27.3406
 10
-42.3833
 20
-27.5745
 10
-42.4973
 20
-27.7912
 10
-42.6512
 20
-27.9816
 10
-42.8409
 20
-28.1364
 10
-43.0567
 20
-28.2522
 10
-43.2908
 20
-28.3238
 10
-43.5345
 20
-28.3472
 10
-43.7782
 20
-28.3238
 10
-44.0123
 20
-28.2522
 10
-44.2281
 20
-28.1364
 10
-44.4178
 20
-27.9816
 10
-44.5717
 20
-27.7912
 10
-44.6857
 20
-27.5745
 10
-44.7582
 20
-27.3406
 10
-44.7845
 20
-27.0972
 10
-44.7582
 20
-26.8538
 10
-44.6857
 20
-26.6199
 10
-44.5717
 20
-26.4032
 10
-44.4178
 20
-26.2128
 10
-44.2281
 20
-26.058
 10
-44.0123
 20
-25.9423
 10
-43.7782
 20
-25.8707
 10
-43.5345
 20
-25.8472
 10
-43.2908
 20
-25.8707
 10
-43.0567
 20
-25.9423
 10
-42.8409
 20
-26.058
 10
-42.6512
 20
-26.2128
 10
-42.4973
 20
-26.4032
 10
-42.3833
 20
-26.6199
 10
-42.3108
 20
-26.8538
  0
LWPOLYLINE
  5
B0
330
17
100
AcDbEntity
  8
HOLES
100
AcDbPolyline
 90
32
 70
1
 10
44.7845
 20
-27.0972
 10
44.7582
 20
-27.3406
 10
44.6857
 20
-27.5745
 10
44.5717
 20
-27.7912
 10
44.4178
 20
-27.9816
 10
44.2281
 20
-28.1364
 10
44.0123
 20
-28.2522
 10
43.7782
 20
-28.3238
 10
43.5345
 20
-28.3472
 10
43.2908
 20
-28.3238
 10
43.0567
 20
-28.2522
 10
42.8409
 20
-28.1364
 10
42.6512
 20
-27.9816
 10
42.4973
 20
-27.7912
 10
42.3833
 20
-27.5745
 10
42.3108
 20
-27.3406
 10
42.2845
 20
-27.0972
 10
42.3108
 20
-26.8538
 10
42.3833
 20
-26.6199
 10
42.4973
 20
-26.4032
 10
42.6512
 20
-26.2128
 10
42.8409
 20
-26.058
 10
43.0567
 20
-25.9423
 10
43.2908
 20
-25.8707
 10
43.5345
 20
-25.8472
 10
43.7782
 20
-25.8707
 10
44.0123
 20
-25.9423
 10
44.2281
 20
-26.058
 10
44.4178
 20
-26.2128
 10
44.5717
 20
-26.4032
 10
44.6857
 20
-26.6199
 10
44.7582
 20
-26.8538
  0
LWPOLYLINE
  5
B1
330
17
100
AcDbEntity
  8
HOLES
100
AcDbPolyline
 90
32
 70
1
 10
-48.9542
 20
-51.1818
 10
-48.9851
 20
-51.4939
 10
-49.076
 20
-51.7941
 10
-49.2241
 20
-52.0706
 10
-49.4228
 20
-52.3132
 10
-49.666
 20
-52.5113
 10
-49.9422
 20
-52.66
 10
-50.242
 20
-52.7518
 10
-50.5542
 20
-52.7818
 10
-50.8664
 20
-52.7518
 10
-51.1663
 20
-52.66
 10
-51.4425
 20
-52.5113
 10
-51.6856
 20
-52.3132
 10
-51.8844
 20
-52.0706
 10
-52.0324
 20
-51.7941
 10
-52.1233
 20
-51.4939
 10
-52.1542
 20
-51.1818
 10
-52.1233
 20
-50.8697
 10
-52.0324
 20
-50.5695
 10
-51.8844
 20
-50.293
 10
-51.6856
 20
-50.0505
 10
-51.4425
 20
-49.8523
 10
-51.1663
 20
-49.7037
 10
-50.8664
 20
-49.6119
 10
-50.5542
 20
-49.5818
 10
-50.242
 20
-49.6119
 10
-49.9422
 20
-49.7037
 10
-49.666
 20
-49.8523
 10
-49.4228
 20
-50.0505
 10
-49.2241
 20
-50.293
 10
-49.076
 20
-50.5695
 10
-48.9851
 20
-50.8697
  0
LWPOLYLINE
  5
B2
330
17
100
AcDbEntity
  8
HOLES
100
AcDbPolyline
 90
32
 70
1
 10
52.1542
 20
-51.1818
 10
52.1233
 20
-51.4939
 10
52.0324
 20
-51.7941
 10
51.8844
 20
-52.0706
 10
51.6856
 20
-52.3132
 10
51.4425
 20
-52.5113
 10
51.1663
 20
-52.66
 10
50.8664
 20
-52.7518
 10
50.5542
 20
-52.7818
 10
50.242
 20
-52.7518
 10
49.9422
 20
-52.66
 10
49.666
 20
-52.5113
 10
49.4228
 20
-52.3132
 10
49.2241
 20
-52.0706
 10
49.076
 20
-51.7941
 10
48.9851
 20
-51.4939
 10
48.9542
 20
-51.1818
 10
48.9851
 20
-50.8697
 10
49.076
 20
-50.5695
 10
49.2241
 20
-50.293
 10
49.4228
 20
-50.0505
 10
49.666
 20
-49.8523
 10
49.9422
 20
-49.7037
 10
50.242
 20
-49.6119
 10
50.5542
 20
-49.5818
 10
50.8664
 20
-49.6119
 10
51.1663
 20
-49.7037
 10
51.4425
 20
-49.8523
 10
51.6856
 20
-50.0505
 10
51.8844
 20
-50.293
 10
52.0324
 20
-50.5695
 10
52.1233
 20
-50.8697
  0
LWPOLYLINE
  5
B3
330
17
100
AcDbEntity
  8
HOLES
100
AcDbPolyline
 90
36
 70
1
 10
-50.4066
 20
-20.0368
 10
-50.4066
 20
1.4669
 10
-50.4066
 20
22.9705
 10
-50.3555
 20
23.4868
 10
-50.2051
 20
23.9833
 10
-49.9602
 20
24.4407
 10
-49.6314
 20
24.842
 10
-49.2292
 20
25.1697
 10
-48.7724
 20
25.4156
 10
-48.2763
 20
25.5675
 10
-47.7599
 20
25.6172
 10
-47.2435
 20
25.5675
 10
-46.7475
 20
25.4156
 10
-46.2906
 20
25.1697
 10
-45.8885
 20
24.842
 10
-45.5596
 20
24.4407
 10
-45.3148
 20
23.9833
 10
-45.1644
 20
23.4868
 10
-45.1133
 20
22.9705
 10
-45.1133
 20
1.4669
 10
-45.1133
 20
-20.0368
 10
-45.1644
 20
-20.5531
 10
-45.3148
 20
-21.0496
 10
-45.5596
 20
-21.507
 10
-45.8885
 20
-21.9082
 10
-46.2906
 20
-22.236
 10
-46.7475
 20
-22.4819
 10
-47.2435
 20
-22.6337
 10
-47.7599
 20
-22.6834
 10
-48.2763
 20
-22.6337
 10
-48.7724
 20
-22.4819
 10
-49.2292
 20
-22.236
 10
-49.6314
 20
-21.9082
 10
-49.9602
 20
-21.507
 10
-50.2051
 20
-21.0496
 10
-50.3555
 20
-20.5531
  0
LWPOLYLINE
  5
B4
330
17
100
AcDbEntity
  8
HOLES
100
AcDbPolyline
 90
32
 70
1
 10
22.94
 20
14.8684
 10
22.9661
 20
15.1318
 10
23.0428
 20
15.385
 10
23.1677
 20
15.6183
 10
23.3354
 20
15.823
 10
23.5405
 20
15.9902
 10
23.7736
 20
16.1156
 10
24.0266
 20
16.1931
 10
24.29
 20
16.2184
 10
24.5534
 20
16.1931
 10
24.8064
 20
16.1156
 10
25.0395
 20
15.9902
 10
25.2446
 20
15.823
 10
25.4123
 20
15.6183
 10
25.5372
 20
15.385
 10
25.6139
 20
15.1318
 10
25.64
 20
14.8684
 10
25.6139
 20
14.6051
 10
25.5372
 20
14.3518
 10
25.4123
 20
14.1185
 10
25.2446
 20
13.9138
 10
25.0395
 20
13.7466
 10
24.8064
 20
13.6212
 10
24.5534
 20
13.5438
 10
24.29
 20
13.5184
 10
24.0266
 20
13.5438
 10
23.7736
 20
13.6212
 10
23.5405
 20
13.7466
 10
23.3354
 20
13.9138
 10
23.1677
 20
14.1185
 10
23.0428
 20
14.3518
 10
22.9661
 20
14.6051
  0
LWPOLYLINE
  5
B5
330
17
100
AcDbEntity
  8
HOLES
100
AcDbPolyline
 90
32
 70
1
 10
10.65
 20
32.7661
 10
10.6761
 20
33.0295
 10
10.7528
 20
33.2828
 10
10.8777
 20
33.5161
 10
11.0454
 20
33.7207
 10
11.2505
 20
33.8879
 10
11.4836
 20
34.0133
 10
11.7366
 20
34.0908
 10
12.0
 20
34.1161
 10
12.2634
 20
34.0908
 10
12.5164
 20
34.0133
 10
12.7495
 20
33.8879
 10
12.9546
 20
33.7207
 10
13.1223
 20
33.5161
 10
13.2472
 20
33.2828
 10
13.3239
 20
33.0295
 10
13.35
 20
32.7661
 10
13.3239
 20
32.5028
 10
13.2472
 20
32.2495
 10
13.1223
 20
32.0162
 10
12.9546
 20
31.8116
 10
12.7495
 20
31.6444
 10
12.5164
 20
31.519
 10
12.2634
 20
31.4415
 10
12.0
 20
31.4161
 10
11.7366
 20
31.4415
 10
11.4836
 20
31.519
 10
11.2505
 20
31.6444
 10
11.0454
 20
31.8116
 10
10.8777
 20
32.0162
 10
10.7528
 20
32.2495
 10
10.6761
 20
32.5028
  0
LWPOLYLINE
  5
B6
330
17
100
AcDbEntity
  8
HOLES
100
AcDbPolyline
 90
32
 70
1
 10
-13.35
 20
32.7661
 10
-13.3239
 20
33.0295
 10
-13.2472
 20
33.2828
 10
-13.1223
 20
33.5161
 10
-12.9546
 20
33.7207
 10
-12.7495
 20
33.8879
 10
-12.5164
 20
34.0133
 10
-12.2634
 20
34.0908
 10
-12.0
 20
34.1161
 10
-11.7366
 20
34.0908
 10
-11.4836
 20
34.0133
 10
-11.2505
 20
33.8879
 10
-11.0454
 20
33.7207
 10
-10.8777
 20
33.5161
 10
-10.7528
 20
33.2828
 10
-10.6761
 20
33.0295
 10
-10.65
 20
32.7661
 10
-10.6761
 20
32.5028
 10
-10.7528
 20
32.2495
 10
-10.8777
 20
32.0162
 10
-11.0454
 20
31.8116
 10
-11.2505
 20
31.6444
 10
-11.4836
 20
31.519
 10
-11.7366
 20
31.4415
 10
-12.0
 20
31.4161
 10
-12.2634
 20
31.4415
 10
-12.5164
 20
31.519
 10
-12.7495
 20
31.6444
 10
-12.9546
 20
31.8116
 10
-13.1223
 20
32.0162
 10
-13.2472
 20
32.2495
 10
-13.3239
 20
32.5028
  0
LWPOLYLINE
  5
B7
330
17
100
AcDbEntity
  8
HOLES
100
AcDbPolyline
 90
32
 70
1
 10
-13.35
 20
-13.2339
 10
-13.3239
 20
-12.9705
 10
-13.2472
 20
-12.7172
 10
-13.1223
 20
-12.4839
 10
-12.9546
 20
-12.2793
 10
-12.7495
 20
-12.1121
 10
-12.5164
 20
-11.9867
 10
-12.2634
 20
-11.9092
 10
-12.0
 20
-11.8839
 10
-11.7366
 20
-11.9092
 10
-11.4836
 20
-11.9867
 10
-11.2505
 20
-12.1121
 10
-11.0454
 20
-12.2793
 10
-10.8777
 20
-12.4839
 10
-10.7528
 20
-12.7172
 10
-10.6761
 20
-12.9705
 10
-10.65
 20
-13.2339
 10
-10.6761
 20
-13.4972
 10
-10.7528
 20
-13.7505
 10
-10.8777
 20
-13.9838
 10
-11.0454
 20
-14.1884
 10
-11.2505
 20
-14.3556
 10
-11.4836
 20
-14.481
 10
-11.7366
 20
-14.5585
 10
-12.0
 20
-14.5839
 10
-12.2634
 20
-14.5585
 10
-12.5164
 20
-14.481
 10
-12.7495
 20
-14.3556
 10
-12.9546
 20
-14.1884
 10
-13.1223
 20
-13.9838
 10
-13.2472
 20
-13.7505
 10
-13.3239
 20
-13.4972
  0
LWPOLYLINE
  5
B8
330
17
100
AcDbEntity
  8
HOLES
100
AcDbPolyline
 90
32
 70
1
 10
10.65
 20
-13.2339
 10
10.6761
 20
-12.9705
 10
10.7528
 20
-12.7172
 10
10.8777
 20
-12.4839
 10
11.0454
 20
-12.2793
 10
11.2505
 20
-12.1121
 10
11.4836
 20
-11.9867
 10
11.7366
 20
-11.9092
 10
12.0
 20
-11.8839
 10
12.2634
 20
-11.9092
 10
12.5164
 20
-11.9867
 10
12.7495
 20
-12.1121
 10
12.9546
 20
-12.2793
 10
13.1223
 20
-12.4839
 10
13.2472
 20
-12.7172
 10
13.3239
 20
-12.9705
 10
13.35
 20
-13.2339
 10
13.3239
 20
-13.4972
 10
13.2472
 20
-13.7505
 10
13.1223
 20
-13.9838
 10
12.9546
 20
-14.1884
 10
12.7495
 20
-14.3556
 10
12.5164
 20
-14.481
 10
12.2634
 20
-14.5585
 10
12.0
 20
-14.5839
 10
11.7366
 20
-14.5585
 10
11.4836
 20
-14.481
 10
11.2505
 20
-14.3556
 10
11.0454
 20
-14.1884
 10
10.8777
 20
-13.9838
 10
10.7528
 20
-13.7505
 10
10.6761
 20
-13.4972
  0
LWPOLYLINE
  5
B9
330
17
100
AcDbEntity
  8
HOLES
100
AcDbPolyline
 90
32
 70
1
 10
-47.3476
 20
-34.9579
 10
-47.3215
 20
-34.6946
 10
-47.2448
 20
-34.4413
 10
-47.1199
 20
-34.208
 10
-46.9522
 20
-34.0033
 10
-46.747
 20
-33.8361
 10
-46.514
 20
-33.7107
 10
-46.261
 20
-33.6333
 10
-45.9976
 20
-33.6079
 10
-45.7341
 20
-33.6333
 10
-45.4811
 20
-33.7107
 10
-45.2481
 20
-33.8361
 10
-45.043
 20
-34.0033
 10
-44.8752
 20
-34.208
 10
-44.7503
 20
-34.4413
 10
-44.6736
 20
-34.6946
 10
-44.6476
 20
-34.9579
 10
-44.6736
 20
-35.2213
 10
-44.7503
 20
-35.4745
 10
-44.8752
 20
-35.7078
 10
-45.043
 20
-35.9125
 10
-45.2481
 20
-36.0797
 10
-45.4811
 20
-36.2051
 10
-45.7341
 20
-36.2826
 10
-45.9976
 20
-36.3079
 10
-46.261
 20
-36.2826
 10
-46.514
 20
-36.2051
 10
-46.747
 20
-36.0797
 10
-46.9522
 20
-35.9125
 10
-47.1199
 20
-35.7078
 10
-47.2448
 20
-35.4745
 10
-47.3215
 20
-35.2213
  0
LWPOLYLINE
  5
BA
330
17
100
AcDbEntity
  8
HOLES
100
AcDbPolyline
 90
32
 70
1
 10
-41.3524
 20
-34.9579
 10
-41.3264
 20
-34.6946
 10
-41.2497
 20
-34.4413
 10
-41.1248
 20
-34.208
 10
-40.957
 20
-34.0033
 10
-40.7519
 20
-33.8361
 10
-40.5189
 20
-33.7107
 10
-40.2659
 20
-33.6333
 10
-40.0024
 20
-33.6079
 10
-39.739
 20
-33.6333
 10
-39.486
 20
-33.7107
 10
-39.253
 20
-33.8361
 10
-39.0478
 20
-34.0033
 10
-38.8801
 20
-34.208
 10
-38.7552
 20
-34.4413
 10
-38.6785
 20
-34.6946
 10
-38.6524
 20
-34.9579
 10
-38.6785
 20
-35.2213
 10
-38.7552
 20
-35.4745
 10
-38.8801
 20
-35.7078
 10
-39.0478
 20
-35.9125
 10
-39.253
 20
-36.0797
 10
-39.486
 20
-36.2051
 10
-39.739
 20
-36.2826
 10
-40.0024
 20
-36.3079
 10
-40.2659
 20
-36.2826
 10
-40.5189
 20
-36.2051
 10
-40.7519
 20
-36.0797
 10
-40.957
 20
-35.9125
 10
-41.1248
 20
-35.7078
 10
-41.2497
 20
-35.4745
 10
-41.3264
 20
-35.2213
  0
LWPOLYLINE
  5
BB
330
17
100
AcDbEntity
  8
HOLES
100
AcDbPolyline
 90
32
 70
1
 10
44.6476
 20
-34.9579
 10
44.6736
 20
-34.6946
 10
44.7503
 20
-34.4413
 10
44.8752
 20
-34.208
 10
45.043
 20
-34.0033
 10
45.2481
 20
-33.8361
 10
45.4811
 20
-33.7107
 10
45.7341
 20
-33.6333
 10
45.9976
 20
-33.6079
 10
46.261
 20
-33.6333
 10
46.514
 20
-33.7107
 10
46.747
 20
-33.8361
 10
46.9522
 20
-34.0033
 10
47.1199
 20
-34.208
 10
47.2448
 20
-34.4413
 10
47.3215
 20
-34.6946
 10
47.3476
 20
-34.9579
 10
47.3215
 20
-35.2213
 10
47.2448
 20
-35.4745
 10
47.1199
 20
-35.7078
 10
46.9522
 20
-35.9125
 10
46.747
 20
-36.0797
 10
46.514
 20
-36.2051
 10
46.261
 20
-36.2826
 10
45.9976
 20
-36.3079
 10
45.7341
 20
-36.2826
 10
45.4811
 20
-36.2051
 10
45.2481
 20
-36.0797
 10
45.043
 20
-35.9125
 10
44.8752
 20
-35.7078
 10
44.7503
 20
-35.4745
 10
44.6736
 20
-35.2213
  0
LWPOLYLINE
  5
BC
330
17
100
AcDbEntity
  8
HOLES
100
AcDbPolyline
 90
32
 70
1
 10
38.6524
 20
-34.9579
 10
38.6785
 20
-34.6946
 10
38.7552
 20
-34.4413
 10
38.8801
 20
-34.208
 10
39.0478
 20
-34.0033
 10
39.253
 20
-33.8361
 10
39.486
 20
-33.7107
 10
39.739
 20
-33.6333
 10
40.0024
 20
-33.6079
 10
40.2659
 20
-33.6333
 10
40.5189
 20
-33.7107
 10
40.7519
 20
-33.8361
 10
40.957
 20
-34.0033
 10
41.1248
 20
-34.208
 10
41.2497
 20
-34.4413
 10
41.3264
 20
-34.6946
 10
41.3524
 20
-34.9579
 10
41.3264
 20
-35.2213
 10
41.2497
 20
-35.4745
 10
41.1248
 20
-35.7078
 10
40.957
 20
-35.9125
 10
40.7519
 20
-36.0797
 10
40.5189
 20
-36.2051
 10
40.2659
 20
-36.2826
 10
40.0024
 20
-36.3079
 10
39.739
 20
-36.2826
 10
39.486
 20
-36.2051
 10
39.253
 20
-36.0797
 10
39.0478
 20
-35.9125
 10
38.8801
 20
-35.7078
 10
38.7552
 20
-35.4745
 10
38.6785
 20
-35.2213
  0
LWPOLYLINE
  5
BD
330
17
100
AcDbEntity
  8
HOLES
100
AcDbPolyline
 90
32
 70
1
 10
38.6524
 20
-92.9579
 10
38.6785
 20
-92.6946
 10
38.7552
 20
-92.4413
 10
38.8801
 20
-92.208
 10
39.0478
 20
-92.0033
 10
39.253
 20
-91.8361
 10
39.486
 20
-91.7107
 10
39.739
 20
-91.6333
 10
40.0024
 20
-91.6079
 10
40.2659
 20
-91.6333
 10
40.5189
 20
-91.7107
 10
40.7519
 20
-91.8361
 10
40.957
 20
-92.0033
 10
41.1248
 20
-92.208
 10
41.2497
 20
-92.4413
 10
41.3264
 20
-92.6946
 10
41.3524
 20
-92.9579
 10
41.3264
 20
-93.2213
 10
41.2497
 20
-93.4745
 10
41.1248
 20
-93.7078
 10
40.957
 20
-93.9125
 10
40.7519
 20
-94.0797
 10
40.5189
 20
-94.2051
 10
40.2659
 20
-94.2826
 10
40.0024
 20
-94.3079
 10
39.739
 20
-94.2826
 10
39.486
 20
-94.2051
 10
39.253
 20
-94.0797
 10
39.0478
 20
-93.9125
 10
38.8801
 20
-93.7078
 10
38.7552
 20
-93.4745
 10
38.6785
 20
-93.2213
  0
LWPOLYLINE
  5
BE
330
17
100
AcDbEntity
  8
HOLES
100
AcDbPolyline
 90
32
 70
1
 10
44.6476
 20
-92.9579
 10
44.6736
 20
-92.6946
 10
44.7503
 20
-92.4413
 10
44.8752
 20
-92.208
 10
45.043
 20
-92.0033
 10
45.2481
 20
-91.8361
 10
45.4811
 20
-91.7107
 10
45.7341
 20
-91.6333
 10
45.9976
 20
-91.6079
 10
46.261
 20
-91.6333
 10
46.514
 20
-91.7107
 10
46.747
 20
-91.8361
 10
46.9522
 20
-92.0033
 10
47.1199
 20
-92.208
 10
47.2448
 20
-92.4413
 10
47.3215
 20
-92.6946
 10
47.3476
 20
-92.9579
 10
47.3215
 20
-93.2213
 10
47.2448
 20
-93.4745
 10
47.1199
 20
-93.7078
 10
46.9522
 20
-93.9125
 10
46.747
 20
-94.0797
 10
46.514
 20
-94.2051
 10
46.261
 20
-94.2826
 10
45.9976
 20
-94.3079
 10
45.7341
 20
-94.2826
 10
45.4811
 20
-94.2051
 10
45.2481
 20
-94.0797
 10
45.043
 20
-93.9125
 10
44.8752
 20
-93.7078
 10
44.7503
 20
-93.4745
 10
44.6736
 20
-93.2213
  0
LWPOLYLINE
  5
BF
330
17
100
AcDbEntity
  8
HOLES
100
AcDbPolyline
 90
32
 70
1
 10
-47.3476
 20
-92.9579
 10
-47.3215
 20
-92.6946
 10
-47.2448
 20
-92.4413
 10
-47.1199
 20
-92.208
 10
-46.9522
 20
-92.0033
 10
-46.747
 20
-91.8361
 10
-46.514
 20
-91.7107
 10
-46.261
 20
-91.6333
 10
-45.9976
 20
-91.6079
 10
-45.7341
 20
-91.6333
 10
-45.4811
 20
-91.7107
 10
-45.2481
 20
-91.8361
 10
-45.043
 20
-92.0033
 10
-44.8752
 20
-92.208
 10
-44.7503
 20
-92.4413
 10
-44.6736
 20
-92.6946
 10
-44.6476
 20
-92.9579
 10
-44.6736
 20
-93.2213
 10
-44.7503
 20
-93.4745
 10
-44.8752
 20
-93.7078
 10
-45.043
 20
-93.9125
 10
-45.2481
 20
-94.0797
 10
-45.4811
 20
-94.2051
 10
-45.7341
 20
-94.2826
 10
-45.9976
 20
-94.3079
 10
-46.261
 20
-94.2826
 10
-46.514
 20
-94.2051
 10
-46.747
 20
-94.0797
 10
-46.9522
 20
-93.9125
 10
-47.1199
 20
-93.7078
 10
-47.2448
 20
-93.4745
 10
-47.3215
 20
-93.2213
  0
LWPOLYLINE
  5
C0
330
17
100
AcDbEntity
  8
HOLES
100
AcDbPolyline
 90
32
 70
1
 10
-41.3524
 20
-92.9579
 10
-41.3264
 20
-92.6946
 10
-41.2497
 20
-92.4413
 10
-41.1248
 20
-92.208
 10
-40.957
 20
-92.0033
 10
-40.7519
 20
-91.8361
 10
-40.5189
 20
-91.7107
 10
-40.2659
 20
-91.6333
 10
-40.0024
 20
-91.6079
 10
-39.739
 20
-91.6333
 10
-39.486
 20
-91.7107
 10
-39.253
 20
-91.8361
 10
-39.0478
 20
-92.0033
 10
-38.8801
 20
-92.208
 10
-38.7552
 20
-92.4413
 10
-38.6785
 20
-92.6946
 10
-38.6524
 20
-92.9579
 10
-38.6785
 20
-93.2213
 10
-38.7552
 20
-93.4745
 10
-38.8801
 20
-93.7078
 10
-39.0478
 20
-93.9125
 10
-39.253
 20
-94.0797
 10
-39.486
 20
-94.2051
 10
-39.739
 20
-94.2826
 10
-40.0024
 20
-94.3079
 10
-40.2659
 20
-94.2826
 10
-40.5189
 20
-94.2051
 10
-40.7519
 20
-94.0797
 10
-40.957
 20
-93.9125
 10
-41.1248
 20
-93.7078
 10
-41.2497
 20
-93.4745
 10
-41.3264
 20
-93.2213
  0
LWPOLYLINE
  5
C1
330
17
100
AcDbEntity
  8
HOLES
100
AcDbPolyline
 90
32
 70
1
 10
34.9075
 20
-61.9189
 10
34.9383
 20
-61.6068
 10
35.0293
 20
-61.3067
 10
35.1773
 20
-61.0301
 10
35.3761
 20
-60.7876
 10
35.6192
 20
-60.5894
 10
35.8954
 20
-60.4408
 10
36.1953
 20
-60.349
 10
36.5075
 20
-60.3189
 10
36.8197
 20
-60.349
 10
37.1195
 20
-60.4408
 10
37.3957
 20
-60.5894
 10
37.6388
 20
-60.7876
 10
37.8376
 20
-61.0301
 10
37.9857
 20
-61.3067
 10
38.0766
 20
-61.6068
 10
38.1075
 20
-61.9189
 10
38.0766
 20
-62.231
 10
37.9857
 20
-62.5312
 10
37.8376
 20
-62.8077
 10
37.6388
 20
-63.0503
 10
37.3957
 20
-63.2484
 10
37.1195
 20
-63.3971
 10
36.8197
 20
-63.4889
 10
36.5075
 20
-63.5189
 10
36.1953
 20
-63.4889
 10
35.8954
 20
-63.3971
 10
35.6192
 20
-63.2484
 10
35.3761
 20
-63.0503
 10
35.1773
 20
-62.8077
 10
35.0293
 20
-62.5312
 10
34.9383
 20
-62.231
  0
LWPOLYLINE
  5
C2
330
17
100
AcDbEntity
  8
HOLES
100
AcDbPolyline
 90
32
 70
1
 10
19.8925
 20
-61.9189
 10
19.9234
 20
-61.6068
 10
20.0143
 20
-61.3067
 10
20.1624
 20
-61.0301
 10
20.3612
 20
-60.7876
 10
20.6043
 20
-60.5894
 10
20.8805
 20
-60.4408
 10
21.1803
 20
-60.349
 10
21.4925
 20
-60.3189
 10
21.8047
 20
-60.349
 10
22.1046
 20
-60.4408
 10
22.3808
 20
-60.5894
 10
22.6239
 20
-60.7876
 10
22.8227
 20
-61.0301
 10
22.9707
 20
-61.3067
 10
23.0617
 20
-61.6068
 10
23.0925
 20
-61.9189
 10
23.0617
 20
-62.231
 10
22.9707
 20
-62.5312
 10
22.8227
 20
-62.8077
 10
22.6239
 20
-63.0503
 10
22.3808
 20
-63.2484
 10
22.1046
 20
-63.3971
 10
21.8047
 20
-63.4889
 10
21.4925
 20
-63.5189
 10
21.1803
 20
-63.4889
 10
20.8805
 20
-63.3971
 10
20.6043
 20
-63.2484
 10
20.3612
 20
-63.0503
 10
20.1624
 20
-62.8077
 10
20.0143
 20
-62.5312
 10
19.9234
 20
-62.231
  0
LWPOLYLINE
  5
C3
330
17
100
AcDbEntity
  8
HOLES
100
AcDbPolyline
 90
32
 70
1
 10
-23.0925
 20
-61.9189
 10
-23.0617
 20
-61.6068
 10
-22.9707
 20
-61.3067
 10
-22.8227
 20
-61.0301
 10
-22.6239
 20
-60.7876
 10
-22.3808
 20
-60.5894
 10
-22.1046
 20
-60.4408
 10
-21.8047
 20
-60.349
 10
-21.4925
 20
-60.3189
 10
-21.1803
 20
-60.349
 10
-20.8805
 20
-60.4408
 10
-20.6043
 20
-60.5894
 10
-20.3612
 20
-60.7876
 10
-20.1624
 20
-61.0301
 10
-20.0143
 20
-61.3067
 10
-19.9234
 20
-61.6068
 10
-19.8925
 20
-61.9189
 10
-19.9234
 20
-62.231
 10
-20.0143
 20
-62.5312
 10
-20.1624
 20
-62.8077
 10
-20.3612
 20
-63.0503
 10
-20.6043
 20
-63.2484
 10
-20.8805
 20
-63.3971
 10
-21.1803
 20
-63.4889
 10
-21.4925
 20
-63.5189
 10
-21.8047
 20
-63.4889
 10
-22.1046
 20
-63.3971
 10
-22.3808
 20
-63.2484
 10
-22.6239
 20
-63.0503
 10
-22.8227
 20
-62.8077
 10
-22.9707
 20
-62.5312
 10
-23.0617
 20
-62.231
  0
LWPOLYLINE
  5
C4
330
17
100
AcDbEntity
  8
HOLES
100
AcDbPolyline
 90
32
 70
1
 10
-38.1075
 20
-61.9189
 10
-38.0766
 20
-61.6068
 10
-37.9857
 20
-61.3067
 10
-37.8376
 20
-61.0301
 10
-37.6388
 20
-60.7876
 10
-37.3957
 20
-60.5894
 10
-37.1195
 20
-60.4408
 10
-36.8197
 20
-60.349
 10
-36.5075
 20
-60.3189
 10
-36.1953
 20
-60.349
 10
-35.8954
 20
-60.4408
 10
-35.6192
 20
-60.5894
 10
-35.3761
 20
-60.7876
 10
-35.1773
 20
-61.0301
 10
-35.0293
 20
-61.3067
 10
-34.9383
 20
-61.6068
 10
-34.9075
 20
-61.9189
 10
-34.9383
 20
-62.231
 10
-35.0293
 20
-62.5312
 10
-35.1773
 20
-62.8077
 10
-35.3761
 20
-63.0503
 10
-35.6192
 20
-63.2484
 10
-35.8954
 20
-63.3971
 10
-36.1953
 20
-63.4889
 10
-36.5075
 20
-63.5189
 10
-36.8197
 20
-63.4889
 10
-37.1195
 20
-63.3971
 10
-37.3957
 20
-63.2484
 10
-37.6388
 20
-63.0503
 10
-37.8376
 20
-62.8077
 10
-37.9857
 20
-62.5312
 10
-38.0766
 20
-62.231
  0
LWPOLYLINE
  5
C5
330
17
100
AcDbEntity
  8
HOLES
100
AcDbPolyline
 90
32
 70
1
 10
-38.1075
 20
-110.9189
 10
-38.0766
 20
-110.6068
 10
-37.9857
 20
-110.3067
 10
-37.8376
 20
-110.0301
 10
-37.6388
 20
-109.7876
 10
-37.3957
 20
-109.5894
 10
-37.1195
 20
-109.4408
 10
-36.8197
 20
-109.349
 10
-36.5075
 20
-109.3189
 10
-36.1953
 20
-109.349
 10
-35.8954
 20
-109.4408
 10
-35.6192
 20
-109.5894
 10
-35.3761
 20
-109.7876
 10
-35.1773
 20
-110.0301
 10
-35.0293
 20
-110.3067
 10
-34.9383
 20
-110.6068
 10
-34.9075
 20
-110.9189
 10
-34.9383
 20
-111.231
 10
-35.0293
 20
-111.5312
 10
-35.1773
 20
-111.8077
 10
-35.3761
 20
-112.0503
 10
-35.6192
 20
-112.2484
 10
-35.8954
 20
-112.3971
 10
-36.1953
 20
-112.4889
 10
-36.5075
 20
-112.5189
 10
-36.8197
 20
-112.4889
 10
-37.1195
 20
-112.3971
 10
-37.3957
 20
-112.2484
 10
-37.6388
 20
-112.0503
 10
-37.8376
 20
-111.8077
 10
-37.9857
 20
-111.5312
 10
-38.0766
 20
-111.231
  0
LWPOLYLINE
  5
C6
330
17
100
AcDbEntity
  8
HOLES
100
AcDbPolyline
 90
32
 70
1
 10
-23.0925
 20
-110.9189
 10
-23.0617
 20
-110.6068
 10
-22.9707
 20
-110.3067
 10
-22.8227
 20
-110.0301
 10
-22.6239
 20
-109.7876
 10
-22.3808
 20
-109.5894
 10
-22.1046
 20
-109.4408
 10
-21.8047
 20
-109.349
 10
-21.4925
 20
-109.3189
 10
-21.1803
 20
-109.349
 10
-20.8805
 20
-109.4408
 10
-20.6043
 20
-109.5894
 10
-20.3612
 20
-109.7876
 10
-20.1624
 20
-110.0301
 10
-20.0143
 20
-110.3067
 10
-19.9234
 20
-110.6068
 10
-19.8925
 20
-110.9189
 10
-19.9234
 20
-111.231
 10
-20.0143
 20
-111.5312
 10
-20.1624
 20
-111.8077
 10
-20.3612
 20
-112.0503
 10
-20.6043
 20
-112.2484
 10
-20.8805
 20
-112.3971
 10
-21.1803
 20
-112.4889
 10
-21.4925
 20
-112.5189
 10
-21.8047
 20
-112.4889
 10
-22.1046
 20
-112.3971
 10
-22.3808
 20
-112.2484
 10
-22.6239
 20
-112.0503
 10
-22.8227
 20
-111.8077
 10
-22.9707
 20
-111.5312
 10
-23.0617
 20
-111.231
  0
LWPOLYLINE
  5
C7
330
17
100
AcDbEntity
  8
HOLES
100
AcDbPolyline
 90
32
 70
1
 10
34.9075
 20
-110.9189
 10
34.9383
 20
-110.6068
 10
35.0293
 20
-110.3067
 10
35.1773
 20
-110.0301
 10
35.3761
 20
-109.7876
 10
35.6192
 20
-109.5894
 10
35.8954
 20
-109.4408
 10
36.1953
 20
-109.349
 10
36.5075
 20
-109.3189
 10
36.8197
 20
-109.349
 10
37.1195
 20
-109.4408
 10
37.3957
 20
-109.5894
 10
37.6388
 20
-109.7876
 10
37.8376
 20
-110.0301
 10
37.9857
 20
-110.3067
 10
38.0766
 20
-110.6068
 10
38.1075
 20
-110.9189
 10
38.0766
 20
-111.231
 10
37.9857
 20
-111.5312
 10
37.8376
 20
-111.8077
 10
37.6388
 20
-112.0503
 10
37.3957
 20
-112.2484
 10
37.1195
 20
-112.3971
 10
36.8197
 20
-112.4889
 10
36.5075
 20
-112.5189
 10
36.1953
 20
-112.4889
 10
35.8954
 20
-112.3971
 10
35.6192
 20
-112.2484
 10
35.3761
 20
-112.0503
 10
35.1773
 20
-111.8077
 10
35.0293
 20
-111.5312
 10
34.9383
 20
-111.231
  0
LWPOLYLINE
  5
C8
330
17
100
AcDbEntity
  8
HOLES
100
AcDbPolyline
 90
32
 70
1
 10
19.8925
 20
-110.9189
 10
19.9234
 20
-110.6068
 10
20.0143
 20
-110.3067
 10
20.1624
 20
-110.0301
 10
20.3612
 20
-109.7876
 10
20.6043
 20
-109.5894
 10
20.8805
 20
-109.4408
 10
21.1803
 20
-109.349
 10
21.4925
 20
-109.3189
 10
21.8047
 20
-109.349
 10
22.1046
 20
-109.4408
 10
22.3808
 20
-109.5894
 10
22.6239
 20
-109.7876
 10
22.8227
 20
-110.0301
 10
22.9707
 20
-110.3067
 10
23.0617
 20
-110.6068
 10
23.0925
 20
-110.9189
 10
23.0617
 20
-111.231
 10
22.9707
 20
-111.5312
 10
22.8227
 20
-111.8077
 10
22.6239
 20
-112.0503
 10
22.3808
 20
-112.2484
 10
22.1046
 20
-112.3971
 10
21.8047
 20
-112.4889
 10
21.4925
 20
-112.5189
 10
21.1803
 20
-112.4889
 10
20.8805
 20
-112.3971
 10
20.6043
 20
-112.2484
 10
20.3612
 20
-112.0503
 10
20.1624
 20
-111.8077
 10
20.0143
 20
-111.5312
 10
19.9234
 20
-111.231
  0
LWPOLYLINE
  5
C9
330
17
100
AcDbEntity
  8
HOLES
100
AcDbPolyline
 90
32
 70
1
 10
34.9075
 20
35.7484
 10
34.9383
 20
36.0605
 10
35.0293
 20
36.3607
 10
35.1773
 20
36.6372
 10
35.3761
 20
36.8798
 10
35.6192
 20
37.0779
 10
35.8954
 20
37.2266
 10
36.1953
 20
37.3184
 10
36.5075
 20
37.3484
 10
36.8197
 20
37.3184
 10
37.1195
 20
37.2266
 10
37.3957
 20
37.0779
 10
37.6388
 20
36.8798
 10
37.8376
 20
36.6372
 10
37.9857
 20
36.3607
 10
38.0766
 20
36.0605
 10
38.1075
 20
35.7484
 10
38.0766
 20
35.4363
 10
37.9857
 20
35.1362
 10
37.8376
 20
34.8596
 10
37.6388
 20
34.6171
 10
37.3957
 20
34.4189
 10
37.1195
 20
34.2703
 10
36.8197
 20
34.1785
 10
36.5075
 20
34.1484
 10
36.1953
 20
34.1785
 10
35.8954
 20
34.2703
 10
35.6192
 20
34.4189
 10
35.3761
 20
34.6171
 10
35.1773
 20
34.8596
 10
35.0293
 20
35.1362
 10
34.9383
 20
35.4363
  0
LWPOLYLINE
  5
CA
330
17
100
AcDbEntity
  8
HOLES
100
AcDbPolyline
 90
32
 70
1
 10
19.8925
 20
35.7484
 10
19.9234
 20
36.0605
 10
20.0143
 20
36.3607
 10
20.1624
 20
36.6372
 10
20.3612
 20
36.8798
 10
20.6043
 20
37.0779
 10
20.8805
 20
37.2266
 10
21.1803
 20
37.3184
 10
21.4925
 20
37.3484
 10
21.8047
 20
37.3184
 10
22.1046
 20
37.2266
 10
22.3808
 20
37.0779
 10
22.6239
 20
36.8798
 10
22.8227
 20
36.6372
 10
22.9707
 20
36.3607
 10
23.0617
 20
36.0605
 10
23.0925
 20
35.7484
 10
23.0617
 20
35.4363
 10
22.9707
 20
35.1362
 10
22.8227
 20
34.8596
 10
22.6239
 20
34.6171
 10
22.3808
 20
34.4189
 10
22.1046
 20
34.2703
 10
21.8047
 20
34.1785
 10
21.4925
 20
34.1484
 10
21.1803
 20
34.1785
 10
20.8805
 20
34.2703
 10
20.6043
 20
34.4189
 10
20.3612
 20
34.6171
 10
20.1624
 20
34.8596
 10
20.0143
 20
35.1362
 10
19.9234
 20
35.4363
  0
LWPOLYLINE
  5
CB
330
17
100
AcDbEntity
  8
HOLES
100
AcDbPolyline
 90
32
 70
1
 10
-38.1075
 20
35.7484
 10
-38.0766
 20
36.0605
 10
-37.9857
 20
36.3607
 10
-37.8376
 20
36.6372
 10
-37.6388
 20
36.8798
 10
-37.3957
 20
37.0779
 10
-37.1195
 20
37.2266
 10
-36.8197
 20
37.3184
 10
-36.5075
 20
37.3484
 10
-36.1953
 20
37.3184
 10
-35.8954
 20
37.2266
 10
-35.6192
 20
37.0779
 10
-35.3761
 20
36.8798
 10
-35.1773
 20
36.6372
 10
-35.0293
 20
36.3607
 10
-34.9383
 20
36.0605
 10
-34.9075
 20
35.7484
 10
-34.9383
 20
35.4363
 10
-35.0293
 20
35.1362
 10
-35.1773
 20
34.8596
 10
-35.3761
 20
34.6171
 10
-35.6192
 20
34.4189
 10
-35.8954
 20
34.2703
 10
-36.1953
 20
34.1785
 10
-36.5075
 20
34.1484
 10
-36.8197
 20
34.1785
 10
-37.1195
 20
34.2703
 10
-37.3957
 20
34.4189
 10
-37.6388
 20
34.6171
 10
-37.8376
 20
34.8596
 10
-37.9857
 20
35.1362
 10
-38.0766
 20
35.4363
  0
LWPOLYLINE
  5
CC
330
17
100
AcDbEntity
  8
HOLES
100
AcDbPolyline
 90
32
 70
1
 10
-23.0925
 20
35.7484
 10
-23.0617
 20
36.0605
 10
-22.9707
 20
36.3607
 10
-22.8227
 20
36.6372
 10
-22.6239
 20
36.8798
 10
-22.3808
 20
37.0779
 10
-22.1046
 20
37.2266
 10
-21.8047
 20
37.3184
 10
-21.4925
 20
37.3484
 10
-21.1803
 20
37.3184
 10
-20.8805
 20
37.2266
 10
-20.6043
 20
37.0779
 10
-20.3612
 20
36.8798
 10
-20.1624
 20
36.6372
 10
-20.0143
 20
36.3607
 10
-19.9234
 20
36.0605
 10
-19.8925
 20
35.7484
 10
-19.9234
 20
35.4363
 10
-20.0143
 20
35.1362
 10
-20.1624
 20
34.8596
 10
-20.3612
 20
34.6171
 10
-20.6043
 20
34.4189
 10
-20.8805
 20
34.2703
 10
-21.1803
 20
34.1785
 10
-21.4925
 20
34.1484
 10
-21.8047
 20
34.1785
 10
-22.1046
 20
34.2703
 10
-22.3808
 20
34.4189
 10
-22.6239
 20
34.6171
 10
-22.8227
 20
34.8596
 10
-22.9707
 20
35.1362
 10
-23.0617
 20
35.4363
  0
LWPOLYLINE
  5
CD
330
17
100
AcDbEntity
  8
HOLES
100
AcDbPolyline
 90
32
 70
1
 10
-38.1075
 20
-13.2516
 10
-38.0766
 20
-12.9395
 10
-37.9857
 20
-12.6393
 10
-37.8376
 20
-12.3628
 10
-37.6388
 20
-12.1202
 10
-37.3957
 20
-11.9221
 10
-37.1195
 20
-11.7734
 10
-36.8197
 20
-11.6816
 10
-36.5075
 20
-11.6516
 10
-36.1953
 20
-11.6816
 10
-35.8954
 20
-11.7734
 10
-35.6192
 20
-11.9221
 10
-35.3761
 20
-12.1202
 10
-35.1773
 20
-12.3628
 10
-35.0293
 20
-12.6393
 10
-34.9383
 20
-12.9395
 10
-34.9075
 20
-13.2516
 10
-34.9383
 20
-13.5637
 10
-35.0293
 20
-13.8638
 10
-35.1773
 20
-14.1404
 10
-35.3761
 20
-14.3829
 10
-35.6192
 20
-14.5811
 10
-35.8954
 20
-14.7297
 10
-36.1953
 20
-14.8215
 10
-36.5075
 20
-14.8516
 10
-36.8197
 20
-14.8215
 10
-37.1195
 20
-14.7297
 10
-37.3957
 20
-14.5811
 10
-37.6388
 20
-14.3829
 10
-37.8376
 20
-14.1404
 10
-37.9857
 20
-13.8638
 10
-38.0766
 20
-13.5637
  0
LWPOLYLINE
  5
CE
330
17
100
AcDbEntity
  8
HOLES
100
AcDbPolyline
 90
32
 70
1
 10
-23.0925
 20
-13.2516
 10
-23.0617
 20
-12.9395
 10
-22.9707
 20
-12.6393
 10
-22.8227
 20
-12.3628
 10
-22.6239
 20
-12.1202
 10
-22.3808
 20
-11.9221
 10
-22.1046
 20
-11.7734
 10
-21.8047
 20
-11.6816
 10
-21.4925
 20
-11.6516
 10
-21.1803
 20
-11.6816
 10
-20.8805
 20
-11.7734
 10
-20.6043
 20
-11.9221
 10
-20.3612
 20
-12.1202
 10
-20.1624
 20
-12.3628
 10
-20.0143
 20
-12.6393
 10
-19.9234
 20
-12.9395
 10
-19.8925
 20
-13.2516
 10
-19.9234
 20
-13.5637
 10
-20.0143
 20
-13.8638
 10
-20.1624
 20
-14.1404
 10
-20.3612
 20
-14.3829
 10
-20.6043
 20
-14.5811
 10
-20.8805
 20
-14.7297
 10
-21.1803
 20
-14.8215
 10
-21.4925
 20
-14.8516
 10
-21.8047
 20
-14.8215
 10
-22.1046
 20
-14.7297
 10
-22.3808
 20
-14.5811
 10
-22.6239
 20
-14.3829
 10
-22.8227
 20
-14.1404
 10
-22.9707
 20
-13.8638
 10
-23.0617
 20
-13.5637
  0
LWPOLYLINE
  5
CF
330
17
100
AcDbEntity
  8
HOLES
100
AcDbPolyline
 90
32
 70
1
 10
19.8925
 20
-13.2516
 10
19.9234
 20
-12.9395
 10
20.0143
 20
-12.6393
 10
20.1624
 20
-12.3628
 10
20.3612
 20
-12.1202
 10
20.6043
 20
-11.9221
 10
20.8805
 20
-11.7734
 10
21.1803
 20
-11.6816
 10
21.4925
 20
-11.6516
 10
21.8047
 20
-11.6816
 10
22.1046
 20
-11.7734
 10
22.3808
 20
-11.9221
 10
22.6239
 20
-12.1202
 10
22.8227
 20
-12.3628
 10
22.9707
 20
-12.6393
 10
23.0617
 20
-12.9395
 10
23.0925
 20
-13.2516
 10
23.0617
 20
-13.5637
 10
22.9707
 20
-13.8638
 10
22.8227
 20
-14.1404
 10
22.6239
 20
-14.3829
 10
22.3808
 20
-14.5811
 10
22.1046
 20
-14.7297
 10
21.8047
 20
-14.8215
 10
21.4925
 20
-14.8516
 10
21.1803
 20
-14.8215
 10
20.8805
 20
-14.7297
 10
20.6043
 20
-14.5811
 10
20.3612
 20
-14.3829
 10
20.1624
 20
-14.1404
 10
20.0143
 20
-13.8638
 10
19.9234
 20
-13.5637
  0
LWPOLYLINE
  5
D0
330
17
100
AcDbEntity
  8
HOLES
100
AcDbPolyline
 90
32
 70
1
 10
34.9075
 20
-13.2516
 10
34.9383
 20
-12.9395
 10
35.0293
 20
-12.6393
 10
35.1773
 20
-12.3628
 10
35.3761
 20
-12.1202
 10
35.6192
 20
-11.9221
 10
35.8954
 20
-11.7734
 10
36.1953
 20
-11.6816
 10
36.5075
 20
-11.6516
 10
36.8197
 20
-11.6816
 10
37.1195
 20
-11.7734
 10
37.3957
 20
-11.9221
 10
37.6388
 20
-12.1202
 10
37.8376
 20
-12.3628
 10
37.9857
 20
-12.6393
 10
38.0766
 20
-12.9395
 10
38.1075
 20
-13.2516
 10
38.0766
 20
-13.5637
 10
37.9857
 20
-13.8638
 10
37.8376
 20
-14.1404
 10
37.6388
 20
-14.3829
 10
37.3957
 20
-14.5811
 10
37.1195
 20
-14.7297
 10
36.8197
 20
-14.8215
 10
36.5075
 20
-14.8516
 10
36.1953
 20
-14.8215
 10
35.8954
 20
-14.7297
 10
35.6192
 20
-14.5811
 10
35.3761
 20
-14.3829
 10
35.1773
 20
-14.1404
 10
35.0293
 20
-13.8638
 10
34.9383
 20
-13.5637
  0
LWPOLYLINE
  5
D1
330
17
100
AcDbEntity
  8
HOLES
100
AcDbPolyline
 90
32
 70
1
 10
25.64
 20
85.933
 10
25.6139
 20
85.6697
 10
25.5372
 20
85.4164
 10
25.4123
 20
85.1831
 10
25.2446
 20
84.9784
 10
25.0395
 20
84.8112
 10
24.8064
 20
84.6858
 10
24.5534
 20
84.6084
 10
24.29
 20
84.583
 10
24.0266
 20
84.6084
 10
23.7736
 20
84.6858
 10
23.5405
 20
84.8112
 10
23.3354
 20
84.9784
 10
23.1677
 20
85.1831
 10
23.0428
 20
85.4164
 10
22.9661
 20
85.6697
 10
22.94
 20
85.933
 10
22.9661
 20
86.1963
 10
23.0428
 20
86.4496
 10
23.1677
 20
86.6829
 10
23.3354
 20
86.8876
 10
23.5405
 20
87.0548
 10
23.7736
 20
87.1802
 10
24.0266
 20
87.2576
 10
24.29
 20
87.283
 10
24.5534
 20
87.2576
 10
24.8064
 20
87.1802
 10
25.0395
 20
87.0548
 10
25.2446
 20
86.8876
 10
25.4123
 20
86.6829
 10
25.5372
 20
86.4496
 10
25.6139
 20
86.1963
  0
LWPOLYLINE
  5
D2
330
17
100
AcDbEntity
  8
HOLES
100
AcDbPolyline
 90
32
 70
1
 10
-6.28
 20
109.333
 10
-6.3061
 20
109.0697
 10
-6.3828
 20
108.8164
 10
-6.5077
 20
108.5831
 10
-6.6754
 20
108.3784
 10
-6.8805
 20
108.2112
 10
-7.1136
 20
108.0858
 10
-7.3666
 20
108.0084
 10
-7.63
 20
107.983
 10
-7.8934
 20
108.0084
 10
-8.1464
 20
108.0858
 10
-8.3795
 20
108.2112
 10
-8.5846
 20
108.3784
 10
-8.7523
 20
108.5831
 10
-8.8772
 20
108.8164
 10
-8.9539
 20
109.0697
 10
-8.98
 20
109.333
 10
-8.9539
 20
109.5963
 10
-8.8772
 20
109.8496
 10
-8.7523
 20
110.0829
 10
-8.5846
 20
110.2876
 10
-8.3795
 20
110.4548
 10
-8.1464
 20
110.5802
 10
-7.8934
 20
110.6576
 10
-7.63
 20
110.683
 10
-7.3666
 20
110.6576
 10
-7.1136
 20
110.5802
 10
-6.8805
 20
110.4548
 10
-6.6754
 20
110.2876
 10
-6.5077
 20
110.0829
 10
-6.3828
 20
109.8496
 10
-6.3061
 20
109.5963
  0
LWPOLYLINE
  5
D3
330
17
100
AcDbEntity
  8
HOLES
100
AcDbPolyline
 90
32
 70
1
 10
6.28
 20
109.333
 10
6.3061
 20
109.5963
 10
6.3828
 20
109.8496
 10
6.5077
 20
110.0829
 10
6.6754
 20
110.2876
 10
6.8805
 20
110.4548
 10
7.1136
 20
110.5802
 10
7.3666
 20
110.6576
 10
7.63
 20
110.683
 10
7.8934
 20
110.6576
 10
8.1464
 20
110.5802
 10
8.3795
 20
110.4548
 10
8.5846
 20
110.2876
 10
8.7523
 20
110.0829
 10
8.8772
 20
109.8496
 10
8.9539
 20
109.5963
 10
8.98
 20
109.333
 10
8.9539
 20
109.0697
 10
8.8772
 20
108.8164
 10
8.7523
 20
108.5831
 10
8.5846
 20
108.3784
 10
8.3795
 20
108.2112
 10
8.1464
 20
108.0858
 10
7.8934
 20
108.0084
 10
7.63
 20
107.983
 10
7.3666
 20
108.0084
 10
7.1136
 20
108.0858
 10
6.8805
 20
108.2112
 10
6.6754
 20
108.3784
 10
6.5077
 20
108.5831
 10
6.3828
 20
108.8164
 10
6.3061
 20
109.0697
  0
LWPOLYLINE
  5
D4
330
17
100
AcDbEntity
  8
HOLES
100
AcDbPolyline
 90
32
 70
1
 10
35.9416
 20
107.636
 10
35.9831
 20
108.0554
 10
36.1052
 20
108.4587
 10
36.3041
 20
108.8303
 10
36.5713
 20
109.1563
 10
36.8979
 20
109.4225
 10
37.2691
 20
109.6223
 10
37.672
 20
109.7456
 10
38.0916
 20
109.786
 10
38.5111
 20
109.7456
 10
38.914
 20
109.6223
 10
39.2852
 20
109.4225
 10
39.6118
 20
109.1563
 10
39.879
 20
108.8303
 10
40.0779
 20
108.4587
 10
40.2001
 20
108.0554
 10
40.2416
 20
107.636
 10
40.2001
 20
107.2166
 10
40.0779
 20
106.8133
 10
39.879
 20
106.4417
 10
39.6118
 20
106.1157
 10
39.2852
 20
105.8495
 10
38.914
 20
105.6497
 10
38.5111
 20
105.5264
 10
38.0916
 20
105.486
 10
37.672
 20
105.5264
 10
37.2691
 20
105.6497
 10
36.8979
 20
105.8495
 10
36.5713
 20
106.1157
 10
36.3041
 20
106.4417
 10
36.1052
 20
106.8133
 10
35.9831
 20
107.2166
  0
LWPOLYLINE
  5
D5
330
17
100
AcDbEntity
  8
HOLES
100
AcDbPolyline
 90
32
 70
1
 10
-35.9416
 20
107.636
 10
-35.9831
 20
107.2166
 10
-36.1052
 20
106.8133
 10
-36.3041
 20
106.4417
 10
-36.5713
 20
106.1157
 10
-36.8979
 20
105.8495
 10
-37.2691
 20
105.6497
 10
-37.672
 20
105.5264
 10
-38.0916
 20
105.486
 10
-38.5111
 20
105.5264
 10
-38.914
 20
105.6497
 10
-39.2852
 20
105.8495
 10
-39.6118
 20
106.1157
 10
-39.879
 20
106.4417
 10
-40.0779
 20
106.8133
 10
-40.2001
 20
107.2166
 10
-40.2416
 20
107.636
 10
-40.2001
 20
108.0554
 10
-40.0779
 20
108.4587
 10
-39.879
 20
108.8303
 10
-39.6118
 20
109.1563
 10
-39.2852
 20
109.4225
 10
-38.914
 20
109.6223
 10
-38.5111
 20
109.7456
 10
-38.0916
 20
109.786
 10
-37.672
 20
109.7456
 10
-37.2691
 20
109.6223
 10
-36.8979
 20
109.4225
 10
-36.5713
 20
109.1563
 10
-36.3041
 20
108.8303
 10
-36.1052
 20
108.4587
 10
-35.9831
 20
108.0554
  0
LWPOLYLINE
  5
D6
330
17
100
AcDbEntity
  8
HOLES
100
AcDbPolyline
 90
32
 70
1
 10
-8.6
 20
117.1257
 10
-8.5691
 20
117.4378
 10
-8.4782
 20
117.738
 10
-8.3302
 20
118.0145
 10
-8.1314
 20
118.2571
 10
-7.8883
 20
118.4552
 10
-7.6121
 20
118.6039
 10
-7.3122
 20
118.6957
 10
-7.0
 20
118.7257
 10
-6.6878
 20
118.6957
 10
-6.3879
 20
118.6039
 10
-6.1117
 20
118.4552
 10
-5.8686
 20
118.2571
 10
-5.6698
 20
118.0145
 10
-5.5218
 20
117.738
 10
-5.4309
 20
117.4378
 10
-5.4
 20
117.1257
 10
-5.4309
 20
116.8136
 10
-5.5218
 20
116.5135
 10
-5.6698
 20
116.2369
 10
-5.8686
 20
115.9944
 10
-6.1117
 20
115.7962
 10
-6.3879
 20
115.6476
 10
-6.6878
 20
115.5558
 10
-7.0
 20
115.5257
 10
-7.3122
 20
115.5558
 10
-7.6121
 20
115.6476
 10
-7.8883
 20
115.7962
 10
-8.1314
 20
115.9944
 10
-8.3302
 20
116.2369
 10
-8.4782
 20
116.5135
 10
-8.5691
 20
116.8136
  0
LWPOLYLINE
  5
D7
330
17
100
AcDbEntity
  8
HOLES
100
AcDbPolyline
 90
32
 70
1
 10
-4.5
 20
117.1257
 10
-4.4134
 20
118.0036
 10
-4.1574
 20
118.8476
 10
-3.7404
 20
119.625
 10
-3.1819
 20
120.3078
 10
-2.4994
 20
120.8666
 10
-1.7219
 20
121.2832
 10
-0.8778
 20
121.5392
 10
-0.0
 20
121.6257
 10
0.8778
 20
121.5392
 10
1.7219
 20
121.2832
 10
2.4994
 20
120.8666
 10
3.1819
 20
120.3078
 10
3.7404
 20
119.625
 10
4.1574
 20
118.8476
 10
4.4134
 20
118.0036
 10
4.5
 20
117.1257
 10
4.4134
 20
116.2479
 10
4.1574
 20
115.4038
 10
3.7404
 20
114.6265
 10
3.1819
 20
113.9437
 10
2.4994
 20
113.3849
 10
1.7219
 20
112.9683
 10
0.8778
 20
112.7122
 10
-0.0
 20
112.6257
 10
-0.8778
 20
112.7122
 10
-1.7219
 20
112.9683
 10
-2.4994
 20
113.3849
 10
-3.1819
 20
113.9437
 10
-3.7404
 20
114.6265
 10
-4.1574
 20
115.4038
 10
-4.4134
 20
116.2479
  0
LWPOLYLINE
  5
D8
330
17
100
AcDbEntity
  8
HOLES
100
AcDbPolyline
 90
32
 70
1
 10
5.4
 20
117.1257
 10
5.4309
 20
117.4378
 10
5.5218
 20
117.738
 10
5.6698
 20
118.0145
 10
5.8686
 20
118.2571
 10
6.1117
 20
118.4552
 10
6.3879
 20
118.6039
 10
6.6878
 20
118.6957
 10
7.0
 20
118.7257
 10
7.3122
 20
118.6957
 10
7.6121
 20
118.6039
 10
7.8883
 20
118.4552
 10
8.1314
 20
118.2571
 10
8.3302
 20
118.0145
 10
8.4782
 20
117.738
 10
8.5691
 20
117.4378
 10
8.6
 20
117.1257
 10
8.5691
 20
116.8136
 10
8.4782
 20
116.5135
 10
8.3302
 20
116.2369
 10
8.1314
 20
115.9944
 10
7.8883
 20
115.7962
 10
7.6121
 20
115.6476
 10
7.3122
 20
115.5558
 10
7.0
 20
115.5257
 10
6.6878
 20
115.5558
 10
6.3879
 20
115.6476
 10
6.1117
 20
115.7962
 10
5.8686
 20
115.9944
 10
5.6698
 20
116.2369
 10
5.5218
 20
116.5135
 10
5.4309
 20
116.8136
  0
LWPOLYLINE
  5
D9
330
17
100
AcDbEntity
  8
HOLES
100
AcDbPolyline
 90
32
 70
1
 10
-1.6
 20
124.1257
 10
-1.5691
 20
124.4378
 10
-1.4782
 20
124.738
 10
-1.3302
 20
125.0145
 10
-1.1314
 20
125.2571
 10
-0.8883
 20
125.4552
 10
-0.6121
 20
125.6039
 10
-0.3122
 20
125.6957
 10
-0.0
 20
125.7257
 10
0.3122
 20
125.6957
 10
0.6121
 20
125.6039
 10
0.8883
 20
125.4552
 10
1.1314
 20
125.2571
 10
1.3302
 20
125.0145
 10
1.4782
 20
124.738
 10
1.5691
 20
124.4378
 10
1.6
 20
124.1257
 10
1.5691
 20
123.8136
 10
1.4782
 20
123.5135
 10
1.3302
 20
123.2369
 10
1.1314
 20
122.9944
 10
0.8883
 20
122.7962
 10
0.6121
 20
122.6476
 10
0.3122
 20
122.5558
 10
-0.0
 20
122.5257
 10
-0.3122
 20
122.5558
 10
-0.6121
 20
122.6476
 10
-0.8883
 20
122.7962
 10
-1.1314
 20
122.9944
 10
-1.3302
 20
123.2369
 10
-1.4782
 20
123.5135
 10
-1.5691
 20
123.8136
  0
LWPOLYLINE
  5
DA
330
17
100
AcDbEntity
  8
HOLES
100
AcDbPolyline
 90
32
 70
1
 10
-1.6
 20
110.1257
 10
-1.5691
 20
110.4378
 10
-1.4782
 20
110.738
 10
-1.3302
 20
111.0145
 10
-1.1314
 20
111.2571
 10
-0.8883
 20
111.4552
 10
-0.6121
 20
111.6039
 10
-0.3122
 20
111.6957
 10
-0.0
 20
111.7257
 10
0.3122
 20
111.6957
 10
0.6121
 20
111.6039
 10
0.8883
 20
111.4552
 10
1.1314
 20
111.2571
 10
1.3302
 20
111.0145
 10
1.4782
 20
110.738
 10
1.5691
 20
110.4378
 10
1.6
 20
110.1257
 10
1.5691
 20
109.8136
 10
1.4782
 20
109.5135
 10
1.3302
 20
109.2369
 10
1.1314
 20
108.9944
 10
0.8883
 20
108.7962
 10
0.6121
 20
108.6476
 10
0.3122
 20
108.5558
 10
-0.0
 20
108.5257
 10
-0.3122
 20
108.5558
 10
-0.6121
 20
108.6476
 10
-0.8883
 20
108.7962
 10
-1.1314
 20
108.9944
 10
-1.3302
 20
109.2369
 10
-1.4782
 20
109.5135
 10
-1.5691
 20
109.8136
  0
LWPOLYLINE
  5
DB
330
17
100
AcDbEntity
  8
HOLES
100
AcDbPolyline
 90
32
 70
1
 10
-1.6
 20
96.1257
 10
-1.5691
 20
96.4378
 10
-1.4782
 20
96.738
 10
-1.3302
 20
97.0145
 10
-1.1314
 20
97.2571
 10
-0.8883
 20
97.4552
 10
-0.6121
 20
97.6039
 10
-0.3122
 20
97.6957
 10
-0.0
 20
97.7257
 10
0.3122
 20
97.6957
 10
0.6121
 20
97.6039
 10
0.8883
 20
97.4552
 10
1.1314
 20
97.2571
 10
1.3302
 20
97.0145
 10
1.4782
 20
96.738
 10
1.5691
 20
96.4378
 10
1.6
 20
96.1257
 10
1.5691
 20
95.8136
 10
1.4782
 20
95.5135
 10
1.3302
 20
95.2369
 10
1.1314
 20
94.9944
 10
0.8883
 20
94.7962
 10
0.6121
 20
94.6476
 10
0.3122
 20
94.5558
 10
-0.0
 20
94.5257
 10
-0.3122
 20
94.5558
 10
-0.6121
 20
94.6476
 10
-0.8883
 20
94.7962
 10
-1.1314
 20
94.9944
 10
-1.3302
 20
95.2369
 10
-1.4782
 20
95.5135
 10
-1.5691
 20
95.8136
  0
LWPOLYLINE
  5
DC
330
17
100
AcDbEntity
  8
HOLES
100
AcDbPolyline
 90
32
 70
1
 10
-8.6
 20
89.1257
 10
-8.5691
 20
89.4378
 10
-8.4782
 20
89.738
 10
-8.3302
 20
90.0145
 10
-8.1314
 20
90.2571
 10
-7.8883
 20
90.4552
 10
-7.6121
 20
90.6039
 10
-7.3122
 20
90.6957
 10
-7.0
 20
90.7257
 10
-6.6878
 20
90.6957
 10
-6.3879
 20
90.6039
 10
-6.1117
 20
90.4552
 10
-5.8686
 20
90.2571
 10
-5.6698
 20
90.0145
 10
-5.5218
 20
89.738
 10
-5.4309
 20
89.4378
 10
-5.4
 20
89.1257
 10
-5.4309
 20
88.8136
 10
-5.5218
 20
88.5135
 10
-5.6698
 20
88.2369
 10
-5.8686
 20
87.9944
 10
-6.1117
 20
87.7962
 10
-6.3879
 20
87.6476
 10
-6.6878
 20
87.5558
 10
-7.0
 20
87.5257
 10
-7.3122
 20
87.5558
 10
-7.6121
 20
87.6476
 10
-7.8883
 20
87.7962
 10
-8.1314
 20
87.9944
 10
-8.3302
 20
88.2369
 10
-8.4782
 20
88.5135
 10
-8.5691
 20
88.8136
  0
LWPOLYLINE
  5
DD
330
17
100
AcDbEntity
  8
HOLES
100
AcDbPolyline
 90
32
 70
1
 10
-4.5
 20
89.1257
 10
-4.4134
 20
90.0036
 10
-4.1574
 20
90.8476
 10
-3.7404
 20
91.625
 10
-3.1819
 20
92.3078
 10
-2.4994
 20
92.8666
 10
-1.7219
 20
93.2832
 10
-0.8778
 20
93.5392
 10
-0.0
 20
93.6257
 10
0.8778
 20
93.5392
 10
1.7219
 20
93.2832
 10
2.4994
 20
92.8666
 10
3.1819
 20
92.3078
 10
3.7404
 20
91.625
 10
4.1574
 20
90.8476
 10
4.4134
 20
90.0036
 10
4.5
 20
89.1257
 10
4.4134
 20
88.2479
 10
4.1574
 20
87.4038
 10
3.7404
 20
86.6265
 10
3.1819
 20
85.9437
 10
2.4994
 20
85.3849
 10
1.7219
 20
84.9683
 10
0.8778
 20
84.7122
 10
-0.0
 20
84.6257
 10
-0.8778
 20
84.7122
 10
-1.7219
 20
84.9683
 10
-2.4994
 20
85.3849
 10
-3.1819
 20
85.9437
 10
-3.7404
 20
86.6265
 10
-4.1574
 20
87.4038
 10
-4.4134
 20
88.2479
  0
LWPOLYLINE
  5
DE
330
17
100
AcDbEntity
  8
HOLES
100
AcDbPolyline
 90
32
 70
1
 10
5.4
 20
89.1257
 10
5.4309
 20
89.4378
 10
5.5218
 20
89.738
 10
5.6698
 20
90.0145
 10
5.8686
 20
90.2571
 10
6.1117
 20
90.4552
 10
6.3879
 20
90.6039
 10
6.6878
 20
90.6957
 10
7.0
 20
90.7257
 10
7.3122
 20
90.6957
 10
7.6121
 20
90.6039
 10
7.8883
 20
90.4552
 10
8.1314
 20
90.2571
 10
8.3302
 20
90.0145
 10
8.4782
 20
89.738
 10
8.5691
 20
89.4378
 10
8.6
 20
89.1257
 10
8.5691
 20
88.8136
 10
8.4782
 20
88.5135
 10
8.3302
 20
88.2369
 10
8.1314
 20
87.9944
 10
7.8883
 20
87.7962
 10
7.6121
 20
87.6476
 10
7.3122
 20
87.5558
 10
7.0
 20
87.5257
 10
6.6878
 20
87.5558
 10
6.3879
 20
87.6476
 10
6.1117
 20
87.7962
 10
5.8686
 20
87.9944
 10
5.6698
 20
88.2369
 10
5.5218
 20
88.5135
 10
5.4309
 20
88.8136
  0
LWPOLYLINE
  5
DF
330
17
100
AcDbEntity
  8
HOLES
100
AcDbPolyline
 90
32
 70
1
 10
13.85
 20
89.1256
 10
13.8915
 20
89.545
 10
14.0137
 20
89.9483
 10
14.2126
 20
90.3199
 10
14.4797
 20
90.6458
 10
14.8064
 20
90.9121
 10
15.1776
 20
91.1118
 10
15.5805
 20
91.2352
 10
16.0
 20
91.2756
 10
16.4195
 20
91.2352
 10
16.8224
 20
91.1118
 10
17.1936
 20
90.9121
 10
17.5203
 20
90.6458
 10
17.7874
 20
90.3199
 10
17.9863
 20
89.9483
 10
18.1085
 20
89.545
 10
18.15
 20
89.1256
 10
18.1085
 20
88.7062
 10
17.9863
 20
88.3028
 10
17.7874
 20
87.9312
 10
17.5203
 20
87.6053
 10
17.1936
 20
87.339
 10
16.8224
 20
87.1393
 10
16.4195
 20
87.0159
 10
16.0
 20
86.9756
 10
15.5805
 20
87.0159
 10
15.1776
 20
87.1393
 10
14.8064
 20
87.339
 10
14.4797
 20
87.6053
 10
14.2126
 20
87.9312
 10
14.0137
 20
88.3028
 10
13.8915
 20
88.7062
  0
LWPOLYLINE
  5
E0
330
17
100
AcDbEntity
  8
HOLES
100
AcDbPolyline
 90
32
 70
1
 10
-18.15
 20
89.1256
 10
-18.1085
 20
89.545
 10
-17.9863
 20
89.9483
 10
-17.7874
 20
90.3199
 10
-17.5203
 20
90.6458
 10
-17.1936
 20
90.9121
 10
-16.8224
 20
91.1118
 10
-16.4195
 20
91.2352
 10
-16.0
 20
91.2756
 10
-15.5805
 20
91.2352
 10
-15.1776
 20
91.1118
 10
-14.8064
 20
90.9121
 10
-14.4797
 20
90.6458
 10
-14.2126
 20
90.3199
 10
-14.0137
 20
89.9483
 10
-13.8915
 20
89.545
 10
-13.85
 20
89.1256
 10
-13.8915
 20
88.7062
 10
-14.0137
 20
88.3028
 10
-14.2126
 20
87.9312
 10
-14.4797
 20
87.6053
 10
-14.8064
 20
87.339
 10
-15.1776
 20
87.1393
 10
-15.5805
 20
87.0159
 10
-16.0
 20
86.9756
 10
-16.4195
 20
87.0159
 10
-16.8224
 20
87.1393
 10
-17.1936
 20
87.339
 10
-17.5203
 20
87.6053
 10
-17.7874
 20
87.9312
 10
-17.9863
 20
88.3028
 10
-18.1085
 20
88.7062
  0
LWPOLYLINE
  5
E1
330
17
100
AcDbEntity
  8
HOLES
100
AcDbPolyline
 90
32
 70
1
 10
21.7849
 20
122.2926
 10
21.8264
 20
122.712
 10
21.9486
 20
123.1153
 10
22.1475
 20
123.4869
 10
22.4147
 20
123.8129
 10
22.7413
 20
124.0791
 10
23.1125
 20
124.2789
 10
23.5154
 20
124.4022
 10
23.9349
 20
124.4426
 10
24.3545
 20
124.4022
 10
24.7574
 20
124.2789
 10
25.1286
 20
124.0791
 10
25.4552
 20
123.8129
 10
25.7224
 20
123.4869
 10
25.9213
 20
123.1153
 10
26.0435
 20
122.712
 10
26.0849
 20
122.2926
 10
26.0435
 20
121.8732
 10
25.9213
 20
121.4699
 10
25.7224
 20
121.0983
 10
25.4552
 20
120.7723
 10
25.1286
 20
120.5061
 10
24.7574
 20
120.3063
 10
24.3545
 20
120.183
 10
23.9349
 20
120.1426
 10
23.5154
 20
120.183
 10
23.1125
 20
120.3063
 10
22.7413
 20
120.5061
 10
22.4147
 20
120.7723
 10
22.1475
 20
121.0983
 10
21.9486
 20
121.4699
 10
21.8264
 20
121.8732
  0
LWPOLYLINE
  5
E2
330
17
100
AcDbEntity
  8
HOLES
100
AcDbPolyline
 90
32
 70
1
 10
-26.0849
 20
122.2926
 10
-26.0435
 20
122.712
 10
-25.9213
 20
123.1153
 10
-25.7224
 20
123.4869
 10
-25.4552
 20
123.8129
 10
-25.1286
 20
124.0791
 10
-24.7574
 20
124.2789
 10
-24.3545
 20
124.4022
 10
-23.9349
 20
124.4426
 10
-23.5154
 20
124.4022
 10
-23.1125
 20
124.2789
 10
-22.7413
 20
124.0791
 10
-22.4147
 20
123.8129
 10
-22.1475
 20
123.4869
 10
-21.9486
 20
123.1153
 10
-21.8264
 20
122.712
 10
-21.7849
 20
122.2926
 10
-21.8264
 20
121.8732
 10
-21.9486
 20
121.4699
 10
-22.1475
 20
121.0983
 10
-22.4147
 20
120.7723
 10
-22.7413
 20
120.5061
 10
-23.1125
 20
120.3063
 10
-23.5154
 20
120.183
 10
-23.9349
 20
120.1426
 10
-24.3545
 20
120.183
 10
-24.7574
 20
120.3063
 10
-25.1286
 20
120.5061
 10
-25.4552
 20
120.7723
 10
-25.7224
 20
121.0983
 10
-25.9213
 20
121.4699
 10
-26.0435
 20
121.8732
  0
LWPOLYLINE
  5
E3
330
17
100
AcDbEntity
  8
HOLES
100
AcDbPolyline
 90
32
 70
1
 10
-29.35
 20
118.0176
 10
-29.324
 20
118.281
 10
-29.2472
 20
118.5342
 10
-29.1224
 20
118.7675
 10
-28.9546
 20
118.9722
 10
-28.7495
 20
119.1394
 10
-28.5164
 20
119.2648
 10
-28.2634
 20
119.3423
 10
-28.0
 20
119.3676
 10
-27.7366
 20
119.3423
 10
-27.4836
 20
119.2648
 10
-27.2505
 20
119.1394
 10
-27.0454
 20
118.9722
 10
-26.8777
 20
118.7675
 10
-26.7528
 20
118.5342
 10
-26.6761
 20
118.281
 10
-26.65
 20
118.0176
 10
-26.6761
 20
117.7543
 10
-26.7528
 20
117.501
 10
-26.8777
 20
117.2677
 10
-27.0454
 20
117.063
 10
-27.2505
 20
116.8958
 10
-27.4836
 20
116.7704
 10
-27.7366
 20
116.693
 10
-28.0
 20
116.6676
 10
-28.2634
 20
116.693
 10
-28.5164
 20
116.7704
 10
-28.7495
 20
116.8958
 10
-28.9546
 20
117.063
 10
-29.1224
 20
117.2677
 10
-29.2472
 20
117.501
 10
-29.324
 20
117.7543
  0
LWPOLYLINE
  5
E4
330
17
100
AcDbEntity
  8
HOLES
100
AcDbPolyline
 90
32
 70
1
 10
26.65
 20
118.0176
 10
26.676
 20
118.281
 10
26.7528
 20
118.5342
 10
26.8776
 20
118.7675
 10
27.0454
 20
118.9722
 10
27.2505
 20
119.1394
 10
27.4836
 20
119.2648
 10
27.7366
 20
119.3423
 10
28.0
 20
119.3676
 10
28.2634
 20
119.3423
 10
28.5164
 20
119.2648
 10
28.7495
 20
119.1394
 10
28.9546
 20
118.9722
 10
29.1223
 20
118.7675
 10
29.2472
 20
118.5342
 10
29.3239
 20
118.281
 10
29.35
 20
118.0176
 10
29.3239
 20
117.7543
 10
29.2472
 20
117.501
 10
29.1223
 20
117.2677
 10
28.9546
 20
117.063
 10
28.7495
 20
116.8958
 10
28.5164
 20
116.7704
 10
28.2634
 20
116.693
 10
28.0
 20
116.6676
 10
27.7366
 20
116.693
 10
27.4836
 20
116.7704
 10
27.2505
 20
116.8958
 10
27.0454
 20
117.063
 10
26.8776
 20
117.2677
 10
26.7528
 20
117.501
 10
26.676
 20
117.7543
  0
LWPOLYLINE
  5
E5
330
17
100
AcDbEntity
  8
HOLES
100
AcDbPolyline
 90
32
 70
1
 10
-26.085
 20
91.4458
 10
-26.0435
 20
91.8652
 10
-25.9213
 20
92.2685
 10
-25.7224
 20
92.6401
 10
-25.4553
 20
92.9661
 10
-25.1286
 20
93.2323
 10
-24.7574
 20
93.4321
 10
-24.3545
 20
93.5554
 10
-23.935
 20
93.5958
 10
-23.5154
 20
93.5554
 10
-23.1125
 20
93.4321
 10
-22.7414
 20
93.2323
 10
-22.4147
 20
92.9661
 10
-22.1475
 20
92.6401
 10
-21.9486
 20
92.2685
 10
-21.8265
 20
91.8652
 10
-21.785
 20
91.4458
 10
-21.8265
 20
91.0264
 10
-21.9486
 20
90.6231
 10
-22.1475
 20
90.2515
 10
-22.4147
 20
89.9255
 10
-22.7414
 20
89.6593
 10
-23.1125
 20
89.4595
 10
-23.5154
 20
89.3362
 10
-23.935
 20
89.2958
 10
-24.3545
 20
89.3362
 10
-24.7574
 20
89.4595
 10
-25.1286
 20
89.6593
 10
-25.4553
 20
89.9255
 10
-25.7224
 20
90.2515
 10
-25.9213
 20
90.6231
 10
-26.0435
 20
91.0264
  0
LWPOLYLINE
  5
E6
330
17
100
AcDbEntity
  8
HOLES
100
AcDbPolyline
 90
32
 70
1
 10
21.7849
 20
91.4458
 10
21.8264
 20
91.8652
 10
21.9486
 20
92.2685
 10
22.1475
 20
92.6401
 10
22.4146
 20
92.9661
 10
22.7413
 20
93.2323
 10
23.1125
 20
93.4321
 10
23.5154
 20
93.5554
 10
23.9349
 20
93.5958
 10
24.3545
 20
93.5554
 10
24.7574
 20
93.4321
 10
25.1285
 20
93.2323
 10
25.4552
 20
92.9661
 10
25.7224
 20
92.6401
 10
25.9213
 20
92.2685
 10
26.0434
 20
91.8652
 10
26.0849
 20
91.4458
 10
26.0434
 20
91.0264
 10
25.9213
 20
90.6231
 10
25.7224
 20
90.2515
 10
25.4552
 20
89.9255
 10
25.1285
 20
89.6593
 10
24.7574
 20
89.4595
 10
24.3545
 20
89.3362
 10
23.9349
 20
89.2958
 10
23.5154
 20
89.3362
 10
23.1125
 20
89.4595
 10
22.7413
 20
89.6593
 10
22.4146
 20
89.9255
 10
22.1475
 20
90.2515
 10
21.9486
 20
90.6231
 10
21.8264
 20
91.0264
  0
LWPOLYLINE
  5
E7
330
17
100
AcDbEntity
  8
HOLES
100
AcDbPolyline
 90
32
 70
1
 10
53.6597
 20
84.9505
 10
53.6906
 20
85.2626
 10
53.7815
 20
85.5628
 10
53.9296
 20
85.8393
 10
54.1284
 20
86.0819
 10
54.3715
 20
86.28
 10
54.6477
 20
86.4287
 10
54.9475
 20
86.5204
 10
55.2597
 20
86.5505
 10
55.5719
 20
86.5204
 10
55.8718
 20
86.4287
 10
56.148
 20
86.28
 10
56.3911
 20
86.0819
 10
56.5899
 20
85.8393
 10
56.7379
 20
85.5628
 10
56.8289
 20
85.2626
 10
56.8597
 20
84.9505
 10
56.8289
 20
84.6384
 10
56.7379
 20
84.3382
 10
56.5899
 20
84.0617
 10
56.3911
 20
83.8191
 10
56.148
 20
83.621
 10
55.8718
 20
83.4723
 10
55.5719
 20
83.3805
 10
55.2597
 20
83.3505
 10
54.9475
 20
83.3805
 10
54.6477
 20
83.4723
 10
54.3715
 20
83.621
 10
54.1284
 20
83.8191
 10
53.9296
 20
84.0617
 10
53.7815
 20
84.3382
 10
53.6906
 20
84.6384
  0
LWPOLYLINE
  5
E8
330
17
100
AcDbEntity
  8
HOLES
100
AcDbPolyline
 90
32
 70
1
 10
-24.3209
 20
96.7432
 10
-24.7306
 20
96.7837
 10
-25.1246
 20
96.903
 10
-25.4875
 20
97.0973
 10
-25.8059
 20
97.3582
 10
-26.0659
 20
97.6773
 10
-26.261
 20
98.0398
 10
-26.3815
 20
98.4334
 10
-26.4209
 20
98.8432
 10
-26.3815
 20
99.2529
 10
-26.261
 20
99.6465
 10
-26.0659
 20
100.009
 10
-25.8059
 20
100.3281
 10
-25.4875
 20
100.589
 10
-25.1246
 20
100.7833
 10
-24.7306
 20
100.9026
 10
-24.3209
 20
100.9432
 10
-23.9113
 20
100.9026
 10
-23.5173
 20
100.7833
 10
-23.1544
 20
100.589
 10
-22.836
 20
100.3281
 10
-22.576
 20
100.009
 10
-22.3809
 20
99.6465
 10
-22.2604
 20
99.2529
 10
-22.2209
 20
98.8432
 10
-22.2604
 20
98.4334
 10
-22.3809
 20
98.0398
 10
-22.576
 20
97.6773
 10
-22.836
 20
97.3582
 10
-23.1544
 20
97.0973
 10
-23.5173
 20
96.903
 10
-23.9113
 20
96.7837
  0
LWPOLYLINE
  5
E9
330
17
100
AcDbEntity
  8
HOLES
100
AcDbPolyline
 90
32
 70
1
 10
24.3191
 20
96.7432
 10
23.9094
 20
96.7837
 10
23.5154
 20
96.903
 10
23.1525
 20
97.0973
 10
22.8341
 20
97.3582
 10
22.5741
 20
97.6773
 10
22.379
 20
98.0398
 10
22.2585
 20
98.4334
 10
22.2191
 20
98.8432
 10
22.2585
 20
99.2529
 10
22.379
 20
99.6465
 10
22.5741
 20
100.009
 10
22.8341
 20
100.3281
 10
23.1525
 20
100.589
 10
23.5154
 20
100.7833
 10
23.9094
 20
100.9026
 10
24.3191
 20
100.9432
 10
24.7287
 20
100.9026
 10
25.1227
 20
100.7833
 10
25.4856
 20
100.589
 10
25.804
 20
100.3281
 10
26.064
 20
100.009
 10
26.2591
 20
99.6465
 10
26.3796
 20
99.2529
 10
26.4191
 20
98.8432
 10
26.3796
 20
98.4334
 10
26.2591
 20
98.0398
 10
26.064
 20
97.6773
 10
25.804
 20
97.3582
 10
25.4856
 20
97.0973
 10
25.1227
 20
96.903
 10
24.7287
 20
96.7837
  0
LWPOLYLINE
  5
EA
330
17
100
AcDbEntity
  8
HOLES
100
AcDbPolyline
 90
36
 70
1
 10
-20.0
 20
128.7689
 10
-20.3117
 20
128.8015
 10
-20.6111
 20
128.8941
 10
-20.8881
 20
129.0408
 10
-21.1318
 20
129.2379
 10
-21.3304
 20
129.4804
 10
-21.4774
 20
129.7572
 10
-21.5686
 20
130.0571
 10
-21.6
 20
130.3689
 10
-21.5686
 20
130.6807
 10
-21.4774
 20
130.9806
 10
-21.3304
 20
131.2574
 10
-21.1318
 20
131.4998
 10
-20.8881
 20
131.697
 10
-20.6111
 20
131.8437
 10
-20.3117
 20
131.9363
 10
-20.0
 20
131.9689
 10
0.0
 20
131.9689
 10
20.0
 20
131.9689
 10
20.3117
 20
131.9363
 10
20.6111
 20
131.8437
 10
20.8881
 20
131.697
 10
21.1318
 20
131.4998
 10
21.3304
 20
131.2574
 10
21.4774
 20
130.9806
 10
21.5686
 20
130.6807
 10
21.6
 20
130.3689
 10
21.5686
 20
130.0571
 10
21.4774
 20
129.7572
 10
21.3304
 20
129.4804
 10
21.1318
 20
129.2379
 10
20.8881
 20
129.0408
 10
20.6111
 20
128.8941
 10
20.3117
 20
128.8015
 10
20.0
 20
128.7689
 10
0.0
 20
128.7689
  0
ENDSEC
  0
SECTION
  2
OBJECTS
  0
DICTIONARY
  5
A
330
0
100
AcDbDictionary
281
1
  3
ACAD_COLOR
350
B
  3
ACAD_GROUP
350
C
  3
ACAD_LAYOUT
350
D
  3
ACAD_MATERIAL
350
E
  3
ACAD_MLEADERSTYLE
350
F
  3
ACAD_MLINESTYLE
350
10
  3
ACAD_PLOTSETTINGS
350
11
  3
ACAD_PLOTSTYLENAME
350
12
  3
ACAD_SCALELIST
350
14
  3
ACAD_TABLESTYLE
350
15
  3
ACAD_VISUALSTYLE
350
16
  3
EZDXF_META
350
2D
  0
DICTIONARY
  5
B
330
A
100
AcDbDictionary
281
1
  0
DICTIONARY
  5
C
330
A
100
AcDbDictionary
281
1
  0
DICTIONARY
  5
D
330
A
100
AcDbDictionary
281
1
  3
Model
350
1A
  3
Layout1
350
1E
  0
DICTIONARY
  5
E
330
A
100
AcDbDictionary
281
1
  3
ByBlock
350
1F
  3
ByLayer
350
20
  3
Global
350
21
  0
DICTIONARY
  5
F
330
A
100
AcDbDictionary
281
1
  3
Standard
350
2C
  0
DICTIONARY
  5
10
330
A
100
AcDbDictionary
281
1
  3
Standard
350
22
  0
DICTIONARY
  5
11
330
A
100
AcDbDictionary
281
1
  0
ACDBDICTIONARYWDFLT
  5
12
330
A
100
AcDbDictionary
281
1
  3
Normal
350
13
100
AcDbDictionaryWithDefault
340
13
  0
ACDBPLACEHOLDER
  5
13
330
12
  0
DICTIONARY
  5
14
330
A
100
AcDbDictionary
281
1
  0
DICTIONARY
  5
15
330
A
100
AcDbDictionary
281
1
  0
DICTIONARY
  5
16
330
A
100
AcDbDictionary
281
1
  3
2dWireframe
350
5A
  3
Basic
350
5B
  3
Brighten
350
5C
  3
ColorChange
350
5D
  3
Conceptual
350
5E
  3
Dim
350
5F
  3
EdgeColorOff
350
60
  3
Facepattern
350
61
  3
Flat
350
62
  3
FlatWithEdges
350
63
  3
Gouraud
350
64
  3
GouraudWithEdges
350
65
  3
Hidden
350
66
  3
JitterOff
350
67
  3
Linepattern
350
68
  3
Modeling
350
69
  3
OverhangOff
350
6A
  3
Realistic
350
6B
  3
Shaded
350
6C
  3
Shaded with edges
350
6D
  3
Shades of Gray
350
6E
  3
Sketchy
350
6F
  3
Thicken
350
70
  3
Wireframe
350
71
  3
X-Ray
350
72
  0
LAYOUT
  5
1A
330
D
100
AcDbPlotSettings
  1

  4
A3
  6

 40
7.5
 41
20.0
 42
7.5
 43
20.0
 44
420.0
 45
297.0
 46
0.0
 47
0.0
 48
0.0
 49
0.0
140
0.0
141
0.0
142
1.0
143
1.0
 70
1024
 72
1
 73
0
 74
5
  7

 75
16
 76
0
 77
2
 78
300
147
1.0
148
0.0
149
0.0
100
AcDbLayout
  1
Model
 70
1
 71
0
 10
0.0
 20
0.0
 11
420.0
 21
297.0
 12
0.0
 22
0.0
 32
0.0
 14
1e+20
 24
1e+20
 34
1e+20
 15
-1e+20
 25
-1e+20
 35
-1e+20
146
0.0
 13
0.0
 23
0.0
 33
0.0
 16
1.0
 26
0.0
 36
0.0
 17
0.0
 27
1.0
 37
0.0
 76
1
330
17
  0
LAYOUT
  5
1E
330
D
100
AcDbPlotSettings
  1

  4
A3
  6

 40
7.5
 41
20.0
 42
7.5
 43
20.0
 44
420.0
 45
297.0
 46
0.0
 47
0.0
 48
0.0
 49
0.0
140
0.0
141
0.0
142
1.0
143
1.0
 70
0
 72
1
 73
0
 74
5
  7

 75
16
 76
0
 77
2
 78
300
147
1.0
148
0.0
149
0.0
100
AcDbLayout
  1
Layout1
 70
1
 71
1
 10
0.0
 20
0.0
 11
420.0
 21
297.0
 12
0.0
 22
0.0
 32
0.0
 14
1e+20
 24
1e+20
 34
1e+20
 15
-1e+20
 25
-1e+20
 35
-1e+20
146
0.0
 13
0.0
 23
0.0
 33
0.0
 16
1.0
 26
0.0
 36
0.0
 17
0.0
 27
1.0
 37
0.0
 76
1
330
1B
  0
MATERIAL
  5
1F
102
{ACAD_REACTORS
330
E
102
}
330
E
100
AcDbMaterial
  1
ByBlock
  2

 70
0
 40
1.0
 71
1
 41
1.0
 91
-1023410177
 42
1.0
 72
1
  3

 73
1
 74
1
 75
1
 44
0.5
 73
0
 45
1.0
 46
1.0
 77
1
  4

 78
1
 79
1
170
1
 48
1.0
171
1
  6

172
1
173
1
174
1
140
1.0
141
1.0
175
1
  7

176
1
177
1
178
1
143
1.0
179
1
  8

270
1
271
1
272
1
145
1.0
146
1.0
273
1
  9

274
1
275
1
276
1
 42
1.0
 72
1
  3

 73
1
 74
1
 75
1
 94
63
  0
MATERIAL
  5
20
102
{ACAD_REACTORS
330
E
102
}
330
E
100
AcDbMaterial
  1
ByLayer
  2

 70
0
 40
1.0
 71
1
 41
1.0
 91
-1023410177
 42
1.0
 72
1
  3

 73
1
 74
1
 75
1
 44
0.5
 73
0
 45
1.0
 46
1.0
 77
1
  4

 78
1
 79
1
170
1
 48
1.0
171
1
  6

172
1
173
1
174
1
140
1.0
141
1.0
175
1
  7

176
1
177
1
178
1
143
1.0
179
1
  8

270
1
271
1
272
1
145
1.0
146
1.0
273
1
  9

274
1
275
1
276
1
 42
1.0
 72
1
  3

 73
1
 74
1
 75
1
 94
63
  0
MATERIAL
  5
21
102
{ACAD_REACTORS
330
E
102
}
330
E
100
AcDbMaterial
  1
Global
  2

 70
0
 40
1.0
 71
1
 41
1.0
 91
-1023410177
 42
1.0
 72
1
  3

 73
1
 74
1
 75
1
 44
0.5
 73
0
 45
1.0
 46
1.0
 77
1
  4

 78
1
 79
1
170
1
 48
1.0
171
1
  6

172
1
173
1
174
1
140
1.0
141
1.0
175
1
  7

176
1
177
1
178
1
143
1.0
179
1
  8

270
1
271
1
272
1
145
1.0
146
1.0
273
1
  9

274
1
275
1
276
1
 42
1.0
 72
1
  3

 73
1
 74
1
 75
1
 94
63
  0
MLINESTYLE
  5
22
102
{ACAD_REACTORS
330
10
102
}
330
10
100
AcDbMlineStyle
  2
Standard
 70
0
  3

 62
256
 51
90.0
 52
90.0
 71
2
 49
0.5
 62
256
  6
BYLAYER
 49
-0.5
 62
256
  6
BYLAYER
  0
MLEADERSTYLE
  5
2C
102
{ACAD_REACTORS
330
F
102
}
330
F
100
AcDbMLeaderStyle
179
2
170
2
171
1
172
0
 90
2
 40
0.0
 41
0.0
173
1
 91
-1056964608
 92
-2
290
1
 42
2.0
291
1
 43
8.0
  3
Standard
 44
4.0
300

342
29
174
1
175
1
176
0
178
1
 93
-1056964608
 45
4.0
292
0
297
0
 46
4.0
 94
-1056964608
 47
1.0
 49
1.0
140
1.0
294
1
141
0.0
177
0
142
1.0
295
0
296
0
143
3.75
271
0
272
9
273
9
  0
DICTIONARY
  5
2D
330
A
100
AcDbDictionary
280
1
281
1
  3
CREATED_BY_EZDXF
350
2E
  3
WRITTEN_BY_EZDXF
350
ED
  0
DICTIONARYVAR
  5
2E
330
2D
100
DictionaryVariables
280
0
  1
1.4.4 @ 2026-10-03T10:32:19.461911+00:00
  0
VISUALSTYLE
  5
5A
102
{ACAD_REACTORS
330
16
102
}
330
16
100
AcDbVisualStyle
  2
2dWireframe
 70
4
 90
0
 40
0.6
 62
7
290
0
291
0
  0
VISUALSTYLE
  5
5B
102
{ACAD_REACTORS
330
16
102
}
330
16
100
AcDbVisualStyle
  2
Basic
 70
7
 90
1
 40
0.6
 62
7
290
0
291
1
  0
VISUALSTYLE
  5
5C
102
{ACAD_REACTORS
330
16
102
}
330
16
100
AcDbVisualStyle
  2
Brighten
 70
12
 90
2
 40
0.6
 62
7
290
0
291
1
  0
VISUALSTYLE
  5
5D
102
{ACAD_REACTORS
330
16
102
}
330
16
100
AcDbVisualStyle
  2
ColorChange
 70
16
 90
2
 40
0.6
 62
8
290
0
291
1
  0
VISUALSTYLE
  5
5E
102
{ACAD_REACTORS
330
16
102
}
330
16
100
AcDbVisualStyle
  2
Conceptual
 70
9
 90
3
 40
0.6
 62
7
290
0
291
0
  0
VISUALSTYLE
  5
5F
102
{ACAD_REACTORS
330
16
102
}
330
16
100
AcDbVisualStyle
  2
Dim
 70
11
 90
2
 40
0.6
 62
7
290
0
291
1
  0
VISUALSTYLE
  5
60
102
{ACAD_REACTORS
330
16
102
}
330
16
100
AcDbVisualStyle
  2
EdgeColorOff
 70
22
 90
2
 40
0.6
 62
7
290
0
291
1
  0
VISUALSTYLE
  5
61
102
{ACAD_REACTORS
330
16
102
}
330
16
100
AcDbVisualStyle
  2
Facepattern
 70
15
 90
2
 40
0.6
 62
7
290
0
291
1
  0
VISUALSTYLE
  5
62
102
{ACAD_REACTORS
330
16
102
}
330
16
100
AcDbVisualStyle
  2
Flat
 70
0
 90
2
 40
0.6
 62
7
290
0
291
1
  0
VISUALSTYLE
  5
63
102
{ACAD_REACTORS
330
16
102
}
330
16
100
AcDbVisualStyle
  2
FlatWithEdges
 70
1
 90
2
 40
0.6
 62
7
290
0
291
1
  0
VISUALSTYLE
  5
64
102
{ACAD_REACTORS
330
16
102
}
330
16
100
AcDbVisualStyle
  2
Gouraud
 70
2
 90
2
 40
0.6
 62
7
290
0
291
1
  0
VISUALSTYLE
  5
65
102
{ACAD_REACTORS
330
16
102
}
330
16
100
AcDbVisualStyle
  2
GouraudWithEdges
 70
3
 90
2
 40
0.6
 62
7
290
0
291
1
  0
VISUALSTYLE
  5
66
102
{ACAD_REACTORS
330
16
102
}
330
16
100
AcDbVisualStyle
  2
Hidden
 70
6
 90
1
 40
0.6
 62
7
290
0
291
0
  0
VISUALSTYLE
  5
67
102
{ACAD_REACTORS
330
16
102
}
330
16
100
AcDbVisualStyle
  2
JitterOff
 70
20
 90
2
 40
0.6
 62
7
290
0
291
1
  0
VISUALSTYLE
  5
68
102
{ACAD_REACTORS
330
16
102
}
330
16
100
AcDbVisualStyle
  2
Linepattern
 70
14
 90
2
 40
0.6
 62
7
290
0
291
1
  0
VISUALSTYLE
  5
69
102
{ACAD_REACTORS
330
16
102
}
330
16
100
AcDbVisualStyle
  2
Modeling
 70
10
 90
2
 40
0.6
 62
7
290
0
291
0
  0
VISUALSTYLE
  5
6A
102
{ACAD_REACTORS
330
16
102
}
330
16
100
AcDbVisualStyle
  2
OverhangOff
 70
21
 90
2
 40
0.6
 62
7
290
0
291
1
  0
VISUALSTYLE
  5
6B
102
{ACAD_REACTORS
330
16
102
}
330
16
100
AcDbVisualStyle
  2
Realistic
 70
8
 90
2
 40
0.6
 62
7
290
0
291
0
  0
VISUALSTYLE
  5
6C
102
{ACAD_REACTORS
330
16
102
}
330
16
100
AcDbVisualStyle
  2
Shaded
 70
27
 90
2
 40
0.6
 62
7
290
0
291
0
  0
VISUALSTYLE
  5
6D
102
{ACAD_REACTORS
330
16
102
}
330
16
100
AcDbVisualStyle
  2
Shaded with edges
 70
26
 90
2
 40
0.6
 62
7
290
0
291
0
  0
VISUALSTYLE
  5
6E
102
{ACAD_REACTORS
330
16
102
}
330
16
100
AcDbVisualStyle
  2
Shades of Gray
 70
23
 90
2
 40
0.6
 62
7
290
0
291
0
  0
VISUALSTYLE
  5
6F
102
{ACAD_REACTORS
330
16
102
}
330
16
100
AcDbVisualStyle
  2
Sketchy
 70
24
 90
1
 40
0.6
 62
7
290
0
291
0
  0
VISUALSTYLE
  5
70
102
{ACAD_REACTORS
330
16
102
}
330
16
100
AcDbVisualStyle
  2
Thicken
 70
13
 90
2
 40
0.6
 62
7
290
0
291
1
  0
VISUALSTYLE
  5
71
102
{ACAD_REACTORS
330
16
102
}
330
16
100
AcDbVisualStyle
  2
Wireframe
 70
5
 90
0
 40
0.6
 62
7
290
0
291
0
  0
VISUALSTYLE
  5
72
102
{ACAD_REACTORS
330
16
102
}
330
16
100
AcDbVisualStyle
  2
X-Ray
 70
25
 90
2
 40
0.5
 62
7
290
0
291
0
  0
DICTIONARYVAR
  5
ED
330
2D
100
DictionaryVariables
280
0
  1
1.4.4 @ 2026-10-03T10:32:19.604670+00:00
  0
ENDSEC
  0
EOF
