0
SECTION
2
ENTITIES
0
LINE
8
OUTLINE
10
26.6059
20
134.9689
11
-26.6059
21
134.9689
0
ARC
8
OUTLINE
10
-26.6058
20
131.9688
40
3.0001
50
90.0013
51
149.4660
0
LINE
8
OUTLINE
10
-29.1899
20
133.4930
11
-51.7168
21
95.3004
0
ARC
8
OUTLINE
10
-54.3088
20
96.8310
40
3.0102
50
313.2210
51
329.4383
0
LINE
8
OUTLINE
10
-52.2474
20
94.6374
11
-58.6822
21
88.5956
0
ARC
8
OUTLINE
10
-55.2595
20
84.9505
40
5.0002
50
133.1973
51
179.9994
0
ARC
8
OUTLINE
10
-55.2595
20
84.9505
40
5.0002
50
180.0006
51
226.8027
0
LINE
8
OUTLINE
10
-58.6822
20
81.3054
11
-42.8594
21
66.4491
0
ARC
8
OUTLINE
10
-44.3075
20
64.9568
40
2.0794
50
0.9445
51
45.8600
0
LINE
8
OUTLINE
10
-42.2284
20
64.9911
11
-42.2284
21
48.2741
0
ARC
8
OUTLINE
10
-45.2815
20
48.2887
40
3.0532
50
329.4052
51
359.7252
0
LINE
8
OUTLINE
10
-42.6534
20
46.7348
11
-57.3537
21
22.1434
0
ARC
8
OUTLINE
10
-54.7278
20
20.5898
40
3.0511
50
149.3887
51
179.0790
0
LINE
8
OUTLINE
10
-57.7785
20
20.6388
11
-59.3646
21
-116.5367
0
ARC
8
OUTLINE
10
-56.3093
20
-116.5564
40
3.0553
50
179.6302
51
210.6803
0
LINE
8
OUTLINE
10
-58.9370
20
-118.1154
11
-49.6940
21
-133.5129
0
ARC
8
OUTLINE
10
-47.1221
20
-131.9693
40
2.9996
50
210.9706
51
270.0032
0
LINE
8
OUTLINE
10
-47.1219
20
-134.9689
11
47.1219
21
-134.9689
0
ARC
8
OUTLINE
10
47.1221
20
-131.9693
40
2.9996
50
269.9968
51
329.0294
0
LINE
8
OUTLINE
10
49.6940
20
-133.5129
11
58.9370
21
-118.1154
0
ARC
8
OUTLINE
10
56.3093
20
-116.5564
40
3.0553
50
329.3197
51
0.3698
0
LINE
8
OUTLINE
10
59.3646
20
-116.5367
11
57.7785
21
20.6388
0
ARC
8
OUTLINE
10
54.7278
20
20.5898
40
3.0511
50
0.9210
51
30.6113
0
LINE
8
OUTLINE
10
57.3537
20
22.1434
11
42.6534
21
46.7348
0
ARC
8
OUTLINE
10
45.2815
20
48.2887
40
3.0532
50
180.2748
51
210.5948
0
LINE
8
OUTLINE
10
42.2284
20
48.2741
11
42.2284
21
64.9911
0
ARC
8
OUTLINE
10
44.3075
20
64.9568
40
2.0794
50
134.1400
51
179.0555
0
LINE
8
OUTLINE
10
42.8594
20
66.4491
11
58.6822
21
81.3054
0
ARC
8
OUTLINE
10
55.2595
20
84.9505
40
5.0002
50
313.1973
51
359.9994
0
ARC
8
OUTLINE
10
55.2595
20
84.9505
40
5.0002
50
0.0006
51
46.8027
0
LINE
8
OUTLINE
10
58.6822
20
88.5956
11
52.2474
21
94.6374
0
ARC
8
OUTLINE
10
54.3088
20
96.8310
40
3.0102
50
210.5617
51
226.7790
0
LINE
8
OUTLINE
10
51.7168
20
95.3004
11
29.1899
21
133.4930
0
ARC
8
OUTLINE
10
26.6058
20
131.9688
40
3.0001
50
30.5340
51
89.9987
0
LINE
8
OUTLINE
10
23.2000
20
64.8000
11
31.0000
21
64.8000
0
LINE
8
OUTLINE
10
31.0000
20
64.8000
11
31.0000
21
78.6000
0
LINE
8
OUTLINE
10
31.0000
20
78.6000
11
23.2000
21
78.6000
0
LINE
8
OUTLINE
10
23.2000
20
78.6000
11
23.2000
21
64.8000
0
CIRCLE
8
HOLES
10
38.0916
20
107.6360
40
2.1500
0
CIRCLE
8
HOLES
10
-38.0916
20
-121.8873
40
2.1500
0
CIRCLE
8
HOLES
10
6.4500
20
39.9500
40
1.1000
0
CIRCLE
8
HOLES
10
27.5500
20
61.0500
40
1.1000
0
CIRCLE
8
HOLES
10
27.5500
20
39.9500
40
1.1000
0
CIRCLE
8
HOLES
10
-55.2597
20
84.9505
40
1.6000
0
CIRCLE
8
HOLES
10
-26.0000
20
20.5000
40
1.3500
0
CIRCLE
8
HOLES
10
-26.0000
20
-28.5000
40
1.3500
0
CIRCLE
8
HOLES
10
32.0000
20
20.5000
40
1.3500
0
CIRCLE
8
HOLES
10
32.0000
20
-28.5000
40
1.3500
0
CIRCLE
8
HOLES
10
-38.0916
20
107.6360
40
2.1500
0
CIRCLE
8
HOLES
10
-7.0400
20
-105.3400
40
1.6000
0
CIRCLE
8
HOLES
10
-7.0400
20
-38.6600
40
1.6000
0
CIRCLE
8
HOLES
10
-52.7600
20
-105.3400
40
1.6000
0
CIRCLE
8
HOLES
10
-52.7600
20
-38.6600
40
1.6000
0
CIRCLE
8
HOLES
10
38.0916
20
-121.8873
40
2.1500
0
CIRCLE
8
HOLES
10
-27.5500
20
39.9500
40
1.1000
0
CIRCLE
8
HOLES
10
-6.4500
20
61.0500
40
1.1000
0
CIRCLE
8
HOLES
10
-6.4500
20
39.9500
40
1.1000
0
CIRCLE
8
HOLES
10
-51.6500
20
13.8000
40
1.0900
0
CIRCLE
8
HOLES
10
-51.6500
20
-21.8000
40
1.0900
0
CIRCLE
8
HOLES
10
-36.3500
20
13.8000
40
1.0900
0
CIRCLE
8
HOLES
10
-36.3500
20
-21.8000
40
1.0900
0
CIRCLE
8
HOLES
10
55.2597
20
84.9505
40
1.6000
0
ENDSEC
0
EOF
