%TF.GenerationSoftware,KiCad,Pcbnew,10.0.6*%
%TF.CreationDate,2026-10-03T12:15:04+00:00*%
%TF.ProjectId,rabbit-body,72616262-6974-42d6-926f-64792e6b6963,rev?*%
%TF.SameCoordinates,Original*%
%TF.FileFunction,Paste,Top*%
%TF.FilePolarity,Positive*%
%FSLAX46Y46*%
G04 Gerber Fmt 4.6, Leading zero omitted, Abs format (unit mm)*
G04 Created by KiCad (PCBNEW 10.0.6) date 2026-10-03 12:15:04*
%MOMM*%
%LPD*%
G01*
G04 APERTURE LIST*
G04 Aperture macros list*
%AMRoundRect*
0 Rectangle with rounded corners*
0 $1 Rounding radius*
0 $2 $3 $4 $5 $6 $7 $8 $9 X,Y pos of 4 corners*
0 Add a 4 corners polygon primitive as box body*
4,1,4,$2,$3,$4,$5,$6,$7,$8,$9,$2,$3,0*
0 Add four circle primitives for the rounded corners*
1,1,$1+$1,$2,$3*
1,1,$1+$1,$4,$5*
1,1,$1+$1,$6,$7*
1,1,$1+$1,$8,$9*
0 Add four rect primitives between the rounded corners*
20,1,$1+$1,$2,$3,$4,$5,0*
20,1,$1+$1,$4,$5,$6,$7,0*
20,1,$1+$1,$6,$7,$8,$9,0*
20,1,$1+$1,$8,$9,$2,$3,0*%
G04 Aperture macros list end*
%ADD10R,1.900000X2.500000*%
%ADD11R,1.900000X0.700000*%
%ADD12RoundRect,0.200000X0.275000X-0.200000X0.275000X0.200000X-0.275000X0.200000X-0.275000X-0.200000X0*%
%ADD13RoundRect,0.250000X0.475000X-0.250000X0.475000X0.250000X-0.475000X0.250000X-0.475000X-0.250000X0*%
%ADD14RoundRect,0.200000X-0.200000X-0.275000X0.200000X-0.275000X0.200000X0.275000X-0.200000X0.275000X0*%
%ADD15RoundRect,0.225000X-0.225000X-0.250000X0.225000X-0.250000X0.225000X0.250000X-0.225000X0.250000X0*%
%ADD16RoundRect,0.150000X-0.950000X-0.150000X0.950000X-0.150000X0.950000X0.150000X-0.950000X0.150000X0*%
%ADD17RoundRect,0.537500X-0.537500X-1.187500X0.537500X-1.187500X0.537500X1.187500X-0.537500X1.187500X0*%
%ADD18C,0.250000*%
%ADD19RoundRect,0.218750X0.256250X-0.218750X0.256250X0.218750X-0.256250X0.218750X-0.256250X-0.218750X0*%
%ADD20RoundRect,0.250000X0.900000X-1.000000X0.900000X1.000000X-0.900000X1.000000X-0.900000X-1.000000X0*%
%ADD21RoundRect,0.150000X-0.875000X-0.150000X0.875000X-0.150000X0.875000X0.150000X-0.875000X0.150000X0*%
%ADD22RoundRect,0.150000X-0.587500X-0.150000X0.587500X-0.150000X0.587500X0.150000X-0.587500X0.150000X0*%
%ADD23R,2.500000X1.900000*%
%ADD24R,0.700000X1.900000*%
%ADD25RoundRect,0.218750X-0.256250X0.218750X-0.256250X-0.218750X0.256250X-0.218750X0.256250X0.218750X0*%
%ADD26RoundRect,0.250000X-0.475000X0.250000X-0.475000X-0.250000X0.475000X-0.250000X0.475000X0.250000X0*%
%ADD27RoundRect,0.100000X-0.637500X-0.100000X0.637500X-0.100000X0.637500X0.100000X-0.637500X0.100000X0*%
%ADD28RoundRect,0.250000X-0.250000X-0.475000X0.250000X-0.475000X0.250000X0.475000X-0.250000X0.475000X0*%
G04 APERTURE END LIST*
D10*
%TO.C,R1*%
X198650000Y-191050000D03*
X192550000Y-191050000D03*
D11*
X198650000Y-189050000D03*
X192550000Y-189050000D03*
%TD*%
D12*
%TO.C,R33*%
X148000000Y-49825000D03*
X148000000Y-48175000D03*
%TD*%
%TO.C,R39*%
X181000000Y-190825000D03*
X181000000Y-189175000D03*
%TD*%
%TO.C,R34*%
X152000000Y-49825000D03*
X152000000Y-48175000D03*
%TD*%
%TO.C,R24*%
X176000000Y-66325000D03*
X176000000Y-64675000D03*
%TD*%
D13*
%TO.C,C6*%
X137500000Y-81950000D03*
X137500000Y-80050000D03*
%TD*%
D12*
%TO.C,R16*%
X118300000Y-163825000D03*
X118300000Y-162175000D03*
%TD*%
%TO.C,R37*%
X188600000Y-92825000D03*
X188600000Y-91175000D03*
%TD*%
D14*
%TO.C,R20*%
X149175000Y-110000000D03*
X150825000Y-110000000D03*
%TD*%
D12*
%TO.C,R12*%
X127000000Y-69825000D03*
X127000000Y-68175000D03*
%TD*%
D14*
%TO.C,R30*%
X134175000Y-274000000D03*
X135825000Y-274000000D03*
%TD*%
D12*
%TO.C,R13*%
X129000000Y-69825000D03*
X129000000Y-68175000D03*
%TD*%
D15*
%TO.C,C2*%
X173825000Y-187600000D03*
X175375000Y-187600000D03*
%TD*%
D12*
%TO.C,R40*%
X155000000Y-80325000D03*
X155000000Y-78675000D03*
%TD*%
D16*
%TO.C,U7*%
X140862500Y-76460000D03*
X140862500Y-77730000D03*
X140862500Y-79000000D03*
X140862500Y-80270000D03*
X140862500Y-81540000D03*
D17*
X147162500Y-79000000D03*
%TD*%
D12*
%TO.C,R35*%
X156000000Y-49825000D03*
X156000000Y-48175000D03*
%TD*%
D10*
%TO.C,R3*%
X161650000Y-253450000D03*
X155550000Y-253450000D03*
D11*
X161650000Y-251450000D03*
X155550000Y-251450000D03*
%TD*%
D13*
%TO.C,C13*%
X121500000Y-123750000D03*
X121500000Y-121850000D03*
%TD*%
D18*
%TO.C,U3*%
X171400000Y-190900000D03*
X171800000Y-190900000D03*
X172200000Y-190900000D03*
X172600000Y-190900000D03*
X171400000Y-191300000D03*
X171800000Y-191300000D03*
X172200000Y-191300000D03*
X172600000Y-191300000D03*
X171400000Y-191700000D03*
X171800000Y-191700000D03*
X172200000Y-191700000D03*
X172600000Y-191700000D03*
X171400000Y-192100000D03*
X171800000Y-192100000D03*
X172200000Y-192100000D03*
X172600000Y-192100000D03*
%TD*%
D14*
%TO.C,R21*%
X149175000Y-102000000D03*
X150825000Y-102000000D03*
%TD*%
D12*
%TO.C,R10*%
X118300000Y-170825000D03*
X118300000Y-169175000D03*
%TD*%
D15*
%TO.C,C5*%
X141225000Y-61000000D03*
X142775000Y-61000000D03*
%TD*%
D19*
%TO.C,D2*%
X118300000Y-147287500D03*
X118300000Y-145712500D03*
%TD*%
D12*
%TO.C,R38*%
X111400000Y-92825000D03*
X111400000Y-91175000D03*
%TD*%
D20*
%TO.C,D1*%
X205500000Y-192150000D03*
X205500000Y-187850000D03*
%TD*%
D19*
%TO.C,D6*%
X155000000Y-76787500D03*
X155000000Y-75212500D03*
%TD*%
D12*
%TO.C,R36*%
X118300000Y-150825000D03*
X118300000Y-149175000D03*
%TD*%
D14*
%TO.C,R23*%
X147675000Y-69400000D03*
X149325000Y-69400000D03*
%TD*%
D12*
%TO.C,R14*%
X131000000Y-69825000D03*
X131000000Y-68175000D03*
%TD*%
%TO.C,R17*%
X118300000Y-160325000D03*
X118300000Y-158675000D03*
%TD*%
%TO.C,R22*%
X153000000Y-74825000D03*
X153000000Y-73175000D03*
%TD*%
D14*
%TO.C,R28*%
X179175000Y-55000000D03*
X180825000Y-55000000D03*
%TD*%
%TO.C,R27*%
X183175000Y-49000000D03*
X184825000Y-49000000D03*
%TD*%
D12*
%TO.C,R32*%
X144000000Y-49825000D03*
X144000000Y-48175000D03*
%TD*%
D14*
%TO.C,R29*%
X155175000Y-29000000D03*
X156825000Y-29000000D03*
%TD*%
%TO.C,R26*%
X139175000Y-72000000D03*
X140825000Y-72000000D03*
%TD*%
%TO.C,R31*%
X167175000Y-188000000D03*
X168825000Y-188000000D03*
%TD*%
D21*
%TO.C,U9*%
X131350000Y-50555000D03*
X131350000Y-51825000D03*
X131350000Y-53095000D03*
X131350000Y-54365000D03*
X131350000Y-55635000D03*
X131350000Y-56905000D03*
X131350000Y-58175000D03*
X131350000Y-59445000D03*
X140650000Y-59445000D03*
X140650000Y-58175000D03*
X140650000Y-56905000D03*
X140650000Y-55635000D03*
X140650000Y-54365000D03*
X140650000Y-53095000D03*
X140650000Y-51825000D03*
X140650000Y-50555000D03*
%TD*%
D22*
%TO.C,Q3*%
X179062500Y-64550000D03*
X179062500Y-66450000D03*
X180937500Y-65500000D03*
%TD*%
D15*
%TO.C,C11*%
X155225000Y-27000000D03*
X156775000Y-27000000D03*
%TD*%
%TO.C,C12*%
X134225000Y-276000000D03*
X135775000Y-276000000D03*
%TD*%
%TO.C,C8*%
X139225000Y-74500000D03*
X140775000Y-74500000D03*
%TD*%
%TO.C,C10*%
X179225000Y-53000000D03*
X180775000Y-53000000D03*
%TD*%
D19*
%TO.C,D4*%
X111400000Y-89287500D03*
X111400000Y-87712500D03*
%TD*%
D22*
%TO.C,Q1*%
X149062500Y-105050000D03*
X149062500Y-106950000D03*
X150937500Y-106000000D03*
%TD*%
D12*
%TO.C,R11*%
X118300000Y-167325000D03*
X118300000Y-165675000D03*
%TD*%
D23*
%TO.C,R4*%
X114050000Y-106050000D03*
X114050000Y-99950000D03*
D24*
X116050000Y-106050000D03*
X116050000Y-99950000D03*
%TD*%
D22*
%TO.C,Q2*%
X147562500Y-72050000D03*
X147562500Y-73950000D03*
X149437500Y-73000000D03*
%TD*%
D14*
%TO.C,R25*%
X179175000Y-69000000D03*
X180825000Y-69000000D03*
%TD*%
D25*
%TO.C,D5*%
X181000000Y-186212500D03*
X181000000Y-187787500D03*
%TD*%
D26*
%TO.C,C9*%
X121500000Y-117550000D03*
X121500000Y-119450000D03*
%TD*%
D13*
%TO.C,C7*%
X150500000Y-81950000D03*
X150500000Y-80050000D03*
%TD*%
D27*
%TO.C,U8*%
X155137500Y-52775000D03*
X155137500Y-53425000D03*
X155137500Y-54075000D03*
X155137500Y-54725000D03*
X155137500Y-55375000D03*
X155137500Y-56025000D03*
X155137500Y-56675000D03*
X155137500Y-57325000D03*
X155137500Y-57975000D03*
X155137500Y-58625000D03*
X155137500Y-59275000D03*
X155137500Y-59925000D03*
X155137500Y-60575000D03*
X155137500Y-61225000D03*
X160862500Y-61225000D03*
X160862500Y-60575000D03*
X160862500Y-59925000D03*
X160862500Y-59275000D03*
X160862500Y-58625000D03*
X160862500Y-57975000D03*
X160862500Y-57325000D03*
X160862500Y-56675000D03*
X160862500Y-56025000D03*
X160862500Y-55375000D03*
X160862500Y-54725000D03*
X160862500Y-54075000D03*
X160862500Y-53425000D03*
X160862500Y-52775000D03*
%TD*%
D14*
%TO.C,R19*%
X163175000Y-190000000D03*
X164825000Y-190000000D03*
%TD*%
%TO.C,R18*%
X163175000Y-188000000D03*
X164825000Y-188000000D03*
%TD*%
D23*
%TO.C,R2*%
X185050000Y-106050000D03*
X185050000Y-99950000D03*
D24*
X187050000Y-106050000D03*
X187050000Y-99950000D03*
%TD*%
D28*
%TO.C,C4*%
X161550000Y-63000000D03*
X163450000Y-63000000D03*
%TD*%
D12*
%TO.C,R15*%
X133000000Y-69825000D03*
X133000000Y-68175000D03*
%TD*%
D19*
%TO.C,D3*%
X188600000Y-89287500D03*
X188600000Y-87712500D03*
%TD*%
D15*
%TO.C,C3*%
X161725000Y-51000000D03*
X163275000Y-51000000D03*
%TD*%
M02*
