M48
; DRILL file KiCad 10.0.6 date 2026-10-03T12:15:04
; FORMAT={-:-/ absolute / metric / decimal}
; #@! TF.CreationDate,2026-10-03T12:15:04+00:00
; #@! TF.GenerationSoftware,Kicad,Pcbnew,10.0.6
; #@! TF.FileFunction,Plated,1,4,PTH
FMAT,2
METRIC
; #@! TA.AperFunction,Plated,PTH,ViaDrill
T1C0.300
; #@! TA.AperFunction,Plated,PTH,ViaDrill
T2C0.400
; #@! TA.AperFunction,Plated,PTH,ComponentDrill
T3C0.700
; #@! TA.AperFunction,Plated,PTH,ComponentDrill
T4C0.750
; #@! TA.AperFunction,Plated,PTH,ComponentDrill
T5C0.800
; #@! TA.AperFunction,Plated,PTH,ComponentDrill
T6C0.950
; #@! TA.AperFunction,Plated,PTH,ComponentDrill
T7C1.000
; #@! TA.AperFunction,Plated,PTH,ComponentDrill
T8C1.020
; #@! TA.AperFunction,Plated,PTH,ComponentDrill
T9C1.200
; #@! TA.AperFunction,Plated,PTH,ComponentDrill
T10C1.300
; #@! TA.AperFunction,Plated,PTH,ComponentDrill
T11C1.600
; #@! TA.AperFunction,Plated,PTH,ComponentDrill
T12C1.900
; #@! TA.AperFunction,Plated,PTH,ComponentDrill
T13C2.180
; #@! TA.AperFunction,Plated,PTH,ComponentDrill
T14C2.200
; #@! TA.AperFunction,Plated,PTH,ComponentDrill
T15C4.500
%
G90
G05
T1
X106.679Y-182.653
X111.4Y-90.275
X116.05Y-101.385
X116.05Y-107.453
X117.584Y-169.891
X117.589Y-168.036
X118.3Y-148.275
X118.3Y-157.725
X118.3Y-161.18
X119.004Y-164.971
X119.128Y-169.851
X122.775Y-119.45
X122.775Y-121.85
X126.0Y-37.0
X127.0Y-70.679
X128.281Y-69.106
X129.719Y-68.894
X129.775Y-55.635
X129.775Y-56.905
X129.775Y-58.175
X129.775Y-59.445
X130.0Y-37.0
X131.0Y-67.302
X131.0Y-70.68
X132.281Y-69.106
X133.947Y-68.175
X135.825Y-273.021
X136.775Y-276.0
X138.775Y-80.05
X139.178Y-71.061
X139.213Y-79.0
X139.796Y-61.779
X140.65Y-49.795
X141.215Y-82.309
X141.775Y-74.5
X141.991Y-52.555
X142.225Y-54.365
X142.225Y-55.635
X142.225Y-56.905
X142.225Y-58.175
X142.225Y-59.445
X143.775Y-61.0
X144.112Y-50.702
X145.952Y-136.27
X146.275Y-73.95
X147.162Y-76.725
X147.775Y-106.95
X147.92Y-135.994
X148.0Y-50.699
X148.203Y-95.404
X148.248Y-73.0
X148.503Y-90.626
X149.175Y-110.929
X150.275Y-69.4
X150.479Y-151.323
X150.938Y-106.77
X151.73Y-150.755
X151.775Y-102.0
X151.775Y-80.05
X153.0Y-75.702
X153.08Y-55.435
X153.85Y-52.775
X153.85Y-53.425
X153.85Y-54.075
X153.85Y-54.725
X153.85Y-55.375
X153.85Y-61.225
X154.245Y-150.47
X155.0Y-77.775
X155.942Y-75.212
X155.943Y-78.881
X156.329Y-56.651
X156.968Y-251.208
X157.463Y-51.076
X157.775Y-27.0
X157.938Y-150.905
X159.652Y-54.075
X160.79Y-65.889
X161.55Y-64.186
X162.055Y-53.839
X162.15Y-54.725
X162.15Y-55.375
X162.15Y-56.025
X162.827Y-250.685
X163.45Y-61.725
X164.275Y-51.0
X165.775Y-190.0
X166.975Y-57.168
X168.925Y-195.335
X169.7Y-190.95
X169.7Y-192.05
X170.4Y-189.9
X170.4Y-193.1
X170.929Y-194.345
X171.45Y-189.2
X172.55Y-189.2
X172.55Y-193.8
X173.453Y-180.177
X173.6Y-189.9
X173.6Y-193.1
X174.3Y-190.95
X174.3Y-192.05
X174.321Y-185.685
X174.804Y-130.926
X176.0Y-67.186
X176.359Y-189.319
X176.375Y-187.6
X177.745Y-133.898
X177.775Y-66.45
X178.423Y-136.188
X180.069Y-56.971
X181.0Y-185.225
X181.775Y-69.0
X181.775Y-53.0
X182.585Y-59.177
X183.11Y-56.654
X183.441Y-71.775
X184.591Y-189.37
X185.916Y-188.565
X187.05Y-102.463
X187.05Y-107.468
X188.6Y-90.275
X189.289Y-66.198
X197.229Y-188.806
X205.5Y-186.05
T2
X140.825Y-70.805
X164.6Y-252.4
X164.6Y-255.4
X180.2Y-192.4
X180.2Y-195.4
X180.2Y-198.4
X180.2Y-207.4
X180.2Y-228.4
X180.2Y-237.4
X183.2Y-195.4
X183.2Y-198.4
X183.2Y-201.4
X183.2Y-204.4
X183.2Y-207.4
X183.2Y-210.4
X183.2Y-213.4
X183.2Y-216.4
X183.2Y-219.4
X183.2Y-222.4
X183.2Y-225.4
X183.2Y-228.4
X183.2Y-231.4
X183.2Y-234.4
X183.2Y-237.4
X183.2Y-240.4
X183.2Y-243.4
X183.2Y-246.4
X183.2Y-249.4
X183.2Y-252.4
X183.2Y-255.4
X184.0Y-96.8
X184.0Y-98.4
X185.6Y-96.8
X185.6Y-98.4
X186.2Y-192.4
X186.2Y-195.4
X189.2Y-192.4
X189.4Y-259.4
X189.4Y-261.0
X191.4Y-259.4
X191.4Y-261.0
X192.0Y-200.0
X192.0Y-203.0
X192.0Y-206.0
X192.0Y-209.0
X192.0Y-212.0
X192.0Y-215.0
X192.0Y-218.0
X192.0Y-221.0
X192.0Y-224.0
X192.0Y-227.0
X195.0Y-224.0
X195.0Y-227.0
X196.7Y-242.8
X196.7Y-245.8
X196.7Y-251.8
X198.6Y-193.7
X199.7Y-242.8
X201.6Y-190.7
X201.6Y-193.7
X202.7Y-242.8
X202.7Y-245.8
X204.6Y-202.7
T3
X110.0Y-97.5
X118.3Y-155.5
X142.0Y-64.0
X149.0Y-187.0
X158.0Y-84.0
X165.0Y-185.0
X183.5Y-193.5
X185.5Y-94.0
T4
X95.0Y-264.5
X97.0Y-264.5
X98.0Y-128.0
X99.0Y-264.5
X100.0Y-128.0
X101.0Y-264.5
X103.0Y-264.5
X116.0Y-62.5
X117.0Y-55.0
X118.0Y-62.5
X119.0Y-55.0
X120.0Y-62.5
X121.0Y-55.0
X123.0Y-55.0
X128.0Y-21.0
X130.0Y-21.0
X132.0Y-21.0
X134.0Y-21.0
X136.0Y-21.0
X164.0Y-21.0
X166.0Y-21.0
X168.0Y-21.0
X170.0Y-21.0
X172.0Y-21.0
X173.5Y-279.5
X175.5Y-279.5
X177.5Y-279.5
X179.5Y-279.5
X181.5Y-279.5
X190.0Y-52.0
X192.0Y-52.0
T5
X164.0Y-42.0
X167.5Y-42.0
T6
X122.25Y-279.5
X124.75Y-279.5
X127.25Y-279.5
X129.75Y-279.5
X158.5Y-279.5
X161.0Y-279.5
X163.5Y-279.5
X166.0Y-279.5
X187.5Y-60.0
X190.0Y-60.0
X192.5Y-60.0
X195.0Y-60.0
X197.5Y-60.0
T7
X100.0Y-178.96
X100.0Y-181.5
X102.54Y-178.96
X102.54Y-181.5
X105.08Y-178.96
X105.08Y-181.5
X107.62Y-178.96
X107.62Y-181.5
X110.16Y-178.96
X110.16Y-181.5
X114.0Y-181.5
X116.54Y-181.5
X117.5Y-70.0
X117.5Y-81.0
X128.87Y-118.73
X128.87Y-121.27
X131.41Y-118.73
X131.41Y-121.27
X133.95Y-118.73
X133.95Y-121.27
X136.49Y-118.73
X136.49Y-121.27
X139.03Y-118.73
X139.03Y-121.27
X141.0Y-279.5
X141.57Y-118.73
X141.57Y-121.27
X143.5Y-279.5
X144.0Y-38.0
X144.0Y-40.54
X144.0Y-43.08
X144.11Y-118.73
X144.11Y-121.27
X146.65Y-118.73
X146.65Y-121.27
X148.0Y-38.0
X148.0Y-40.54
X148.0Y-43.08
X148.75Y-21.0
X149.19Y-118.73
X149.19Y-121.27
X151.25Y-21.0
X151.73Y-118.73
X151.73Y-121.27
X152.0Y-38.0
X152.0Y-40.54
X152.0Y-43.08
X154.27Y-118.73
X154.27Y-121.27
X155.0Y-208.0
X156.0Y-38.0
X156.0Y-40.54
X156.0Y-43.08
X156.81Y-118.73
X156.81Y-121.27
X157.5Y-208.0
X159.35Y-118.73
X159.35Y-121.27
X161.89Y-118.73
X161.89Y-121.27
X164.43Y-118.73
X164.43Y-121.27
X166.97Y-118.73
X166.97Y-121.27
X169.51Y-118.73
X169.51Y-121.27
X172.05Y-118.73
X172.05Y-121.27
X174.59Y-118.73
X174.59Y-121.27
X177.13Y-118.73
X177.13Y-121.27
T8
X97.12Y-153.94
X97.12Y-156.48
X97.12Y-159.02
X97.12Y-161.56
X102.18Y-138.74
X102.18Y-169.26
X104.72Y-138.74
X104.72Y-169.26
X107.26Y-138.74
X107.26Y-169.26
X109.8Y-138.74
X109.8Y-169.26
X126.65Y-108.39
X126.65Y-110.93
X129.19Y-108.39
X129.19Y-110.93
X131.73Y-108.39
X131.73Y-110.93
X134.27Y-108.39
X134.27Y-110.93
X136.81Y-108.39
X136.81Y-110.93
X139.35Y-108.39
X139.35Y-110.93
X160.65Y-108.39
X160.65Y-110.93
X163.19Y-108.39
X163.19Y-110.93
X165.73Y-108.39
X165.73Y-110.93
X168.27Y-108.39
X168.27Y-110.93
X170.81Y-108.39
X170.81Y-110.93
X173.35Y-108.39
X173.35Y-110.93
X189.02Y-200.18
X189.02Y-202.72
X189.02Y-205.26
X189.02Y-207.8
X189.02Y-210.34
X189.02Y-212.88
X189.02Y-215.42
X189.02Y-217.96
X206.78Y-200.18
X206.78Y-202.72
X206.78Y-205.26
X206.78Y-207.8
X206.78Y-210.34
X206.78Y-212.88
X206.78Y-215.42
X206.78Y-217.96
T9
X147.5Y-269.0
X152.5Y-269.0
T10
X154.0Y-198.0
X159.08Y-198.0
T11
X167.25Y-201.3
X167.25Y-204.7
X167.25Y-211.3
X167.25Y-214.7
X167.25Y-221.3
X167.25Y-224.7
X167.25Y-231.3
X167.25Y-234.7
X167.25Y-241.3
X167.25Y-244.7
X167.25Y-251.3
X167.25Y-254.7
X180.75Y-201.3
X180.75Y-204.7
X180.75Y-211.3
X180.75Y-214.7
X180.75Y-221.3
X180.75Y-224.7
X180.75Y-231.3
X180.75Y-234.7
X180.75Y-241.3
X180.75Y-244.7
X180.75Y-251.3
X180.75Y-254.7
X198.3Y-225.25
X198.3Y-238.75
X201.7Y-225.25
X201.7Y-238.75
T12
X121.4Y-37.0
X122.5Y-73.0
X122.5Y-78.0
X134.6Y-37.0
T13
X103.45Y-136.2
X103.45Y-171.8
X108.52Y-136.2
X108.52Y-171.8
X190.41Y-197.39
X195.41Y-197.39
X200.41Y-197.39
X205.41Y-197.39
T14
X115.8Y-264.0
X124.2Y-264.0
T15
X200.0Y-249.3
X200.0Y-256.5
M30
