%TF.GenerationSoftware,KiCad,Pcbnew,10.0.6*%
%TF.CreationDate,2026-10-03T12:15:04+00:00*%
%TF.ProjectId,rabbit-body,72616262-6974-42d6-926f-64792e6b6963,rev?*%
%TF.SameCoordinates,Original*%
%TF.FileFunction,Profile,NP*%
%FSLAX46Y46*%
G04 Gerber Fmt 4.6, Leading zero omitted, Abs format (unit mm)*
G04 Created by KiCad (PCBNEW 10.0.6) date 2026-10-03 12:15:04*
%MOMM*%
%LPD*%
G01*
G04 APERTURE LIST*
%TA.AperFunction,Profile*%
%ADD10C,0.100000*%
%TD*%
G04 APERTURE END LIST*
D10*
X89740299Y-65049499D02*
G75*
G02*
X91317781Y-61404379I5000401J-101D01*
G01*
X91063000Y-268115400D02*
G75*
G02*
X90635379Y-266536700I2627600J1559000D01*
G01*
X91063000Y-268115400D02*
X100306000Y-283512900D01*
X91317800Y-68694600D02*
G75*
G02*
X89740274Y-65049499I3422500J3645100D01*
G01*
X91317800Y-68694600D02*
X107140600Y-83550900D01*
X92221499Y-129361200D02*
X90635400Y-266536700D01*
X92221499Y-129361200D02*
G75*
G02*
X92646284Y-127856590I3050301J-48900D01*
G01*
X97752600Y-55362600D02*
X91317800Y-61404399D01*
X98283200Y-54699600D02*
G75*
G02*
X97752606Y-55362607I-2592100J1530600D01*
G01*
X102878100Y-284968899D02*
G75*
G02*
X100306010Y-283512894I-200J2999499D01*
G01*
X102878100Y-284968899D02*
X197121899Y-284968899D01*
X107140600Y-83550900D02*
G75*
G02*
X107771629Y-85008900I-1448100J-1492300D01*
G01*
X107346600Y-103265200D02*
X92646300Y-127856600D01*
X107771600Y-85008900D02*
X107771600Y-101725900D01*
X107771600Y-101725900D02*
G75*
G02*
X107346573Y-103265184I-3053100J14700D01*
G01*
X120810100Y-16507000D02*
X98283200Y-54699600D01*
X120810100Y-16507000D02*
G75*
G02*
X123394100Y-15031111I2584000J-1524100D01*
G01*
X173200000Y-71400000D02*
X173200000Y-85200000D01*
X173200000Y-85200000D02*
X181000000Y-85200000D01*
X176605900Y-15031100D02*
X123394100Y-15031100D01*
X176605900Y-15031100D02*
G75*
G02*
X179189920Y-16506988I-100J-3000200D01*
G01*
X181000000Y-71400000D02*
X173200000Y-71400000D01*
X181000000Y-85200000D02*
X181000000Y-71400000D01*
X192228400Y-85008900D02*
G75*
G02*
X192859420Y-83550921I2079100J-34300D01*
G01*
X192228400Y-101725900D02*
X192228400Y-85008900D01*
X192653400Y-103265200D02*
G75*
G02*
X192228419Y-101725900I2628100J1553900D01*
G01*
X192859400Y-83550900D02*
X208682200Y-68694600D01*
X199694000Y-283512900D02*
G75*
G02*
X197121899Y-284968899I-2572000J1543700D01*
G01*
X199694000Y-283512900D02*
X208937000Y-268115400D01*
X201716800Y-54699600D02*
X179189900Y-16507000D01*
X202247400Y-55362600D02*
G75*
G02*
X201716808Y-54699595I2061500J2193600D01*
G01*
X207353700Y-127856600D02*
X192653400Y-103265200D01*
X207353700Y-127856600D02*
G75*
G02*
X207778483Y-129361200I-2626200J-1553700D01*
G01*
X208682200Y-61404399D02*
X202247400Y-55362600D01*
X208682200Y-61404399D02*
G75*
G02*
X210259673Y-65049499I-3422900J-3645201D01*
G01*
X209364600Y-266536700D02*
X207778500Y-129361200D01*
X209364600Y-266536700D02*
G75*
G02*
X208937006Y-268115404I-3055400J-19700D01*
G01*
X210259700Y-65049499D02*
G75*
G02*
X208682219Y-68694620I-5000400J99D01*
G01*
M02*
