%TF.GenerationSoftware,KiCad,Pcbnew,10.0.6*%
%TF.CreationDate,2026-10-03T12:46:08+00:00*%
%TF.ProjectId,rabbit-body,72616262-6974-42d6-926f-64792e6b6963,rev?*%
%TF.SameCoordinates,Original*%
%TF.FileFunction,Soldermask,Bot*%
%TF.FilePolarity,Negative*%
%FSLAX46Y46*%
G04 Gerber Fmt 4.6, Leading zero omitted, Abs format (unit mm)*
G04 Created by KiCad (PCBNEW 10.0.6) date 2026-10-03 12:46:08*
%MOMM*%
%LPD*%
G01*
G04 APERTURE LIST*
G04 Aperture macros list*
%AMRoundRect*
0 Rectangle with rounded corners*
0 $1 Rounding radius*
0 $2 $3 $4 $5 $6 $7 $8 $9 X,Y pos of 4 corners*
0 Add a 4 corners polygon primitive as box body*
4,1,4,$2,$3,$4,$5,$6,$7,$8,$9,$2,$3,0*
0 Add four circle primitives for the rounded corners*
1,1,$1+$1,$2,$3*
1,1,$1+$1,$4,$5*
1,1,$1+$1,$6,$7*
1,1,$1+$1,$8,$9*
0 Add four rect primitives between the rounded corners*
20,1,$1+$1,$2,$3,$4,$5,0*
20,1,$1+$1,$4,$5,$6,$7,0*
20,1,$1+$1,$6,$7,$8,$9,0*
20,1,$1+$1,$8,$9,$2,$3,0*%
G04 Aperture macros list end*
%ADD10C,1.500000*%
%ADD11RoundRect,1.500000X-1.500000X1.500000X-1.500000X-1.500000X1.500000X-1.500000X1.500000X1.500000X0*%
%ADD12C,6.000000*%
%ADD13RoundRect,0.250000X-1.050000X-1.050000X1.050000X-1.050000X1.050000X1.050000X-1.050000X1.050000X0*%
%ADD14C,2.600000*%
%ADD15RoundRect,0.250000X-0.350000X-0.625000X0.350000X-0.625000X0.350000X0.625000X-0.350000X0.625000X0*%
%ADD16O,1.200000X1.750000*%
%ADD17C,3.200000*%
%ADD18R,1.700000X1.700000*%
%ADD19C,1.700000*%
%ADD20C,3.600000*%
%ADD21C,2.180000*%
%ADD22C,4.300000*%
%ADD23RoundRect,0.250000X-0.600000X-0.750000X0.600000X-0.750000X0.600000X0.750000X-0.600000X0.750000X0*%
%ADD24O,1.700000X2.000000*%
%ADD25C,1.400000*%
%ADD26RoundRect,0.770000X0.980000X-0.980000X0.980000X0.980000X-0.980000X0.980000X-0.980000X-0.980000X0*%
%ADD27C,3.500000*%
%ADD28RoundRect,0.250000X-0.600000X-0.725000X0.600000X-0.725000X0.600000X0.725000X-0.600000X0.725000X0*%
%ADD29O,1.700000X1.950000*%
%ADD30C,2.800000*%
%ADD31RoundRect,0.250001X-0.949999X-0.949999X0.949999X-0.949999X0.949999X0.949999X-0.949999X0.949999X0*%
%ADD32C,2.400000*%
%ADD33C,2.200000*%
%ADD34C,2.700000*%
%ADD35C,3.000000*%
%ADD36RoundRect,0.250000X0.600000X-0.600000X0.600000X0.600000X-0.600000X0.600000X-0.600000X-0.600000X0*%
%ADD37C,4.600000*%
%ADD38RoundRect,0.250000X-0.550000X-0.550000X0.550000X-0.550000X0.550000X0.550000X-0.550000X0.550000X0*%
%ADD39C,1.600000*%
G04 APERTURE END LIST*
D10*
%TO.C,TP8*%
X165000000Y-185000000D03*
%TD*%
D11*
%TO.C,J1*%
X200000000Y-249300000D03*
D12*
X200000000Y-256500000D03*
%TD*%
D13*
%TO.C,J20*%
X154000000Y-198000000D03*
D14*
X159080000Y-198000000D03*
%TD*%
D10*
%TO.C,TP7*%
X142000000Y-64000000D03*
%TD*%
D15*
%TO.C,J11*%
X173500000Y-279500000D03*
D16*
X175500000Y-279500000D03*
X177500000Y-279500000D03*
X179500000Y-279500000D03*
X181500000Y-279500000D03*
%TD*%
D17*
%TO.C,H5*%
X94740300Y-65049500D03*
%TD*%
D18*
%TO.C,J24*%
X152000000Y-38000000D03*
D19*
X152000000Y-40540000D03*
X152000000Y-43080000D03*
%TD*%
%TO.C,U2*%
X206780000Y-212880000D03*
X206780000Y-210340000D03*
X189020000Y-215420000D03*
X189020000Y-205260000D03*
X189020000Y-207800000D03*
X189020000Y-217960000D03*
D20*
X195410000Y-197390000D03*
X200410000Y-197390000D03*
D19*
X206780000Y-205260000D03*
X206780000Y-207800000D03*
X206780000Y-215420000D03*
X206780000Y-217960000D03*
X189020000Y-212880000D03*
X189020000Y-210340000D03*
X189020000Y-200180000D03*
X189020000Y-202720000D03*
D20*
X190410000Y-197390000D03*
X205410000Y-197390000D03*
D19*
X206780000Y-200180000D03*
X206780000Y-202720000D03*
%TD*%
D18*
%TO.C,J22*%
X144000000Y-38000000D03*
D19*
X144000000Y-40540000D03*
X144000000Y-43080000D03*
%TD*%
D21*
%TO.C,U4*%
X98350000Y-136200000D03*
X98350000Y-171800000D03*
X113650000Y-136200000D03*
X113650000Y-171800000D03*
D19*
X97120000Y-161560000D03*
X97120000Y-156480000D03*
X102180000Y-138740000D03*
X102180000Y-169260000D03*
D20*
X103450000Y-136200000D03*
X103450000Y-171800000D03*
D19*
X104720000Y-138740000D03*
X104720000Y-169260000D03*
X97120000Y-159020000D03*
X107260000Y-169260000D03*
D20*
X108520000Y-171800000D03*
D19*
X109800000Y-169260000D03*
X107260000Y-138740000D03*
D20*
X108520000Y-136200000D03*
D19*
X109800000Y-138740000D03*
X97120000Y-153940000D03*
%TD*%
D22*
%TO.C,H1*%
X111908400Y-271887300D03*
%TD*%
D23*
%TO.C,J14*%
X141000000Y-279500000D03*
D24*
X143500000Y-279500000D03*
%TD*%
D23*
%TO.C,J13*%
X148750000Y-21000000D03*
D24*
X151250000Y-21000000D03*
%TD*%
D25*
%TO.C,J21*%
X117500000Y-81000000D03*
X117500000Y-70000000D03*
D26*
X122500000Y-78000000D03*
D27*
X122500000Y-73000000D03*
%TD*%
D18*
%TO.C,J5*%
X114000000Y-181500000D03*
D19*
X116540000Y-181500000D03*
%TD*%
D15*
%TO.C,J17*%
X116000000Y-62500000D03*
D16*
X118000000Y-62500000D03*
X120000000Y-62500000D03*
%TD*%
D18*
%TO.C,J4*%
X100000000Y-181500000D03*
D19*
X100000000Y-178960000D03*
X102540000Y-181500000D03*
X102540000Y-178960000D03*
X105080000Y-181500000D03*
X105080000Y-178960000D03*
X107620000Y-181500000D03*
X107620000Y-178960000D03*
X110160000Y-181500000D03*
X110160000Y-178960000D03*
%TD*%
D28*
%TO.C,J7*%
X158500000Y-279500000D03*
D29*
X161000000Y-279500000D03*
X163500000Y-279500000D03*
X166000000Y-279500000D03*
%TD*%
D18*
%TO.C,J23*%
X148000000Y-38000000D03*
D19*
X148000000Y-40540000D03*
X148000000Y-43080000D03*
%TD*%
D18*
%TO.C,J25*%
X156000000Y-38000000D03*
D19*
X156000000Y-40540000D03*
X156000000Y-43080000D03*
%TD*%
D15*
%TO.C,J8*%
X128000000Y-21000000D03*
D16*
X130000000Y-21000000D03*
X132000000Y-21000000D03*
X134000000Y-21000000D03*
X136000000Y-21000000D03*
%TD*%
D22*
%TO.C,H4*%
X188091600Y-42364000D03*
%TD*%
D30*
%TO.C,F6*%
X180750000Y-214700000D03*
X180750000Y-211300000D03*
X167250000Y-214700000D03*
X167250000Y-211300000D03*
%TD*%
D31*
%TO.C,C1*%
X147500000Y-269000000D03*
D32*
X152500000Y-269000000D03*
%TD*%
D33*
%TO.C,U5*%
X122450000Y-110050000D03*
X143550000Y-88950000D03*
X143550000Y-110050000D03*
D19*
X139350000Y-110930000D03*
X129190000Y-108390000D03*
X129190000Y-110930000D03*
X131730000Y-108390000D03*
X131730000Y-110930000D03*
X139350000Y-108390000D03*
X134270000Y-108390000D03*
X134270000Y-110930000D03*
X126650000Y-108390000D03*
D18*
X126650000Y-110930000D03*
D19*
X136810000Y-108390000D03*
X136810000Y-110930000D03*
%TD*%
D30*
%TO.C,F2*%
X180750000Y-254700000D03*
X180750000Y-251300000D03*
X167250000Y-254700000D03*
X167250000Y-251300000D03*
%TD*%
D15*
%TO.C,J9*%
X164000000Y-21000000D03*
D16*
X166000000Y-21000000D03*
X168000000Y-21000000D03*
X170000000Y-21000000D03*
X172000000Y-21000000D03*
%TD*%
D10*
%TO.C,TP5*%
X158000000Y-84000000D03*
%TD*%
%TO.C,TP2*%
X118300000Y-155500000D03*
%TD*%
%TO.C,TP1*%
X183500000Y-193500000D03*
%TD*%
%TO.C,TP3*%
X185500000Y-94000000D03*
%TD*%
D28*
%TO.C,J15*%
X187500000Y-60000000D03*
D29*
X190000000Y-60000000D03*
X192500000Y-60000000D03*
X195000000Y-60000000D03*
X197500000Y-60000000D03*
%TD*%
D34*
%TO.C,MOD1*%
X124000000Y-129500000D03*
X124000000Y-178500000D03*
X182000000Y-129500000D03*
X182000000Y-178500000D03*
%TD*%
D28*
%TO.C,J6*%
X122250000Y-279500000D03*
D29*
X124750000Y-279500000D03*
X127250000Y-279500000D03*
X129750000Y-279500000D03*
%TD*%
D22*
%TO.C,H3*%
X111908400Y-42364000D03*
%TD*%
D33*
%TO.C,U6*%
X156450000Y-110050000D03*
X177550000Y-88950000D03*
X177550000Y-110050000D03*
D19*
X173350000Y-110930000D03*
X163190000Y-108390000D03*
X163190000Y-110930000D03*
X165730000Y-108390000D03*
X165730000Y-110930000D03*
X173350000Y-108390000D03*
X168270000Y-108390000D03*
X168270000Y-110930000D03*
X160650000Y-108390000D03*
D18*
X160650000Y-110930000D03*
D19*
X170810000Y-108390000D03*
X170810000Y-110930000D03*
%TD*%
D15*
%TO.C,J12*%
X117000000Y-55000000D03*
D16*
X119000000Y-55000000D03*
X121000000Y-55000000D03*
X123000000Y-55000000D03*
%TD*%
D15*
%TO.C,J18*%
X98000000Y-128000000D03*
D16*
X100000000Y-128000000D03*
%TD*%
D15*
%TO.C,J16*%
X190000000Y-52000000D03*
D16*
X192000000Y-52000000D03*
%TD*%
D30*
%TO.C,F7*%
X180750000Y-204700000D03*
X180750000Y-201300000D03*
X167250000Y-204700000D03*
X167250000Y-201300000D03*
%TD*%
D35*
%TO.C,BT1*%
X121400000Y-37000000D03*
X134600000Y-37000000D03*
%TD*%
D17*
%TO.C,U1*%
X142960000Y-255340000D03*
X142960000Y-188660000D03*
X97240000Y-255340000D03*
X97240000Y-188660000D03*
%TD*%
D15*
%TO.C,J10*%
X95000000Y-264500000D03*
D16*
X97000000Y-264500000D03*
X99000000Y-264500000D03*
X101000000Y-264500000D03*
X103000000Y-264500000D03*
%TD*%
D36*
%TO.C,J3*%
X128870000Y-121270000D03*
D19*
X128870000Y-118730000D03*
X131410000Y-121270000D03*
X131410000Y-118730000D03*
X133950000Y-121270000D03*
X133950000Y-118730000D03*
X136490000Y-121270000D03*
X136490000Y-118730000D03*
X139030000Y-121270000D03*
X139030000Y-118730000D03*
X141570000Y-121270000D03*
X141570000Y-118730000D03*
X144110000Y-121270000D03*
X144110000Y-118730000D03*
X146650000Y-121270000D03*
X146650000Y-118730000D03*
X149190000Y-121270000D03*
X149190000Y-118730000D03*
X151730000Y-121270000D03*
X151730000Y-118730000D03*
X154270000Y-121270000D03*
X154270000Y-118730000D03*
X156810000Y-121270000D03*
X156810000Y-118730000D03*
X159350000Y-121270000D03*
X159350000Y-118730000D03*
X161890000Y-121270000D03*
X161890000Y-118730000D03*
X164430000Y-121270000D03*
X164430000Y-118730000D03*
X166970000Y-121270000D03*
X166970000Y-118730000D03*
X169510000Y-121270000D03*
X169510000Y-118730000D03*
X172050000Y-121270000D03*
X172050000Y-118730000D03*
X174590000Y-121270000D03*
X174590000Y-118730000D03*
X177130000Y-121270000D03*
X177130000Y-118730000D03*
%TD*%
D22*
%TO.C,H2*%
X188091600Y-271887300D03*
%TD*%
D37*
%TO.C,J2*%
X115800000Y-264000000D03*
X124200000Y-264000000D03*
%TD*%
D30*
%TO.C,F4*%
X180750000Y-234700000D03*
X180750000Y-231300000D03*
X167250000Y-234700000D03*
X167250000Y-231300000D03*
%TD*%
%TO.C,F3*%
X180750000Y-244700000D03*
X180750000Y-241300000D03*
X167250000Y-244700000D03*
X167250000Y-241300000D03*
%TD*%
D38*
%TO.C,C14*%
X164000000Y-42000000D03*
D39*
X167500000Y-42000000D03*
%TD*%
D23*
%TO.C,J19*%
X155000000Y-208000000D03*
D24*
X157500000Y-208000000D03*
%TD*%
D10*
%TO.C,TP4*%
X110000000Y-97500000D03*
%TD*%
D30*
%TO.C,F5*%
X180750000Y-224700000D03*
X180750000Y-221300000D03*
X167250000Y-224700000D03*
X167250000Y-221300000D03*
%TD*%
D10*
%TO.C,TP6*%
X149000000Y-187000000D03*
%TD*%
D17*
%TO.C,H6*%
X205259700Y-65049500D03*
%TD*%
D30*
%TO.C,F1*%
X198300000Y-238750000D03*
X201700000Y-238750000D03*
X198300000Y-225250000D03*
X201700000Y-225250000D03*
%TD*%
M02*
