%TF.GenerationSoftware,KiCad,Pcbnew,10.0.6*%
%TF.CreationDate,2026-10-03T12:46:08+00:00*%
%TF.ProjectId,rabbit-body,72616262-6974-42d6-926f-64792e6b6963,rev?*%
%TF.SameCoordinates,Original*%
%TF.FileFunction,Legend,Bot*%
%TF.FilePolarity,Positive*%
%FSLAX46Y46*%
G04 Gerber Fmt 4.6, Leading zero omitted, Abs format (unit mm)*
G04 Created by KiCad (PCBNEW 10.0.6) date 2026-10-03 12:46:08*
%MOMM*%
%LPD*%
G01*
G04 APERTURE LIST*
G04 Aperture macros list*
%AMRoundRect*
0 Rectangle with rounded corners*
0 $1 Rounding radius*
0 $2 $3 $4 $5 $6 $7 $8 $9 X,Y pos of 4 corners*
0 Add a 4 corners polygon primitive as box body*
4,1,4,$2,$3,$4,$5,$6,$7,$8,$9,$2,$3,0*
0 Add four circle primitives for the rounded corners*
1,1,$1+$1,$2,$3*
1,1,$1+$1,$4,$5*
1,1,$1+$1,$6,$7*
1,1,$1+$1,$8,$9*
0 Add four rect primitives between the rounded corners*
20,1,$1+$1,$2,$3,$4,$5,0*
20,1,$1+$1,$4,$5,$6,$7,0*
20,1,$1+$1,$6,$7,$8,$9,0*
20,1,$1+$1,$8,$9,$2,$3,0*%
G04 Aperture macros list end*
%ADD10C,0.150000*%
%ADD11C,0.240000*%
%ADD12C,1.500000*%
%ADD13RoundRect,1.500000X-1.500000X1.500000X-1.500000X-1.500000X1.500000X-1.500000X1.500000X1.500000X0*%
%ADD14C,6.000000*%
%ADD15RoundRect,0.250000X-1.050000X-1.050000X1.050000X-1.050000X1.050000X1.050000X-1.050000X1.050000X0*%
%ADD16C,2.600000*%
%ADD17RoundRect,0.250000X-0.350000X-0.625000X0.350000X-0.625000X0.350000X0.625000X-0.350000X0.625000X0*%
%ADD18O,1.200000X1.750000*%
%ADD19C,3.200000*%
%ADD20R,1.700000X1.700000*%
%ADD21C,1.700000*%
%ADD22C,3.600000*%
%ADD23C,2.180000*%
%ADD24C,4.300000*%
%ADD25RoundRect,0.250000X-0.600000X-0.750000X0.600000X-0.750000X0.600000X0.750000X-0.600000X0.750000X0*%
%ADD26O,1.700000X2.000000*%
%ADD27C,1.400000*%
%ADD28RoundRect,0.770000X0.980000X-0.980000X0.980000X0.980000X-0.980000X0.980000X-0.980000X-0.980000X0*%
%ADD29C,3.500000*%
%ADD30RoundRect,0.250000X-0.600000X-0.725000X0.600000X-0.725000X0.600000X0.725000X-0.600000X0.725000X0*%
%ADD31O,1.700000X1.950000*%
%ADD32C,2.800000*%
%ADD33RoundRect,0.250001X-0.949999X-0.949999X0.949999X-0.949999X0.949999X0.949999X-0.949999X0.949999X0*%
%ADD34C,2.400000*%
%ADD35C,2.200000*%
%ADD36C,2.700000*%
%ADD37C,3.000000*%
%ADD38RoundRect,0.250000X0.600000X-0.600000X0.600000X0.600000X-0.600000X0.600000X-0.600000X-0.600000X0*%
%ADD39C,4.600000*%
%ADD40RoundRect,0.250000X-0.550000X-0.550000X0.550000X-0.550000X0.550000X0.550000X-0.550000X0.550000X0*%
%ADD41C,1.600000*%
G04 APERTURE END LIST*
D10*
X140166669Y-213788152D02*
X140166669Y-214454819D01*
X140404764Y-213407200D02*
X140642859Y-214121485D01*
X140642859Y-214121485D02*
X140023812Y-214121485D01*
X139166669Y-214454819D02*
X139642859Y-214454819D01*
X139642859Y-214454819D02*
X139642859Y-213454819D01*
X137547621Y-214454819D02*
X138119049Y-214454819D01*
X137833335Y-214454819D02*
X137833335Y-213454819D01*
X137833335Y-213454819D02*
X137928573Y-213597676D01*
X137928573Y-213597676D02*
X138023811Y-213692914D01*
X138023811Y-213692914D02*
X138119049Y-213740533D01*
X137119049Y-214359580D02*
X137071430Y-214407200D01*
X137071430Y-214407200D02*
X137119049Y-214454819D01*
X137119049Y-214454819D02*
X137166668Y-214407200D01*
X137166668Y-214407200D02*
X137119049Y-214359580D01*
X137119049Y-214359580D02*
X137119049Y-214454819D01*
X136214288Y-213454819D02*
X136404764Y-213454819D01*
X136404764Y-213454819D02*
X136500002Y-213502438D01*
X136500002Y-213502438D02*
X136547621Y-213550057D01*
X136547621Y-213550057D02*
X136642859Y-213692914D01*
X136642859Y-213692914D02*
X136690478Y-213883390D01*
X136690478Y-213883390D02*
X136690478Y-214264342D01*
X136690478Y-214264342D02*
X136642859Y-214359580D01*
X136642859Y-214359580D02*
X136595240Y-214407200D01*
X136595240Y-214407200D02*
X136500002Y-214454819D01*
X136500002Y-214454819D02*
X136309526Y-214454819D01*
X136309526Y-214454819D02*
X136214288Y-214407200D01*
X136214288Y-214407200D02*
X136166669Y-214359580D01*
X136166669Y-214359580D02*
X136119050Y-214264342D01*
X136119050Y-214264342D02*
X136119050Y-214026247D01*
X136119050Y-214026247D02*
X136166669Y-213931009D01*
X136166669Y-213931009D02*
X136214288Y-213883390D01*
X136214288Y-213883390D02*
X136309526Y-213835771D01*
X136309526Y-213835771D02*
X136500002Y-213835771D01*
X136500002Y-213835771D02*
X136595240Y-213883390D01*
X136595240Y-213883390D02*
X136642859Y-213931009D01*
X136642859Y-213931009D02*
X136690478Y-214026247D01*
X134928573Y-214454819D02*
X134928573Y-213788152D01*
X134928573Y-213883390D02*
X134880954Y-213835771D01*
X134880954Y-213835771D02*
X134785716Y-213788152D01*
X134785716Y-213788152D02*
X134642859Y-213788152D01*
X134642859Y-213788152D02*
X134547621Y-213835771D01*
X134547621Y-213835771D02*
X134500002Y-213931009D01*
X134500002Y-213931009D02*
X134500002Y-214454819D01*
X134500002Y-213931009D02*
X134452383Y-213835771D01*
X134452383Y-213835771D02*
X134357145Y-213788152D01*
X134357145Y-213788152D02*
X134214288Y-213788152D01*
X134214288Y-213788152D02*
X134119049Y-213835771D01*
X134119049Y-213835771D02*
X134071430Y-213931009D01*
X134071430Y-213931009D02*
X134071430Y-214454819D01*
X133595240Y-214454819D02*
X133595240Y-213788152D01*
X133595240Y-213883390D02*
X133547621Y-213835771D01*
X133547621Y-213835771D02*
X133452383Y-213788152D01*
X133452383Y-213788152D02*
X133309526Y-213788152D01*
X133309526Y-213788152D02*
X133214288Y-213835771D01*
X133214288Y-213835771D02*
X133166669Y-213931009D01*
X133166669Y-213931009D02*
X133166669Y-214454819D01*
X133166669Y-213931009D02*
X133119050Y-213835771D01*
X133119050Y-213835771D02*
X133023812Y-213788152D01*
X133023812Y-213788152D02*
X132880955Y-213788152D01*
X132880955Y-213788152D02*
X132785716Y-213835771D01*
X132785716Y-213835771D02*
X132738097Y-213931009D01*
X132738097Y-213931009D02*
X132738097Y-214454819D01*
X132214288Y-214407200D02*
X132214288Y-214454819D01*
X132214288Y-214454819D02*
X132261907Y-214550057D01*
X132261907Y-214550057D02*
X132309526Y-214597676D01*
X130500003Y-214454819D02*
X131071431Y-214454819D01*
X130785717Y-214454819D02*
X130785717Y-213454819D01*
X130785717Y-213454819D02*
X130880955Y-213597676D01*
X130880955Y-213597676D02*
X130976193Y-213692914D01*
X130976193Y-213692914D02*
X131071431Y-213740533D01*
X129166669Y-214454819D02*
X129261907Y-214407200D01*
X129261907Y-214407200D02*
X129309526Y-214359580D01*
X129309526Y-214359580D02*
X129357145Y-214264342D01*
X129357145Y-214264342D02*
X129357145Y-213978628D01*
X129357145Y-213978628D02*
X129309526Y-213883390D01*
X129309526Y-213883390D02*
X129261907Y-213835771D01*
X129261907Y-213835771D02*
X129166669Y-213788152D01*
X129166669Y-213788152D02*
X129023812Y-213788152D01*
X129023812Y-213788152D02*
X128928574Y-213835771D01*
X128928574Y-213835771D02*
X128880955Y-213883390D01*
X128880955Y-213883390D02*
X128833336Y-213978628D01*
X128833336Y-213978628D02*
X128833336Y-214264342D01*
X128833336Y-214264342D02*
X128880955Y-214359580D01*
X128880955Y-214359580D02*
X128928574Y-214407200D01*
X128928574Y-214407200D02*
X129023812Y-214454819D01*
X129023812Y-214454819D02*
X129166669Y-214454819D01*
X128500002Y-213788152D02*
X127976193Y-213788152D01*
X127976193Y-213788152D02*
X128500002Y-214454819D01*
X128500002Y-214454819D02*
X127976193Y-214454819D01*
X126690478Y-214454819D02*
X126785716Y-214407200D01*
X126785716Y-214407200D02*
X126833335Y-214359580D01*
X126833335Y-214359580D02*
X126880954Y-214264342D01*
X126880954Y-214264342D02*
X126880954Y-213978628D01*
X126880954Y-213978628D02*
X126833335Y-213883390D01*
X126833335Y-213883390D02*
X126785716Y-213835771D01*
X126785716Y-213835771D02*
X126690478Y-213788152D01*
X126690478Y-213788152D02*
X126547621Y-213788152D01*
X126547621Y-213788152D02*
X126452383Y-213835771D01*
X126452383Y-213835771D02*
X126404764Y-213883390D01*
X126404764Y-213883390D02*
X126357145Y-213978628D01*
X126357145Y-213978628D02*
X126357145Y-214264342D01*
X126357145Y-214264342D02*
X126404764Y-214359580D01*
X126404764Y-214359580D02*
X126452383Y-214407200D01*
X126452383Y-214407200D02*
X126547621Y-214454819D01*
X126547621Y-214454819D02*
X126690478Y-214454819D01*
X125500002Y-213788152D02*
X125500002Y-214454819D01*
X125928573Y-213788152D02*
X125928573Y-214311961D01*
X125928573Y-214311961D02*
X125880954Y-214407200D01*
X125880954Y-214407200D02*
X125785716Y-214454819D01*
X125785716Y-214454819D02*
X125642859Y-214454819D01*
X125642859Y-214454819D02*
X125547621Y-214407200D01*
X125547621Y-214407200D02*
X125500002Y-214359580D01*
X125166668Y-213788152D02*
X124785716Y-213788152D01*
X125023811Y-213454819D02*
X125023811Y-214311961D01*
X125023811Y-214311961D02*
X124976192Y-214407200D01*
X124976192Y-214407200D02*
X124880954Y-214454819D01*
X124880954Y-214454819D02*
X124785716Y-214454819D01*
X124071430Y-214407200D02*
X124166668Y-214454819D01*
X124166668Y-214454819D02*
X124357144Y-214454819D01*
X124357144Y-214454819D02*
X124452382Y-214407200D01*
X124452382Y-214407200D02*
X124500001Y-214311961D01*
X124500001Y-214311961D02*
X124500001Y-213931009D01*
X124500001Y-213931009D02*
X124452382Y-213835771D01*
X124452382Y-213835771D02*
X124357144Y-213788152D01*
X124357144Y-213788152D02*
X124166668Y-213788152D01*
X124166668Y-213788152D02*
X124071430Y-213835771D01*
X124071430Y-213835771D02*
X124023811Y-213931009D01*
X124023811Y-213931009D02*
X124023811Y-214026247D01*
X124023811Y-214026247D02*
X124500001Y-214121485D01*
X123595239Y-214454819D02*
X123595239Y-213788152D01*
X123595239Y-213978628D02*
X123547620Y-213883390D01*
X123547620Y-213883390D02*
X123500001Y-213835771D01*
X123500001Y-213835771D02*
X123404763Y-213788152D01*
X123404763Y-213788152D02*
X123309525Y-213788152D01*
X122928572Y-214407200D02*
X122928572Y-214454819D01*
X122928572Y-214454819D02*
X122976191Y-214550057D01*
X122976191Y-214550057D02*
X123023810Y-214597676D01*
X122976191Y-213835771D02*
X122928572Y-213883390D01*
X122928572Y-213883390D02*
X122976191Y-213931009D01*
X122976191Y-213931009D02*
X123023810Y-213883390D01*
X123023810Y-213883390D02*
X122976191Y-213835771D01*
X122976191Y-213835771D02*
X122976191Y-213931009D01*
X121309525Y-214454819D02*
X121309525Y-213454819D01*
X121309525Y-214407200D02*
X121404763Y-214454819D01*
X121404763Y-214454819D02*
X121595239Y-214454819D01*
X121595239Y-214454819D02*
X121690477Y-214407200D01*
X121690477Y-214407200D02*
X121738096Y-214359580D01*
X121738096Y-214359580D02*
X121785715Y-214264342D01*
X121785715Y-214264342D02*
X121785715Y-213978628D01*
X121785715Y-213978628D02*
X121738096Y-213883390D01*
X121738096Y-213883390D02*
X121690477Y-213835771D01*
X121690477Y-213835771D02*
X121595239Y-213788152D01*
X121595239Y-213788152D02*
X121404763Y-213788152D01*
X121404763Y-213788152D02*
X121309525Y-213835771D01*
X120452382Y-214407200D02*
X120547620Y-214454819D01*
X120547620Y-214454819D02*
X120738096Y-214454819D01*
X120738096Y-214454819D02*
X120833334Y-214407200D01*
X120833334Y-214407200D02*
X120880953Y-214311961D01*
X120880953Y-214311961D02*
X120880953Y-213931009D01*
X120880953Y-213931009D02*
X120833334Y-213835771D01*
X120833334Y-213835771D02*
X120738096Y-213788152D01*
X120738096Y-213788152D02*
X120547620Y-213788152D01*
X120547620Y-213788152D02*
X120452382Y-213835771D01*
X120452382Y-213835771D02*
X120404763Y-213931009D01*
X120404763Y-213931009D02*
X120404763Y-214026247D01*
X120404763Y-214026247D02*
X120880953Y-214121485D01*
X119547620Y-214407200D02*
X119642858Y-214454819D01*
X119642858Y-214454819D02*
X119833334Y-214454819D01*
X119833334Y-214454819D02*
X119928572Y-214407200D01*
X119928572Y-214407200D02*
X119976191Y-214359580D01*
X119976191Y-214359580D02*
X120023810Y-214264342D01*
X120023810Y-214264342D02*
X120023810Y-213978628D01*
X120023810Y-213978628D02*
X119976191Y-213883390D01*
X119976191Y-213883390D02*
X119928572Y-213835771D01*
X119928572Y-213835771D02*
X119833334Y-213788152D01*
X119833334Y-213788152D02*
X119642858Y-213788152D01*
X119642858Y-213788152D02*
X119547620Y-213835771D01*
X119119048Y-214454819D02*
X119119048Y-213454819D01*
X119023810Y-214073866D02*
X118738096Y-214454819D01*
X118738096Y-213788152D02*
X119119048Y-214169104D01*
X117404762Y-214454819D02*
X117500000Y-214407200D01*
X117500000Y-214407200D02*
X117547619Y-214359580D01*
X117547619Y-214359580D02*
X117595238Y-214264342D01*
X117595238Y-214264342D02*
X117595238Y-213978628D01*
X117595238Y-213978628D02*
X117547619Y-213883390D01*
X117547619Y-213883390D02*
X117500000Y-213835771D01*
X117500000Y-213835771D02*
X117404762Y-213788152D01*
X117404762Y-213788152D02*
X117261905Y-213788152D01*
X117261905Y-213788152D02*
X117166667Y-213835771D01*
X117166667Y-213835771D02*
X117119048Y-213883390D01*
X117119048Y-213883390D02*
X117071429Y-213978628D01*
X117071429Y-213978628D02*
X117071429Y-214264342D01*
X117071429Y-214264342D02*
X117119048Y-214359580D01*
X117119048Y-214359580D02*
X117166667Y-214407200D01*
X117166667Y-214407200D02*
X117261905Y-214454819D01*
X117261905Y-214454819D02*
X117404762Y-214454819D01*
X116785714Y-213788152D02*
X116404762Y-213788152D01*
X116642857Y-214454819D02*
X116642857Y-213597676D01*
X116642857Y-213597676D02*
X116595238Y-213502438D01*
X116595238Y-213502438D02*
X116500000Y-213454819D01*
X116500000Y-213454819D02*
X116404762Y-213454819D01*
X115452380Y-213788152D02*
X115071428Y-213788152D01*
X115309523Y-213454819D02*
X115309523Y-214311961D01*
X115309523Y-214311961D02*
X115261904Y-214407200D01*
X115261904Y-214407200D02*
X115166666Y-214454819D01*
X115166666Y-214454819D02*
X115071428Y-214454819D01*
X114738094Y-214454819D02*
X114738094Y-213454819D01*
X114309523Y-214454819D02*
X114309523Y-213931009D01*
X114309523Y-213931009D02*
X114357142Y-213835771D01*
X114357142Y-213835771D02*
X114452380Y-213788152D01*
X114452380Y-213788152D02*
X114595237Y-213788152D01*
X114595237Y-213788152D02*
X114690475Y-213835771D01*
X114690475Y-213835771D02*
X114738094Y-213883390D01*
X113452380Y-214407200D02*
X113547618Y-214454819D01*
X113547618Y-214454819D02*
X113738094Y-214454819D01*
X113738094Y-214454819D02*
X113833332Y-214407200D01*
X113833332Y-214407200D02*
X113880951Y-214311961D01*
X113880951Y-214311961D02*
X113880951Y-213931009D01*
X113880951Y-213931009D02*
X113833332Y-213835771D01*
X113833332Y-213835771D02*
X113738094Y-213788152D01*
X113738094Y-213788152D02*
X113547618Y-213788152D01*
X113547618Y-213788152D02*
X113452380Y-213835771D01*
X113452380Y-213835771D02*
X113404761Y-213931009D01*
X113404761Y-213931009D02*
X113404761Y-214026247D01*
X113404761Y-214026247D02*
X113880951Y-214121485D01*
X111642856Y-214454819D02*
X111976189Y-213978628D01*
X112214284Y-214454819D02*
X112214284Y-213454819D01*
X112214284Y-213454819D02*
X111833332Y-213454819D01*
X111833332Y-213454819D02*
X111738094Y-213502438D01*
X111738094Y-213502438D02*
X111690475Y-213550057D01*
X111690475Y-213550057D02*
X111642856Y-213645295D01*
X111642856Y-213645295D02*
X111642856Y-213788152D01*
X111642856Y-213788152D02*
X111690475Y-213883390D01*
X111690475Y-213883390D02*
X111738094Y-213931009D01*
X111738094Y-213931009D02*
X111833332Y-213978628D01*
X111833332Y-213978628D02*
X112214284Y-213978628D01*
X110833332Y-214407200D02*
X110928570Y-214454819D01*
X110928570Y-214454819D02*
X111119046Y-214454819D01*
X111119046Y-214454819D02*
X111214284Y-214407200D01*
X111214284Y-214407200D02*
X111261903Y-214311961D01*
X111261903Y-214311961D02*
X111261903Y-213931009D01*
X111261903Y-213931009D02*
X111214284Y-213835771D01*
X111214284Y-213835771D02*
X111119046Y-213788152D01*
X111119046Y-213788152D02*
X110928570Y-213788152D01*
X110928570Y-213788152D02*
X110833332Y-213835771D01*
X110833332Y-213835771D02*
X110785713Y-213931009D01*
X110785713Y-213931009D02*
X110785713Y-214026247D01*
X110785713Y-214026247D02*
X111261903Y-214121485D01*
X109928570Y-214454819D02*
X109928570Y-213454819D01*
X109928570Y-214407200D02*
X110023808Y-214454819D01*
X110023808Y-214454819D02*
X110214284Y-214454819D01*
X110214284Y-214454819D02*
X110309522Y-214407200D01*
X110309522Y-214407200D02*
X110357141Y-214359580D01*
X110357141Y-214359580D02*
X110404760Y-214264342D01*
X110404760Y-214264342D02*
X110404760Y-213978628D01*
X110404760Y-213978628D02*
X110357141Y-213883390D01*
X110357141Y-213883390D02*
X110309522Y-213835771D01*
X110309522Y-213835771D02*
X110214284Y-213788152D01*
X110214284Y-213788152D02*
X110023808Y-213788152D01*
X110023808Y-213788152D02*
X109928570Y-213835771D01*
X108738093Y-214169104D02*
X108261903Y-214169104D01*
X108833331Y-214454819D02*
X108499998Y-213454819D01*
X108499998Y-213454819D02*
X108166665Y-214454819D01*
X107404760Y-214407200D02*
X107499998Y-214454819D01*
X107499998Y-214454819D02*
X107690474Y-214454819D01*
X107690474Y-214454819D02*
X107785712Y-214407200D01*
X107785712Y-214407200D02*
X107833331Y-214359580D01*
X107833331Y-214359580D02*
X107880950Y-214264342D01*
X107880950Y-214264342D02*
X107880950Y-213978628D01*
X107880950Y-213978628D02*
X107833331Y-213883390D01*
X107833331Y-213883390D02*
X107785712Y-213835771D01*
X107785712Y-213835771D02*
X107690474Y-213788152D01*
X107690474Y-213788152D02*
X107499998Y-213788152D01*
X107499998Y-213788152D02*
X107404760Y-213835771D01*
X106976188Y-214454819D02*
X106976188Y-213454819D01*
X106880950Y-214073866D02*
X106595236Y-214454819D01*
X106595236Y-213788152D02*
X106976188Y-214169104D01*
X105785712Y-214407200D02*
X105880950Y-214454819D01*
X105880950Y-214454819D02*
X106071426Y-214454819D01*
X106071426Y-214454819D02*
X106166664Y-214407200D01*
X106166664Y-214407200D02*
X106214283Y-214311961D01*
X106214283Y-214311961D02*
X106214283Y-213931009D01*
X106214283Y-213931009D02*
X106166664Y-213835771D01*
X106166664Y-213835771D02*
X106071426Y-213788152D01*
X106071426Y-213788152D02*
X105880950Y-213788152D01*
X105880950Y-213788152D02*
X105785712Y-213835771D01*
X105785712Y-213835771D02*
X105738093Y-213931009D01*
X105738093Y-213931009D02*
X105738093Y-214026247D01*
X105738093Y-214026247D02*
X106214283Y-214121485D01*
X105309521Y-214454819D02*
X105309521Y-213788152D01*
X105309521Y-213978628D02*
X105261902Y-213883390D01*
X105261902Y-213883390D02*
X105214283Y-213835771D01*
X105214283Y-213835771D02*
X105119045Y-213788152D01*
X105119045Y-213788152D02*
X105023807Y-213788152D01*
X104690473Y-214454819D02*
X104690473Y-213788152D01*
X104690473Y-213883390D02*
X104642854Y-213835771D01*
X104642854Y-213835771D02*
X104547616Y-213788152D01*
X104547616Y-213788152D02*
X104404759Y-213788152D01*
X104404759Y-213788152D02*
X104309521Y-213835771D01*
X104309521Y-213835771D02*
X104261902Y-213931009D01*
X104261902Y-213931009D02*
X104261902Y-214454819D01*
X104261902Y-213931009D02*
X104214283Y-213835771D01*
X104214283Y-213835771D02*
X104119045Y-213788152D01*
X104119045Y-213788152D02*
X103976188Y-213788152D01*
X103976188Y-213788152D02*
X103880949Y-213835771D01*
X103880949Y-213835771D02*
X103833330Y-213931009D01*
X103833330Y-213931009D02*
X103833330Y-214454819D01*
X102928569Y-214454819D02*
X102928569Y-213931009D01*
X102928569Y-213931009D02*
X102976188Y-213835771D01*
X102976188Y-213835771D02*
X103071426Y-213788152D01*
X103071426Y-213788152D02*
X103261902Y-213788152D01*
X103261902Y-213788152D02*
X103357140Y-213835771D01*
X102928569Y-214407200D02*
X103023807Y-214454819D01*
X103023807Y-214454819D02*
X103261902Y-214454819D01*
X103261902Y-214454819D02*
X103357140Y-214407200D01*
X103357140Y-214407200D02*
X103404759Y-214311961D01*
X103404759Y-214311961D02*
X103404759Y-214216723D01*
X103404759Y-214216723D02*
X103357140Y-214121485D01*
X103357140Y-214121485D02*
X103261902Y-214073866D01*
X103261902Y-214073866D02*
X103023807Y-214073866D01*
X103023807Y-214073866D02*
X102928569Y-214026247D01*
X102452378Y-213788152D02*
X102452378Y-214454819D01*
X102452378Y-213883390D02*
X102404759Y-213835771D01*
X102404759Y-213835771D02*
X102309521Y-213788152D01*
X102309521Y-213788152D02*
X102166664Y-213788152D01*
X102166664Y-213788152D02*
X102071426Y-213835771D01*
X102071426Y-213835771D02*
X102023807Y-213931009D01*
X102023807Y-213931009D02*
X102023807Y-214454819D01*
X100785711Y-214454819D02*
X100785711Y-213454819D01*
X100690473Y-214073866D02*
X100404759Y-214454819D01*
X100404759Y-213788152D02*
X100785711Y-214169104D01*
X99976187Y-214454819D02*
X99976187Y-213788152D01*
X99976187Y-213454819D02*
X100023806Y-213502438D01*
X100023806Y-213502438D02*
X99976187Y-213550057D01*
X99976187Y-213550057D02*
X99928568Y-213502438D01*
X99928568Y-213502438D02*
X99976187Y-213454819D01*
X99976187Y-213454819D02*
X99976187Y-213550057D01*
X99642854Y-213788152D02*
X99261902Y-213788152D01*
X99499997Y-213454819D02*
X99499997Y-214311961D01*
X99499997Y-214311961D02*
X99452378Y-214407200D01*
X99452378Y-214407200D02*
X99357140Y-214454819D01*
X99357140Y-214454819D02*
X99261902Y-214454819D01*
D11*
X140114289Y-210727710D02*
X140647623Y-209965805D01*
X141028575Y-210727710D02*
X141028575Y-209127710D01*
X141028575Y-209127710D02*
X140419051Y-209127710D01*
X140419051Y-209127710D02*
X140266670Y-209203900D01*
X140266670Y-209203900D02*
X140190480Y-209280091D01*
X140190480Y-209280091D02*
X140114289Y-209432472D01*
X140114289Y-209432472D02*
X140114289Y-209661043D01*
X140114289Y-209661043D02*
X140190480Y-209813424D01*
X140190480Y-209813424D02*
X140266670Y-209889615D01*
X140266670Y-209889615D02*
X140419051Y-209965805D01*
X140419051Y-209965805D02*
X141028575Y-209965805D01*
X139504766Y-210270567D02*
X138742861Y-210270567D01*
X139657147Y-210727710D02*
X139123813Y-209127710D01*
X139123813Y-209127710D02*
X138590480Y-210727710D01*
X137523813Y-209889615D02*
X137295241Y-209965805D01*
X137295241Y-209965805D02*
X137219051Y-210041996D01*
X137219051Y-210041996D02*
X137142860Y-210194377D01*
X137142860Y-210194377D02*
X137142860Y-210422948D01*
X137142860Y-210422948D02*
X137219051Y-210575329D01*
X137219051Y-210575329D02*
X137295241Y-210651520D01*
X137295241Y-210651520D02*
X137447622Y-210727710D01*
X137447622Y-210727710D02*
X138057146Y-210727710D01*
X138057146Y-210727710D02*
X138057146Y-209127710D01*
X138057146Y-209127710D02*
X137523813Y-209127710D01*
X137523813Y-209127710D02*
X137371432Y-209203900D01*
X137371432Y-209203900D02*
X137295241Y-209280091D01*
X137295241Y-209280091D02*
X137219051Y-209432472D01*
X137219051Y-209432472D02*
X137219051Y-209584853D01*
X137219051Y-209584853D02*
X137295241Y-209737234D01*
X137295241Y-209737234D02*
X137371432Y-209813424D01*
X137371432Y-209813424D02*
X137523813Y-209889615D01*
X137523813Y-209889615D02*
X138057146Y-209889615D01*
X135923813Y-209889615D02*
X135695241Y-209965805D01*
X135695241Y-209965805D02*
X135619051Y-210041996D01*
X135619051Y-210041996D02*
X135542860Y-210194377D01*
X135542860Y-210194377D02*
X135542860Y-210422948D01*
X135542860Y-210422948D02*
X135619051Y-210575329D01*
X135619051Y-210575329D02*
X135695241Y-210651520D01*
X135695241Y-210651520D02*
X135847622Y-210727710D01*
X135847622Y-210727710D02*
X136457146Y-210727710D01*
X136457146Y-210727710D02*
X136457146Y-209127710D01*
X136457146Y-209127710D02*
X135923813Y-209127710D01*
X135923813Y-209127710D02*
X135771432Y-209203900D01*
X135771432Y-209203900D02*
X135695241Y-209280091D01*
X135695241Y-209280091D02*
X135619051Y-209432472D01*
X135619051Y-209432472D02*
X135619051Y-209584853D01*
X135619051Y-209584853D02*
X135695241Y-209737234D01*
X135695241Y-209737234D02*
X135771432Y-209813424D01*
X135771432Y-209813424D02*
X135923813Y-209889615D01*
X135923813Y-209889615D02*
X136457146Y-209889615D01*
X134857146Y-210727710D02*
X134857146Y-209127710D01*
X134323813Y-209127710D02*
X133409527Y-209127710D01*
X133866670Y-210727710D02*
X133866670Y-209127710D01*
X131733336Y-209280091D02*
X131657145Y-209203900D01*
X131657145Y-209203900D02*
X131504764Y-209127710D01*
X131504764Y-209127710D02*
X131123812Y-209127710D01*
X131123812Y-209127710D02*
X130971431Y-209203900D01*
X130971431Y-209203900D02*
X130895240Y-209280091D01*
X130895240Y-209280091D02*
X130819050Y-209432472D01*
X130819050Y-209432472D02*
X130819050Y-209584853D01*
X130819050Y-209584853D02*
X130895240Y-209813424D01*
X130895240Y-209813424D02*
X131809526Y-210727710D01*
X131809526Y-210727710D02*
X130819050Y-210727710D01*
X130133335Y-210575329D02*
X130057145Y-210651520D01*
X130057145Y-210651520D02*
X130133335Y-210727710D01*
X130133335Y-210727710D02*
X130209526Y-210651520D01*
X130209526Y-210651520D02*
X130133335Y-210575329D01*
X130133335Y-210575329D02*
X130133335Y-210727710D01*
X129066668Y-209127710D02*
X128914287Y-209127710D01*
X128914287Y-209127710D02*
X128761906Y-209203900D01*
X128761906Y-209203900D02*
X128685716Y-209280091D01*
X128685716Y-209280091D02*
X128609525Y-209432472D01*
X128609525Y-209432472D02*
X128533335Y-209737234D01*
X128533335Y-209737234D02*
X128533335Y-210118186D01*
X128533335Y-210118186D02*
X128609525Y-210422948D01*
X128609525Y-210422948D02*
X128685716Y-210575329D01*
X128685716Y-210575329D02*
X128761906Y-210651520D01*
X128761906Y-210651520D02*
X128914287Y-210727710D01*
X128914287Y-210727710D02*
X129066668Y-210727710D01*
X129066668Y-210727710D02*
X129219049Y-210651520D01*
X129219049Y-210651520D02*
X129295240Y-210575329D01*
X129295240Y-210575329D02*
X129371430Y-210422948D01*
X129371430Y-210422948D02*
X129447621Y-210118186D01*
X129447621Y-210118186D02*
X129447621Y-209737234D01*
X129447621Y-209737234D02*
X129371430Y-209432472D01*
X129371430Y-209432472D02*
X129295240Y-209280091D01*
X129295240Y-209280091D02*
X129219049Y-209203900D01*
X129219049Y-209203900D02*
X129066668Y-209127710D01*
X126095239Y-209889615D02*
X125866667Y-209965805D01*
X125866667Y-209965805D02*
X125790477Y-210041996D01*
X125790477Y-210041996D02*
X125714286Y-210194377D01*
X125714286Y-210194377D02*
X125714286Y-210422948D01*
X125714286Y-210422948D02*
X125790477Y-210575329D01*
X125790477Y-210575329D02*
X125866667Y-210651520D01*
X125866667Y-210651520D02*
X126019048Y-210727710D01*
X126019048Y-210727710D02*
X126628572Y-210727710D01*
X126628572Y-210727710D02*
X126628572Y-209127710D01*
X126628572Y-209127710D02*
X126095239Y-209127710D01*
X126095239Y-209127710D02*
X125942858Y-209203900D01*
X125942858Y-209203900D02*
X125866667Y-209280091D01*
X125866667Y-209280091D02*
X125790477Y-209432472D01*
X125790477Y-209432472D02*
X125790477Y-209584853D01*
X125790477Y-209584853D02*
X125866667Y-209737234D01*
X125866667Y-209737234D02*
X125942858Y-209813424D01*
X125942858Y-209813424D02*
X126095239Y-209889615D01*
X126095239Y-209889615D02*
X126628572Y-209889615D01*
X124723810Y-209127710D02*
X124419048Y-209127710D01*
X124419048Y-209127710D02*
X124266667Y-209203900D01*
X124266667Y-209203900D02*
X124114286Y-209356281D01*
X124114286Y-209356281D02*
X124038096Y-209661043D01*
X124038096Y-209661043D02*
X124038096Y-210194377D01*
X124038096Y-210194377D02*
X124114286Y-210499139D01*
X124114286Y-210499139D02*
X124266667Y-210651520D01*
X124266667Y-210651520D02*
X124419048Y-210727710D01*
X124419048Y-210727710D02*
X124723810Y-210727710D01*
X124723810Y-210727710D02*
X124876191Y-210651520D01*
X124876191Y-210651520D02*
X125028572Y-210499139D01*
X125028572Y-210499139D02*
X125104763Y-210194377D01*
X125104763Y-210194377D02*
X125104763Y-209661043D01*
X125104763Y-209661043D02*
X125028572Y-209356281D01*
X125028572Y-209356281D02*
X124876191Y-209203900D01*
X124876191Y-209203900D02*
X124723810Y-209127710D01*
X123352382Y-210727710D02*
X123352382Y-209127710D01*
X123352382Y-209127710D02*
X122971430Y-209127710D01*
X122971430Y-209127710D02*
X122742858Y-209203900D01*
X122742858Y-209203900D02*
X122590477Y-209356281D01*
X122590477Y-209356281D02*
X122514287Y-209508662D01*
X122514287Y-209508662D02*
X122438096Y-209813424D01*
X122438096Y-209813424D02*
X122438096Y-210041996D01*
X122438096Y-210041996D02*
X122514287Y-210346758D01*
X122514287Y-210346758D02*
X122590477Y-210499139D01*
X122590477Y-210499139D02*
X122742858Y-210651520D01*
X122742858Y-210651520D02*
X122971430Y-210727710D01*
X122971430Y-210727710D02*
X123352382Y-210727710D01*
X121447620Y-209965805D02*
X121447620Y-210727710D01*
X121980954Y-209127710D02*
X121447620Y-209965805D01*
X121447620Y-209965805D02*
X120914287Y-209127710D01*
X117942857Y-210727710D02*
X117942857Y-209661043D01*
X117942857Y-209965805D02*
X117866667Y-209813424D01*
X117866667Y-209813424D02*
X117790476Y-209737234D01*
X117790476Y-209737234D02*
X117638095Y-209661043D01*
X117638095Y-209661043D02*
X117485714Y-209661043D01*
X116342857Y-210651520D02*
X116495238Y-210727710D01*
X116495238Y-210727710D02*
X116800000Y-210727710D01*
X116800000Y-210727710D02*
X116952381Y-210651520D01*
X116952381Y-210651520D02*
X117028572Y-210499139D01*
X117028572Y-210499139D02*
X117028572Y-209889615D01*
X117028572Y-209889615D02*
X116952381Y-209737234D01*
X116952381Y-209737234D02*
X116800000Y-209661043D01*
X116800000Y-209661043D02*
X116495238Y-209661043D01*
X116495238Y-209661043D02*
X116342857Y-209737234D01*
X116342857Y-209737234D02*
X116266667Y-209889615D01*
X116266667Y-209889615D02*
X116266667Y-210041996D01*
X116266667Y-210041996D02*
X117028572Y-210194377D01*
X115733333Y-209661043D02*
X115352381Y-210727710D01*
X115352381Y-210727710D02*
X114971428Y-209661043D01*
X113219047Y-210270567D02*
X112457142Y-210270567D01*
X113371428Y-210727710D02*
X112838094Y-209127710D01*
X112838094Y-209127710D02*
X112304761Y-210727710D01*
X109409522Y-209280091D02*
X109333331Y-209203900D01*
X109333331Y-209203900D02*
X109180950Y-209127710D01*
X109180950Y-209127710D02*
X108799998Y-209127710D01*
X108799998Y-209127710D02*
X108647617Y-209203900D01*
X108647617Y-209203900D02*
X108571426Y-209280091D01*
X108571426Y-209280091D02*
X108495236Y-209432472D01*
X108495236Y-209432472D02*
X108495236Y-209584853D01*
X108495236Y-209584853D02*
X108571426Y-209813424D01*
X108571426Y-209813424D02*
X109485712Y-210727710D01*
X109485712Y-210727710D02*
X108495236Y-210727710D01*
X107504759Y-209127710D02*
X107352378Y-209127710D01*
X107352378Y-209127710D02*
X107199997Y-209203900D01*
X107199997Y-209203900D02*
X107123807Y-209280091D01*
X107123807Y-209280091D02*
X107047616Y-209432472D01*
X107047616Y-209432472D02*
X106971426Y-209737234D01*
X106971426Y-209737234D02*
X106971426Y-210118186D01*
X106971426Y-210118186D02*
X107047616Y-210422948D01*
X107047616Y-210422948D02*
X107123807Y-210575329D01*
X107123807Y-210575329D02*
X107199997Y-210651520D01*
X107199997Y-210651520D02*
X107352378Y-210727710D01*
X107352378Y-210727710D02*
X107504759Y-210727710D01*
X107504759Y-210727710D02*
X107657140Y-210651520D01*
X107657140Y-210651520D02*
X107733331Y-210575329D01*
X107733331Y-210575329D02*
X107809521Y-210422948D01*
X107809521Y-210422948D02*
X107885712Y-210118186D01*
X107885712Y-210118186D02*
X107885712Y-209737234D01*
X107885712Y-209737234D02*
X107809521Y-209432472D01*
X107809521Y-209432472D02*
X107733331Y-209280091D01*
X107733331Y-209280091D02*
X107657140Y-209203900D01*
X107657140Y-209203900D02*
X107504759Y-209127710D01*
X106361902Y-209280091D02*
X106285711Y-209203900D01*
X106285711Y-209203900D02*
X106133330Y-209127710D01*
X106133330Y-209127710D02*
X105752378Y-209127710D01*
X105752378Y-209127710D02*
X105599997Y-209203900D01*
X105599997Y-209203900D02*
X105523806Y-209280091D01*
X105523806Y-209280091D02*
X105447616Y-209432472D01*
X105447616Y-209432472D02*
X105447616Y-209584853D01*
X105447616Y-209584853D02*
X105523806Y-209813424D01*
X105523806Y-209813424D02*
X106438092Y-210727710D01*
X106438092Y-210727710D02*
X105447616Y-210727710D01*
X104076187Y-209127710D02*
X104380949Y-209127710D01*
X104380949Y-209127710D02*
X104533330Y-209203900D01*
X104533330Y-209203900D02*
X104609520Y-209280091D01*
X104609520Y-209280091D02*
X104761901Y-209508662D01*
X104761901Y-209508662D02*
X104838092Y-209813424D01*
X104838092Y-209813424D02*
X104838092Y-210422948D01*
X104838092Y-210422948D02*
X104761901Y-210575329D01*
X104761901Y-210575329D02*
X104685711Y-210651520D01*
X104685711Y-210651520D02*
X104533330Y-210727710D01*
X104533330Y-210727710D02*
X104228568Y-210727710D01*
X104228568Y-210727710D02*
X104076187Y-210651520D01*
X104076187Y-210651520D02*
X103999996Y-210575329D01*
X103999996Y-210575329D02*
X103923806Y-210422948D01*
X103923806Y-210422948D02*
X103923806Y-210041996D01*
X103923806Y-210041996D02*
X103999996Y-209889615D01*
X103999996Y-209889615D02*
X104076187Y-209813424D01*
X104076187Y-209813424D02*
X104228568Y-209737234D01*
X104228568Y-209737234D02*
X104533330Y-209737234D01*
X104533330Y-209737234D02*
X104685711Y-209813424D01*
X104685711Y-209813424D02*
X104761901Y-209889615D01*
X104761901Y-209889615D02*
X104838092Y-210041996D01*
X103238091Y-210118186D02*
X102019044Y-210118186D01*
X100419044Y-210727710D02*
X101333330Y-210727710D01*
X100876187Y-210727710D02*
X100876187Y-209127710D01*
X100876187Y-209127710D02*
X101028568Y-209356281D01*
X101028568Y-209356281D02*
X101180949Y-209508662D01*
X101180949Y-209508662D02*
X101333330Y-209584853D01*
X99428567Y-209127710D02*
X99276186Y-209127710D01*
X99276186Y-209127710D02*
X99123805Y-209203900D01*
X99123805Y-209203900D02*
X99047615Y-209280091D01*
X99047615Y-209280091D02*
X98971424Y-209432472D01*
X98971424Y-209432472D02*
X98895234Y-209737234D01*
X98895234Y-209737234D02*
X98895234Y-210118186D01*
X98895234Y-210118186D02*
X98971424Y-210422948D01*
X98971424Y-210422948D02*
X99047615Y-210575329D01*
X99047615Y-210575329D02*
X99123805Y-210651520D01*
X99123805Y-210651520D02*
X99276186Y-210727710D01*
X99276186Y-210727710D02*
X99428567Y-210727710D01*
X99428567Y-210727710D02*
X99580948Y-210651520D01*
X99580948Y-210651520D02*
X99657139Y-210575329D01*
X99657139Y-210575329D02*
X99733329Y-210422948D01*
X99733329Y-210422948D02*
X99809520Y-210118186D01*
X99809520Y-210118186D02*
X99809520Y-209737234D01*
X99809520Y-209737234D02*
X99733329Y-209432472D01*
X99733329Y-209432472D02*
X99657139Y-209280091D01*
X99657139Y-209280091D02*
X99580948Y-209203900D01*
X99580948Y-209203900D02*
X99428567Y-209127710D01*
%LPC*%
D12*
%TO.C,TP8*%
X165000000Y-185000000D03*
%TD*%
D13*
%TO.C,J1*%
X200000000Y-249300000D03*
D14*
X200000000Y-256500000D03*
%TD*%
D15*
%TO.C,J20*%
X154000000Y-198000000D03*
D16*
X159080000Y-198000000D03*
%TD*%
D12*
%TO.C,TP7*%
X142000000Y-64000000D03*
%TD*%
D17*
%TO.C,J11*%
X173500000Y-279500000D03*
D18*
X175500000Y-279500000D03*
X177500000Y-279500000D03*
X179500000Y-279500000D03*
X181500000Y-279500000D03*
%TD*%
D19*
%TO.C,H5*%
X94740300Y-65049500D03*
%TD*%
D20*
%TO.C,J24*%
X152000000Y-38000000D03*
D21*
X152000000Y-40540000D03*
X152000000Y-43080000D03*
%TD*%
%TO.C,U2*%
X206780000Y-212880000D03*
X206780000Y-210340000D03*
X189020000Y-215420000D03*
X189020000Y-205260000D03*
X189020000Y-207800000D03*
X189020000Y-217960000D03*
D22*
X195410000Y-197390000D03*
X200410000Y-197390000D03*
D21*
X206780000Y-205260000D03*
X206780000Y-207800000D03*
X206780000Y-215420000D03*
X206780000Y-217960000D03*
X189020000Y-212880000D03*
X189020000Y-210340000D03*
X189020000Y-200180000D03*
X189020000Y-202720000D03*
D22*
X190410000Y-197390000D03*
X205410000Y-197390000D03*
D21*
X206780000Y-200180000D03*
X206780000Y-202720000D03*
%TD*%
D20*
%TO.C,J22*%
X144000000Y-38000000D03*
D21*
X144000000Y-40540000D03*
X144000000Y-43080000D03*
%TD*%
D23*
%TO.C,U4*%
X98350000Y-136200000D03*
X98350000Y-171800000D03*
X113650000Y-136200000D03*
X113650000Y-171800000D03*
D21*
X97120000Y-161560000D03*
X97120000Y-156480000D03*
X102180000Y-138740000D03*
X102180000Y-169260000D03*
D22*
X103450000Y-136200000D03*
X103450000Y-171800000D03*
D21*
X104720000Y-138740000D03*
X104720000Y-169260000D03*
X97120000Y-159020000D03*
X107260000Y-169260000D03*
D22*
X108520000Y-171800000D03*
D21*
X109800000Y-169260000D03*
X107260000Y-138740000D03*
D22*
X108520000Y-136200000D03*
D21*
X109800000Y-138740000D03*
X97120000Y-153940000D03*
%TD*%
D24*
%TO.C,H1*%
X111908400Y-271887300D03*
%TD*%
D25*
%TO.C,J14*%
X141000000Y-279500000D03*
D26*
X143500000Y-279500000D03*
%TD*%
D25*
%TO.C,J13*%
X148750000Y-21000000D03*
D26*
X151250000Y-21000000D03*
%TD*%
D27*
%TO.C,J21*%
X117500000Y-81000000D03*
X117500000Y-70000000D03*
D28*
X122500000Y-78000000D03*
D29*
X122500000Y-73000000D03*
%TD*%
D20*
%TO.C,J5*%
X114000000Y-181500000D03*
D21*
X116540000Y-181500000D03*
%TD*%
D17*
%TO.C,J17*%
X116000000Y-62500000D03*
D18*
X118000000Y-62500000D03*
X120000000Y-62500000D03*
%TD*%
D20*
%TO.C,J4*%
X100000000Y-181500000D03*
D21*
X100000000Y-178960000D03*
X102540000Y-181500000D03*
X102540000Y-178960000D03*
X105080000Y-181500000D03*
X105080000Y-178960000D03*
X107620000Y-181500000D03*
X107620000Y-178960000D03*
X110160000Y-181500000D03*
X110160000Y-178960000D03*
%TD*%
D30*
%TO.C,J7*%
X158500000Y-279500000D03*
D31*
X161000000Y-279500000D03*
X163500000Y-279500000D03*
X166000000Y-279500000D03*
%TD*%
D20*
%TO.C,J23*%
X148000000Y-38000000D03*
D21*
X148000000Y-40540000D03*
X148000000Y-43080000D03*
%TD*%
D20*
%TO.C,J25*%
X156000000Y-38000000D03*
D21*
X156000000Y-40540000D03*
X156000000Y-43080000D03*
%TD*%
D17*
%TO.C,J8*%
X128000000Y-21000000D03*
D18*
X130000000Y-21000000D03*
X132000000Y-21000000D03*
X134000000Y-21000000D03*
X136000000Y-21000000D03*
%TD*%
D24*
%TO.C,H4*%
X188091600Y-42364000D03*
%TD*%
D32*
%TO.C,F6*%
X180750000Y-214700000D03*
X180750000Y-211300000D03*
X167250000Y-214700000D03*
X167250000Y-211300000D03*
%TD*%
D33*
%TO.C,C1*%
X147500000Y-269000000D03*
D34*
X152500000Y-269000000D03*
%TD*%
D35*
%TO.C,U5*%
X122450000Y-110050000D03*
X143550000Y-88950000D03*
X143550000Y-110050000D03*
D21*
X139350000Y-110930000D03*
X129190000Y-108390000D03*
X129190000Y-110930000D03*
X131730000Y-108390000D03*
X131730000Y-110930000D03*
X139350000Y-108390000D03*
X134270000Y-108390000D03*
X134270000Y-110930000D03*
X126650000Y-108390000D03*
D20*
X126650000Y-110930000D03*
D21*
X136810000Y-108390000D03*
X136810000Y-110930000D03*
%TD*%
D32*
%TO.C,F2*%
X180750000Y-254700000D03*
X180750000Y-251300000D03*
X167250000Y-254700000D03*
X167250000Y-251300000D03*
%TD*%
D17*
%TO.C,J9*%
X164000000Y-21000000D03*
D18*
X166000000Y-21000000D03*
X168000000Y-21000000D03*
X170000000Y-21000000D03*
X172000000Y-21000000D03*
%TD*%
D12*
%TO.C,TP5*%
X158000000Y-84000000D03*
%TD*%
%TO.C,TP2*%
X118300000Y-155500000D03*
%TD*%
%TO.C,TP1*%
X183500000Y-193500000D03*
%TD*%
%TO.C,TP3*%
X185500000Y-94000000D03*
%TD*%
D30*
%TO.C,J15*%
X187500000Y-60000000D03*
D31*
X190000000Y-60000000D03*
X192500000Y-60000000D03*
X195000000Y-60000000D03*
X197500000Y-60000000D03*
%TD*%
D36*
%TO.C,MOD1*%
X124000000Y-129500000D03*
X124000000Y-178500000D03*
X182000000Y-129500000D03*
X182000000Y-178500000D03*
%TD*%
D30*
%TO.C,J6*%
X122250000Y-279500000D03*
D31*
X124750000Y-279500000D03*
X127250000Y-279500000D03*
X129750000Y-279500000D03*
%TD*%
D24*
%TO.C,H3*%
X111908400Y-42364000D03*
%TD*%
D35*
%TO.C,U6*%
X156450000Y-110050000D03*
X177550000Y-88950000D03*
X177550000Y-110050000D03*
D21*
X173350000Y-110930000D03*
X163190000Y-108390000D03*
X163190000Y-110930000D03*
X165730000Y-108390000D03*
X165730000Y-110930000D03*
X173350000Y-108390000D03*
X168270000Y-108390000D03*
X168270000Y-110930000D03*
X160650000Y-108390000D03*
D20*
X160650000Y-110930000D03*
D21*
X170810000Y-108390000D03*
X170810000Y-110930000D03*
%TD*%
D17*
%TO.C,J12*%
X117000000Y-55000000D03*
D18*
X119000000Y-55000000D03*
X121000000Y-55000000D03*
X123000000Y-55000000D03*
%TD*%
D17*
%TO.C,J18*%
X98000000Y-128000000D03*
D18*
X100000000Y-128000000D03*
%TD*%
D17*
%TO.C,J16*%
X190000000Y-52000000D03*
D18*
X192000000Y-52000000D03*
%TD*%
D32*
%TO.C,F7*%
X180750000Y-204700000D03*
X180750000Y-201300000D03*
X167250000Y-204700000D03*
X167250000Y-201300000D03*
%TD*%
D37*
%TO.C,BT1*%
X121400000Y-37000000D03*
X134600000Y-37000000D03*
%TD*%
D19*
%TO.C,U1*%
X142960000Y-255340000D03*
X142960000Y-188660000D03*
X97240000Y-255340000D03*
X97240000Y-188660000D03*
%TD*%
D17*
%TO.C,J10*%
X95000000Y-264500000D03*
D18*
X97000000Y-264500000D03*
X99000000Y-264500000D03*
X101000000Y-264500000D03*
X103000000Y-264500000D03*
%TD*%
D38*
%TO.C,J3*%
X128870000Y-121270000D03*
D21*
X128870000Y-118730000D03*
X131410000Y-121270000D03*
X131410000Y-118730000D03*
X133950000Y-121270000D03*
X133950000Y-118730000D03*
X136490000Y-121270000D03*
X136490000Y-118730000D03*
X139030000Y-121270000D03*
X139030000Y-118730000D03*
X141570000Y-121270000D03*
X141570000Y-118730000D03*
X144110000Y-121270000D03*
X144110000Y-118730000D03*
X146650000Y-121270000D03*
X146650000Y-118730000D03*
X149190000Y-121270000D03*
X149190000Y-118730000D03*
X151730000Y-121270000D03*
X151730000Y-118730000D03*
X154270000Y-121270000D03*
X154270000Y-118730000D03*
X156810000Y-121270000D03*
X156810000Y-118730000D03*
X159350000Y-121270000D03*
X159350000Y-118730000D03*
X161890000Y-121270000D03*
X161890000Y-118730000D03*
X164430000Y-121270000D03*
X164430000Y-118730000D03*
X166970000Y-121270000D03*
X166970000Y-118730000D03*
X169510000Y-121270000D03*
X169510000Y-118730000D03*
X172050000Y-121270000D03*
X172050000Y-118730000D03*
X174590000Y-121270000D03*
X174590000Y-118730000D03*
X177130000Y-121270000D03*
X177130000Y-118730000D03*
%TD*%
D24*
%TO.C,H2*%
X188091600Y-271887300D03*
%TD*%
D39*
%TO.C,J2*%
X115800000Y-264000000D03*
X124200000Y-264000000D03*
%TD*%
D32*
%TO.C,F4*%
X180750000Y-234700000D03*
X180750000Y-231300000D03*
X167250000Y-234700000D03*
X167250000Y-231300000D03*
%TD*%
%TO.C,F3*%
X180750000Y-244700000D03*
X180750000Y-241300000D03*
X167250000Y-244700000D03*
X167250000Y-241300000D03*
%TD*%
D40*
%TO.C,C14*%
X164000000Y-42000000D03*
D41*
X167500000Y-42000000D03*
%TD*%
D25*
%TO.C,J19*%
X155000000Y-208000000D03*
D26*
X157500000Y-208000000D03*
%TD*%
D12*
%TO.C,TP4*%
X110000000Y-97500000D03*
%TD*%
D32*
%TO.C,F5*%
X180750000Y-224700000D03*
X180750000Y-221300000D03*
X167250000Y-224700000D03*
X167250000Y-221300000D03*
%TD*%
D12*
%TO.C,TP6*%
X149000000Y-187000000D03*
%TD*%
D19*
%TO.C,H6*%
X205259700Y-65049500D03*
%TD*%
D32*
%TO.C,F1*%
X198300000Y-238750000D03*
X201700000Y-238750000D03*
X198300000Y-225250000D03*
X201700000Y-225250000D03*
%TD*%
%LPD*%
M02*
