ISO-10303-21;
HEADER;
FILE_DESCRIPTION(('Open CASCADE Model'),'2;1');
FILE_NAME('Open CASCADE Shape Model','2026-10-03T21:07:03',('Author'),(
    'Open CASCADE'),'Open CASCADE STEP processor 7.9','build123d',
  'Unknown');
FILE_SCHEMA(('AUTOMOTIVE_DESIGN { 1 0 10303 214 1 1 1 1 }'));
ENDSEC;
DATA;
#1 = APPLICATION_PROTOCOL_DEFINITION('international standard',
  'automotive_design',2000,#2);
#2 = APPLICATION_CONTEXT(
  'core data for automotive mechanical design processes');
#3 = SHAPE_DEFINITION_REPRESENTATION(#4,#10);
#4 = PRODUCT_DEFINITION_SHAPE('','',#5);
#5 = PRODUCT_DEFINITION('design','',#6,#9);
#6 = PRODUCT_DEFINITION_FORMATION('','',#7);
#7 = PRODUCT('COMPOUND','COMPOUND','',(#8));
#8 = PRODUCT_CONTEXT('',#2,'mechanical');
#9 = PRODUCT_DEFINITION_CONTEXT('part definition',#2,'design');
#10 = ADVANCED_BREP_SHAPE_REPRESENTATION('',(#11,#15),#1405);
#11 = AXIS2_PLACEMENT_3D('',#12,#13,#14);
#12 = CARTESIAN_POINT('',(0.,0.,0.));
#13 = DIRECTION('',(0.,0.,1.));
#14 = DIRECTION('',(1.,0.,-0.));
#15 = MANIFOLD_SOLID_BREP('',#16);
#16 = CLOSED_SHELL('',(#17,#491,#589,#636,#686,#731,#779,#826,#876,#901,
    #936,#1282,#1348,#1398));
#17 = ADVANCED_FACE('',(#18,#320),#33,.T.);
#18 = FACE_BOUND('',#19,.T.);
#19 = EDGE_LOOP('',(#20,#56,#79,#106,#107,#131,#157,#186,#212,#241,#267,
    #296));
#20 = ORIENTED_EDGE('',*,*,#21,.F.);
#21 = EDGE_CURVE('',#22,#24,#26,.T.);
#22 = VERTEX_POINT('',#23);
#23 = CARTESIAN_POINT('',(2.4,-1.518562030943E-15,-6.2));
#24 = VERTEX_POINT('',#25);
#25 = CARTESIAN_POINT('',(2.4,5.947898788648,-1.75));
#26 = SURFACE_CURVE('',#27,(#32,#44),.PCURVE_S1.);
#27 = CIRCLE('',#28,6.2);
#28 = AXIS2_PLACEMENT_3D('',#29,#30,#31);
#29 = CARTESIAN_POINT('',(2.4,0.,2.04281036531E-15));
#30 = DIRECTION('',(1.,-0.,2.22044604925E-16));
#31 = DIRECTION('',(2.22044604925E-16,0.,-1.));
#32 = PCURVE('',#33,#38);
#33 = CYLINDRICAL_SURFACE('',#34,6.2);
#34 = AXIS2_PLACEMENT_3D('',#35,#36,#37);
#35 = CARTESIAN_POINT('',(-6.8,0.,0.));
#36 = DIRECTION('',(1.,0.,2.22044604925E-16));
#37 = DIRECTION('',(2.22044604925E-16,0.,-1.));
#38 = DEFINITIONAL_REPRESENTATION('',(#39),#43);
#39 = LINE('',#40,#41);
#40 = CARTESIAN_POINT('',(0.,9.2));
#41 = VECTOR('',#42,1.);
#42 = DIRECTION('',(1.,0.));
#43 = ( GEOMETRIC_REPRESENTATION_CONTEXT(2) 
PARAMETRIC_REPRESENTATION_CONTEXT() REPRESENTATION_CONTEXT('2D SPACE',''
  ) );
#44 = PCURVE('',#45,#50);
#45 = PLANE('',#46);
#46 = AXIS2_PLACEMENT_3D('',#47,#48,#49);
#47 = CARTESIAN_POINT('',(2.4,0.,2.04281036531E-15));
#48 = DIRECTION('',(1.,0.,2.22044604925E-16));
#49 = DIRECTION('',(2.22044604925E-16,0.,-1.));
#50 = DEFINITIONAL_REPRESENTATION('',(#51),#55);
#51 = CIRCLE('',#52,6.2);
#52 = AXIS2_PLACEMENT_2D('',#53,#54);
#53 = CARTESIAN_POINT('',(0.,0.));
#54 = DIRECTION('',(1.,0.));
#55 = ( GEOMETRIC_REPRESENTATION_CONTEXT(2) 
PARAMETRIC_REPRESENTATION_CONTEXT() REPRESENTATION_CONTEXT('2D SPACE',''
  ) );
#56 = ORIENTED_EDGE('',*,*,#57,.F.);
#57 = EDGE_CURVE('',#58,#22,#60,.T.);
#58 = VERTEX_POINT('',#59);
#59 = CARTESIAN_POINT('',(-6.8,-1.518562030943E-15,-6.2));
#60 = SEAM_CURVE('',#61,(#65,#72),.PCURVE_S1.);
#61 = LINE('',#62,#63);
#62 = CARTESIAN_POINT('',(-6.8,-1.518562030943E-15,-6.2));
#63 = VECTOR('',#64,1.);
#64 = DIRECTION('',(1.,0.,2.22044604925E-16));
#65 = PCURVE('',#33,#66);
#66 = DEFINITIONAL_REPRESENTATION('',(#67),#71);
#67 = LINE('',#68,#69);
#68 = CARTESIAN_POINT('',(6.28318530718,-0.));
#69 = VECTOR('',#70,1.);
#70 = DIRECTION('',(0.,1.));
#71 = ( GEOMETRIC_REPRESENTATION_CONTEXT(2) 
PARAMETRIC_REPRESENTATION_CONTEXT() REPRESENTATION_CONTEXT('2D SPACE',''
  ) );
#72 = PCURVE('',#33,#73);
#73 = DEFINITIONAL_REPRESENTATION('',(#74),#78);
#74 = LINE('',#75,#76);
#75 = CARTESIAN_POINT('',(0.,-0.));
#76 = VECTOR('',#77,1.);
#77 = DIRECTION('',(0.,1.));
#78 = ( GEOMETRIC_REPRESENTATION_CONTEXT(2) 
PARAMETRIC_REPRESENTATION_CONTEXT() REPRESENTATION_CONTEXT('2D SPACE',''
  ) );
#79 = ORIENTED_EDGE('',*,*,#80,.T.);
#80 = EDGE_CURVE('',#58,#58,#81,.T.);
#81 = SURFACE_CURVE('',#82,(#87,#94),.PCURVE_S1.);
#82 = CIRCLE('',#83,6.2);
#83 = AXIS2_PLACEMENT_3D('',#84,#85,#86);
#84 = CARTESIAN_POINT('',(-6.8,0.,0.));
#85 = DIRECTION('',(1.,-0.,2.22044604925E-16));
#86 = DIRECTION('',(2.22044604925E-16,0.,-1.));
#87 = PCURVE('',#33,#88);
#88 = DEFINITIONAL_REPRESENTATION('',(#89),#93);
#89 = LINE('',#90,#91);
#90 = CARTESIAN_POINT('',(0.,0.));
#91 = VECTOR('',#92,1.);
#92 = DIRECTION('',(1.,0.));
#93 = ( GEOMETRIC_REPRESENTATION_CONTEXT(2) 
PARAMETRIC_REPRESENTATION_CONTEXT() REPRESENTATION_CONTEXT('2D SPACE',''
  ) );
#94 = PCURVE('',#95,#100);
#95 = PLANE('',#96);
#96 = AXIS2_PLACEMENT_3D('',#97,#98,#99);
#97 = CARTESIAN_POINT('',(-6.8,0.,0.));
#98 = DIRECTION('',(1.,0.,2.22044604925E-16));
#99 = DIRECTION('',(2.22044604925E-16,0.,-1.));
#100 = DEFINITIONAL_REPRESENTATION('',(#101),#105);
#101 = CIRCLE('',#102,6.2);
#102 = AXIS2_PLACEMENT_2D('',#103,#104);
#103 = CARTESIAN_POINT('',(0.,0.));
#104 = DIRECTION('',(1.,0.));
#105 = ( GEOMETRIC_REPRESENTATION_CONTEXT(2) 
PARAMETRIC_REPRESENTATION_CONTEXT() REPRESENTATION_CONTEXT('2D SPACE',''
  ) );
#106 = ORIENTED_EDGE('',*,*,#57,.T.);
#107 = ORIENTED_EDGE('',*,*,#108,.F.);
#108 = EDGE_CURVE('',#109,#22,#111,.T.);
#109 = VERTEX_POINT('',#110);
#110 = CARTESIAN_POINT('',(2.4,-5.947898788648,-1.75));
#111 = SURFACE_CURVE('',#112,(#117,#124),.PCURVE_S1.);
#112 = CIRCLE('',#113,6.2);
#113 = AXIS2_PLACEMENT_3D('',#114,#115,#116);
#114 = CARTESIAN_POINT('',(2.4,0.,2.04281036531E-15));
#115 = DIRECTION('',(1.,-0.,2.22044604925E-16));
#116 = DIRECTION('',(2.22044604925E-16,0.,-1.));
#117 = PCURVE('',#33,#118);
#118 = DEFINITIONAL_REPRESENTATION('',(#119),#123);
#119 = LINE('',#120,#121);
#120 = CARTESIAN_POINT('',(0.,9.2));
#121 = VECTOR('',#122,1.);
#122 = DIRECTION('',(1.,0.));
#123 = ( GEOMETRIC_REPRESENTATION_CONTEXT(2) 
PARAMETRIC_REPRESENTATION_CONTEXT() REPRESENTATION_CONTEXT('2D SPACE',''
  ) );
#124 = PCURVE('',#45,#125);
#125 = DEFINITIONAL_REPRESENTATION('',(#126),#130);
#126 = CIRCLE('',#127,6.2);
#127 = AXIS2_PLACEMENT_2D('',#128,#129);
#128 = CARTESIAN_POINT('',(0.,0.));
#129 = DIRECTION('',(1.,0.));
#130 = ( GEOMETRIC_REPRESENTATION_CONTEXT(2) 
PARAMETRIC_REPRESENTATION_CONTEXT() REPRESENTATION_CONTEXT('2D SPACE',''
  ) );
#131 = ORIENTED_EDGE('',*,*,#132,.F.);
#132 = EDGE_CURVE('',#133,#109,#135,.T.);
#133 = VERTEX_POINT('',#134);
#134 = CARTESIAN_POINT('',(0.1,-5.947898788648,-1.75));
#135 = SURFACE_CURVE('',#136,(#140,#146),.PCURVE_S1.);
#136 = LINE('',#137,#138);
#137 = CARTESIAN_POINT('',(-6.8,-5.947898788648,-1.75));
#138 = VECTOR('',#139,1.);
#139 = DIRECTION('',(1.,0.,2.22044604925E-16));
#140 = PCURVE('',#33,#141);
#141 = DEFINITIONAL_REPRESENTATION('',(#142),#145);
#142 = B_SPLINE_CURVE_WITH_KNOTS('',1,(#143,#144),.UNSPECIFIED.,.F.,.F.,
  (2,2),(6.57,9.2000006),.PIECEWISE_BEZIER_KNOTS.);
#143 = CARTESIAN_POINT('',(4.998536049696,6.57));
#144 = CARTESIAN_POINT('',(4.998536049696,9.2000006));
#145 = ( GEOMETRIC_REPRESENTATION_CONTEXT(2) 
PARAMETRIC_REPRESENTATION_CONTEXT() REPRESENTATION_CONTEXT('2D SPACE',''
  ) );
#146 = PCURVE('',#147,#152);
#147 = PLANE('',#148);
#148 = AXIS2_PLACEMENT_3D('',#149,#150,#151);
#149 = CARTESIAN_POINT('',(0.1,-12.4,-1.75));
#150 = DIRECTION('',(0.,0.,1.));
#151 = DIRECTION('',(1.,0.,-0.));
#152 = DEFINITIONAL_REPRESENTATION('',(#153),#156);
#153 = B_SPLINE_CURVE_WITH_KNOTS('',1,(#154,#155),.UNSPECIFIED.,.F.,.F.,
  (2,2),(6.57,9.2000006),.PIECEWISE_BEZIER_KNOTS.);
#154 = CARTESIAN_POINT('',(-0.33,6.452101211352));
#155 = CARTESIAN_POINT('',(2.3000006,6.452101211352));
#156 = ( GEOMETRIC_REPRESENTATION_CONTEXT(2) 
PARAMETRIC_REPRESENTATION_CONTEXT() REPRESENTATION_CONTEXT('2D SPACE',''
  ) );
#157 = ORIENTED_EDGE('',*,*,#158,.F.);
#158 = EDGE_CURVE('',#159,#133,#161,.T.);
#159 = VERTEX_POINT('',#160);
#160 = CARTESIAN_POINT('',(0.1,-5.947898788648,1.75));
#161 = SURFACE_CURVE('',#162,(#167,#174),.PCURVE_S1.);
#162 = CIRCLE('',#163,6.2);
#163 = AXIS2_PLACEMENT_3D('',#164,#165,#166);
#164 = CARTESIAN_POINT('',(0.1,0.,1.532107773983E-15));
#165 = DIRECTION('',(1.,0.,2.22044604925E-16));
#166 = DIRECTION('',(2.22044604925E-16,0.,-1.));
#167 = PCURVE('',#33,#168);
#168 = DEFINITIONAL_REPRESENTATION('',(#169),#173);
#169 = LINE('',#170,#171);
#170 = CARTESIAN_POINT('',(0.,6.9));
#171 = VECTOR('',#172,1.);
#172 = DIRECTION('',(1.,0.));
#173 = ( GEOMETRIC_REPRESENTATION_CONTEXT(2) 
PARAMETRIC_REPRESENTATION_CONTEXT() REPRESENTATION_CONTEXT('2D SPACE',''
  ) );
#174 = PCURVE('',#175,#180);
#175 = PLANE('',#176);
#176 = AXIS2_PLACEMENT_3D('',#177,#178,#179);
#177 = CARTESIAN_POINT('',(0.1,-12.4,-1.75));
#178 = DIRECTION('',(1.,0.,-0.));
#179 = DIRECTION('',(0.,0.,1.));
#180 = DEFINITIONAL_REPRESENTATION('',(#181),#185);
#181 = CIRCLE('',#182,6.2);
#182 = AXIS2_PLACEMENT_2D('',#183,#184);
#183 = CARTESIAN_POINT('',(1.75,-12.4));
#184 = DIRECTION('',(-1.,0.));
#185 = ( GEOMETRIC_REPRESENTATION_CONTEXT(2) 
PARAMETRIC_REPRESENTATION_CONTEXT() REPRESENTATION_CONTEXT('2D SPACE',''
  ) );
#186 = ORIENTED_EDGE('',*,*,#187,.T.);
#187 = EDGE_CURVE('',#159,#188,#190,.T.);
#188 = VERTEX_POINT('',#189);
#189 = CARTESIAN_POINT('',(2.4,-5.947898788648,1.75));
#190 = SURFACE_CURVE('',#191,(#195,#201),.PCURVE_S1.);
#191 = LINE('',#192,#193);
#192 = CARTESIAN_POINT('',(-6.8,-5.947898788648,1.75));
#193 = VECTOR('',#194,1.);
#194 = DIRECTION('',(1.,0.,2.22044604925E-16));
#195 = PCURVE('',#33,#196);
#196 = DEFINITIONAL_REPRESENTATION('',(#197),#200);
#197 = B_SPLINE_CURVE_WITH_KNOTS('',1,(#198,#199),.UNSPECIFIED.,.F.,.F.,
  (2,2),(6.57,9.2000006),.PIECEWISE_BEZIER_KNOTS.);
#198 = CARTESIAN_POINT('',(4.426241911073,6.57));
#199 = CARTESIAN_POINT('',(4.426241911073,9.2000006));
#200 = ( GEOMETRIC_REPRESENTATION_CONTEXT(2) 
PARAMETRIC_REPRESENTATION_CONTEXT() REPRESENTATION_CONTEXT('2D SPACE',''
  ) );
#201 = PCURVE('',#202,#207);
#202 = PLANE('',#203);
#203 = AXIS2_PLACEMENT_3D('',#204,#205,#206);
#204 = CARTESIAN_POINT('',(0.1,-12.4,1.75));
#205 = DIRECTION('',(0.,0.,1.));
#206 = DIRECTION('',(1.,0.,-0.));
#207 = DEFINITIONAL_REPRESENTATION('',(#208),#211);
#208 = B_SPLINE_CURVE_WITH_KNOTS('',1,(#209,#210),.UNSPECIFIED.,.F.,.F.,
  (2,2),(6.57,9.2000006),.PIECEWISE_BEZIER_KNOTS.);
#209 = CARTESIAN_POINT('',(-0.33,6.452101211352));
#210 = CARTESIAN_POINT('',(2.3000006,6.452101211352));
#211 = ( GEOMETRIC_REPRESENTATION_CONTEXT(2) 
PARAMETRIC_REPRESENTATION_CONTEXT() REPRESENTATION_CONTEXT('2D SPACE',''
  ) );
#212 = ORIENTED_EDGE('',*,*,#213,.F.);
#213 = EDGE_CURVE('',#214,#188,#216,.T.);
#214 = VERTEX_POINT('',#215);
#215 = CARTESIAN_POINT('',(2.4,5.947898788648,1.75));
#216 = SURFACE_CURVE('',#217,(#222,#229),.PCURVE_S1.);
#217 = CIRCLE('',#218,6.2);
#218 = AXIS2_PLACEMENT_3D('',#219,#220,#221);
#219 = CARTESIAN_POINT('',(2.4,0.,2.04281036531E-15));
#220 = DIRECTION('',(1.,-0.,2.22044604925E-16));
#221 = DIRECTION('',(2.22044604925E-16,0.,-1.));
#222 = PCURVE('',#33,#223);
#223 = DEFINITIONAL_REPRESENTATION('',(#224),#228);
#224 = LINE('',#225,#226);
#225 = CARTESIAN_POINT('',(0.,9.2));
#226 = VECTOR('',#227,1.);
#227 = DIRECTION('',(1.,0.));
#228 = ( GEOMETRIC_REPRESENTATION_CONTEXT(2) 
PARAMETRIC_REPRESENTATION_CONTEXT() REPRESENTATION_CONTEXT('2D SPACE',''
  ) );
#229 = PCURVE('',#230,#235);
#230 = PLANE('',#231);
#231 = AXIS2_PLACEMENT_3D('',#232,#233,#234);
#232 = CARTESIAN_POINT('',(2.4,0.,2.04281036531E-15));
#233 = DIRECTION('',(1.,0.,2.22044604925E-16));
#234 = DIRECTION('',(2.22044604925E-16,0.,-1.));
#235 = DEFINITIONAL_REPRESENTATION('',(#236),#240);
#236 = CIRCLE('',#237,6.2);
#237 = AXIS2_PLACEMENT_2D('',#238,#239);
#238 = CARTESIAN_POINT('',(0.,0.));
#239 = DIRECTION('',(1.,0.));
#240 = ( GEOMETRIC_REPRESENTATION_CONTEXT(2) 
PARAMETRIC_REPRESENTATION_CONTEXT() REPRESENTATION_CONTEXT('2D SPACE',''
  ) );
#241 = ORIENTED_EDGE('',*,*,#242,.F.);
#242 = EDGE_CURVE('',#243,#214,#245,.T.);
#243 = VERTEX_POINT('',#244);
#244 = CARTESIAN_POINT('',(0.1,5.947898788648,1.75));
#245 = SURFACE_CURVE('',#246,(#250,#256),.PCURVE_S1.);
#246 = LINE('',#247,#248);
#247 = CARTESIAN_POINT('',(-6.8,5.947898788648,1.75));
#248 = VECTOR('',#249,1.);
#249 = DIRECTION('',(1.,0.,2.22044604925E-16));
#250 = PCURVE('',#33,#251);
#251 = DEFINITIONAL_REPRESENTATION('',(#252),#255);
#252 = B_SPLINE_CURVE_WITH_KNOTS('',1,(#253,#254),.UNSPECIFIED.,.F.,.F.,
  (2,2),(6.57,9.2000006),.PIECEWISE_BEZIER_KNOTS.);
#253 = CARTESIAN_POINT('',(1.856943396106,6.57));
#254 = CARTESIAN_POINT('',(1.856943396106,9.2000006));
#255 = ( GEOMETRIC_REPRESENTATION_CONTEXT(2) 
PARAMETRIC_REPRESENTATION_CONTEXT() REPRESENTATION_CONTEXT('2D SPACE',''
  ) );
#256 = PCURVE('',#257,#262);
#257 = PLANE('',#258);
#258 = AXIS2_PLACEMENT_3D('',#259,#260,#261);
#259 = CARTESIAN_POINT('',(0.1,-12.4,1.75));
#260 = DIRECTION('',(0.,0.,1.));
#261 = DIRECTION('',(1.,0.,-0.));
#262 = DEFINITIONAL_REPRESENTATION('',(#263),#266);
#263 = B_SPLINE_CURVE_WITH_KNOTS('',1,(#264,#265),.UNSPECIFIED.,.F.,.F.,
  (2,2),(6.57,9.2000006),.PIECEWISE_BEZIER_KNOTS.);
#264 = CARTESIAN_POINT('',(-0.33,18.347898788648));
#265 = CARTESIAN_POINT('',(2.3000006,18.347898788648));
#266 = ( GEOMETRIC_REPRESENTATION_CONTEXT(2) 
PARAMETRIC_REPRESENTATION_CONTEXT() REPRESENTATION_CONTEXT('2D SPACE',''
  ) );
#267 = ORIENTED_EDGE('',*,*,#268,.F.);
#268 = EDGE_CURVE('',#269,#243,#271,.T.);
#269 = VERTEX_POINT('',#270);
#270 = CARTESIAN_POINT('',(0.1,5.947898788648,-1.75));
#271 = SURFACE_CURVE('',#272,(#277,#284),.PCURVE_S1.);
#272 = CIRCLE('',#273,6.2);
#273 = AXIS2_PLACEMENT_3D('',#274,#275,#276);
#274 = CARTESIAN_POINT('',(0.1,0.,1.532107773983E-15));
#275 = DIRECTION('',(1.,0.,2.22044604925E-16));
#276 = DIRECTION('',(2.22044604925E-16,0.,-1.));
#277 = PCURVE('',#33,#278);
#278 = DEFINITIONAL_REPRESENTATION('',(#279),#283);
#279 = LINE('',#280,#281);
#280 = CARTESIAN_POINT('',(0.,6.9));
#281 = VECTOR('',#282,1.);
#282 = DIRECTION('',(1.,0.));
#283 = ( GEOMETRIC_REPRESENTATION_CONTEXT(2) 
PARAMETRIC_REPRESENTATION_CONTEXT() REPRESENTATION_CONTEXT('2D SPACE',''
  ) );
#284 = PCURVE('',#285,#290);
#285 = PLANE('',#286);
#286 = AXIS2_PLACEMENT_3D('',#287,#288,#289);
#287 = CARTESIAN_POINT('',(0.1,-12.4,-1.75));
#288 = DIRECTION('',(1.,0.,-0.));
#289 = DIRECTION('',(0.,0.,1.));
#290 = DEFINITIONAL_REPRESENTATION('',(#291),#295);
#291 = CIRCLE('',#292,6.2);
#292 = AXIS2_PLACEMENT_2D('',#293,#294);
#293 = CARTESIAN_POINT('',(1.75,-12.4));
#294 = DIRECTION('',(-1.,0.));
#295 = ( GEOMETRIC_REPRESENTATION_CONTEXT(2) 
PARAMETRIC_REPRESENTATION_CONTEXT() REPRESENTATION_CONTEXT('2D SPACE',''
  ) );
#296 = ORIENTED_EDGE('',*,*,#297,.T.);
#297 = EDGE_CURVE('',#269,#24,#298,.T.);
#298 = SURFACE_CURVE('',#299,(#303,#309),.PCURVE_S1.);
#299 = LINE('',#300,#301);
#300 = CARTESIAN_POINT('',(-6.8,5.947898788648,-1.75));
#301 = VECTOR('',#302,1.);
#302 = DIRECTION('',(1.,0.,2.22044604925E-16));
#303 = PCURVE('',#33,#304);
#304 = DEFINITIONAL_REPRESENTATION('',(#305),#308);
#305 = B_SPLINE_CURVE_WITH_KNOTS('',1,(#306,#307),.UNSPECIFIED.,.F.,.F.,
  (2,2),(6.57,9.2000006),.PIECEWISE_BEZIER_KNOTS.);
#306 = CARTESIAN_POINT('',(1.284649257483,6.57));
#307 = CARTESIAN_POINT('',(1.284649257483,9.2000006));
#308 = ( GEOMETRIC_REPRESENTATION_CONTEXT(2) 
PARAMETRIC_REPRESENTATION_CONTEXT() REPRESENTATION_CONTEXT('2D SPACE',''
  ) );
#309 = PCURVE('',#310,#315);
#310 = PLANE('',#311);
#311 = AXIS2_PLACEMENT_3D('',#312,#313,#314);
#312 = CARTESIAN_POINT('',(0.1,-12.4,-1.75));
#313 = DIRECTION('',(0.,0.,1.));
#314 = DIRECTION('',(1.,0.,-0.));
#315 = DEFINITIONAL_REPRESENTATION('',(#316),#319);
#316 = B_SPLINE_CURVE_WITH_KNOTS('',1,(#317,#318),.UNSPECIFIED.,.F.,.F.,
  (2,2),(6.57,9.2000006),.PIECEWISE_BEZIER_KNOTS.);
#317 = CARTESIAN_POINT('',(-0.33,18.347898788648));
#318 = CARTESIAN_POINT('',(2.3000006,18.347898788648));
#319 = ( GEOMETRIC_REPRESENTATION_CONTEXT(2) 
PARAMETRIC_REPRESENTATION_CONTEXT() REPRESENTATION_CONTEXT('2D SPACE',''
  ) );
#320 = FACE_BOUND('',#321,.T.);
#321 = EDGE_LOOP('',(#322));
#322 = ORIENTED_EDGE('',*,*,#323,.F.);
#323 = EDGE_CURVE('',#324,#324,#326,.T.);
#324 = VERTEX_POINT('',#325);
#325 = CARTESIAN_POINT('',(-3.93,-3.086109933851E-16,6.2));
#326 = SURFACE_CURVE('',#327,(#378,#432),.PCURVE_S1.);
#327 = B_SPLINE_CURVE_WITH_KNOTS('',7,(#328,#329,#330,#331,#332,#333,
    #334,#335,#336,#337,#338,#339,#340,#341,#342,#343,#344,#345,#346,
    #347,#348,#349,#350,#351,#352,#353,#354,#355,#356,#357,#358,#359,
    #360,#361,#362,#363,#364,#365,#366,#367,#368,#369,#370,#371,#372,
    #373,#374,#375,#376,#377),.UNSPECIFIED.,.T.,.F.,(8,6,6,6,6,6,6,6,8),
  (0.,0.125350652812,0.250007089579,0.374661629407,0.499994636158,
    0.625351419334,0.750009084305,0.874674916374,1.),.UNSPECIFIED.);
#328 = CARTESIAN_POINT('',(-3.93,2.22044604925E-16,6.2));
#329 = CARTESIAN_POINT('',(-3.93,0.163861620495,6.2));
#330 = CARTESIAN_POINT('',(-3.954861538441,0.324442344763,6.194947244799
    ));
#331 = CARTESIAN_POINT('',(-4.002793657524,0.477250124663,6.185207515499
    ));
#332 = CARTESIAN_POINT('',(-4.071055847023,0.618349450029,6.171933487328
    ));
#333 = CARTESIAN_POINT('',(-4.155989613424,0.744547862053,6.156847182413
    ));
#334 = CARTESIAN_POINT('',(-4.253026364969,0.85369786367,6.141641519002)
  );
#335 = CARTESIAN_POINT('',(-4.459893309298,1.036075607935,6.113510723568
    ));
#336 = CARTESIAN_POINT('',(-4.571698480264,1.111305034211,6.100295052581
    ));
#337 = CARTESIAN_POINT('',(-4.689716976129,1.171048486286,6.088843015092
    ));
#338 = CARTESIAN_POINT('',(-4.812057062959,1.215598466033,6.079833675921
    ));
#339 = CARTESIAN_POINT('',(-4.937140411442,1.245199146421,6.073689769789
    ));
#340 = CARTESIAN_POINT('',(-5.063568060854,1.26,6.070617760986));
#341 = CARTESIAN_POINT('',(-5.316430015189,1.26,6.070617760986));
#342 = CARTESIAN_POINT('',(-5.442857240488,1.245199606447,6.073689672305
    ));
#343 = CARTESIAN_POINT('',(-5.567941403831,1.215599166441,6.079833536113
    ));
#344 = CARTESIAN_POINT('',(-5.690282946337,1.171048906328,6.088842934427
    ));
#345 = CARTESIAN_POINT('',(-5.808302809819,1.111304588473,6.100295170466
    ));
#346 = CARTESIAN_POINT('',(-5.920108244725,1.03607423788,6.113510934892)
  );
#347 = CARTESIAN_POINT('',(-6.126959049572,0.853710722481,6.141639535599
    ));
#348 = CARTESIAN_POINT('',(-6.22400198956,0.744561916356,6.156845472067)
  );
#349 = CARTESIAN_POINT('',(-6.308948468917,0.618351763446,6.17193391074)
  );
#350 = CARTESIAN_POINT('',(-6.377218405711,0.477233053258,6.185209959895
    ));
#351 = CARTESIAN_POINT('',(-6.42514789296,0.324409256536,6.194949165541)
  );
#352 = CARTESIAN_POINT('',(-6.45,0.163830540857,6.2));
#353 = CARTESIAN_POINT('',(-6.45,-0.163861620495,6.2));
#354 = CARTESIAN_POINT('',(-6.425138461559,-0.324442344763,
    6.194947244799));
#355 = CARTESIAN_POINT('',(-6.377206342476,-0.477250124664,
    6.185207515499));
#356 = CARTESIAN_POINT('',(-6.308944152977,-0.618349450029,
    6.171933487329));
#357 = CARTESIAN_POINT('',(-6.224010386576,-0.744547862053,
    6.156847182413));
#358 = CARTESIAN_POINT('',(-6.126973635031,-0.85369786367,6.141641519002
    ));
#359 = CARTESIAN_POINT('',(-5.920110718677,-1.036072056798,
    6.113511271312));
#360 = CARTESIAN_POINT('',(-5.80830694891,-1.111302061361,6.100295635913
    ));
#361 = CARTESIAN_POINT('',(-5.69028648432,-1.171047971257,6.088843177356
    ));
#362 = CARTESIAN_POINT('',(-5.567941194444,-1.215600460154,
    6.079833271759));
#363 = CARTESIAN_POINT('',(-5.442851450949,-1.245201539565,
    6.073689270545));
#364 = CARTESIAN_POINT('',(-5.316421730178,-1.26,6.070617760986));
#365 = CARTESIAN_POINT('',(-5.063569987149,-1.26,6.070617760986));
#366 = CARTESIAN_POINT('',(-4.937142753711,-1.24519960702,6.073689672232
    ));
#367 = CARTESIAN_POINT('',(-4.812058600487,-1.215599163674,
    6.079833536519));
#368 = CARTESIAN_POINT('',(-4.689717055605,-1.171048911602,
    6.088842933614));
#369 = CARTESIAN_POINT('',(-4.57169718559,-1.11130458369,6.100295171212)
  );
#370 = CARTESIAN_POINT('',(-4.459891757356,-1.036074239714,
    6.113510934609));
#371 = CARTESIAN_POINT('',(-4.253056897395,-0.853724781624,
    6.141637367051));
#372 = CARTESIAN_POINT('',(-4.156002439112,-0.744573080716,
    6.156844248742));
#373 = CARTESIAN_POINT('',(-4.071042363588,-0.618346510367,
    6.171935317651));
#374 = CARTESIAN_POINT('',(-4.002767816012,-0.477208470866,
    6.185212780642));
#375 = CARTESIAN_POINT('',(-3.954843450896,-0.324373952337,
    6.194950918832));
#376 = CARTESIAN_POINT('',(-3.93,-0.163802010517,6.2));
#377 = CARTESIAN_POINT('',(-3.93,2.22044604925E-16,6.2));
#378 = PCURVE('',#33,#379);
#379 = DEFINITIONAL_REPRESENTATION('',(#380),#431);
#380 = B_SPLINE_CURVE_WITH_KNOTS('',7,(#381,#382,#383,#384,#385,#386,
    #387,#388,#389,#390,#391,#392,#393,#394,#395,#396,#397,#398,#399,
    #400,#401,#402,#403,#404,#405,#406,#407,#408,#409,#410,#411,#412,
    #413,#414,#415,#416,#417,#418,#419,#420,#421,#422,#423,#424,#425,
    #426,#427,#428,#429,#430),.UNSPECIFIED.,.T.,.F.,(8,6,6,6,6,6,6,6,8),
  (0.,0.125350652812,0.250007089579,0.374661629407,0.499994636158,
    0.625351419334,0.750009084305,0.874674916374,1.),.UNSPECIFIED.);
#381 = CARTESIAN_POINT('',(3.14159265359,2.87));
#382 = CARTESIAN_POINT('',(3.115163359962,2.87));
#383 = CARTESIAN_POINT('',(3.089263208493,2.845138461559));
#384 = CARTESIAN_POINT('',(3.064586828016,2.797206342476));
#385 = CARTESIAN_POINT('',(3.04174330921,2.728944152977));
#386 = CARTESIAN_POINT('',(3.021250101839,2.644010386576));
#387 = CARTESIAN_POINT('',(3.003477182651,2.546973635031));
#388 = CARTESIAN_POINT('',(2.973713552935,2.340106690702));
#389 = CARTESIAN_POINT('',(2.961396650459,2.228301519736));
#390 = CARTESIAN_POINT('',(2.951586313225,2.110283023871));
#391 = CARTESIAN_POINT('',(2.944255466272,1.987942937041));
#392 = CARTESIAN_POINT('',(2.939379408011,1.862859588558));
#393 = CARTESIAN_POINT('',(2.936941294883,1.736431939146));
#394 = CARTESIAN_POINT('',(2.936941294883,1.483569984811));
#395 = CARTESIAN_POINT('',(2.939379332232,1.357142759512));
#396 = CARTESIAN_POINT('',(2.9442553509,1.232058596169));
#397 = CARTESIAN_POINT('',(2.951586244493,1.109717053663));
#398 = CARTESIAN_POINT('',(2.961396724409,0.991697190182));
#399 = CARTESIAN_POINT('',(2.973713776525,0.879891755275));
#400 = CARTESIAN_POINT('',(3.003475084122,0.673040950428));
#401 = CARTESIAN_POINT('',(3.021247818757,0.57599801044));
#402 = CARTESIAN_POINT('',(3.041742951097,0.491051531083));
#403 = CARTESIAN_POINT('',(3.064589599082,0.422781594289));
#404 = CARTESIAN_POINT('',(3.089268545547,0.37485210704));
#405 = CARTESIAN_POINT('',(3.115168372806,0.35));
#406 = CARTESIAN_POINT('',(3.168021947218,0.35));
#407 = CARTESIAN_POINT('',(3.193922098687,0.374861538441));
#408 = CARTESIAN_POINT('',(3.218598479164,0.422793657524));
#409 = CARTESIAN_POINT('',(3.24144199797,0.491055847023));
#410 = CARTESIAN_POINT('',(3.261935205341,0.575989613424));
#411 = CARTESIAN_POINT('',(3.279708124529,0.673026364969));
#412 = CARTESIAN_POINT('',(3.309471174707,0.879889281323));
#413 = CARTESIAN_POINT('',(3.321788168516,0.99169305109));
#414 = CARTESIAN_POINT('',(3.331598907153,1.10971351568));
#415 = CARTESIAN_POINT('',(3.338930169166,1.232058805557));
#416 = CARTESIAN_POINT('',(3.343806293435,1.357148549051));
#417 = CARTESIAN_POINT('',(3.346244012296,1.483578269822));
#418 = CARTESIAN_POINT('',(3.346244012296,1.736430012851));
#419 = CARTESIAN_POINT('',(3.34380597504,1.862857246289));
#420 = CARTESIAN_POINT('',(3.338929955828,1.987941399513));
#421 = CARTESIAN_POINT('',(3.331599063547,2.110282944395));
#422 = CARTESIAN_POINT('',(3.32178858199,2.22830281441));
#423 = CARTESIAN_POINT('',(3.309471530954,2.340108242644));
#424 = CARTESIAN_POINT('',(3.279712517477,2.546943102605));
#425 = CARTESIAN_POINT('',(3.261939298094,2.643997560888));
#426 = CARTESIAN_POINT('',(3.241441486435,2.728957636412));
#427 = CARTESIAN_POINT('',(3.218591725639,2.797232183988));
#428 = CARTESIAN_POINT('',(3.19391106801,2.845156549104));
#429 = CARTESIAN_POINT('',(3.168012332705,2.87));
#430 = CARTESIAN_POINT('',(3.14159265359,2.87));
#431 = ( GEOMETRIC_REPRESENTATION_CONTEXT(2) 
PARAMETRIC_REPRESENTATION_CONTEXT() REPRESENTATION_CONTEXT('2D SPACE',''
  ) );
#432 = PCURVE('',#433,#438);
#433 = CYLINDRICAL_SURFACE('',#434,1.26);
#434 = AXIS2_PLACEMENT_3D('',#435,#436,#437);
#435 = CARTESIAN_POINT('',(-5.19,0.,0.));
#436 = DIRECTION('',(0.,0.,1.));
#437 = DIRECTION('',(1.,0.,-0.));
#438 = DEFINITIONAL_REPRESENTATION('',(#439),#490);
#439 = B_SPLINE_CURVE_WITH_KNOTS('',7,(#440,#441,#442,#443,#444,#445,
    #446,#447,#448,#449,#450,#451,#452,#453,#454,#455,#456,#457,#458,
    #459,#460,#461,#462,#463,#464,#465,#466,#467,#468,#469,#470,#471,
    #472,#473,#474,#475,#476,#477,#478,#479,#480,#481,#482,#483,#484,
    #485,#486,#487,#488,#489),.UNSPECIFIED.,.F.,.F.,(8,6,6,6,6,6,6,6,8),
  (0.,0.125350652812,0.250007089579,0.374661629407,0.499994636158,
    0.625351419334,0.750009084305,0.874674916374,1.),.UNSPECIFIED.);
#440 = CARTESIAN_POINT('',(0.,6.2));
#441 = CARTESIAN_POINT('',(0.130048905155,6.2));
#442 = CARTESIAN_POINT('',(0.257493849452,6.194947244799));
#443 = CARTESIAN_POINT('',(0.382362639438,6.185207515499));
#444 = CARTESIAN_POINT('',(0.504476079209,6.171933487328));
#445 = CARTESIAN_POINT('',(0.623432894081,6.156847182413));
#446 = CARTESIAN_POINT('',(0.738488930007,6.141641519002));
#447 = CARTESIAN_POINT('',(0.95736333567,6.113510723568));
#448 = CARTESIAN_POINT('',(1.063408188248,6.100295052581));
#449 = CARTESIAN_POINT('',(1.167146536852,6.088843015092));
#450 = CARTESIAN_POINT('',(1.269191123579,6.079833675921));
#451 = CARTESIAN_POINT('',(1.370114192429,6.073689769789));
#452 = CARTESIAN_POINT('',(1.470453517949,6.070617760986));
#453 = CARTESIAN_POINT('',(1.671137608691,6.070617760986));
#454 = CARTESIAN_POINT('',(1.771476589364,6.073689672305));
#455 = CARTESIAN_POINT('',(1.872400251379,6.079833536113));
#456 = CARTESIAN_POINT('',(1.974445930344,6.088842934427));
#457 = CARTESIAN_POINT('',(2.078185471411,6.100295170466));
#458 = CARTESIAN_POINT('',(2.184230962144,6.113510934892));
#459 = CARTESIAN_POINT('',(2.40308829152,6.141639535599));
#460 = CARTESIAN_POINT('',(2.518147387923,6.156845472067));
#461 = CARTESIAN_POINT('',(2.637116999753,6.17193391074));
#462 = CARTESIAN_POINT('',(2.759245581154,6.185209959895));
#463 = CARTESIAN_POINT('',(2.884125069676,6.194949165541));
#464 = CARTESIAN_POINT('',(3.011568414815,6.2));
#465 = CARTESIAN_POINT('',(3.271641558744,6.2));
#466 = CARTESIAN_POINT('',(3.399086503042,6.194947244799));
#467 = CARTESIAN_POINT('',(3.523955293028,6.185207515499));
#468 = CARTESIAN_POINT('',(3.646068732799,6.171933487329));
#469 = CARTESIAN_POINT('',(3.765025547671,6.156847182413));
#470 = CARTESIAN_POINT('',(3.880081583597,6.141641519002));
#471 = CARTESIAN_POINT('',(4.098951727483,6.113511271312));
#472 = CARTESIAN_POINT('',(4.204996047762,6.100295635913));
#473 = CARTESIAN_POINT('',(4.308736617572,6.088843177356));
#474 = CARTESIAN_POINT('',(4.410785546271,6.079833271759));
#475 = CARTESIAN_POINT('',(4.511713310343,6.073689270545));
#476 = CARTESIAN_POINT('',(4.612054273894,6.070617760986));
#477 = CARTESIAN_POINT('',(4.812730260425,6.070617760986));
#478 = CARTESIAN_POINT('',(4.913069247326,6.073689672232));
#479 = CARTESIAN_POINT('',(5.013992902448,6.079833536519));
#480 = CARTESIAN_POINT('',(5.116038580819,6.088842933614));
#481 = CARTESIAN_POINT('',(5.219778130043,6.100295171212));
#482 = CARTESIAN_POINT('',(5.325823613533,6.113510934609));
#483 = CARTESIAN_POINT('',(5.544664072511,6.141637367051));
#484 = CARTESIAN_POINT('',(5.659731550244,6.156844248742));
#485 = CARTESIAN_POINT('',(5.778716850097,6.171935317651));
#486 = CARTESIAN_POINT('',(5.900859603829,6.185212780642));
#487 = CARTESIAN_POINT('',(6.025745745816,6.194950918832));
#488 = CARTESIAN_POINT('',(6.153183711531,6.2));
#489 = CARTESIAN_POINT('',(6.28318530718,6.2));
#490 = ( GEOMETRIC_REPRESENTATION_CONTEXT(2) 
PARAMETRIC_REPRESENTATION_CONTEXT() REPRESENTATION_CONTEXT('2D SPACE',''
  ) );
#491 = ADVANCED_FACE('',(#492),#45,.T.);
#492 = FACE_BOUND('',#493,.T.);
#493 = EDGE_LOOP('',(#494,#495,#496,#517,#546,#570));
#494 = ORIENTED_EDGE('',*,*,#108,.T.);
#495 = ORIENTED_EDGE('',*,*,#21,.T.);
#496 = ORIENTED_EDGE('',*,*,#497,.T.);
#497 = EDGE_CURVE('',#24,#498,#500,.T.);
#498 = VERTEX_POINT('',#499);
#499 = CARTESIAN_POINT('',(2.4,0.968245836552,-1.75));
#500 = SURFACE_CURVE('',#501,(#505,#511),.PCURVE_S1.);
#501 = LINE('',#502,#503);
#502 = CARTESIAN_POINT('',(2.4,-6.2,-1.75));
#503 = VECTOR('',#504,1.);
#504 = DIRECTION('',(0.,-1.,0.));
#505 = PCURVE('',#45,#506);
#506 = DEFINITIONAL_REPRESENTATION('',(#507),#510);
#507 = B_SPLINE_CURVE_WITH_KNOTS('',1,(#508,#509),.UNSPECIFIED.,.F.,.F.,
  (2,2),(-12.4,0.),.PIECEWISE_BEZIER_KNOTS.);
#508 = CARTESIAN_POINT('',(1.75,6.2));
#509 = CARTESIAN_POINT('',(1.75,-6.2));
#510 = ( GEOMETRIC_REPRESENTATION_CONTEXT(2) 
PARAMETRIC_REPRESENTATION_CONTEXT() REPRESENTATION_CONTEXT('2D SPACE',''
  ) );
#511 = PCURVE('',#310,#512);
#512 = DEFINITIONAL_REPRESENTATION('',(#513),#516);
#513 = B_SPLINE_CURVE_WITH_KNOTS('',1,(#514,#515),.UNSPECIFIED.,.F.,.F.,
  (2,2),(-12.4,0.),.PIECEWISE_BEZIER_KNOTS.);
#514 = CARTESIAN_POINT('',(2.3,18.6));
#515 = CARTESIAN_POINT('',(2.3,6.2));
#516 = ( GEOMETRIC_REPRESENTATION_CONTEXT(2) 
PARAMETRIC_REPRESENTATION_CONTEXT() REPRESENTATION_CONTEXT('2D SPACE',''
  ) );
#517 = ORIENTED_EDGE('',*,*,#518,.F.);
#518 = EDGE_CURVE('',#519,#498,#521,.T.);
#519 = VERTEX_POINT('',#520);
#520 = CARTESIAN_POINT('',(2.4,-4.898587196589E-16,-2.));
#521 = SURFACE_CURVE('',#522,(#527,#534),.PCURVE_S1.);
#522 = CIRCLE('',#523,2.);
#523 = AXIS2_PLACEMENT_3D('',#524,#525,#526);
#524 = CARTESIAN_POINT('',(2.4,0.,3.31734639758E-15));
#525 = DIRECTION('',(1.,0.,2.22044604925E-16));
#526 = DIRECTION('',(2.22044604925E-16,0.,-1.));
#527 = PCURVE('',#45,#528);
#528 = DEFINITIONAL_REPRESENTATION('',(#529),#533);
#529 = CIRCLE('',#530,2.);
#530 = AXIS2_PLACEMENT_2D('',#531,#532);
#531 = CARTESIAN_POINT('',(-1.27453603227E-15,0.));
#532 = DIRECTION('',(1.,0.));
#533 = ( GEOMETRIC_REPRESENTATION_CONTEXT(2) 
PARAMETRIC_REPRESENTATION_CONTEXT() REPRESENTATION_CONTEXT('2D SPACE',''
  ) );
#534 = PCURVE('',#535,#540);
#535 = CYLINDRICAL_SURFACE('',#536,2.);
#536 = AXIS2_PLACEMENT_3D('',#537,#538,#539);
#537 = CARTESIAN_POINT('',(-12.54,0.,0.));
#538 = DIRECTION('',(1.,0.,2.22044604925E-16));
#539 = DIRECTION('',(2.22044604925E-16,0.,-1.));
#540 = DEFINITIONAL_REPRESENTATION('',(#541),#545);
#541 = LINE('',#542,#543);
#542 = CARTESIAN_POINT('',(0.,14.94));
#543 = VECTOR('',#544,1.);
#544 = DIRECTION('',(1.,0.));
#545 = ( GEOMETRIC_REPRESENTATION_CONTEXT(2) 
PARAMETRIC_REPRESENTATION_CONTEXT() REPRESENTATION_CONTEXT('2D SPACE',''
  ) );
#546 = ORIENTED_EDGE('',*,*,#547,.F.);
#547 = EDGE_CURVE('',#548,#519,#550,.T.);
#548 = VERTEX_POINT('',#549);
#549 = CARTESIAN_POINT('',(2.4,-0.968245836552,-1.75));
#550 = SURFACE_CURVE('',#551,(#556,#563),.PCURVE_S1.);
#551 = CIRCLE('',#552,2.);
#552 = AXIS2_PLACEMENT_3D('',#553,#554,#555);
#553 = CARTESIAN_POINT('',(2.4,0.,3.31734639758E-15));
#554 = DIRECTION('',(1.,0.,2.22044604925E-16));
#555 = DIRECTION('',(2.22044604925E-16,0.,-1.));
#556 = PCURVE('',#45,#557);
#557 = DEFINITIONAL_REPRESENTATION('',(#558),#562);
#558 = CIRCLE('',#559,2.);
#559 = AXIS2_PLACEMENT_2D('',#560,#561);
#560 = CARTESIAN_POINT('',(-1.27453603227E-15,0.));
#561 = DIRECTION('',(1.,0.));
#562 = ( GEOMETRIC_REPRESENTATION_CONTEXT(2) 
PARAMETRIC_REPRESENTATION_CONTEXT() REPRESENTATION_CONTEXT('2D SPACE',''
  ) );
#563 = PCURVE('',#535,#564);
#564 = DEFINITIONAL_REPRESENTATION('',(#565),#569);
#565 = LINE('',#566,#567);
#566 = CARTESIAN_POINT('',(0.,14.94));
#567 = VECTOR('',#568,1.);
#568 = DIRECTION('',(1.,0.));
#569 = ( GEOMETRIC_REPRESENTATION_CONTEXT(2) 
PARAMETRIC_REPRESENTATION_CONTEXT() REPRESENTATION_CONTEXT('2D SPACE',''
  ) );
#570 = ORIENTED_EDGE('',*,*,#571,.T.);
#571 = EDGE_CURVE('',#548,#109,#572,.T.);
#572 = SURFACE_CURVE('',#573,(#577,#583),.PCURVE_S1.);
#573 = LINE('',#574,#575);
#574 = CARTESIAN_POINT('',(2.4,-6.2,-1.75));
#575 = VECTOR('',#576,1.);
#576 = DIRECTION('',(0.,-1.,0.));
#577 = PCURVE('',#45,#578);
#578 = DEFINITIONAL_REPRESENTATION('',(#579),#582);
#579 = B_SPLINE_CURVE_WITH_KNOTS('',1,(#580,#581),.UNSPECIFIED.,.F.,.F.,
  (2,2),(-12.4,0.),.PIECEWISE_BEZIER_KNOTS.);
#580 = CARTESIAN_POINT('',(1.75,6.2));
#581 = CARTESIAN_POINT('',(1.75,-6.2));
#582 = ( GEOMETRIC_REPRESENTATION_CONTEXT(2) 
PARAMETRIC_REPRESENTATION_CONTEXT() REPRESENTATION_CONTEXT('2D SPACE',''
  ) );
#583 = PCURVE('',#147,#584);
#584 = DEFINITIONAL_REPRESENTATION('',(#585),#588);
#585 = B_SPLINE_CURVE_WITH_KNOTS('',1,(#586,#587),.UNSPECIFIED.,.F.,.F.,
  (2,2),(-12.4,0.),.PIECEWISE_BEZIER_KNOTS.);
#586 = CARTESIAN_POINT('',(2.3,18.6));
#587 = CARTESIAN_POINT('',(2.3,6.2));
#588 = ( GEOMETRIC_REPRESENTATION_CONTEXT(2) 
PARAMETRIC_REPRESENTATION_CONTEXT() REPRESENTATION_CONTEXT('2D SPACE',''
  ) );
#589 = ADVANCED_FACE('',(#590),#310,.T.);
#590 = FACE_BOUND('',#591,.T.);
#591 = EDGE_LOOP('',(#592,#615,#634,#635));
#592 = ORIENTED_EDGE('',*,*,#593,.F.);
#593 = EDGE_CURVE('',#594,#269,#596,.T.);
#594 = VERTEX_POINT('',#595);
#595 = CARTESIAN_POINT('',(0.1,0.968245836552,-1.75));
#596 = SURFACE_CURVE('',#597,(#601,#608),.PCURVE_S1.);
#597 = LINE('',#598,#599);
#598 = CARTESIAN_POINT('',(0.1,-12.4,-1.75));
#599 = VECTOR('',#600,1.);
#600 = DIRECTION('',(-0.,1.,0.));
#601 = PCURVE('',#310,#602);
#602 = DEFINITIONAL_REPRESENTATION('',(#603),#607);
#603 = LINE('',#604,#605);
#604 = CARTESIAN_POINT('',(0.,0.));
#605 = VECTOR('',#606,1.);
#606 = DIRECTION('',(0.,1.));
#607 = ( GEOMETRIC_REPRESENTATION_CONTEXT(2) 
PARAMETRIC_REPRESENTATION_CONTEXT() REPRESENTATION_CONTEXT('2D SPACE',''
  ) );
#608 = PCURVE('',#285,#609);
#609 = DEFINITIONAL_REPRESENTATION('',(#610),#614);
#610 = LINE('',#611,#612);
#611 = CARTESIAN_POINT('',(0.,0.));
#612 = VECTOR('',#613,1.);
#613 = DIRECTION('',(0.,-1.));
#614 = ( GEOMETRIC_REPRESENTATION_CONTEXT(2) 
PARAMETRIC_REPRESENTATION_CONTEXT() REPRESENTATION_CONTEXT('2D SPACE',''
  ) );
#615 = ORIENTED_EDGE('',*,*,#616,.T.);
#616 = EDGE_CURVE('',#594,#498,#617,.T.);
#617 = SURFACE_CURVE('',#618,(#622,#628),.PCURVE_S1.);
#618 = LINE('',#619,#620);
#619 = CARTESIAN_POINT('',(-12.54,0.968245836552,-1.75));
#620 = VECTOR('',#621,1.);
#621 = DIRECTION('',(1.,0.,2.22044604925E-16));
#622 = PCURVE('',#310,#623);
#623 = DEFINITIONAL_REPRESENTATION('',(#624),#627);
#624 = B_SPLINE_CURVE_WITH_KNOTS('',1,(#625,#626),.UNSPECIFIED.,.F.,.F.,
  (2,2),(12.31,14.9400006),.PIECEWISE_BEZIER_KNOTS.);
#625 = CARTESIAN_POINT('',(-0.33,13.368245836552));
#626 = CARTESIAN_POINT('',(2.3000006,13.368245836552));
#627 = ( GEOMETRIC_REPRESENTATION_CONTEXT(2) 
PARAMETRIC_REPRESENTATION_CONTEXT() REPRESENTATION_CONTEXT('2D SPACE',''
  ) );
#628 = PCURVE('',#535,#629);
#629 = DEFINITIONAL_REPRESENTATION('',(#630),#633);
#630 = B_SPLINE_CURVE_WITH_KNOTS('',1,(#631,#632),.UNSPECIFIED.,.F.,.F.,
  (2,2),(12.31,14.9400006),.PIECEWISE_BEZIER_KNOTS.);
#631 = CARTESIAN_POINT('',(0.505360510284,12.31));
#632 = CARTESIAN_POINT('',(0.505360510284,14.9400006));
#633 = ( GEOMETRIC_REPRESENTATION_CONTEXT(2) 
PARAMETRIC_REPRESENTATION_CONTEXT() REPRESENTATION_CONTEXT('2D SPACE',''
  ) );
#634 = ORIENTED_EDGE('',*,*,#497,.F.);
#635 = ORIENTED_EDGE('',*,*,#297,.F.);
#636 = ADVANCED_FACE('',(#637),#285,.T.);
#637 = FACE_BOUND('',#638,.T.);
#638 = EDGE_LOOP('',(#639,#662,#684,#685));
#639 = ORIENTED_EDGE('',*,*,#640,.F.);
#640 = EDGE_CURVE('',#641,#243,#643,.T.);
#641 = VERTEX_POINT('',#642);
#642 = CARTESIAN_POINT('',(0.1,0.968245836552,1.75));
#643 = SURFACE_CURVE('',#644,(#648,#655),.PCURVE_S1.);
#644 = LINE('',#645,#646);
#645 = CARTESIAN_POINT('',(0.1,-12.4,1.75));
#646 = VECTOR('',#647,1.);
#647 = DIRECTION('',(-0.,1.,0.));
#648 = PCURVE('',#285,#649);
#649 = DEFINITIONAL_REPRESENTATION('',(#650),#654);
#650 = LINE('',#651,#652);
#651 = CARTESIAN_POINT('',(3.5,0.));
#652 = VECTOR('',#653,1.);
#653 = DIRECTION('',(0.,-1.));
#654 = ( GEOMETRIC_REPRESENTATION_CONTEXT(2) 
PARAMETRIC_REPRESENTATION_CONTEXT() REPRESENTATION_CONTEXT('2D SPACE',''
  ) );
#655 = PCURVE('',#257,#656);
#656 = DEFINITIONAL_REPRESENTATION('',(#657),#661);
#657 = LINE('',#658,#659);
#658 = CARTESIAN_POINT('',(0.,0.));
#659 = VECTOR('',#660,1.);
#660 = DIRECTION('',(0.,1.));
#661 = ( GEOMETRIC_REPRESENTATION_CONTEXT(2) 
PARAMETRIC_REPRESENTATION_CONTEXT() REPRESENTATION_CONTEXT('2D SPACE',''
  ) );
#662 = ORIENTED_EDGE('',*,*,#663,.F.);
#663 = EDGE_CURVE('',#594,#641,#664,.T.);
#664 = SURFACE_CURVE('',#665,(#670,#677),.PCURVE_S1.);
#665 = CIRCLE('',#666,2.);
#666 = AXIS2_PLACEMENT_3D('',#667,#668,#669);
#667 = CARTESIAN_POINT('',(1.E-01,0.,2.806643806252E-15));
#668 = DIRECTION('',(1.,0.,2.22044604925E-16));
#669 = DIRECTION('',(2.22044604925E-16,0.,-1.));
#670 = PCURVE('',#285,#671);
#671 = DEFINITIONAL_REPRESENTATION('',(#672),#676);
#672 = CIRCLE('',#673,2.);
#673 = AXIS2_PLACEMENT_2D('',#674,#675);
#674 = CARTESIAN_POINT('',(1.75,-12.4));
#675 = DIRECTION('',(-1.,0.));
#676 = ( GEOMETRIC_REPRESENTATION_CONTEXT(2) 
PARAMETRIC_REPRESENTATION_CONTEXT() REPRESENTATION_CONTEXT('2D SPACE',''
  ) );
#677 = PCURVE('',#535,#678);
#678 = DEFINITIONAL_REPRESENTATION('',(#679),#683);
#679 = LINE('',#680,#681);
#680 = CARTESIAN_POINT('',(0.,12.64));
#681 = VECTOR('',#682,1.);
#682 = DIRECTION('',(1.,0.));
#683 = ( GEOMETRIC_REPRESENTATION_CONTEXT(2) 
PARAMETRIC_REPRESENTATION_CONTEXT() REPRESENTATION_CONTEXT('2D SPACE',''
  ) );
#684 = ORIENTED_EDGE('',*,*,#593,.T.);
#685 = ORIENTED_EDGE('',*,*,#268,.T.);
#686 = ADVANCED_FACE('',(#687),#257,.F.);
#687 = FACE_BOUND('',#688,.F.);
#688 = EDGE_LOOP('',(#689,#690,#711,#730));
#689 = ORIENTED_EDGE('',*,*,#640,.F.);
#690 = ORIENTED_EDGE('',*,*,#691,.T.);
#691 = EDGE_CURVE('',#641,#692,#694,.T.);
#692 = VERTEX_POINT('',#693);
#693 = CARTESIAN_POINT('',(2.4,0.968245836552,1.75));
#694 = SURFACE_CURVE('',#695,(#699,#705),.PCURVE_S1.);
#695 = LINE('',#696,#697);
#696 = CARTESIAN_POINT('',(-12.54,0.968245836552,1.75));
#697 = VECTOR('',#698,1.);
#698 = DIRECTION('',(1.,0.,2.22044604925E-16));
#699 = PCURVE('',#257,#700);
#700 = DEFINITIONAL_REPRESENTATION('',(#701),#704);
#701 = B_SPLINE_CURVE_WITH_KNOTS('',1,(#702,#703),.UNSPECIFIED.,.F.,.F.,
  (2,2),(12.31,14.9400006),.PIECEWISE_BEZIER_KNOTS.);
#702 = CARTESIAN_POINT('',(-0.33,13.368245836552));
#703 = CARTESIAN_POINT('',(2.3000006,13.368245836552));
#704 = ( GEOMETRIC_REPRESENTATION_CONTEXT(2) 
PARAMETRIC_REPRESENTATION_CONTEXT() REPRESENTATION_CONTEXT('2D SPACE',''
  ) );
#705 = PCURVE('',#535,#706);
#706 = DEFINITIONAL_REPRESENTATION('',(#707),#710);
#707 = B_SPLINE_CURVE_WITH_KNOTS('',1,(#708,#709),.UNSPECIFIED.,.F.,.F.,
  (2,2),(12.31,14.9400006),.PIECEWISE_BEZIER_KNOTS.);
#708 = CARTESIAN_POINT('',(2.636232143306,12.31));
#709 = CARTESIAN_POINT('',(2.636232143306,14.9400006));
#710 = ( GEOMETRIC_REPRESENTATION_CONTEXT(2) 
PARAMETRIC_REPRESENTATION_CONTEXT() REPRESENTATION_CONTEXT('2D SPACE',''
  ) );
#711 = ORIENTED_EDGE('',*,*,#712,.F.);
#712 = EDGE_CURVE('',#214,#692,#713,.T.);
#713 = SURFACE_CURVE('',#714,(#718,#724),.PCURVE_S1.);
#714 = LINE('',#715,#716);
#715 = CARTESIAN_POINT('',(2.4,-6.2,1.75));
#716 = VECTOR('',#717,1.);
#717 = DIRECTION('',(0.,-1.,0.));
#718 = PCURVE('',#257,#719);
#719 = DEFINITIONAL_REPRESENTATION('',(#720),#723);
#720 = B_SPLINE_CURVE_WITH_KNOTS('',1,(#721,#722),.UNSPECIFIED.,.F.,.F.,
  (2,2),(-12.4,0.),.PIECEWISE_BEZIER_KNOTS.);
#721 = CARTESIAN_POINT('',(2.3,18.6));
#722 = CARTESIAN_POINT('',(2.3,6.2));
#723 = ( GEOMETRIC_REPRESENTATION_CONTEXT(2) 
PARAMETRIC_REPRESENTATION_CONTEXT() REPRESENTATION_CONTEXT('2D SPACE',''
  ) );
#724 = PCURVE('',#230,#725);
#725 = DEFINITIONAL_REPRESENTATION('',(#726),#729);
#726 = B_SPLINE_CURVE_WITH_KNOTS('',1,(#727,#728),.UNSPECIFIED.,.F.,.F.,
  (2,2),(-12.4,0.),.PIECEWISE_BEZIER_KNOTS.);
#727 = CARTESIAN_POINT('',(-1.75,6.2));
#728 = CARTESIAN_POINT('',(-1.75,-6.2));
#729 = ( GEOMETRIC_REPRESENTATION_CONTEXT(2) 
PARAMETRIC_REPRESENTATION_CONTEXT() REPRESENTATION_CONTEXT('2D SPACE',''
  ) );
#730 = ORIENTED_EDGE('',*,*,#242,.F.);
#731 = ADVANCED_FACE('',(#732),#230,.T.);
#732 = FACE_BOUND('',#733,.T.);
#733 = EDGE_LOOP('',(#734,#735,#736,#757));
#734 = ORIENTED_EDGE('',*,*,#712,.F.);
#735 = ORIENTED_EDGE('',*,*,#213,.T.);
#736 = ORIENTED_EDGE('',*,*,#737,.F.);
#737 = EDGE_CURVE('',#738,#188,#740,.T.);
#738 = VERTEX_POINT('',#739);
#739 = CARTESIAN_POINT('',(2.4,-0.968245836552,1.75));
#740 = SURFACE_CURVE('',#741,(#745,#751),.PCURVE_S1.);
#741 = LINE('',#742,#743);
#742 = CARTESIAN_POINT('',(2.4,-6.2,1.75));
#743 = VECTOR('',#744,1.);
#744 = DIRECTION('',(0.,-1.,0.));
#745 = PCURVE('',#230,#746);
#746 = DEFINITIONAL_REPRESENTATION('',(#747),#750);
#747 = B_SPLINE_CURVE_WITH_KNOTS('',1,(#748,#749),.UNSPECIFIED.,.F.,.F.,
  (2,2),(-12.4,0.),.PIECEWISE_BEZIER_KNOTS.);
#748 = CARTESIAN_POINT('',(-1.75,6.2));
#749 = CARTESIAN_POINT('',(-1.75,-6.2));
#750 = ( GEOMETRIC_REPRESENTATION_CONTEXT(2) 
PARAMETRIC_REPRESENTATION_CONTEXT() REPRESENTATION_CONTEXT('2D SPACE',''
  ) );
#751 = PCURVE('',#202,#752);
#752 = DEFINITIONAL_REPRESENTATION('',(#753),#756);
#753 = B_SPLINE_CURVE_WITH_KNOTS('',1,(#754,#755),.UNSPECIFIED.,.F.,.F.,
  (2,2),(-12.4,0.),.PIECEWISE_BEZIER_KNOTS.);
#754 = CARTESIAN_POINT('',(2.3,18.6));
#755 = CARTESIAN_POINT('',(2.3,6.2));
#756 = ( GEOMETRIC_REPRESENTATION_CONTEXT(2) 
PARAMETRIC_REPRESENTATION_CONTEXT() REPRESENTATION_CONTEXT('2D SPACE',''
  ) );
#757 = ORIENTED_EDGE('',*,*,#758,.F.);
#758 = EDGE_CURVE('',#692,#738,#759,.T.);
#759 = SURFACE_CURVE('',#760,(#765,#772),.PCURVE_S1.);
#760 = CIRCLE('',#761,2.);
#761 = AXIS2_PLACEMENT_3D('',#762,#763,#764);
#762 = CARTESIAN_POINT('',(2.4,0.,3.31734639758E-15));
#763 = DIRECTION('',(1.,0.,2.22044604925E-16));
#764 = DIRECTION('',(2.22044604925E-16,0.,-1.));
#765 = PCURVE('',#230,#766);
#766 = DEFINITIONAL_REPRESENTATION('',(#767),#771);
#767 = CIRCLE('',#768,2.);
#768 = AXIS2_PLACEMENT_2D('',#769,#770);
#769 = CARTESIAN_POINT('',(-1.27453603227E-15,0.));
#770 = DIRECTION('',(1.,0.));
#771 = ( GEOMETRIC_REPRESENTATION_CONTEXT(2) 
PARAMETRIC_REPRESENTATION_CONTEXT() REPRESENTATION_CONTEXT('2D SPACE',''
  ) );
#772 = PCURVE('',#535,#773);
#773 = DEFINITIONAL_REPRESENTATION('',(#774),#778);
#774 = LINE('',#775,#776);
#775 = CARTESIAN_POINT('',(0.,14.94));
#776 = VECTOR('',#777,1.);
#777 = DIRECTION('',(1.,0.));
#778 = ( GEOMETRIC_REPRESENTATION_CONTEXT(2) 
PARAMETRIC_REPRESENTATION_CONTEXT() REPRESENTATION_CONTEXT('2D SPACE',''
  ) );
#779 = ADVANCED_FACE('',(#780),#202,.F.);
#780 = FACE_BOUND('',#781,.F.);
#781 = EDGE_LOOP('',(#782,#805,#806,#807));
#782 = ORIENTED_EDGE('',*,*,#783,.F.);
#783 = EDGE_CURVE('',#159,#784,#786,.T.);
#784 = VERTEX_POINT('',#785);
#785 = CARTESIAN_POINT('',(0.1,-0.968245836552,1.75));
#786 = SURFACE_CURVE('',#787,(#791,#798),.PCURVE_S1.);
#787 = LINE('',#788,#789);
#788 = CARTESIAN_POINT('',(0.1,-12.4,1.75));
#789 = VECTOR('',#790,1.);
#790 = DIRECTION('',(-0.,1.,0.));
#791 = PCURVE('',#202,#792);
#792 = DEFINITIONAL_REPRESENTATION('',(#793),#797);
#793 = LINE('',#794,#795);
#794 = CARTESIAN_POINT('',(0.,0.));
#795 = VECTOR('',#796,1.);
#796 = DIRECTION('',(0.,1.));
#797 = ( GEOMETRIC_REPRESENTATION_CONTEXT(2) 
PARAMETRIC_REPRESENTATION_CONTEXT() REPRESENTATION_CONTEXT('2D SPACE',''
  ) );
#798 = PCURVE('',#175,#799);
#799 = DEFINITIONAL_REPRESENTATION('',(#800),#804);
#800 = LINE('',#801,#802);
#801 = CARTESIAN_POINT('',(3.5,0.));
#802 = VECTOR('',#803,1.);
#803 = DIRECTION('',(0.,-1.));
#804 = ( GEOMETRIC_REPRESENTATION_CONTEXT(2) 
PARAMETRIC_REPRESENTATION_CONTEXT() REPRESENTATION_CONTEXT('2D SPACE',''
  ) );
#805 = ORIENTED_EDGE('',*,*,#187,.T.);
#806 = ORIENTED_EDGE('',*,*,#737,.F.);
#807 = ORIENTED_EDGE('',*,*,#808,.F.);
#808 = EDGE_CURVE('',#784,#738,#809,.T.);
#809 = SURFACE_CURVE('',#810,(#814,#820),.PCURVE_S1.);
#810 = LINE('',#811,#812);
#811 = CARTESIAN_POINT('',(-12.54,-0.968245836552,1.75));
#812 = VECTOR('',#813,1.);
#813 = DIRECTION('',(1.,0.,2.22044604925E-16));
#814 = PCURVE('',#202,#815);
#815 = DEFINITIONAL_REPRESENTATION('',(#816),#819);
#816 = B_SPLINE_CURVE_WITH_KNOTS('',1,(#817,#818),.UNSPECIFIED.,.F.,.F.,
  (2,2),(12.31,14.9400006),.PIECEWISE_BEZIER_KNOTS.);
#817 = CARTESIAN_POINT('',(-0.33,11.431754163448));
#818 = CARTESIAN_POINT('',(2.3000006,11.431754163448));
#819 = ( GEOMETRIC_REPRESENTATION_CONTEXT(2) 
PARAMETRIC_REPRESENTATION_CONTEXT() REPRESENTATION_CONTEXT('2D SPACE',''
  ) );
#820 = PCURVE('',#535,#821);
#821 = DEFINITIONAL_REPRESENTATION('',(#822),#825);
#822 = B_SPLINE_CURVE_WITH_KNOTS('',1,(#823,#824),.UNSPECIFIED.,.F.,.F.,
  (2,2),(12.31,14.9400006),.PIECEWISE_BEZIER_KNOTS.);
#823 = CARTESIAN_POINT('',(3.646953163874,12.31));
#824 = CARTESIAN_POINT('',(3.646953163874,14.9400006));
#825 = ( GEOMETRIC_REPRESENTATION_CONTEXT(2) 
PARAMETRIC_REPRESENTATION_CONTEXT() REPRESENTATION_CONTEXT('2D SPACE',''
  ) );
#826 = ADVANCED_FACE('',(#827),#175,.T.);
#827 = FACE_BOUND('',#828,.T.);
#828 = EDGE_LOOP('',(#829,#830,#831,#854));
#829 = ORIENTED_EDGE('',*,*,#783,.F.);
#830 = ORIENTED_EDGE('',*,*,#158,.T.);
#831 = ORIENTED_EDGE('',*,*,#832,.T.);
#832 = EDGE_CURVE('',#133,#833,#835,.T.);
#833 = VERTEX_POINT('',#834);
#834 = CARTESIAN_POINT('',(0.1,-0.968245836552,-1.75));
#835 = SURFACE_CURVE('',#836,(#840,#847),.PCURVE_S1.);
#836 = LINE('',#837,#838);
#837 = CARTESIAN_POINT('',(0.1,-12.4,-1.75));
#838 = VECTOR('',#839,1.);
#839 = DIRECTION('',(-0.,1.,0.));
#840 = PCURVE('',#175,#841);
#841 = DEFINITIONAL_REPRESENTATION('',(#842),#846);
#842 = LINE('',#843,#844);
#843 = CARTESIAN_POINT('',(0.,0.));
#844 = VECTOR('',#845,1.);
#845 = DIRECTION('',(0.,-1.));
#846 = ( GEOMETRIC_REPRESENTATION_CONTEXT(2) 
PARAMETRIC_REPRESENTATION_CONTEXT() REPRESENTATION_CONTEXT('2D SPACE',''
  ) );
#847 = PCURVE('',#147,#848);
#848 = DEFINITIONAL_REPRESENTATION('',(#849),#853);
#849 = LINE('',#850,#851);
#850 = CARTESIAN_POINT('',(0.,0.));
#851 = VECTOR('',#852,1.);
#852 = DIRECTION('',(0.,1.));
#853 = ( GEOMETRIC_REPRESENTATION_CONTEXT(2) 
PARAMETRIC_REPRESENTATION_CONTEXT() REPRESENTATION_CONTEXT('2D SPACE',''
  ) );
#854 = ORIENTED_EDGE('',*,*,#855,.F.);
#855 = EDGE_CURVE('',#784,#833,#856,.T.);
#856 = SURFACE_CURVE('',#857,(#862,#869),.PCURVE_S1.);
#857 = CIRCLE('',#858,2.);
#858 = AXIS2_PLACEMENT_3D('',#859,#860,#861);
#859 = CARTESIAN_POINT('',(1.E-01,0.,2.806643806252E-15));
#860 = DIRECTION('',(1.,0.,2.22044604925E-16));
#861 = DIRECTION('',(2.22044604925E-16,0.,-1.));
#862 = PCURVE('',#175,#863);
#863 = DEFINITIONAL_REPRESENTATION('',(#864),#868);
#864 = CIRCLE('',#865,2.);
#865 = AXIS2_PLACEMENT_2D('',#866,#867);
#866 = CARTESIAN_POINT('',(1.75,-12.4));
#867 = DIRECTION('',(-1.,0.));
#868 = ( GEOMETRIC_REPRESENTATION_CONTEXT(2) 
PARAMETRIC_REPRESENTATION_CONTEXT() REPRESENTATION_CONTEXT('2D SPACE',''
  ) );
#869 = PCURVE('',#535,#870);
#870 = DEFINITIONAL_REPRESENTATION('',(#871),#875);
#871 = LINE('',#872,#873);
#872 = CARTESIAN_POINT('',(0.,12.64));
#873 = VECTOR('',#874,1.);
#874 = DIRECTION('',(1.,0.));
#875 = ( GEOMETRIC_REPRESENTATION_CONTEXT(2) 
PARAMETRIC_REPRESENTATION_CONTEXT() REPRESENTATION_CONTEXT('2D SPACE',''
  ) );
#876 = ADVANCED_FACE('',(#877),#147,.T.);
#877 = FACE_BOUND('',#878,.T.);
#878 = EDGE_LOOP('',(#879,#880,#881,#882));
#879 = ORIENTED_EDGE('',*,*,#832,.F.);
#880 = ORIENTED_EDGE('',*,*,#132,.T.);
#881 = ORIENTED_EDGE('',*,*,#571,.F.);
#882 = ORIENTED_EDGE('',*,*,#883,.F.);
#883 = EDGE_CURVE('',#833,#548,#884,.T.);
#884 = SURFACE_CURVE('',#885,(#889,#895),.PCURVE_S1.);
#885 = LINE('',#886,#887);
#886 = CARTESIAN_POINT('',(-12.54,-0.968245836552,-1.75));
#887 = VECTOR('',#888,1.);
#888 = DIRECTION('',(1.,0.,2.22044604925E-16));
#889 = PCURVE('',#147,#890);
#890 = DEFINITIONAL_REPRESENTATION('',(#891),#894);
#891 = B_SPLINE_CURVE_WITH_KNOTS('',1,(#892,#893),.UNSPECIFIED.,.F.,.F.,
  (2,2),(12.31,14.9400006),.PIECEWISE_BEZIER_KNOTS.);
#892 = CARTESIAN_POINT('',(-0.33,11.431754163448));
#893 = CARTESIAN_POINT('',(2.3000006,11.431754163448));
#894 = ( GEOMETRIC_REPRESENTATION_CONTEXT(2) 
PARAMETRIC_REPRESENTATION_CONTEXT() REPRESENTATION_CONTEXT('2D SPACE',''
  ) );
#895 = PCURVE('',#535,#896);
#896 = DEFINITIONAL_REPRESENTATION('',(#897),#900);
#897 = B_SPLINE_CURVE_WITH_KNOTS('',1,(#898,#899),.UNSPECIFIED.,.F.,.F.,
  (2,2),(12.31,14.9400006),.PIECEWISE_BEZIER_KNOTS.);
#898 = CARTESIAN_POINT('',(5.777824796895,12.31));
#899 = CARTESIAN_POINT('',(5.777824796895,14.9400006));
#900 = ( GEOMETRIC_REPRESENTATION_CONTEXT(2) 
PARAMETRIC_REPRESENTATION_CONTEXT() REPRESENTATION_CONTEXT('2D SPACE',''
  ) );
#901 = ADVANCED_FACE('',(#902,#905),#95,.F.);
#902 = FACE_BOUND('',#903,.F.);
#903 = EDGE_LOOP('',(#904));
#904 = ORIENTED_EDGE('',*,*,#80,.T.);
#905 = FACE_BOUND('',#906,.F.);
#906 = EDGE_LOOP('',(#907));
#907 = ORIENTED_EDGE('',*,*,#908,.F.);
#908 = EDGE_CURVE('',#909,#909,#911,.T.);
#909 = VERTEX_POINT('',#910);
#910 = CARTESIAN_POINT('',(-6.8,-1.224646799147E-15,-5.));
#911 = SURFACE_CURVE('',#912,(#917,#924),.PCURVE_S1.);
#912 = CIRCLE('',#913,5.);
#913 = AXIS2_PLACEMENT_3D('',#914,#915,#916);
#914 = CARTESIAN_POINT('',(-6.8,0.,1.052491427345E-15));
#915 = DIRECTION('',(1.,-0.,2.22044604925E-16));
#916 = DIRECTION('',(2.22044604925E-16,0.,-1.));
#917 = PCURVE('',#95,#918);
#918 = DEFINITIONAL_REPRESENTATION('',(#919),#923);
#919 = CIRCLE('',#920,5.);
#920 = AXIS2_PLACEMENT_2D('',#921,#922);
#921 = CARTESIAN_POINT('',(-1.052491427345E-15,0.));
#922 = DIRECTION('',(1.,0.));
#923 = ( GEOMETRIC_REPRESENTATION_CONTEXT(2) 
PARAMETRIC_REPRESENTATION_CONTEXT() REPRESENTATION_CONTEXT('2D SPACE',''
  ) );
#924 = PCURVE('',#925,#930);
#925 = CYLINDRICAL_SURFACE('',#926,5.);
#926 = AXIS2_PLACEMENT_3D('',#927,#928,#929);
#927 = CARTESIAN_POINT('',(-11.54,0.,0.));
#928 = DIRECTION('',(1.,0.,2.22044604925E-16));
#929 = DIRECTION('',(2.22044604925E-16,0.,-1.));
#930 = DEFINITIONAL_REPRESENTATION('',(#931),#935);
#931 = LINE('',#932,#933);
#932 = CARTESIAN_POINT('',(0.,4.74));
#933 = VECTOR('',#934,1.);
#934 = DIRECTION('',(1.,0.));
#935 = ( GEOMETRIC_REPRESENTATION_CONTEXT(2) 
PARAMETRIC_REPRESENTATION_CONTEXT() REPRESENTATION_CONTEXT('2D SPACE',''
  ) );
#936 = ADVANCED_FACE('',(#937),#433,.F.);
#937 = FACE_BOUND('',#938,.F.);
#938 = EDGE_LOOP('',(#939,#940,#963,#1281));
#939 = ORIENTED_EDGE('',*,*,#323,.F.);
#940 = ORIENTED_EDGE('',*,*,#941,.F.);
#941 = EDGE_CURVE('',#942,#324,#944,.T.);
#942 = VERTEX_POINT('',#943);
#943 = CARTESIAN_POINT('',(-3.93,-3.086109933851E-16,2.));
#944 = SEAM_CURVE('',#945,(#949,#956),.PCURVE_S1.);
#945 = LINE('',#946,#947);
#946 = CARTESIAN_POINT('',(-3.93,-3.086109933851E-16,0.));
#947 = VECTOR('',#948,1.);
#948 = DIRECTION('',(0.,0.,1.));
#949 = PCURVE('',#433,#950);
#950 = DEFINITIONAL_REPRESENTATION('',(#951),#955);
#951 = LINE('',#952,#953);
#952 = CARTESIAN_POINT('',(6.28318530718,-0.));
#953 = VECTOR('',#954,1.);
#954 = DIRECTION('',(0.,1.));
#955 = ( GEOMETRIC_REPRESENTATION_CONTEXT(2) 
PARAMETRIC_REPRESENTATION_CONTEXT() REPRESENTATION_CONTEXT('2D SPACE',''
  ) );
#956 = PCURVE('',#433,#957);
#957 = DEFINITIONAL_REPRESENTATION('',(#958),#962);
#958 = LINE('',#959,#960);
#959 = CARTESIAN_POINT('',(0.,-0.));
#960 = VECTOR('',#961,1.);
#961 = DIRECTION('',(0.,1.));
#962 = ( GEOMETRIC_REPRESENTATION_CONTEXT(2) 
PARAMETRIC_REPRESENTATION_CONTEXT() REPRESENTATION_CONTEXT('2D SPACE',''
  ) );
#963 = ORIENTED_EDGE('',*,*,#964,.T.);
#964 = EDGE_CURVE('',#942,#942,#965,.T.);
#965 = SURFACE_CURVE('',#966,(#1069,#1175),.PCURVE_S1.);
#966 = B_SPLINE_CURVE_WITH_KNOTS('',6,(#967,#968,#969,#970,#971,#972,
    #973,#974,#975,#976,#977,#978,#979,#980,#981,#982,#983,#984,#985,
    #986,#987,#988,#989,#990,#991,#992,#993,#994,#995,#996,#997,#998,
    #999,#1000,#1001,#1002,#1003,#1004,#1005,#1006,#1007,#1008,#1009,
    #1010,#1011,#1012,#1013,#1014,#1015,#1016,#1017,#1018,#1019,#1020,
    #1021,#1022,#1023,#1024,#1025,#1026,#1027,#1028,#1029,#1030,#1031,
    #1032,#1033,#1034,#1035,#1036,#1037,#1038,#1039,#1040,#1041,#1042,
    #1043,#1044,#1045,#1046,#1047,#1048,#1049,#1050,#1051,#1052,#1053,
    #1054,#1055,#1056,#1057,#1058,#1059,#1060,#1061,#1062,#1063,#1064,
    #1065,#1066,#1067,#1068),.UNSPECIFIED.,.T.,.F.,(7,5,5,5,5,5,5,5,5,5,
    5,5,5,5,5,5,5,5,5,5,7),(0.,6.350294182255E-02,8.826613385843E-02,
    0.143823261642,0.198955094835,0.249669874932,0.300612531022,
    0.355439998892,0.410787608112,0.458848081463,0.499400805209,
    0.563064371801,0.587890202869,0.643587869571,0.698859165846,
    0.74970223552,0.800773757628,0.855739918649,0.911227536785,
    0.93634124798,1.),.UNSPECIFIED.);
#967 = CARTESIAN_POINT('',(-3.93,0.,2.));
#968 = CARTESIAN_POINT('',(-3.93,9.494706270624E-02,2.));
#969 = CARTESIAN_POINT('',(-3.938585646407,0.189423222406,1.994590875055
    ));
#970 = CARTESIAN_POINT('',(-3.955597355846,0.282076749512,1.983874287126
    ));
#971 = CARTESIAN_POINT('',(-3.980500381391,0.371584701577,1.968350150411
    ));
#972 = CARTESIAN_POINT('',(-4.012389172026,0.456729271302,1.948910463791
    ));
#973 = CARTESIAN_POINT('',(-4.064552376723,0.567581723942,1.918044101151
    ));
#974 = CARTESIAN_POINT('',(-4.08007997712,0.597937118793,1.908942619643)
  );
#975 = CARTESIAN_POINT('',(-4.096453116084,0.627531367358,1.899449223709
    ));
#976 = CARTESIAN_POINT('',(-4.113625416345,0.656349859173,1.889614050751
    ));
#977 = CARTESIAN_POINT('',(-4.131551722362,0.684380097875,1.879487411354
    ));
#978 = CARTESIAN_POINT('',(-4.191999496452,0.772706800066,1.845859649684
    ));
#979 = CARTESIAN_POINT('',(-4.237376750098,0.829770987143,1.821390644056
    ));
#980 = CARTESIAN_POINT('',(-4.285909567421,0.882814543935,1.796233027458
    ));
#981 = CARTESIAN_POINT('',(-4.337264077455,0.931854100857,1.770885683139
    ));
#982 = CARTESIAN_POINT('',(-4.391178776933,0.976902109088,1.745834186809
    ));
#983 = CARTESIAN_POINT('',(-4.503311332082,1.058696242301,1.697469384635
    ));
#984 = CARTESIAN_POINT('',(-4.561555341316,1.095548124696,1.67411786149)
  );
#985 = CARTESIAN_POINT('',(-4.621937408863,1.128435311054,1.652008387502
    ));
#986 = CARTESIAN_POINT('',(-4.684240992378,1.157291685142,1.631646524291
    ));
#987 = CARTESIAN_POINT('',(-4.748284489139,1.182039093935,1.61351896668)
  );
#988 = CARTESIAN_POINT('',(-4.874292362418,1.221445985953,1.583864918066
    ));
#989 = CARTESIAN_POINT('',(-4.936050330896,1.236766667427,1.571916690605
    ));
#990 = CARTESIAN_POINT('',(-4.998817727649,1.248349223788,1.56264180032)
  );
#991 = CARTESIAN_POINT('',(-5.062263761184,1.256109825851,1.55634609508)
  );
#992 = CARTESIAN_POINT('',(-5.126088277902,1.26,1.553190265228));
#993 = CARTESIAN_POINT('',(-5.25419889572,1.26,1.553190265228));
#994 = CARTESIAN_POINT('',(-5.318308741557,1.256074788588,1.556374518137
    ));
#995 = CARTESIAN_POINT('',(-5.382034994213,1.248244618944,1.562726660521
    ));
#996 = CARTESIAN_POINT('',(-5.445074022699,1.236558724207,1.572083186278
    ));
#997 = CARTESIAN_POINT('',(-5.507090920814,1.221102137575,1.584133043622
    ));
#998 = CARTESIAN_POINT('',(-5.632945555544,1.181556396571,1.613871845526
    ));
#999 = CARTESIAN_POINT('',(-5.696608701593,1.156884096298,1.631932198887
    ));
#1000 = CARTESIAN_POINT('',(-5.758548563584,1.128149185277,
    1.652196667135));
#1001 = CARTESIAN_POINT('',(-5.818586628654,1.095428481233,1.67418654388
    ));
#1002 = CARTESIAN_POINT('',(-5.876510207751,1.058786919041,
    1.697404828559));
#1003 = CARTESIAN_POINT('',(-5.988154681982,0.977427851198,
    1.745534265969));
#1004 = CARTESIAN_POINT('',(-6.041892490709,0.932592421181,
    1.770485648034));
#1005 = CARTESIAN_POINT('',(-6.093091453328,0.883795515279,
    1.795735131737));
#1006 = CARTESIAN_POINT('',(-6.141493538221,0.831024930147,
    1.820802665033));
#1007 = CARTESIAN_POINT('',(-6.186769516118,0.774264243288,
    1.845195162623));
#1008 = CARTESIAN_POINT('',(-6.264764063198,0.660741971551,
    1.888546994304));
#1009 = CARTESIAN_POINT('',(-6.298396064868,0.604898234684,
    1.907824035901));
#1010 = CARTESIAN_POINT('',(-6.329029247601,0.54610049043,1.925830758409
    ));
#1011 = CARTESIAN_POINT('',(-6.356296449864,0.48451396897,1.942177836108
    ));
#1012 = CARTESIAN_POINT('',(-6.379839196674,0.420340854394,
    1.956497247956));
#1013 = CARTESIAN_POINT('',(-6.415724197457,0.29769167611,1.978542873318
    ));
#1014 = CARTESIAN_POINT('',(-6.429236426145,0.239909075127,
    1.986946586715));
#1015 = CARTESIAN_POINT('',(-6.43956234776,0.180845888848,1.993423879028
    ));
#1016 = CARTESIAN_POINT('',(-6.446516258204,0.120899344999,
    1.997805470116));
#1017 = CARTESIAN_POINT('',(-6.45,6.047983502344E-02,2.));
#1018 = CARTESIAN_POINT('',(-6.45,-9.494706270626E-02,2.));
#1019 = CARTESIAN_POINT('',(-6.441414353593,-0.189423222406,
    1.994590875055));
#1020 = CARTESIAN_POINT('',(-6.424402644154,-0.282076749512,
    1.983874287126));
#1021 = CARTESIAN_POINT('',(-6.399499618609,-0.371584701577,
    1.968350150411));
#1022 = CARTESIAN_POINT('',(-6.367610827974,-0.456729271302,
    1.948910463791));
#1023 = CARTESIAN_POINT('',(-6.315447621598,-0.567581727509,
    1.918044100158));
#1024 = CARTESIAN_POINT('',(-6.299920023539,-0.597937118146,
    1.908942619993));
#1025 = CARTESIAN_POINT('',(-6.283546885817,-0.627531364051,
    1.899449224796));
#1026 = CARTESIAN_POINT('',(-6.266374584062,-0.656349858003,
    1.889614051009));
#1027 = CARTESIAN_POINT('',(-6.248448275645,-0.684380100788,
    1.879487410245));
#1028 = CARTESIAN_POINT('',(-6.188000503548,-0.772706800066,
    1.845859649684));
#1029 = CARTESIAN_POINT('',(-6.142623249902,-0.829770987143,
    1.821390644056));
#1030 = CARTESIAN_POINT('',(-6.094090432579,-0.882814543935,
    1.796233027458));
#1031 = CARTESIAN_POINT('',(-6.042735922545,-0.931854100857,
    1.770885683139));
#1032 = CARTESIAN_POINT('',(-5.988821223067,-0.976902109088,
    1.745834186809));
#1033 = CARTESIAN_POINT('',(-5.876688667918,-1.058696242301,
    1.697469384635));
#1034 = CARTESIAN_POINT('',(-5.818444658684,-1.095548124696,
    1.67411786149));
#1035 = CARTESIAN_POINT('',(-5.758062591137,-1.128435311054,
    1.652008387501));
#1036 = CARTESIAN_POINT('',(-5.695759007622,-1.157291685142,
    1.631646524291));
#1037 = CARTESIAN_POINT('',(-5.631715510861,-1.182039093935,
    1.61351896668));
#1038 = CARTESIAN_POINT('',(-5.505707637581,-1.221445985953,
    1.583864918066));
#1039 = CARTESIAN_POINT('',(-5.443949669105,-1.236766667427,
    1.571916690605));
#1040 = CARTESIAN_POINT('',(-5.381182272351,-1.248349223788,
    1.56264180032));
#1041 = CARTESIAN_POINT('',(-5.317736238816,-1.256109825851,
    1.55634609508));
#1042 = CARTESIAN_POINT('',(-5.253911722098,-1.26,1.553190265228));
#1043 = CARTESIAN_POINT('',(-5.12580110428,-1.26,1.553190265228));
#1044 = CARTESIAN_POINT('',(-5.061691258443,-1.256074788588,
    1.556374518137));
#1045 = CARTESIAN_POINT('',(-4.997965005787,-1.248244618944,
    1.562726660521));
#1046 = CARTESIAN_POINT('',(-4.934925977302,-1.236558724207,
    1.572083186278));
#1047 = CARTESIAN_POINT('',(-4.872909079186,-1.221102137575,
    1.584133043622));
#1048 = CARTESIAN_POINT('',(-4.747054444456,-1.181556396571,
    1.613871845526));
#1049 = CARTESIAN_POINT('',(-4.683391298407,-1.156884096298,
    1.631932198887));
#1050 = CARTESIAN_POINT('',(-4.621451436416,-1.128149185277,
    1.652196667135));
#1051 = CARTESIAN_POINT('',(-4.561413371346,-1.095428481233,
    1.67418654388));
#1052 = CARTESIAN_POINT('',(-4.503489792249,-1.058786919041,
    1.697404828559));
#1053 = CARTESIAN_POINT('',(-4.391845318018,-0.977427851198,
    1.745534265969));
#1054 = CARTESIAN_POINT('',(-4.338107509291,-0.932592421181,
    1.770485648034));
#1055 = CARTESIAN_POINT('',(-4.286908546672,-0.883795515279,
    1.795735131737));
#1056 = CARTESIAN_POINT('',(-4.238506461779,-0.831024930147,
    1.820802665033));
#1057 = CARTESIAN_POINT('',(-4.193230483882,-0.774264243288,
    1.845195162623));
#1058 = CARTESIAN_POINT('',(-4.132591105188,-0.686002688041,
    1.878900443784));
#1059 = CARTESIAN_POINT('',(-4.114421794721,-0.65768463401,
    1.889158031897));
#1060 = CARTESIAN_POINT('',(-4.097022515866,-0.628559617115,
    1.899119116084));
#1061 = CARTESIAN_POINT('',(-4.080439925897,-0.598640449109,
    1.90873164632));
#1062 = CARTESIAN_POINT('',(-4.064721976523,-0.567942141863,
    1.917943744416));
#1063 = CARTESIAN_POINT('',(-4.012392271246,-0.45673585748,1.9489086299)
  );
#1064 = CARTESIAN_POINT('',(-3.980501963021,-0.37159093455,
    1.968349130032));
#1065 = CARTESIAN_POINT('',(-3.955596992675,-0.282078631416,
    1.983874503413));
#1066 = CARTESIAN_POINT('',(-3.938584797107,-0.189420263057,
    1.994591415585));
#1067 = CARTESIAN_POINT('',(-3.93,-9.494235675487E-02,2.));
#1068 = CARTESIAN_POINT('',(-3.93,0.,2.));
#1069 = PCURVE('',#433,#1070);
#1070 = DEFINITIONAL_REPRESENTATION('',(#1071),#1174);
#1071 = B_SPLINE_CURVE_WITH_KNOTS('',6,(#1072,#1073,#1074,#1075,#1076,
    #1077,#1078,#1079,#1080,#1081,#1082,#1083,#1084,#1085,#1086,#1087,
    #1088,#1089,#1090,#1091,#1092,#1093,#1094,#1095,#1096,#1097,#1098,
    #1099,#1100,#1101,#1102,#1103,#1104,#1105,#1106,#1107,#1108,#1109,
    #1110,#1111,#1112,#1113,#1114,#1115,#1116,#1117,#1118,#1119,#1120,
    #1121,#1122,#1123,#1124,#1125,#1126,#1127,#1128,#1129,#1130,#1131,
    #1132,#1133,#1134,#1135,#1136,#1137,#1138,#1139,#1140,#1141,#1142,
    #1143,#1144,#1145,#1146,#1147,#1148,#1149,#1150,#1151,#1152,#1153,
    #1154,#1155,#1156,#1157,#1158,#1159,#1160,#1161,#1162,#1163,#1164,
    #1165,#1166,#1167,#1168,#1169,#1170,#1171,#1172,#1173),
  .UNSPECIFIED.,.F.,.F.,(7,5,5,5,5,5,5,5,5,5,5,5,5,5,5,5,5,5,5,5,7),(0.,
    6.350294182255E-02,8.826613385843E-02,0.143823261642,0.198955094835,
    0.249669874932,0.300612531022,0.355439998892,0.410787608112,
    0.458848081463,0.499400805209,0.563064371801,0.587890202869,
    0.643587869571,0.698859165846,0.74970223552,0.800773757628,
    0.855739918649,0.911227536785,0.93634124798,1.),.UNSPECIFIED.);
#1072 = CARTESIAN_POINT('',(0.,2.));
#1073 = CARTESIAN_POINT('',(7.535481167162E-02,2.));
#1074 = CARTESIAN_POINT('',(0.150335784538,1.994590875055));
#1075 = CARTESIAN_POINT('',(0.224641063391,1.983874287126));
#1076 = CARTESIAN_POINT('',(0.297950044836,1.968350150411));
#1077 = CARTESIAN_POINT('',(0.369869555831,1.948910463791));
#1078 = CARTESIAN_POINT('',(0.46710154815,1.918044101151));
#1079 = CARTESIAN_POINT('',(0.494147413657,1.908942619643));
#1080 = CARTESIAN_POINT('',(0.520968823602,1.899449223709));
#1081 = CARTESIAN_POINT('',(0.547573172957,1.889614050751));
#1082 = CARTESIAN_POINT('',(0.573966996083,1.879487411354));
#1083 = CARTESIAN_POINT('',(0.658911881036,1.845859649684));
#1084 = CARTESIAN_POINT('',(0.716626157823,1.821390644056));
#1085 = CARTESIAN_POINT('',(0.773486094949,1.796233027458));
#1086 = CARTESIAN_POINT('',(0.829655105995,1.770885683139));
#1087 = CARTESIAN_POINT('',(0.885294130402,1.745834186809));
#1088 = CARTESIAN_POINT('',(0.995448715406,1.697469384635));
#1089 = CARTESIAN_POINT('',(1.05003016913,1.67411786149));
#1090 = CARTESIAN_POINT('',(1.104426219979,1.652008387502));
#1091 = CARTESIAN_POINT('',(1.158747250009,1.631646524291));
#1092 = CARTESIAN_POINT('',(1.213121053632,1.61351896668));
#1093 = CARTESIAN_POINT('',(1.317903661215,1.583864918066));
#1094 = CARTESIAN_POINT('',(1.368312915647,1.571916690605));
#1095 = CARTESIAN_POINT('',(1.41882928886,1.56264180032));
#1096 = CARTESIAN_POINT('',(1.469418402709,1.55634609508));
#1097 = CARTESIAN_POINT('',(1.520072737828,1.553190265228));
#1098 = CARTESIAN_POINT('',(1.621747831335,1.553190265228));
#1099 = CARTESIAN_POINT('',(1.672628616906,1.556374518137));
#1100 = CARTESIAN_POINT('',(1.723443313556,1.562726660521));
#1101 = CARTESIAN_POINT('',(1.77418469755,1.572083186278));
#1102 = CARTESIAN_POINT('',(1.824818200346,1.584133043622));
#1103 = CARTESIAN_POINT('',(1.929517720956,1.613871845526));
#1104 = CARTESIAN_POINT('',(1.983590444356,1.631932198887));
#1105 = CARTESIAN_POINT('',(2.037611869959,1.652196667135));
#1106 = CARTESIAN_POINT('',(2.091707802717,1.67418654388));
#1107 = CARTESIAN_POINT('',(2.145987094522,1.697404828559));
#1108 = CARTESIAN_POINT('',(2.255625252412,1.745534265969));
#1109 = CARTESIAN_POINT('',(2.311049752896,1.770485648034));
#1110 = CARTESIAN_POINT('',(2.366998664105,1.795735131737));
#1111 = CARTESIAN_POINT('',(2.423631180752,1.820802665033));
#1112 = CARTESIAN_POINT('',(2.481108847308,1.845195162623));
#1113 = CARTESIAN_POINT('',(2.5904209718,1.888546994304));
#1114 = CARTESIAN_POINT('',(2.642065520299,1.907824035901));
#1115 = CARTESIAN_POINT('',(2.694531218872,1.925830758409));
#1116 = CARTESIAN_POINT('',(2.747818758577,1.942177836108));
#1117 = CARTESIAN_POINT('',(2.801947536484,1.956497247956));
#1118 = CARTESIAN_POINT('',(2.903369010188,1.978542873318));
#1119 = CARTESIAN_POINT('',(2.950394370388,1.986946586715));
#1120 = CARTESIAN_POINT('',(2.997865170686,1.993423879028));
#1121 = CARTESIAN_POINT('',(3.045640748939,1.997805470116));
#1122 = CARTESIAN_POINT('',(3.093592784524,2.));
#1123 = CARTESIAN_POINT('',(3.216947465261,2.));
#1124 = CARTESIAN_POINT('',(3.291928438128,1.994590875055));
#1125 = CARTESIAN_POINT('',(3.366233716981,1.983874287126));
#1126 = CARTESIAN_POINT('',(3.439542698426,1.968350150411));
#1127 = CARTESIAN_POINT('',(3.51146220942,1.948910463791));
#1128 = CARTESIAN_POINT('',(3.608694204869,1.918044100158));
#1129 = CARTESIAN_POINT('',(3.63574006654,1.908942619993));
#1130 = CARTESIAN_POINT('',(3.662561474156,1.899449224796));
#1131 = CARTESIAN_POINT('',(3.689165825578,1.889614051009));
#1132 = CARTESIAN_POINT('',(3.715559652474,1.879487410245));
#1133 = CARTESIAN_POINT('',(3.800504534626,1.845859649684));
#1134 = CARTESIAN_POINT('',(3.858218811413,1.821390644056));
#1135 = CARTESIAN_POINT('',(3.915078748539,1.796233027458));
#1136 = CARTESIAN_POINT('',(3.971247759585,1.770885683139));
#1137 = CARTESIAN_POINT('',(4.026886783991,1.745834186809));
#1138 = CARTESIAN_POINT('',(4.137041368996,1.697469384635));
#1139 = CARTESIAN_POINT('',(4.19162282272,1.67411786149));
#1140 = CARTESIAN_POINT('',(4.246018873569,1.652008387501));
#1141 = CARTESIAN_POINT('',(4.300339903599,1.631646524291));
#1142 = CARTESIAN_POINT('',(4.354713707222,1.61351896668));
#1143 = CARTESIAN_POINT('',(4.459496314805,1.583864918066));
#1144 = CARTESIAN_POINT('',(4.509905569237,1.571916690605));
#1145 = CARTESIAN_POINT('',(4.56042194245,1.56264180032));
#1146 = CARTESIAN_POINT('',(4.611011056298,1.55634609508));
#1147 = CARTESIAN_POINT('',(4.661665391418,1.553190265228));
#1148 = CARTESIAN_POINT('',(4.763340484925,1.553190265228));
#1149 = CARTESIAN_POINT('',(4.814221270495,1.556374518137));
#1150 = CARTESIAN_POINT('',(4.865035967147,1.562726660521));
#1151 = CARTESIAN_POINT('',(4.915777351139,1.572083186278));
#1152 = CARTESIAN_POINT('',(4.966410853936,1.584133043622));
#1153 = CARTESIAN_POINT('',(5.071110374546,1.613871845526));
#1154 = CARTESIAN_POINT('',(5.125183097946,1.631932198887));
#1155 = CARTESIAN_POINT('',(5.179204523549,1.652196667135));
#1156 = CARTESIAN_POINT('',(5.233300456306,1.67418654388));
#1157 = CARTESIAN_POINT('',(5.287579748111,1.697404828559));
#1158 = CARTESIAN_POINT('',(5.397217906001,1.745534265969));
#1159 = CARTESIAN_POINT('',(5.452642406485,1.770485648034));
#1160 = CARTESIAN_POINT('',(5.508591317695,1.795735131737));
#1161 = CARTESIAN_POINT('',(5.565223834342,1.820802665033));
#1162 = CARTESIAN_POINT('',(5.622701500898,1.845195162623));
#1163 = CARTESIAN_POINT('',(5.707689741244,1.878900443784));
#1164 = CARTESIAN_POINT('',(5.734379510626,1.889158031897));
#1165 = CARTESIAN_POINT('',(5.761284384786,1.899119116084));
#1166 = CARTESIAN_POINT('',(5.788411182891,1.90873164632));
#1167 = CARTESIAN_POINT('',(5.815767625722,1.917943744416));
#1168 = CARTESIAN_POINT('',(5.913309974416,1.9489086299));
#1169 = CARTESIAN_POINT('',(5.985230246454,1.968349130032));
#1170 = CARTESIAN_POINT('',(6.058542870376,1.983874503413));
#1171 = CARTESIAN_POINT('',(6.132851868526,1.994591415585));
#1172 = CARTESIAN_POINT('',(6.20783423039,2.));
#1173 = CARTESIAN_POINT('',(6.28318530718,2.));
#1174 = ( GEOMETRIC_REPRESENTATION_CONTEXT(2) 
PARAMETRIC_REPRESENTATION_CONTEXT() REPRESENTATION_CONTEXT('2D SPACE',''
  ) );
#1175 = PCURVE('',#535,#1176);
#1176 = DEFINITIONAL_REPRESENTATION('',(#1177),#1280);
#1177 = B_SPLINE_CURVE_WITH_KNOTS('',6,(#1178,#1179,#1180,#1181,#1182,
    #1183,#1184,#1185,#1186,#1187,#1188,#1189,#1190,#1191,#1192,#1193,
    #1194,#1195,#1196,#1197,#1198,#1199,#1200,#1201,#1202,#1203,#1204,
    #1205,#1206,#1207,#1208,#1209,#1210,#1211,#1212,#1213,#1214,#1215,
    #1216,#1217,#1218,#1219,#1220,#1221,#1222,#1223,#1224,#1225,#1226,
    #1227,#1228,#1229,#1230,#1231,#1232,#1233,#1234,#1235,#1236,#1237,
    #1238,#1239,#1240,#1241,#1242,#1243,#1244,#1245,#1246,#1247,#1248,
    #1249,#1250,#1251,#1252,#1253,#1254,#1255,#1256,#1257,#1258,#1259,
    #1260,#1261,#1262,#1263,#1264,#1265,#1266,#1267,#1268,#1269,#1270,
    #1271,#1272,#1273,#1274,#1275,#1276,#1277,#1278,#1279),
  .UNSPECIFIED.,.T.,.F.,(7,5,5,5,5,5,5,5,5,5,5,5,5,5,5,5,5,5,5,5,7),(0.,
    6.350294182255E-02,8.826613385843E-02,0.143823261642,0.198955094835,
    0.249669874932,0.300612531022,0.355439998892,0.410787608112,
    0.458848081463,0.499400805209,0.563064371801,0.587890202869,
    0.643587869571,0.698859165846,0.74970223552,0.800773757628,
    0.855739918649,0.911227536785,0.93634124798,1.),.UNSPECIFIED.);
#1178 = CARTESIAN_POINT('',(3.14159265359,8.61));
#1179 = CARTESIAN_POINT('',(3.094119122237,8.61));
#1180 = CARTESIAN_POINT('',(3.046880956679,8.601414353593));
#1181 = CARTESIAN_POINT('',(3.00036201523,8.584402644154));
#1182 = CARTESIAN_POINT('',(2.955038778245,8.559499618609));
#1183 = CARTESIAN_POINT('',(2.911419358136,8.527610827974));
#1184 = CARTESIAN_POINT('',(2.853884589085,8.475447623277));
#1185 = CARTESIAN_POINT('',(2.838042419859,8.45992002288));
#1186 = CARTESIAN_POINT('',(2.822506763675,8.443546883916));
#1187 = CARTESIAN_POINT('',(2.807285198695,8.426374583655));
#1188 = CARTESIAN_POINT('',(2.792385661989,8.408448277638));
#1189 = CARTESIAN_POINT('',(2.74512988807,8.348000503548));
#1190 = CARTESIAN_POINT('',(2.71411180105,8.302623249902));
#1191 = CARTESIAN_POINT('',(2.684787231112,8.254090432579));
#1192 = CARTESIAN_POINT('',(2.657206007949,8.202735922545));
#1193 = CARTESIAN_POINT('',(2.631442504823,8.148821223067));
#1194 = CARTESIAN_POINT('',(2.583930837,8.036688667918));
#1195 = CARTESIAN_POINT('',(2.562127542268,7.978444658684));
#1196 = CARTESIAN_POINT('',(2.542322525226,7.918062591137));
#1197 = CARTESIAN_POINT('',(2.524668605533,7.855759007622));
#1198 = CARTESIAN_POINT('',(2.50933161306,7.791715510861));
#1199 = CARTESIAN_POINT('',(2.484672609949,7.665707637582));
#1200 = CARTESIAN_POINT('',(2.47495960455,7.603949669104));
#1201 = CARTESIAN_POINT('',(2.467540694812,7.541182272351));
#1202 = CARTESIAN_POINT('',(2.462544059708,7.477736238816));
#1203 = CARTESIAN_POINT('',(2.460039442027,7.413911722098));
#1204 = CARTESIAN_POINT('',(2.460039442027,7.28580110428));
#1205 = CARTESIAN_POINT('',(2.462566617385,7.221691258443));
#1206 = CARTESIAN_POINT('',(2.467608045312,7.157965005787));
#1207 = CARTESIAN_POINT('',(2.475092790868,7.094925977301));
#1208 = CARTESIAN_POINT('',(2.484890592657,7.032909079186));
#1209 = CARTESIAN_POINT('',(2.509630550065,6.907054444456));
#1210 = CARTESIAN_POINT('',(2.524917392606,6.843391298407));
#1211 = CARTESIAN_POINT('',(2.542493664309,6.781451436416));
#1212 = CARTESIAN_POINT('',(2.562196378333,6.721413371346));
#1213 = CARTESIAN_POINT('',(2.583875381378,6.663489792249));
#1214 = CARTESIAN_POINT('',(2.631139904717,6.551845318018));
#1215 = CARTESIAN_POINT('',(2.656786303883,6.498107509291));
#1216 = CARTESIAN_POINT('',(2.684237561734,6.446908546672));
#1217 = CARTESIAN_POINT('',(2.713419940156,6.398506461779));
#1218 = CARTESIAN_POINT('',(2.744283895061,6.353230483882));
#1219 = CARTESIAN_POINT('',(2.805043025013,6.275235936802));
#1220 = CARTESIAN_POINT('',(2.834566228516,6.241603935132));
#1221 = CARTESIAN_POINT('',(2.865282961781,6.210970752399));
#1222 = CARTESIAN_POINT('',(2.89710615269,6.183703550136));
#1223 = CARTESIAN_POINT('',(2.929953161529,6.160160803326));
#1224 = CARTESIAN_POINT('',(2.992260525723,6.124275802543));
#1225 = CARTESIAN_POINT('',(3.021439511226,6.110763573855));
#1226 = CARTESIAN_POINT('',(3.051119870788,6.10043765224));
#1227 = CARTESIAN_POINT('',(3.081143021766,6.093483741796));
#1228 = CARTESIAN_POINT('',(3.111352736078,6.09));
#1229 = CARTESIAN_POINT('',(3.189066184943,6.09));
#1230 = CARTESIAN_POINT('',(3.236304350501,6.098585646407));
#1231 = CARTESIAN_POINT('',(3.282823291949,6.115597355846));
#1232 = CARTESIAN_POINT('',(3.328146528935,6.140500381391));
#1233 = CARTESIAN_POINT('',(3.371765949043,6.172389172026));
#1234 = CARTESIAN_POINT('',(3.429300719946,6.224552378402));
#1235 = CARTESIAN_POINT('',(3.445142886959,6.240079976461));
#1236 = CARTESIAN_POINT('',(3.460678541763,6.256453114183));
#1237 = CARTESIAN_POINT('',(3.475900107888,6.273625415938));
#1238 = CARTESIAN_POINT('',(3.490799646749,6.291551724355));
#1239 = CARTESIAN_POINT('',(3.53805541911,6.351999496452));
#1240 = CARTESIAN_POINT('',(3.569073506129,6.397376750098));
#1241 = CARTESIAN_POINT('',(3.598398076068,6.445909567421));
#1242 = CARTESIAN_POINT('',(3.62597929923,6.497264077455));
#1243 = CARTESIAN_POINT('',(3.651742802357,6.551178776933));
#1244 = CARTESIAN_POINT('',(3.69925447018,6.663311332082));
#1245 = CARTESIAN_POINT('',(3.721057764911,6.721555341316));
#1246 = CARTESIAN_POINT('',(3.740862781954,6.781937408863));
#1247 = CARTESIAN_POINT('',(3.758516701647,6.844240992378));
#1248 = CARTESIAN_POINT('',(3.773853694119,6.908284489139));
#1249 = CARTESIAN_POINT('',(3.79851269723,7.034292362419));
#1250 = CARTESIAN_POINT('',(3.808225702629,7.096050330895));
#1251 = CARTESIAN_POINT('',(3.815644612367,7.158817727649));
#1252 = CARTESIAN_POINT('',(3.820641247472,7.222263761184));
#1253 = CARTESIAN_POINT('',(3.823145865153,7.286088277902));
#1254 = CARTESIAN_POINT('',(3.823145865153,7.41419889572));
#1255 = CARTESIAN_POINT('',(3.820618689795,7.478308741557));
#1256 = CARTESIAN_POINT('',(3.815577261867,7.542034994213));
#1257 = CARTESIAN_POINT('',(3.808092516312,7.605074022698));
#1258 = CARTESIAN_POINT('',(3.798294714523,7.667090920814));
#1259 = CARTESIAN_POINT('',(3.773554757114,7.792945555544));
#1260 = CARTESIAN_POINT('',(3.758267914573,7.856608701593));
#1261 = CARTESIAN_POINT('',(3.74069164287,7.918548563584));
#1262 = CARTESIAN_POINT('',(3.720988928846,7.978586628654));
#1263 = CARTESIAN_POINT('',(3.699309925801,8.036510207751));
#1264 = CARTESIAN_POINT('',(3.652045402463,8.148154681982));
#1265 = CARTESIAN_POINT('',(3.626399003297,8.201892490709));
#1266 = CARTESIAN_POINT('',(3.598947745445,8.253091453328));
#1267 = CARTESIAN_POINT('',(3.569765367024,8.301493538221));
#1268 = CARTESIAN_POINT('',(3.538901412119,8.346769516118));
#1269 = CARTESIAN_POINT('',(3.491662264919,8.407408894812));
#1270 = CARTESIAN_POINT('',(3.476605196275,8.425578205279));
#1271 = CARTESIAN_POINT('',(3.461218366967,8.442977484134));
#1272 = CARTESIAN_POINT('',(3.445509961125,8.459560074103));
#1273 = CARTESIAN_POINT('',(3.429487782623,8.475278023477));
#1274 = CARTESIAN_POINT('',(3.371769367409,8.527607728754));
#1275 = CARTESIAN_POINT('',(3.328149663852,8.559498036979));
#1276 = CARTESIAN_POINT('',(3.282824208201,8.584403007325));
#1277 = CARTESIAN_POINT('',(3.236302868681,8.601415202893));
#1278 = CARTESIAN_POINT('',(3.189063831967,8.61));
#1279 = CARTESIAN_POINT('',(3.14159265359,8.61));
#1280 = ( GEOMETRIC_REPRESENTATION_CONTEXT(2) 
PARAMETRIC_REPRESENTATION_CONTEXT() REPRESENTATION_CONTEXT('2D SPACE',''
  ) );
#1281 = ORIENTED_EDGE('',*,*,#941,.T.);
#1282 = ADVANCED_FACE('',(#1283,#1345),#535,.F.);
#1283 = FACE_BOUND('',#1284,.F.);
#1284 = EDGE_LOOP('',(#1285,#1314,#1335,#1336,#1337,#1338,#1339,#1340,
    #1341,#1342,#1343,#1344));
#1285 = ORIENTED_EDGE('',*,*,#1286,.T.);
#1286 = EDGE_CURVE('',#1287,#1287,#1289,.T.);
#1287 = VERTEX_POINT('',#1288);
#1288 = CARTESIAN_POINT('',(-11.54,-4.898587196589E-16,-2.));
#1289 = SURFACE_CURVE('',#1290,(#1295,#1302),.PCURVE_S1.);
#1290 = CIRCLE('',#1291,2.);
#1291 = AXIS2_PLACEMENT_3D('',#1292,#1293,#1294);
#1292 = CARTESIAN_POINT('',(-11.54,0.,2.22044604925E-16));
#1293 = DIRECTION('',(1.,0.,2.22044604925E-16));
#1294 = DIRECTION('',(2.22044604925E-16,0.,-1.));
#1295 = PCURVE('',#535,#1296);
#1296 = DEFINITIONAL_REPRESENTATION('',(#1297),#1301);
#1297 = LINE('',#1298,#1299);
#1298 = CARTESIAN_POINT('',(0.,1.));
#1299 = VECTOR('',#1300,1.);
#1300 = DIRECTION('',(1.,0.));
#1301 = ( GEOMETRIC_REPRESENTATION_CONTEXT(2) 
PARAMETRIC_REPRESENTATION_CONTEXT() REPRESENTATION_CONTEXT('2D SPACE',''
  ) );
#1302 = PCURVE('',#1303,#1308);
#1303 = PLANE('',#1304);
#1304 = AXIS2_PLACEMENT_3D('',#1305,#1306,#1307);
#1305 = CARTESIAN_POINT('',(-11.54,0.,0.));
#1306 = DIRECTION('',(1.,0.,2.22044604925E-16));
#1307 = DIRECTION('',(2.22044604925E-16,0.,-1.));
#1308 = DEFINITIONAL_REPRESENTATION('',(#1309),#1313);
#1309 = CIRCLE('',#1310,2.);
#1310 = AXIS2_PLACEMENT_2D('',#1311,#1312);
#1311 = CARTESIAN_POINT('',(-2.22044604925E-16,0.));
#1312 = DIRECTION('',(1.,0.));
#1313 = ( GEOMETRIC_REPRESENTATION_CONTEXT(2) 
PARAMETRIC_REPRESENTATION_CONTEXT() REPRESENTATION_CONTEXT('2D SPACE',''
  ) );
#1314 = ORIENTED_EDGE('',*,*,#1315,.T.);
#1315 = EDGE_CURVE('',#1287,#519,#1316,.T.);
#1316 = SEAM_CURVE('',#1317,(#1321,#1328),.PCURVE_S1.);
#1317 = LINE('',#1318,#1319);
#1318 = CARTESIAN_POINT('',(-12.54,-4.898587196589E-16,-2.));
#1319 = VECTOR('',#1320,1.);
#1320 = DIRECTION('',(1.,0.,2.22044604925E-16));
#1321 = PCURVE('',#535,#1322);
#1322 = DEFINITIONAL_REPRESENTATION('',(#1323),#1327);
#1323 = LINE('',#1324,#1325);
#1324 = CARTESIAN_POINT('',(0.,-0.));
#1325 = VECTOR('',#1326,1.);
#1326 = DIRECTION('',(0.,1.));
#1327 = ( GEOMETRIC_REPRESENTATION_CONTEXT(2) 
PARAMETRIC_REPRESENTATION_CONTEXT() REPRESENTATION_CONTEXT('2D SPACE',''
  ) );
#1328 = PCURVE('',#535,#1329);
#1329 = DEFINITIONAL_REPRESENTATION('',(#1330),#1334);
#1330 = LINE('',#1331,#1332);
#1331 = CARTESIAN_POINT('',(6.28318530718,-0.));
#1332 = VECTOR('',#1333,1.);
#1333 = DIRECTION('',(0.,1.));
#1334 = ( GEOMETRIC_REPRESENTATION_CONTEXT(2) 
PARAMETRIC_REPRESENTATION_CONTEXT() REPRESENTATION_CONTEXT('2D SPACE',''
  ) );
#1335 = ORIENTED_EDGE('',*,*,#547,.F.);
#1336 = ORIENTED_EDGE('',*,*,#883,.F.);
#1337 = ORIENTED_EDGE('',*,*,#855,.F.);
#1338 = ORIENTED_EDGE('',*,*,#808,.T.);
#1339 = ORIENTED_EDGE('',*,*,#758,.F.);
#1340 = ORIENTED_EDGE('',*,*,#691,.F.);
#1341 = ORIENTED_EDGE('',*,*,#663,.F.);
#1342 = ORIENTED_EDGE('',*,*,#616,.T.);
#1343 = ORIENTED_EDGE('',*,*,#518,.F.);
#1344 = ORIENTED_EDGE('',*,*,#1315,.F.);
#1345 = FACE_BOUND('',#1346,.F.);
#1346 = EDGE_LOOP('',(#1347));
#1347 = ORIENTED_EDGE('',*,*,#964,.F.);
#1348 = ADVANCED_FACE('',(#1349),#925,.T.);
#1349 = FACE_BOUND('',#1350,.T.);
#1350 = EDGE_LOOP('',(#1351,#1352,#1375,#1397));
#1351 = ORIENTED_EDGE('',*,*,#908,.F.);
#1352 = ORIENTED_EDGE('',*,*,#1353,.F.);
#1353 = EDGE_CURVE('',#1354,#909,#1356,.T.);
#1354 = VERTEX_POINT('',#1355);
#1355 = CARTESIAN_POINT('',(-11.54,-1.224646799147E-15,-5.));
#1356 = SEAM_CURVE('',#1357,(#1361,#1368),.PCURVE_S1.);
#1357 = LINE('',#1358,#1359);
#1358 = CARTESIAN_POINT('',(-11.54,-1.224646799147E-15,-5.));
#1359 = VECTOR('',#1360,1.);
#1360 = DIRECTION('',(1.,0.,2.22044604925E-16));
#1361 = PCURVE('',#925,#1362);
#1362 = DEFINITIONAL_REPRESENTATION('',(#1363),#1367);
#1363 = LINE('',#1364,#1365);
#1364 = CARTESIAN_POINT('',(6.28318530718,-0.));
#1365 = VECTOR('',#1366,1.);
#1366 = DIRECTION('',(0.,1.));
#1367 = ( GEOMETRIC_REPRESENTATION_CONTEXT(2) 
PARAMETRIC_REPRESENTATION_CONTEXT() REPRESENTATION_CONTEXT('2D SPACE',''
  ) );
#1368 = PCURVE('',#925,#1369);
#1369 = DEFINITIONAL_REPRESENTATION('',(#1370),#1374);
#1370 = LINE('',#1371,#1372);
#1371 = CARTESIAN_POINT('',(0.,-0.));
#1372 = VECTOR('',#1373,1.);
#1373 = DIRECTION('',(0.,1.));
#1374 = ( GEOMETRIC_REPRESENTATION_CONTEXT(2) 
PARAMETRIC_REPRESENTATION_CONTEXT() REPRESENTATION_CONTEXT('2D SPACE',''
  ) );
#1375 = ORIENTED_EDGE('',*,*,#1376,.T.);
#1376 = EDGE_CURVE('',#1354,#1354,#1377,.T.);
#1377 = SURFACE_CURVE('',#1378,(#1383,#1390),.PCURVE_S1.);
#1378 = CIRCLE('',#1379,5.);
#1379 = AXIS2_PLACEMENT_3D('',#1380,#1381,#1382);
#1380 = CARTESIAN_POINT('',(-11.54,0.,0.));
#1381 = DIRECTION('',(1.,-0.,2.22044604925E-16));
#1382 = DIRECTION('',(2.22044604925E-16,0.,-1.));
#1383 = PCURVE('',#925,#1384);
#1384 = DEFINITIONAL_REPRESENTATION('',(#1385),#1389);
#1385 = LINE('',#1386,#1387);
#1386 = CARTESIAN_POINT('',(0.,0.));
#1387 = VECTOR('',#1388,1.);
#1388 = DIRECTION('',(1.,0.));
#1389 = ( GEOMETRIC_REPRESENTATION_CONTEXT(2) 
PARAMETRIC_REPRESENTATION_CONTEXT() REPRESENTATION_CONTEXT('2D SPACE',''
  ) );
#1390 = PCURVE('',#1303,#1391);
#1391 = DEFINITIONAL_REPRESENTATION('',(#1392),#1396);
#1392 = CIRCLE('',#1393,5.);
#1393 = AXIS2_PLACEMENT_2D('',#1394,#1395);
#1394 = CARTESIAN_POINT('',(0.,0.));
#1395 = DIRECTION('',(1.,0.));
#1396 = ( GEOMETRIC_REPRESENTATION_CONTEXT(2) 
PARAMETRIC_REPRESENTATION_CONTEXT() REPRESENTATION_CONTEXT('2D SPACE',''
  ) );
#1397 = ORIENTED_EDGE('',*,*,#1353,.T.);
#1398 = ADVANCED_FACE('',(#1399,#1402),#1303,.F.);
#1399 = FACE_BOUND('',#1400,.F.);
#1400 = EDGE_LOOP('',(#1401));
#1401 = ORIENTED_EDGE('',*,*,#1376,.T.);
#1402 = FACE_BOUND('',#1403,.F.);
#1403 = EDGE_LOOP('',(#1404));
#1404 = ORIENTED_EDGE('',*,*,#1286,.F.);
#1405 = ( GEOMETRIC_REPRESENTATION_CONTEXT(3) 
GLOBAL_UNCERTAINTY_ASSIGNED_CONTEXT((#1409)) 
GLOBAL_UNIT_ASSIGNED_CONTEXT((#1406,#1407,#1408)) REPRESENTATION_CONTEXT
('Context #1','3D Context with UNIT and UNCERTAINTY') );
#1406 = ( LENGTH_UNIT() NAMED_UNIT(*) SI_UNIT(.MILLI.,.METRE.) );
#1407 = ( NAMED_UNIT(*) PLANE_ANGLE_UNIT() SI_UNIT($,.RADIAN.) );
#1408 = ( NAMED_UNIT(*) SI_UNIT($,.STERADIAN.) SOLID_ANGLE_UNIT() );
#1409 = UNCERTAINTY_MEASURE_WITH_UNIT(LENGTH_MEASURE(1.E-07),#1406,
  'distance_accuracy_value','confusion accuracy');
#1410 = PRODUCT_RELATED_PRODUCT_CATEGORY('part',$,(#7));
ENDSEC;
END-ISO-10303-21;
