ISO-10303-21;
HEADER;
FILE_DESCRIPTION(('Open CASCADE Model'),'2;1');
FILE_NAME('Open CASCADE Shape Model','2026-10-03T21:07:03',('Author'),(
    'Open CASCADE'),'Open CASCADE STEP processor 7.9','build123d',
  'Unknown');
FILE_SCHEMA(('AUTOMOTIVE_DESIGN { 1 0 10303 214 1 1 1 1 }'));
ENDSEC;
DATA;
#1 = APPLICATION_PROTOCOL_DEFINITION('international standard',
  'automotive_design',2000,#2);
#2 = APPLICATION_CONTEXT(
  'core data for automotive mechanical design processes');
#3 = SHAPE_DEFINITION_REPRESENTATION(#4,#10);
#4 = PRODUCT_DEFINITION_SHAPE('','',#5);
#5 = PRODUCT_DEFINITION('design','',#6,#9);
#6 = PRODUCT_DEFINITION_FORMATION('','',#7);
#7 = PRODUCT('COMPOUND','COMPOUND','',(#8));
#8 = PRODUCT_CONTEXT('',#2,'mechanical');
#9 = PRODUCT_DEFINITION_CONTEXT('part definition',#2,'design');
#10 = ADVANCED_BREP_SHAPE_REPRESENTATION('',(#11,#15),#1405);
#11 = AXIS2_PLACEMENT_3D('',#12,#13,#14);
#12 = CARTESIAN_POINT('',(0.,0.,0.));
#13 = DIRECTION('',(0.,0.,1.));
#14 = DIRECTION('',(1.,0.,-0.));
#15 = MANIFOLD_SOLID_BREP('',#16);
#16 = CLOSED_SHELL('',(#17,#491,#589,#636,#686,#731,#779,#826,#876,#901,
    #936,#1282,#1348,#1398));
#17 = ADVANCED_FACE('',(#18,#320),#33,.T.);
#18 = FACE_BOUND('',#19,.T.);
#19 = EDGE_LOOP('',(#20,#56,#79,#106,#107,#131,#157,#186,#212,#241,#267,
    #296));
#20 = ORIENTED_EDGE('',*,*,#21,.F.);
#21 = EDGE_CURVE('',#22,#24,#26,.T.);
#22 = VERTEX_POINT('',#23);
#23 = CARTESIAN_POINT('',(2.4,-1.518562030943E-15,-6.2));
#24 = VERTEX_POINT('',#25);
#25 = CARTESIAN_POINT('',(2.4,5.947898788648,-1.75));
#26 = SURFACE_CURVE('',#27,(#32,#44),.PCURVE_S1.);
#27 = CIRCLE('',#28,6.2);
#28 = AXIS2_PLACEMENT_3D('',#29,#30,#31);
#29 = CARTESIAN_POINT('',(2.4,0.,2.04281036531E-15));
#30 = DIRECTION('',(1.,-0.,2.22044604925E-16));
#31 = DIRECTION('',(2.22044604925E-16,0.,-1.));
#32 = PCURVE('',#33,#38);
#33 = CYLINDRICAL_SURFACE('',#34,6.2);
#34 = AXIS2_PLACEMENT_3D('',#35,#36,#37);
#35 = CARTESIAN_POINT('',(-6.8,0.,0.));
#36 = DIRECTION('',(1.,0.,2.22044604925E-16));
#37 = DIRECTION('',(2.22044604925E-16,0.,-1.));
#38 = DEFINITIONAL_REPRESENTATION('',(#39),#43);
#39 = LINE('',#40,#41);
#40 = CARTESIAN_POINT('',(0.,9.2));
#41 = VECTOR('',#42,1.);
#42 = DIRECTION('',(1.,0.));
#43 = ( GEOMETRIC_REPRESENTATION_CONTEXT(2) 
PARAMETRIC_REPRESENTATION_CONTEXT() REPRESENTATION_CONTEXT('2D SPACE',''
  ) );
#44 = PCURVE('',#45,#50);
#45 = PLANE('',#46);
#46 = AXIS2_PLACEMENT_3D('',#47,#48,#49);
#47 = CARTESIAN_POINT('',(2.4,0.,2.04281036531E-15));
#48 = DIRECTION('',(1.,0.,2.22044604925E-16));
#49 = DIRECTION('',(2.22044604925E-16,0.,-1.));
#50 = DEFINITIONAL_REPRESENTATION('',(#51),#55);
#51 = CIRCLE('',#52,6.2);
#52 = AXIS2_PLACEMENT_2D('',#53,#54);
#53 = CARTESIAN_POINT('',(0.,0.));
#54 = DIRECTION('',(1.,0.));
#55 = ( GEOMETRIC_REPRESENTATION_CONTEXT(2) 
PARAMETRIC_REPRESENTATION_CONTEXT() REPRESENTATION_CONTEXT('2D SPACE',''
  ) );
#56 = ORIENTED_EDGE('',*,*,#57,.F.);
#57 = EDGE_CURVE('',#58,#22,#60,.T.);
#58 = VERTEX_POINT('',#59);
#59 = CARTESIAN_POINT('',(-6.8,-1.518562030943E-15,-6.2));
#60 = SEAM_CURVE('',#61,(#65,#72),.PCURVE_S1.);
#61 = LINE('',#62,#63);
#62 = CARTESIAN_POINT('',(-6.8,-1.518562030943E-15,-6.2));
#63 = VECTOR('',#64,1.);
#64 = DIRECTION('',(1.,0.,2.22044604925E-16));
#65 = PCURVE('',#33,#66);
#66 = DEFINITIONAL_REPRESENTATION('',(#67),#71);
#67 = LINE('',#68,#69);
#68 = CARTESIAN_POINT('',(6.28318530718,-0.));
#69 = VECTOR('',#70,1.);
#70 = DIRECTION('',(0.,1.));
#71 = ( GEOMETRIC_REPRESENTATION_CONTEXT(2) 
PARAMETRIC_REPRESENTATION_CONTEXT() REPRESENTATION_CONTEXT('2D SPACE',''
  ) );
#72 = PCURVE('',#33,#73);
#73 = DEFINITIONAL_REPRESENTATION('',(#74),#78);
#74 = LINE('',#75,#76);
#75 = CARTESIAN_POINT('',(0.,-0.));
#76 = VECTOR('',#77,1.);
#77 = DIRECTION('',(0.,1.));
#78 = ( GEOMETRIC_REPRESENTATION_CONTEXT(2) 
PARAMETRIC_REPRESENTATION_CONTEXT() REPRESENTATION_CONTEXT('2D SPACE',''
  ) );
#79 = ORIENTED_EDGE('',*,*,#80,.T.);
#80 = EDGE_CURVE('',#58,#58,#81,.T.);
#81 = SURFACE_CURVE('',#82,(#87,#94),.PCURVE_S1.);
#82 = CIRCLE('',#83,6.2);
#83 = AXIS2_PLACEMENT_3D('',#84,#85,#86);
#84 = CARTESIAN_POINT('',(-6.8,0.,0.));
#85 = DIRECTION('',(1.,-0.,2.22044604925E-16));
#86 = DIRECTION('',(2.22044604925E-16,0.,-1.));
#87 = PCURVE('',#33,#88);
#88 = DEFINITIONAL_REPRESENTATION('',(#89),#93);
#89 = LINE('',#90,#91);
#90 = CARTESIAN_POINT('',(0.,0.));
#91 = VECTOR('',#92,1.);
#92 = DIRECTION('',(1.,0.));
#93 = ( GEOMETRIC_REPRESENTATION_CONTEXT(2) 
PARAMETRIC_REPRESENTATION_CONTEXT() REPRESENTATION_CONTEXT('2D SPACE',''
  ) );
#94 = PCURVE('',#95,#100);
#95 = PLANE('',#96);
#96 = AXIS2_PLACEMENT_3D('',#97,#98,#99);
#97 = CARTESIAN_POINT('',(-6.8,0.,0.));
#98 = DIRECTION('',(1.,0.,2.22044604925E-16));
#99 = DIRECTION('',(2.22044604925E-16,0.,-1.));
#100 = DEFINITIONAL_REPRESENTATION('',(#101),#105);
#101 = CIRCLE('',#102,6.2);
#102 = AXIS2_PLACEMENT_2D('',#103,#104);
#103 = CARTESIAN_POINT('',(0.,0.));
#104 = DIRECTION('',(1.,0.));
#105 = ( GEOMETRIC_REPRESENTATION_CONTEXT(2) 
PARAMETRIC_REPRESENTATION_CONTEXT() REPRESENTATION_CONTEXT('2D SPACE',''
  ) );
#106 = ORIENTED_EDGE('',*,*,#57,.T.);
#107 = ORIENTED_EDGE('',*,*,#108,.F.);
#108 = EDGE_CURVE('',#109,#22,#111,.T.);
#109 = VERTEX_POINT('',#110);
#110 = CARTESIAN_POINT('',(2.4,-5.947898788648,-1.75));
#111 = SURFACE_CURVE('',#112,(#117,#124),.PCURVE_S1.);
#112 = CIRCLE('',#113,6.2);
#113 = AXIS2_PLACEMENT_3D('',#114,#115,#116);
#114 = CARTESIAN_POINT('',(2.4,0.,2.04281036531E-15));
#115 = DIRECTION('',(1.,-0.,2.22044604925E-16));
#116 = DIRECTION('',(2.22044604925E-16,0.,-1.));
#117 = PCURVE('',#33,#118);
#118 = DEFINITIONAL_REPRESENTATION('',(#119),#123);
#119 = LINE('',#120,#121);
#120 = CARTESIAN_POINT('',(0.,9.2));
#121 = VECTOR('',#122,1.);
#122 = DIRECTION('',(1.,0.));
#123 = ( GEOMETRIC_REPRESENTATION_CONTEXT(2) 
PARAMETRIC_REPRESENTATION_CONTEXT() REPRESENTATION_CONTEXT('2D SPACE',''
  ) );
#124 = PCURVE('',#45,#125);
#125 = DEFINITIONAL_REPRESENTATION('',(#126),#130);
#126 = CIRCLE('',#127,6.2);
#127 = AXIS2_PLACEMENT_2D('',#128,#129);
#128 = CARTESIAN_POINT('',(0.,0.));
#129 = DIRECTION('',(1.,0.));
#130 = ( GEOMETRIC_REPRESENTATION_CONTEXT(2) 
PARAMETRIC_REPRESENTATION_CONTEXT() REPRESENTATION_CONTEXT('2D SPACE',''
  ) );
#131 = ORIENTED_EDGE('',*,*,#132,.F.);
#132 = EDGE_CURVE('',#133,#109,#135,.T.);
#133 = VERTEX_POINT('',#134);
#134 = CARTESIAN_POINT('',(0.1,-5.947898788648,-1.75));
#135 = SURFACE_CURVE('',#136,(#140,#146),.PCURVE_S1.);
#136 = LINE('',#137,#138);
#137 = CARTESIAN_POINT('',(-6.8,-5.947898788648,-1.75));
#138 = VECTOR('',#139,1.);
#139 = DIRECTION('',(1.,0.,2.22044604925E-16));
#140 = PCURVE('',#33,#141);
#141 = DEFINITIONAL_REPRESENTATION('',(#142),#145);
#142 = B_SPLINE_CURVE_WITH_KNOTS('',1,(#143,#144),.UNSPECIFIED.,.F.,.F.,
  (2,2),(6.57,9.2000006),.PIECEWISE_BEZIER_KNOTS.);
#143 = CARTESIAN_POINT('',(4.998536049696,6.57));
#144 = CARTESIAN_POINT('',(4.998536049696,9.2000006));
#145 = ( GEOMETRIC_REPRESENTATION_CONTEXT(2) 
PARAMETRIC_REPRESENTATION_CONTEXT() REPRESENTATION_CONTEXT('2D SPACE',''
  ) );
#146 = PCURVE('',#147,#152);
#147 = PLANE('',#148);
#148 = AXIS2_PLACEMENT_3D('',#149,#150,#151);
#149 = CARTESIAN_POINT('',(0.1,-12.4,-1.75));
#150 = DIRECTION('',(0.,0.,1.));
#151 = DIRECTION('',(1.,0.,-0.));
#152 = DEFINITIONAL_REPRESENTATION('',(#153),#156);
#153 = B_SPLINE_CURVE_WITH_KNOTS('',1,(#154,#155),.UNSPECIFIED.,.F.,.F.,
  (2,2),(6.57,9.2000006),.PIECEWISE_BEZIER_KNOTS.);
#154 = CARTESIAN_POINT('',(-0.33,6.452101211352));
#155 = CARTESIAN_POINT('',(2.3000006,6.452101211352));
#156 = ( GEOMETRIC_REPRESENTATION_CONTEXT(2) 
PARAMETRIC_REPRESENTATION_CONTEXT() REPRESENTATION_CONTEXT('2D SPACE',''
  ) );
#157 = ORIENTED_EDGE('',*,*,#158,.F.);
#158 = EDGE_CURVE('',#159,#133,#161,.T.);
#159 = VERTEX_POINT('',#160);
#160 = CARTESIAN_POINT('',(0.1,-5.947898788648,1.75));
#161 = SURFACE_CURVE('',#162,(#167,#174),.PCURVE_S1.);
#162 = CIRCLE('',#163,6.2);
#163 = AXIS2_PLACEMENT_3D('',#164,#165,#166);
#164 = CARTESIAN_POINT('',(0.1,0.,1.532107773983E-15));
#165 = DIRECTION('',(1.,0.,2.22044604925E-16));
#166 = DIRECTION('',(2.22044604925E-16,0.,-1.));
#167 = PCURVE('',#33,#168);
#168 = DEFINITIONAL_REPRESENTATION('',(#169),#173);
#169 = LINE('',#170,#171);
#170 = CARTESIAN_POINT('',(0.,6.9));
#171 = VECTOR('',#172,1.);
#172 = DIRECTION('',(1.,0.));
#173 = ( GEOMETRIC_REPRESENTATION_CONTEXT(2) 
PARAMETRIC_REPRESENTATION_CONTEXT() REPRESENTATION_CONTEXT('2D SPACE',''
  ) );
#174 = PCURVE('',#175,#180);
#175 = PLANE('',#176);
#176 = AXIS2_PLACEMENT_3D('',#177,#178,#179);
#177 = CARTESIAN_POINT('',(0.1,-12.4,-1.75));
#178 = DIRECTION('',(1.,0.,-0.));
#179 = DIRECTION('',(0.,0.,1.));
#180 = DEFINITIONAL_REPRESENTATION('',(#181),#185);
#181 = CIRCLE('',#182,6.2);
#182 = AXIS2_PLACEMENT_2D('',#183,#184);
#183 = CARTESIAN_POINT('',(1.75,-12.4));
#184 = DIRECTION('',(-1.,0.));
#185 = ( GEOMETRIC_REPRESENTATION_CONTEXT(2) 
PARAMETRIC_REPRESENTATION_CONTEXT() REPRESENTATION_CONTEXT('2D SPACE',''
  ) );
#186 = ORIENTED_EDGE('',*,*,#187,.T.);
#187 = EDGE_CURVE('',#159,#188,#190,.T.);
#188 = VERTEX_POINT('',#189);
#189 = CARTESIAN_POINT('',(2.4,-5.947898788648,1.75));
#190 = SURFACE_CURVE('',#191,(#195,#201),.PCURVE_S1.);
#191 = LINE('',#192,#193);
#192 = CARTESIAN_POINT('',(-6.8,-5.947898788648,1.75));
#193 = VECTOR('',#194,1.);
#194 = DIRECTION('',(1.,0.,2.22044604925E-16));
#195 = PCURVE('',#33,#196);
#196 = DEFINITIONAL_REPRESENTATION('',(#197),#200);
#197 = B_SPLINE_CURVE_WITH_KNOTS('',1,(#198,#199),.UNSPECIFIED.,.F.,.F.,
  (2,2),(6.57,9.2000006),.PIECEWISE_BEZIER_KNOTS.);
#198 = CARTESIAN_POINT('',(4.426241911073,6.57));
#199 = CARTESIAN_POINT('',(4.426241911073,9.2000006));
#200 = ( GEOMETRIC_REPRESENTATION_CONTEXT(2) 
PARAMETRIC_REPRESENTATION_CONTEXT() REPRESENTATION_CONTEXT('2D SPACE',''
  ) );
#201 = PCURVE('',#202,#207);
#202 = PLANE('',#203);
#203 = AXIS2_PLACEMENT_3D('',#204,#205,#206);
#204 = CARTESIAN_POINT('',(0.1,-12.4,1.75));
#205 = DIRECTION('',(0.,0.,1.));
#206 = DIRECTION('',(1.,0.,-0.));
#207 = DEFINITIONAL_REPRESENTATION('',(#208),#211);
#208 = B_SPLINE_CURVE_WITH_KNOTS('',1,(#209,#210),.UNSPECIFIED.,.F.,.F.,
  (2,2),(6.57,9.2000006),.PIECEWISE_BEZIER_KNOTS.);
#209 = CARTESIAN_POINT('',(-0.33,6.452101211352));
#210 = CARTESIAN_POINT('',(2.3000006,6.452101211352));
#211 = ( GEOMETRIC_REPRESENTATION_CONTEXT(2) 
PARAMETRIC_REPRESENTATION_CONTEXT() REPRESENTATION_CONTEXT('2D SPACE',''
  ) );
#212 = ORIENTED_EDGE('',*,*,#213,.F.);
#213 = EDGE_CURVE('',#214,#188,#216,.T.);
#214 = VERTEX_POINT('',#215);
#215 = CARTESIAN_POINT('',(2.4,5.947898788648,1.75));
#216 = SURFACE_CURVE('',#217,(#222,#229),.PCURVE_S1.);
#217 = CIRCLE('',#218,6.2);
#218 = AXIS2_PLACEMENT_3D('',#219,#220,#221);
#219 = CARTESIAN_POINT('',(2.4,0.,2.04281036531E-15));
#220 = DIRECTION('',(1.,-0.,2.22044604925E-16));
#221 = DIRECTION('',(2.22044604925E-16,0.,-1.));
#222 = PCURVE('',#33,#223);
#223 = DEFINITIONAL_REPRESENTATION('',(#224),#228);
#224 = LINE('',#225,#226);
#225 = CARTESIAN_POINT('',(0.,9.2));
#226 = VECTOR('',#227,1.);
#227 = DIRECTION('',(1.,0.));
#228 = ( GEOMETRIC_REPRESENTATION_CONTEXT(2) 
PARAMETRIC_REPRESENTATION_CONTEXT() REPRESENTATION_CONTEXT('2D SPACE',''
  ) );
#229 = PCURVE('',#230,#235);
#230 = PLANE('',#231);
#231 = AXIS2_PLACEMENT_3D('',#232,#233,#234);
#232 = CARTESIAN_POINT('',(2.4,0.,2.04281036531E-15));
#233 = DIRECTION('',(1.,0.,2.22044604925E-16));
#234 = DIRECTION('',(2.22044604925E-16,0.,-1.));
#235 = DEFINITIONAL_REPRESENTATION('',(#236),#240);
#236 = CIRCLE('',#237,6.2);
#237 = AXIS2_PLACEMENT_2D('',#238,#239);
#238 = CARTESIAN_POINT('',(0.,0.));
#239 = DIRECTION('',(1.,0.));
#240 = ( GEOMETRIC_REPRESENTATION_CONTEXT(2) 
PARAMETRIC_REPRESENTATION_CONTEXT() REPRESENTATION_CONTEXT('2D SPACE',''
  ) );
#241 = ORIENTED_EDGE('',*,*,#242,.F.);
#242 = EDGE_CURVE('',#243,#214,#245,.T.);
#243 = VERTEX_POINT('',#244);
#244 = CARTESIAN_POINT('',(0.1,5.947898788648,1.75));
#245 = SURFACE_CURVE('',#246,(#250,#256),.PCURVE_S1.);
#246 = LINE('',#247,#248);
#247 = CARTESIAN_POINT('',(-6.8,5.947898788648,1.75));
#248 = VECTOR('',#249,1.);
#249 = DIRECTION('',(1.,0.,2.22044604925E-16));
#250 = PCURVE('',#33,#251);
#251 = DEFINITIONAL_REPRESENTATION('',(#252),#255);
#252 = B_SPLINE_CURVE_WITH_KNOTS('',1,(#253,#254),.UNSPECIFIED.,.F.,.F.,
  (2,2),(6.57,9.2000006),.PIECEWISE_BEZIER_KNOTS.);
#253 = CARTESIAN_POINT('',(1.856943396106,6.57));
#254 = CARTESIAN_POINT('',(1.856943396106,9.2000006));
#255 = ( GEOMETRIC_REPRESENTATION_CONTEXT(2) 
PARAMETRIC_REPRESENTATION_CONTEXT() REPRESENTATION_CONTEXT('2D SPACE',''
  ) );
#256 = PCURVE('',#257,#262);
#257 = PLANE('',#258);
#258 = AXIS2_PLACEMENT_3D('',#259,#260,#261);
#259 = CARTESIAN_POINT('',(0.1,-12.4,1.75));
#260 = DIRECTION('',(0.,0.,1.));
#261 = DIRECTION('',(1.,0.,-0.));
#262 = DEFINITIONAL_REPRESENTATION('',(#263),#266);
#263 = B_SPLINE_CURVE_WITH_KNOTS('',1,(#264,#265),.UNSPECIFIED.,.F.,.F.,
  (2,2),(6.57,9.2000006),.PIECEWISE_BEZIER_KNOTS.);
#264 = CARTESIAN_POINT('',(-0.33,18.347898788648));
#265 = CARTESIAN_POINT('',(2.3000006,18.347898788648));
#266 = ( GEOMETRIC_REPRESENTATION_CONTEXT(2) 
PARAMETRIC_REPRESENTATION_CONTEXT() REPRESENTATION_CONTEXT('2D SPACE',''
  ) );
#267 = ORIENTED_EDGE('',*,*,#268,.F.);
#268 = EDGE_CURVE('',#269,#243,#271,.T.);
#269 = VERTEX_POINT('',#270);
#270 = CARTESIAN_POINT('',(0.1,5.947898788648,-1.75));
#271 = SURFACE_CURVE('',#272,(#277,#284),.PCURVE_S1.);
#272 = CIRCLE('',#273,6.2);
#273 = AXIS2_PLACEMENT_3D('',#274,#275,#276);
#274 = CARTESIAN_POINT('',(0.1,0.,1.532107773983E-15));
#275 = DIRECTION('',(1.,0.,2.22044604925E-16));
#276 = DIRECTION('',(2.22044604925E-16,0.,-1.));
#277 = PCURVE('',#33,#278);
#278 = DEFINITIONAL_REPRESENTATION('',(#279),#283);
#279 = LINE('',#280,#281);
#280 = CARTESIAN_POINT('',(0.,6.9));
#281 = VECTOR('',#282,1.);
#282 = DIRECTION('',(1.,0.));
#283 = ( GEOMETRIC_REPRESENTATION_CONTEXT(2) 
PARAMETRIC_REPRESENTATION_CONTEXT() REPRESENTATION_CONTEXT('2D SPACE',''
  ) );
#284 = PCURVE('',#285,#290);
#285 = PLANE('',#286);
#286 = AXIS2_PLACEMENT_3D('',#287,#288,#289);
#287 = CARTESIAN_POINT('',(0.1,-12.4,-1.75));
#288 = DIRECTION('',(1.,0.,-0.));
#289 = DIRECTION('',(0.,0.,1.));
#290 = DEFINITIONAL_REPRESENTATION('',(#291),#295);
#291 = CIRCLE('',#292,6.2);
#292 = AXIS2_PLACEMENT_2D('',#293,#294);
#293 = CARTESIAN_POINT('',(1.75,-12.4));
#294 = DIRECTION('',(-1.,0.));
#295 = ( GEOMETRIC_REPRESENTATION_CONTEXT(2) 
PARAMETRIC_REPRESENTATION_CONTEXT() REPRESENTATION_CONTEXT('2D SPACE',''
  ) );
#296 = ORIENTED_EDGE('',*,*,#297,.T.);
#297 = EDGE_CURVE('',#269,#24,#298,.T.);
#298 = SURFACE_CURVE('',#299,(#303,#309),.PCURVE_S1.);
#299 = LINE('',#300,#301);
#300 = CARTESIAN_POINT('',(-6.8,5.947898788648,-1.75));
#301 = VECTOR('',#302,1.);
#302 = DIRECTION('',(1.,0.,2.22044604925E-16));
#303 = PCURVE('',#33,#304);
#304 = DEFINITIONAL_REPRESENTATION('',(#305),#308);
#305 = B_SPLINE_CURVE_WITH_KNOTS('',1,(#306,#307),.UNSPECIFIED.,.F.,.F.,
  (2,2),(6.57,9.2000006),.PIECEWISE_BEZIER_KNOTS.);
#306 = CARTESIAN_POINT('',(1.284649257483,6.57));
#307 = CARTESIAN_POINT('',(1.284649257483,9.2000006));
#308 = ( GEOMETRIC_REPRESENTATION_CONTEXT(2) 
PARAMETRIC_REPRESENTATION_CONTEXT() REPRESENTATION_CONTEXT('2D SPACE',''
  ) );
#309 = PCURVE('',#310,#315);
#310 = PLANE('',#311);
#311 = AXIS2_PLACEMENT_3D('',#312,#313,#314);
#312 = CARTESIAN_POINT('',(0.1,-12.4,-1.75));
#313 = DIRECTION('',(0.,0.,1.));
#314 = DIRECTION('',(1.,0.,-0.));
#315 = DEFINITIONAL_REPRESENTATION('',(#316),#319);
#316 = B_SPLINE_CURVE_WITH_KNOTS('',1,(#317,#318),.UNSPECIFIED.,.F.,.F.,
  (2,2),(6.57,9.2000006),.PIECEWISE_BEZIER_KNOTS.);
#317 = CARTESIAN_POINT('',(-0.33,18.347898788648));
#318 = CARTESIAN_POINT('',(2.3000006,18.347898788648));
#319 = ( GEOMETRIC_REPRESENTATION_CONTEXT(2) 
PARAMETRIC_REPRESENTATION_CONTEXT() REPRESENTATION_CONTEXT('2D SPACE',''
  ) );
#320 = FACE_BOUND('',#321,.T.);
#321 = EDGE_LOOP('',(#322));
#322 = ORIENTED_EDGE('',*,*,#323,.F.);
#323 = EDGE_CURVE('',#324,#324,#326,.T.);
#324 = VERTEX_POINT('',#325);
#325 = CARTESIAN_POINT('',(-3.18,-3.086109933851E-16,6.2));
#326 = SURFACE_CURVE('',#327,(#378,#432),.PCURVE_S1.);
#327 = B_SPLINE_CURVE_WITH_KNOTS('',7,(#328,#329,#330,#331,#332,#333,
    #334,#335,#336,#337,#338,#339,#340,#341,#342,#343,#344,#345,#346,
    #347,#348,#349,#350,#351,#352,#353,#354,#355,#356,#357,#358,#359,
    #360,#361,#362,#363,#364,#365,#366,#367,#368,#369,#370,#371,#372,
    #373,#374,#375,#376,#377),.UNSPECIFIED.,.T.,.F.,(8,6,6,6,6,6,6,6,8),
  (0.,0.125350650637,0.250007087859,0.374661628061,0.499994632659,
    0.625351413682,0.750009079072,0.874674913751,1.),.UNSPECIFIED.);
#328 = CARTESIAN_POINT('',(-3.18,2.22044604925E-16,6.2));
#329 = CARTESIAN_POINT('',(-3.18,0.163861620495,6.2));
#330 = CARTESIAN_POINT('',(-3.204861538441,0.324442344763,6.194947244799
    ));
#331 = CARTESIAN_POINT('',(-3.252793657524,0.477250124664,6.185207515499
    ));
#332 = CARTESIAN_POINT('',(-3.321055847022,0.618349450029,6.171933487329
    ));
#333 = CARTESIAN_POINT('',(-3.405989613424,0.744547862053,6.156847182413
    ));
#334 = CARTESIAN_POINT('',(-3.503026364969,0.85369786367,6.141641519002)
  );
#335 = CARTESIAN_POINT('',(-3.709893311463,1.036075609844,6.113510723274
    ));
#336 = CARTESIAN_POINT('',(-3.821698475602,1.111305029331,6.100295053343
    ));
#337 = CARTESIAN_POINT('',(-3.939716977921,1.171048491517,6.088843014284
    ));
#338 = CARTESIAN_POINT('',(-4.062057067382,1.215598463383,6.079833676312
    ));
#339 = CARTESIAN_POINT('',(-4.187140405853,1.245199146967,6.073689769717
    ));
#340 = CARTESIAN_POINT('',(-4.313568063109,1.26,6.070617760986));
#341 = CARTESIAN_POINT('',(-4.566430012851,1.26,6.070617760986));
#342 = CARTESIAN_POINT('',(-4.692857246288,1.24519960702,6.073689672232)
  );
#343 = CARTESIAN_POINT('',(-4.817941399514,1.215599163673,6.079833536519
    ));
#344 = CARTESIAN_POINT('',(-4.940282944394,1.171048911602,6.088842933614
    ));
#345 = CARTESIAN_POINT('',(-5.058302814411,1.111304583689,6.100295171212
    ));
#346 = CARTESIAN_POINT('',(-5.170108242644,1.036074239714,6.113510934609
    ));
#347 = CARTESIAN_POINT('',(-5.376959049572,0.853710722481,6.141639535599
    ));
#348 = CARTESIAN_POINT('',(-5.47400198956,0.744561916357,6.156845472067)
  );
#349 = CARTESIAN_POINT('',(-5.558948468918,0.618351763444,6.17193391074)
  );
#350 = CARTESIAN_POINT('',(-5.627218405711,0.477233053259,6.185209959895
    ));
#351 = CARTESIAN_POINT('',(-5.67514789296,0.324409256535,6.194949165541)
  );
#352 = CARTESIAN_POINT('',(-5.7,0.163830540857,6.2));
#353 = CARTESIAN_POINT('',(-5.7,-0.163861620495,6.2));
#354 = CARTESIAN_POINT('',(-5.675138461559,-0.324442344763,
    6.194947244799));
#355 = CARTESIAN_POINT('',(-5.627206342476,-0.477250124663,
    6.185207515499));
#356 = CARTESIAN_POINT('',(-5.558944152977,-0.618349450029,
    6.171933487328));
#357 = CARTESIAN_POINT('',(-5.474010386576,-0.744547862053,
    6.156847182413));
#358 = CARTESIAN_POINT('',(-5.376973635031,-0.85369786367,6.141641519002
    ));
#359 = CARTESIAN_POINT('',(-5.170110716559,-1.036072058665,
    6.113511271024));
#360 = CARTESIAN_POINT('',(-5.058306953697,-1.111302056405,
    6.100295636689));
#361 = CARTESIAN_POINT('',(-4.940286482227,-1.171047976756,
    6.088843176503));
#362 = CARTESIAN_POINT('',(-4.817941189943,-1.215600457311,
    6.079833272178));
#363 = CARTESIAN_POINT('',(-4.692851456911,-1.245201540115,
    6.073689270476));
#364 = CARTESIAN_POINT('',(-4.566421727957,-1.26,6.070617760986));
#365 = CARTESIAN_POINT('',(-4.313569987148,-1.26,6.070617760986));
#366 = CARTESIAN_POINT('',(-4.187142753711,-1.245199607019,
    6.073689672232));
#367 = CARTESIAN_POINT('',(-4.062058600487,-1.215599163674,
    6.079833536519));
#368 = CARTESIAN_POINT('',(-3.939717055605,-1.171048911602,
    6.088842933614));
#369 = CARTESIAN_POINT('',(-3.82169718559,-1.11130458369,6.100295171212)
  );
#370 = CARTESIAN_POINT('',(-3.709891757356,-1.036074239714,
    6.113510934609));
#371 = CARTESIAN_POINT('',(-3.503056897395,-0.853724781624,
    6.141637367051));
#372 = CARTESIAN_POINT('',(-3.406002439112,-0.744573080716,
    6.156844248742));
#373 = CARTESIAN_POINT('',(-3.321042363588,-0.618346510367,6.17193531765
    ));
#374 = CARTESIAN_POINT('',(-3.252767816012,-0.477208470865,
    6.185212780642));
#375 = CARTESIAN_POINT('',(-3.204843450896,-0.324373952338,
    6.194950918832));
#376 = CARTESIAN_POINT('',(-3.18,-0.163802010517,6.2));
#377 = CARTESIAN_POINT('',(-3.18,2.22044604925E-16,6.2));
#378 = PCURVE('',#33,#379);
#379 = DEFINITIONAL_REPRESENTATION('',(#380),#431);
#380 = B_SPLINE_CURVE_WITH_KNOTS('',7,(#381,#382,#383,#384,#385,#386,
    #387,#388,#389,#390,#391,#392,#393,#394,#395,#396,#397,#398,#399,
    #400,#401,#402,#403,#404,#405,#406,#407,#408,#409,#410,#411,#412,
    #413,#414,#415,#416,#417,#418,#419,#420,#421,#422,#423,#424,#425,
    #426,#427,#428,#429,#430),.UNSPECIFIED.,.T.,.F.,(8,6,6,6,6,6,6,6,8),
  (0.,0.125350650637,0.250007087859,0.374661628061,0.499994632659,
    0.625351413682,0.750009079072,0.874674913751,1.),.UNSPECIFIED.);
#381 = CARTESIAN_POINT('',(3.14159265359,3.62));
#382 = CARTESIAN_POINT('',(3.115163359962,3.62));
#383 = CARTESIAN_POINT('',(3.089263208493,3.595138461559));
#384 = CARTESIAN_POINT('',(3.064586828016,3.547206342476));
#385 = CARTESIAN_POINT('',(3.04174330921,3.478944152978));
#386 = CARTESIAN_POINT('',(3.021250101839,3.394010386576));
#387 = CARTESIAN_POINT('',(3.003477182651,3.296973635031));
#388 = CARTESIAN_POINT('',(2.973713552623,3.090106688537));
#389 = CARTESIAN_POINT('',(2.961396651255,2.978301524398));
#390 = CARTESIAN_POINT('',(2.951586312371,2.860283022079));
#391 = CARTESIAN_POINT('',(2.944255466704,2.737942932618));
#392 = CARTESIAN_POINT('',(2.939379407922,2.612859594147));
#393 = CARTESIAN_POINT('',(2.936941294883,2.486431936891));
#394 = CARTESIAN_POINT('',(2.936941294883,2.233569987149));
#395 = CARTESIAN_POINT('',(2.939379332139,2.107142753712));
#396 = CARTESIAN_POINT('',(2.944255351352,1.982058600486));
#397 = CARTESIAN_POINT('',(2.951586243633,1.859717055606));
#398 = CARTESIAN_POINT('',(2.96139672519,1.741697185589));
#399 = CARTESIAN_POINT('',(2.973713776225,1.629891757356));
#400 = CARTESIAN_POINT('',(3.003475084122,1.423040950428));
#401 = CARTESIAN_POINT('',(3.021247818757,1.32599801044));
#402 = CARTESIAN_POINT('',(3.041742951097,1.241051531082));
#403 = CARTESIAN_POINT('',(3.064589599082,1.172781594289));
#404 = CARTESIAN_POINT('',(3.089268545547,1.12485210704));
#405 = CARTESIAN_POINT('',(3.115168372806,1.1));
#406 = CARTESIAN_POINT('',(3.168021947218,1.1));
#407 = CARTESIAN_POINT('',(3.193922098687,1.124861538441));
#408 = CARTESIAN_POINT('',(3.218598479164,1.172793657524));
#409 = CARTESIAN_POINT('',(3.24144199797,1.241055847023));
#410 = CARTESIAN_POINT('',(3.261935205341,1.325989613424));
#411 = CARTESIAN_POINT('',(3.279708124529,1.423026364969));
#412 = CARTESIAN_POINT('',(3.309471175012,1.629889283441));
#413 = CARTESIAN_POINT('',(3.321788167707,1.741693046303));
#414 = CARTESIAN_POINT('',(3.331598908051,1.859713517773));
#415 = CARTESIAN_POINT('',(3.338930168703,1.982058810057));
#416 = CARTESIAN_POINT('',(3.343806293524,2.107148543089));
#417 = CARTESIAN_POINT('',(3.346244012296,2.233578272043));
#418 = CARTESIAN_POINT('',(3.346244012296,2.486430012852));
#419 = CARTESIAN_POINT('',(3.34380597504,2.612857246289));
#420 = CARTESIAN_POINT('',(3.338929955828,2.737941399513));
#421 = CARTESIAN_POINT('',(3.331599063547,2.860282944395));
#422 = CARTESIAN_POINT('',(3.32178858199,2.97830281441));
#423 = CARTESIAN_POINT('',(3.309471530954,3.090108242644));
#424 = CARTESIAN_POINT('',(3.279712517477,3.296943102605));
#425 = CARTESIAN_POINT('',(3.261939298094,3.393997560889));
#426 = CARTESIAN_POINT('',(3.241441486435,3.478957636412));
#427 = CARTESIAN_POINT('',(3.218591725638,3.547232183988));
#428 = CARTESIAN_POINT('',(3.19391106801,3.595156549104));
#429 = CARTESIAN_POINT('',(3.168012332705,3.62));
#430 = CARTESIAN_POINT('',(3.14159265359,3.62));
#431 = ( GEOMETRIC_REPRESENTATION_CONTEXT(2) 
PARAMETRIC_REPRESENTATION_CONTEXT() REPRESENTATION_CONTEXT('2D SPACE',''
  ) );
#432 = PCURVE('',#433,#438);
#433 = CYLINDRICAL_SURFACE('',#434,1.26);
#434 = AXIS2_PLACEMENT_3D('',#435,#436,#437);
#435 = CARTESIAN_POINT('',(-4.44,0.,0.));
#436 = DIRECTION('',(0.,0.,1.));
#437 = DIRECTION('',(1.,0.,-0.));
#438 = DEFINITIONAL_REPRESENTATION('',(#439),#490);
#439 = B_SPLINE_CURVE_WITH_KNOTS('',7,(#440,#441,#442,#443,#444,#445,
    #446,#447,#448,#449,#450,#451,#452,#453,#454,#455,#456,#457,#458,
    #459,#460,#461,#462,#463,#464,#465,#466,#467,#468,#469,#470,#471,
    #472,#473,#474,#475,#476,#477,#478,#479,#480,#481,#482,#483,#484,
    #485,#486,#487,#488,#489),.UNSPECIFIED.,.F.,.F.,(8,6,6,6,6,6,6,6,8),
  (0.,0.125350650637,0.250007087859,0.374661628061,0.499994632659,
    0.625351413682,0.750009079072,0.874674913751,1.),.UNSPECIFIED.);
#440 = CARTESIAN_POINT('',(0.,6.2));
#441 = CARTESIAN_POINT('',(0.130048905155,6.2));
#442 = CARTESIAN_POINT('',(0.257493849452,6.194947244799));
#443 = CARTESIAN_POINT('',(0.382362639439,6.185207515499));
#444 = CARTESIAN_POINT('',(0.504476079208,6.171933487329));
#445 = CARTESIAN_POINT('',(0.623432894081,6.156847182413));
#446 = CARTESIAN_POINT('',(0.738488930007,6.141641519002));
#447 = CARTESIAN_POINT('',(0.957363337961,6.113510723274));
#448 = CARTESIAN_POINT('',(1.063408183125,6.100295053343));
#449 = CARTESIAN_POINT('',(1.167146539828,6.088843014284));
#450 = CARTESIAN_POINT('',(1.26919112623,6.079833676312));
#451 = CARTESIAN_POINT('',(1.370114188202,6.073689769717));
#452 = CARTESIAN_POINT('',(1.470453519738,6.070617760986));
#453 = CARTESIAN_POINT('',(1.671137606836,6.070617760986));
#454 = CARTESIAN_POINT('',(1.771476593736,6.073689672232));
#455 = CARTESIAN_POINT('',(1.87240024886,6.079833536519));
#456 = CARTESIAN_POINT('',(1.974445927228,6.088842933614));
#457 = CARTESIAN_POINT('',(2.078185476454,6.100295171212));
#458 = CARTESIAN_POINT('',(2.184230959943,6.113510934609));
#459 = CARTESIAN_POINT('',(2.40308829152,6.141639535599));
#460 = CARTESIAN_POINT('',(2.518147387922,6.156845472067));
#461 = CARTESIAN_POINT('',(2.637116999755,6.17193391074));
#462 = CARTESIAN_POINT('',(2.759245581153,6.185209959895));
#463 = CARTESIAN_POINT('',(2.884125069677,6.194949165541));
#464 = CARTESIAN_POINT('',(3.011568414814,6.2));
#465 = CARTESIAN_POINT('',(3.271641558744,6.2));
#466 = CARTESIAN_POINT('',(3.399086503042,6.194947244799));
#467 = CARTESIAN_POINT('',(3.523955293028,6.185207515499));
#468 = CARTESIAN_POINT('',(3.646068732798,6.171933487328));
#469 = CARTESIAN_POINT('',(3.765025547671,6.156847182413));
#470 = CARTESIAN_POINT('',(3.880081583597,6.141641519002));
#471 = CARTESIAN_POINT('',(4.098951729725,6.113511271024));
#472 = CARTESIAN_POINT('',(4.204996042524,6.100295636689));
#473 = CARTESIAN_POINT('',(4.308736620858,6.088843176503));
#474 = CARTESIAN_POINT('',(4.410785548917,6.079833272178));
#475 = CARTESIAN_POINT('',(4.511713305841,6.073689270476));
#476 = CARTESIAN_POINT('',(4.612054275657,6.070617760986));
#477 = CARTESIAN_POINT('',(4.812730260426,6.070617760986));
#478 = CARTESIAN_POINT('',(4.913069247326,6.073689672232));
#479 = CARTESIAN_POINT('',(5.013992902448,6.079833536519));
#480 = CARTESIAN_POINT('',(5.116038580819,6.088842933614));
#481 = CARTESIAN_POINT('',(5.219778130043,6.100295171212));
#482 = CARTESIAN_POINT('',(5.325823613533,6.113510934609));
#483 = CARTESIAN_POINT('',(5.544664072511,6.141637367051));
#484 = CARTESIAN_POINT('',(5.659731550244,6.156844248742));
#485 = CARTESIAN_POINT('',(5.778716850096,6.17193531765));
#486 = CARTESIAN_POINT('',(5.90085960383,6.185212780642));
#487 = CARTESIAN_POINT('',(6.025745745816,6.194950918832));
#488 = CARTESIAN_POINT('',(6.153183711531,6.2));
#489 = CARTESIAN_POINT('',(6.28318530718,6.2));
#490 = ( GEOMETRIC_REPRESENTATION_CONTEXT(2) 
PARAMETRIC_REPRESENTATION_CONTEXT() REPRESENTATION_CONTEXT('2D SPACE',''
  ) );
#491 = ADVANCED_FACE('',(#492),#45,.T.);
#492 = FACE_BOUND('',#493,.T.);
#493 = EDGE_LOOP('',(#494,#495,#496,#517,#546,#570));
#494 = ORIENTED_EDGE('',*,*,#108,.T.);
#495 = ORIENTED_EDGE('',*,*,#21,.T.);
#496 = ORIENTED_EDGE('',*,*,#497,.T.);
#497 = EDGE_CURVE('',#24,#498,#500,.T.);
#498 = VERTEX_POINT('',#499);
#499 = CARTESIAN_POINT('',(2.4,2.436698586202,-1.75));
#500 = SURFACE_CURVE('',#501,(#505,#511),.PCURVE_S1.);
#501 = LINE('',#502,#503);
#502 = CARTESIAN_POINT('',(2.4,-6.2,-1.75));
#503 = VECTOR('',#504,1.);
#504 = DIRECTION('',(0.,-1.,0.));
#505 = PCURVE('',#45,#506);
#506 = DEFINITIONAL_REPRESENTATION('',(#507),#510);
#507 = B_SPLINE_CURVE_WITH_KNOTS('',1,(#508,#509),.UNSPECIFIED.,.F.,.F.,
  (2,2),(-12.4,0.),.PIECEWISE_BEZIER_KNOTS.);
#508 = CARTESIAN_POINT('',(1.75,6.2));
#509 = CARTESIAN_POINT('',(1.75,-6.2));
#510 = ( GEOMETRIC_REPRESENTATION_CONTEXT(2) 
PARAMETRIC_REPRESENTATION_CONTEXT() REPRESENTATION_CONTEXT('2D SPACE',''
  ) );
#511 = PCURVE('',#310,#512);
#512 = DEFINITIONAL_REPRESENTATION('',(#513),#516);
#513 = B_SPLINE_CURVE_WITH_KNOTS('',1,(#514,#515),.UNSPECIFIED.,.F.,.F.,
  (2,2),(-12.4,0.),.PIECEWISE_BEZIER_KNOTS.);
#514 = CARTESIAN_POINT('',(2.3,18.6));
#515 = CARTESIAN_POINT('',(2.3,6.2));
#516 = ( GEOMETRIC_REPRESENTATION_CONTEXT(2) 
PARAMETRIC_REPRESENTATION_CONTEXT() REPRESENTATION_CONTEXT('2D SPACE',''
  ) );
#517 = ORIENTED_EDGE('',*,*,#518,.F.);
#518 = EDGE_CURVE('',#519,#498,#521,.T.);
#519 = VERTEX_POINT('',#520);
#520 = CARTESIAN_POINT('',(2.4,-7.347880794884E-16,-3.));
#521 = SURFACE_CURVE('',#522,(#527,#534),.PCURVE_S1.);
#522 = CIRCLE('',#523,3.);
#523 = AXIS2_PLACEMENT_3D('',#524,#525,#526);
#524 = CARTESIAN_POINT('',(2.4,0.,2.939870569207E-15));
#525 = DIRECTION('',(1.,0.,2.22044604925E-16));
#526 = DIRECTION('',(2.22044604925E-16,0.,-1.));
#527 = PCURVE('',#45,#528);
#528 = DEFINITIONAL_REPRESENTATION('',(#529),#533);
#529 = CIRCLE('',#530,3.);
#530 = AXIS2_PLACEMENT_2D('',#531,#532);
#531 = CARTESIAN_POINT('',(-8.970602038971E-16,0.));
#532 = DIRECTION('',(1.,0.));
#533 = ( GEOMETRIC_REPRESENTATION_CONTEXT(2) 
PARAMETRIC_REPRESENTATION_CONTEXT() REPRESENTATION_CONTEXT('2D SPACE',''
  ) );
#534 = PCURVE('',#535,#540);
#535 = CYLINDRICAL_SURFACE('',#536,3.);
#536 = AXIS2_PLACEMENT_3D('',#537,#538,#539);
#537 = CARTESIAN_POINT('',(-10.84,0.,0.));
#538 = DIRECTION('',(1.,0.,2.22044604925E-16));
#539 = DIRECTION('',(2.22044604925E-16,0.,-1.));
#540 = DEFINITIONAL_REPRESENTATION('',(#541),#545);
#541 = LINE('',#542,#543);
#542 = CARTESIAN_POINT('',(0.,13.24));
#543 = VECTOR('',#544,1.);
#544 = DIRECTION('',(1.,0.));
#545 = ( GEOMETRIC_REPRESENTATION_CONTEXT(2) 
PARAMETRIC_REPRESENTATION_CONTEXT() REPRESENTATION_CONTEXT('2D SPACE',''
  ) );
#546 = ORIENTED_EDGE('',*,*,#547,.F.);
#547 = EDGE_CURVE('',#548,#519,#550,.T.);
#548 = VERTEX_POINT('',#549);
#549 = CARTESIAN_POINT('',(2.4,-2.436698586202,-1.75));
#550 = SURFACE_CURVE('',#551,(#556,#563),.PCURVE_S1.);
#551 = CIRCLE('',#552,3.);
#552 = AXIS2_PLACEMENT_3D('',#553,#554,#555);
#553 = CARTESIAN_POINT('',(2.4,0.,2.939870569207E-15));
#554 = DIRECTION('',(1.,0.,2.22044604925E-16));
#555 = DIRECTION('',(2.22044604925E-16,0.,-1.));
#556 = PCURVE('',#45,#557);
#557 = DEFINITIONAL_REPRESENTATION('',(#558),#562);
#558 = CIRCLE('',#559,3.);
#559 = AXIS2_PLACEMENT_2D('',#560,#561);
#560 = CARTESIAN_POINT('',(-8.970602038971E-16,0.));
#561 = DIRECTION('',(1.,0.));
#562 = ( GEOMETRIC_REPRESENTATION_CONTEXT(2) 
PARAMETRIC_REPRESENTATION_CONTEXT() REPRESENTATION_CONTEXT('2D SPACE',''
  ) );
#563 = PCURVE('',#535,#564);
#564 = DEFINITIONAL_REPRESENTATION('',(#565),#569);
#565 = LINE('',#566,#567);
#566 = CARTESIAN_POINT('',(0.,13.24));
#567 = VECTOR('',#568,1.);
#568 = DIRECTION('',(1.,0.));
#569 = ( GEOMETRIC_REPRESENTATION_CONTEXT(2) 
PARAMETRIC_REPRESENTATION_CONTEXT() REPRESENTATION_CONTEXT('2D SPACE',''
  ) );
#570 = ORIENTED_EDGE('',*,*,#571,.T.);
#571 = EDGE_CURVE('',#548,#109,#572,.T.);
#572 = SURFACE_CURVE('',#573,(#577,#583),.PCURVE_S1.);
#573 = LINE('',#574,#575);
#574 = CARTESIAN_POINT('',(2.4,-6.2,-1.75));
#575 = VECTOR('',#576,1.);
#576 = DIRECTION('',(0.,-1.,0.));
#577 = PCURVE('',#45,#578);
#578 = DEFINITIONAL_REPRESENTATION('',(#579),#582);
#579 = B_SPLINE_CURVE_WITH_KNOTS('',1,(#580,#581),.UNSPECIFIED.,.F.,.F.,
  (2,2),(-12.4,0.),.PIECEWISE_BEZIER_KNOTS.);
#580 = CARTESIAN_POINT('',(1.75,6.2));
#581 = CARTESIAN_POINT('',(1.75,-6.2));
#582 = ( GEOMETRIC_REPRESENTATION_CONTEXT(2) 
PARAMETRIC_REPRESENTATION_CONTEXT() REPRESENTATION_CONTEXT('2D SPACE',''
  ) );
#583 = PCURVE('',#147,#584);
#584 = DEFINITIONAL_REPRESENTATION('',(#585),#588);
#585 = B_SPLINE_CURVE_WITH_KNOTS('',1,(#586,#587),.UNSPECIFIED.,.F.,.F.,
  (2,2),(-12.4,0.),.PIECEWISE_BEZIER_KNOTS.);
#586 = CARTESIAN_POINT('',(2.3,18.6));
#587 = CARTESIAN_POINT('',(2.3,6.2));
#588 = ( GEOMETRIC_REPRESENTATION_CONTEXT(2) 
PARAMETRIC_REPRESENTATION_CONTEXT() REPRESENTATION_CONTEXT('2D SPACE',''
  ) );
#589 = ADVANCED_FACE('',(#590),#310,.T.);
#590 = FACE_BOUND('',#591,.T.);
#591 = EDGE_LOOP('',(#592,#615,#634,#635));
#592 = ORIENTED_EDGE('',*,*,#593,.F.);
#593 = EDGE_CURVE('',#594,#269,#596,.T.);
#594 = VERTEX_POINT('',#595);
#595 = CARTESIAN_POINT('',(0.1,2.436698586202,-1.75));
#596 = SURFACE_CURVE('',#597,(#601,#608),.PCURVE_S1.);
#597 = LINE('',#598,#599);
#598 = CARTESIAN_POINT('',(0.1,-12.4,-1.75));
#599 = VECTOR('',#600,1.);
#600 = DIRECTION('',(-0.,1.,0.));
#601 = PCURVE('',#310,#602);
#602 = DEFINITIONAL_REPRESENTATION('',(#603),#607);
#603 = LINE('',#604,#605);
#604 = CARTESIAN_POINT('',(0.,0.));
#605 = VECTOR('',#606,1.);
#606 = DIRECTION('',(0.,1.));
#607 = ( GEOMETRIC_REPRESENTATION_CONTEXT(2) 
PARAMETRIC_REPRESENTATION_CONTEXT() REPRESENTATION_CONTEXT('2D SPACE',''
  ) );
#608 = PCURVE('',#285,#609);
#609 = DEFINITIONAL_REPRESENTATION('',(#610),#614);
#610 = LINE('',#611,#612);
#611 = CARTESIAN_POINT('',(0.,0.));
#612 = VECTOR('',#613,1.);
#613 = DIRECTION('',(0.,-1.));
#614 = ( GEOMETRIC_REPRESENTATION_CONTEXT(2) 
PARAMETRIC_REPRESENTATION_CONTEXT() REPRESENTATION_CONTEXT('2D SPACE',''
  ) );
#615 = ORIENTED_EDGE('',*,*,#616,.T.);
#616 = EDGE_CURVE('',#594,#498,#617,.T.);
#617 = SURFACE_CURVE('',#618,(#622,#628),.PCURVE_S1.);
#618 = LINE('',#619,#620);
#619 = CARTESIAN_POINT('',(-10.84,2.436698586202,-1.75));
#620 = VECTOR('',#621,1.);
#621 = DIRECTION('',(1.,0.,2.22044604925E-16));
#622 = PCURVE('',#310,#623);
#623 = DEFINITIONAL_REPRESENTATION('',(#624),#627);
#624 = B_SPLINE_CURVE_WITH_KNOTS('',1,(#625,#626),.UNSPECIFIED.,.F.,.F.,
  (2,2),(10.61,13.2400006),.PIECEWISE_BEZIER_KNOTS.);
#625 = CARTESIAN_POINT('',(-0.33,14.836698586202));
#626 = CARTESIAN_POINT('',(2.3000006,14.836698586202));
#627 = ( GEOMETRIC_REPRESENTATION_CONTEXT(2) 
PARAMETRIC_REPRESENTATION_CONTEXT() REPRESENTATION_CONTEXT('2D SPACE',''
  ) );
#628 = PCURVE('',#535,#629);
#629 = DEFINITIONAL_REPRESENTATION('',(#630),#633);
#630 = B_SPLINE_CURVE_WITH_KNOTS('',1,(#631,#632),.UNSPECIFIED.,.F.,.F.,
  (2,2),(10.61,13.2400006),.PIECEWISE_BEZIER_KNOTS.);
#631 = CARTESIAN_POINT('',(0.947969741383,10.61));
#632 = CARTESIAN_POINT('',(0.947969741383,13.2400006));
#633 = ( GEOMETRIC_REPRESENTATION_CONTEXT(2) 
PARAMETRIC_REPRESENTATION_CONTEXT() REPRESENTATION_CONTEXT('2D SPACE',''
  ) );
#634 = ORIENTED_EDGE('',*,*,#497,.F.);
#635 = ORIENTED_EDGE('',*,*,#297,.F.);
#636 = ADVANCED_FACE('',(#637),#285,.T.);
#637 = FACE_BOUND('',#638,.T.);
#638 = EDGE_LOOP('',(#639,#662,#684,#685));
#639 = ORIENTED_EDGE('',*,*,#640,.F.);
#640 = EDGE_CURVE('',#641,#243,#643,.T.);
#641 = VERTEX_POINT('',#642);
#642 = CARTESIAN_POINT('',(0.1,2.436698586202,1.75));
#643 = SURFACE_CURVE('',#644,(#648,#655),.PCURVE_S1.);
#644 = LINE('',#645,#646);
#645 = CARTESIAN_POINT('',(0.1,-12.4,1.75));
#646 = VECTOR('',#647,1.);
#647 = DIRECTION('',(-0.,1.,0.));
#648 = PCURVE('',#285,#649);
#649 = DEFINITIONAL_REPRESENTATION('',(#650),#654);
#650 = LINE('',#651,#652);
#651 = CARTESIAN_POINT('',(3.5,0.));
#652 = VECTOR('',#653,1.);
#653 = DIRECTION('',(0.,-1.));
#654 = ( GEOMETRIC_REPRESENTATION_CONTEXT(2) 
PARAMETRIC_REPRESENTATION_CONTEXT() REPRESENTATION_CONTEXT('2D SPACE',''
  ) );
#655 = PCURVE('',#257,#656);
#656 = DEFINITIONAL_REPRESENTATION('',(#657),#661);
#657 = LINE('',#658,#659);
#658 = CARTESIAN_POINT('',(0.,0.));
#659 = VECTOR('',#660,1.);
#660 = DIRECTION('',(0.,1.));
#661 = ( GEOMETRIC_REPRESENTATION_CONTEXT(2) 
PARAMETRIC_REPRESENTATION_CONTEXT() REPRESENTATION_CONTEXT('2D SPACE',''
  ) );
#662 = ORIENTED_EDGE('',*,*,#663,.F.);
#663 = EDGE_CURVE('',#594,#641,#664,.T.);
#664 = SURFACE_CURVE('',#665,(#670,#677),.PCURVE_S1.);
#665 = CIRCLE('',#666,3.);
#666 = AXIS2_PLACEMENT_3D('',#667,#668,#669);
#667 = CARTESIAN_POINT('',(1.E-01,0.,2.42916797788E-15));
#668 = DIRECTION('',(1.,0.,2.22044604925E-16));
#669 = DIRECTION('',(2.22044604925E-16,0.,-1.));
#670 = PCURVE('',#285,#671);
#671 = DEFINITIONAL_REPRESENTATION('',(#672),#676);
#672 = CIRCLE('',#673,3.);
#673 = AXIS2_PLACEMENT_2D('',#674,#675);
#674 = CARTESIAN_POINT('',(1.75,-12.4));
#675 = DIRECTION('',(-1.,0.));
#676 = ( GEOMETRIC_REPRESENTATION_CONTEXT(2) 
PARAMETRIC_REPRESENTATION_CONTEXT() REPRESENTATION_CONTEXT('2D SPACE',''
  ) );
#677 = PCURVE('',#535,#678);
#678 = DEFINITIONAL_REPRESENTATION('',(#679),#683);
#679 = LINE('',#680,#681);
#680 = CARTESIAN_POINT('',(0.,10.94));
#681 = VECTOR('',#682,1.);
#682 = DIRECTION('',(1.,0.));
#683 = ( GEOMETRIC_REPRESENTATION_CONTEXT(2) 
PARAMETRIC_REPRESENTATION_CONTEXT() REPRESENTATION_CONTEXT('2D SPACE',''
  ) );
#684 = ORIENTED_EDGE('',*,*,#593,.T.);
#685 = ORIENTED_EDGE('',*,*,#268,.T.);
#686 = ADVANCED_FACE('',(#687),#257,.F.);
#687 = FACE_BOUND('',#688,.F.);
#688 = EDGE_LOOP('',(#689,#690,#711,#730));
#689 = ORIENTED_EDGE('',*,*,#640,.F.);
#690 = ORIENTED_EDGE('',*,*,#691,.T.);
#691 = EDGE_CURVE('',#641,#692,#694,.T.);
#692 = VERTEX_POINT('',#693);
#693 = CARTESIAN_POINT('',(2.4,2.436698586202,1.75));
#694 = SURFACE_CURVE('',#695,(#699,#705),.PCURVE_S1.);
#695 = LINE('',#696,#697);
#696 = CARTESIAN_POINT('',(-10.84,2.436698586202,1.75));
#697 = VECTOR('',#698,1.);
#698 = DIRECTION('',(1.,0.,2.22044604925E-16));
#699 = PCURVE('',#257,#700);
#700 = DEFINITIONAL_REPRESENTATION('',(#701),#704);
#701 = B_SPLINE_CURVE_WITH_KNOTS('',1,(#702,#703),.UNSPECIFIED.,.F.,.F.,
  (2,2),(10.61,13.2400006),.PIECEWISE_BEZIER_KNOTS.);
#702 = CARTESIAN_POINT('',(-0.33,14.836698586202));
#703 = CARTESIAN_POINT('',(2.3000006,14.836698586202));
#704 = ( GEOMETRIC_REPRESENTATION_CONTEXT(2) 
PARAMETRIC_REPRESENTATION_CONTEXT() REPRESENTATION_CONTEXT('2D SPACE',''
  ) );
#705 = PCURVE('',#535,#706);
#706 = DEFINITIONAL_REPRESENTATION('',(#707),#710);
#707 = B_SPLINE_CURVE_WITH_KNOTS('',1,(#708,#709),.UNSPECIFIED.,.F.,.F.,
  (2,2),(10.61,13.2400006),.PIECEWISE_BEZIER_KNOTS.);
#708 = CARTESIAN_POINT('',(2.193622912207,10.61));
#709 = CARTESIAN_POINT('',(2.193622912207,13.2400006));
#710 = ( GEOMETRIC_REPRESENTATION_CONTEXT(2) 
PARAMETRIC_REPRESENTATION_CONTEXT() REPRESENTATION_CONTEXT('2D SPACE',''
  ) );
#711 = ORIENTED_EDGE('',*,*,#712,.F.);
#712 = EDGE_CURVE('',#214,#692,#713,.T.);
#713 = SURFACE_CURVE('',#714,(#718,#724),.PCURVE_S1.);
#714 = LINE('',#715,#716);
#715 = CARTESIAN_POINT('',(2.4,-6.2,1.75));
#716 = VECTOR('',#717,1.);
#717 = DIRECTION('',(0.,-1.,0.));
#718 = PCURVE('',#257,#719);
#719 = DEFINITIONAL_REPRESENTATION('',(#720),#723);
#720 = B_SPLINE_CURVE_WITH_KNOTS('',1,(#721,#722),.UNSPECIFIED.,.F.,.F.,
  (2,2),(-12.4,0.),.PIECEWISE_BEZIER_KNOTS.);
#721 = CARTESIAN_POINT('',(2.3,18.6));
#722 = CARTESIAN_POINT('',(2.3,6.2));
#723 = ( GEOMETRIC_REPRESENTATION_CONTEXT(2) 
PARAMETRIC_REPRESENTATION_CONTEXT() REPRESENTATION_CONTEXT('2D SPACE',''
  ) );
#724 = PCURVE('',#230,#725);
#725 = DEFINITIONAL_REPRESENTATION('',(#726),#729);
#726 = B_SPLINE_CURVE_WITH_KNOTS('',1,(#727,#728),.UNSPECIFIED.,.F.,.F.,
  (2,2),(-12.4,0.),.PIECEWISE_BEZIER_KNOTS.);
#727 = CARTESIAN_POINT('',(-1.75,6.2));
#728 = CARTESIAN_POINT('',(-1.75,-6.2));
#729 = ( GEOMETRIC_REPRESENTATION_CONTEXT(2) 
PARAMETRIC_REPRESENTATION_CONTEXT() REPRESENTATION_CONTEXT('2D SPACE',''
  ) );
#730 = ORIENTED_EDGE('',*,*,#242,.F.);
#731 = ADVANCED_FACE('',(#732),#230,.T.);
#732 = FACE_BOUND('',#733,.T.);
#733 = EDGE_LOOP('',(#734,#735,#736,#757));
#734 = ORIENTED_EDGE('',*,*,#712,.F.);
#735 = ORIENTED_EDGE('',*,*,#213,.T.);
#736 = ORIENTED_EDGE('',*,*,#737,.F.);
#737 = EDGE_CURVE('',#738,#188,#740,.T.);
#738 = VERTEX_POINT('',#739);
#739 = CARTESIAN_POINT('',(2.4,-2.436698586202,1.75));
#740 = SURFACE_CURVE('',#741,(#745,#751),.PCURVE_S1.);
#741 = LINE('',#742,#743);
#742 = CARTESIAN_POINT('',(2.4,-6.2,1.75));
#743 = VECTOR('',#744,1.);
#744 = DIRECTION('',(0.,-1.,0.));
#745 = PCURVE('',#230,#746);
#746 = DEFINITIONAL_REPRESENTATION('',(#747),#750);
#747 = B_SPLINE_CURVE_WITH_KNOTS('',1,(#748,#749),.UNSPECIFIED.,.F.,.F.,
  (2,2),(-12.4,0.),.PIECEWISE_BEZIER_KNOTS.);
#748 = CARTESIAN_POINT('',(-1.75,6.2));
#749 = CARTESIAN_POINT('',(-1.75,-6.2));
#750 = ( GEOMETRIC_REPRESENTATION_CONTEXT(2) 
PARAMETRIC_REPRESENTATION_CONTEXT() REPRESENTATION_CONTEXT('2D SPACE',''
  ) );
#751 = PCURVE('',#202,#752);
#752 = DEFINITIONAL_REPRESENTATION('',(#753),#756);
#753 = B_SPLINE_CURVE_WITH_KNOTS('',1,(#754,#755),.UNSPECIFIED.,.F.,.F.,
  (2,2),(-12.4,0.),.PIECEWISE_BEZIER_KNOTS.);
#754 = CARTESIAN_POINT('',(2.3,18.6));
#755 = CARTESIAN_POINT('',(2.3,6.2));
#756 = ( GEOMETRIC_REPRESENTATION_CONTEXT(2) 
PARAMETRIC_REPRESENTATION_CONTEXT() REPRESENTATION_CONTEXT('2D SPACE',''
  ) );
#757 = ORIENTED_EDGE('',*,*,#758,.F.);
#758 = EDGE_CURVE('',#692,#738,#759,.T.);
#759 = SURFACE_CURVE('',#760,(#765,#772),.PCURVE_S1.);
#760 = CIRCLE('',#761,3.);
#761 = AXIS2_PLACEMENT_3D('',#762,#763,#764);
#762 = CARTESIAN_POINT('',(2.4,0.,2.939870569207E-15));
#763 = DIRECTION('',(1.,0.,2.22044604925E-16));
#764 = DIRECTION('',(2.22044604925E-16,0.,-1.));
#765 = PCURVE('',#230,#766);
#766 = DEFINITIONAL_REPRESENTATION('',(#767),#771);
#767 = CIRCLE('',#768,3.);
#768 = AXIS2_PLACEMENT_2D('',#769,#770);
#769 = CARTESIAN_POINT('',(-8.970602038971E-16,0.));
#770 = DIRECTION('',(1.,0.));
#771 = ( GEOMETRIC_REPRESENTATION_CONTEXT(2) 
PARAMETRIC_REPRESENTATION_CONTEXT() REPRESENTATION_CONTEXT('2D SPACE',''
  ) );
#772 = PCURVE('',#535,#773);
#773 = DEFINITIONAL_REPRESENTATION('',(#774),#778);
#774 = LINE('',#775,#776);
#775 = CARTESIAN_POINT('',(0.,13.24));
#776 = VECTOR('',#777,1.);
#777 = DIRECTION('',(1.,0.));
#778 = ( GEOMETRIC_REPRESENTATION_CONTEXT(2) 
PARAMETRIC_REPRESENTATION_CONTEXT() REPRESENTATION_CONTEXT('2D SPACE',''
  ) );
#779 = ADVANCED_FACE('',(#780),#202,.F.);
#780 = FACE_BOUND('',#781,.F.);
#781 = EDGE_LOOP('',(#782,#805,#806,#807));
#782 = ORIENTED_EDGE('',*,*,#783,.F.);
#783 = EDGE_CURVE('',#159,#784,#786,.T.);
#784 = VERTEX_POINT('',#785);
#785 = CARTESIAN_POINT('',(0.1,-2.436698586202,1.75));
#786 = SURFACE_CURVE('',#787,(#791,#798),.PCURVE_S1.);
#787 = LINE('',#788,#789);
#788 = CARTESIAN_POINT('',(0.1,-12.4,1.75));
#789 = VECTOR('',#790,1.);
#790 = DIRECTION('',(-0.,1.,0.));
#791 = PCURVE('',#202,#792);
#792 = DEFINITIONAL_REPRESENTATION('',(#793),#797);
#793 = LINE('',#794,#795);
#794 = CARTESIAN_POINT('',(0.,0.));
#795 = VECTOR('',#796,1.);
#796 = DIRECTION('',(0.,1.));
#797 = ( GEOMETRIC_REPRESENTATION_CONTEXT(2) 
PARAMETRIC_REPRESENTATION_CONTEXT() REPRESENTATION_CONTEXT('2D SPACE',''
  ) );
#798 = PCURVE('',#175,#799);
#799 = DEFINITIONAL_REPRESENTATION('',(#800),#804);
#800 = LINE('',#801,#802);
#801 = CARTESIAN_POINT('',(3.5,0.));
#802 = VECTOR('',#803,1.);
#803 = DIRECTION('',(0.,-1.));
#804 = ( GEOMETRIC_REPRESENTATION_CONTEXT(2) 
PARAMETRIC_REPRESENTATION_CONTEXT() REPRESENTATION_CONTEXT('2D SPACE',''
  ) );
#805 = ORIENTED_EDGE('',*,*,#187,.T.);
#806 = ORIENTED_EDGE('',*,*,#737,.F.);
#807 = ORIENTED_EDGE('',*,*,#808,.F.);
#808 = EDGE_CURVE('',#784,#738,#809,.T.);
#809 = SURFACE_CURVE('',#810,(#814,#820),.PCURVE_S1.);
#810 = LINE('',#811,#812);
#811 = CARTESIAN_POINT('',(-10.84,-2.436698586202,1.75));
#812 = VECTOR('',#813,1.);
#813 = DIRECTION('',(1.,0.,2.22044604925E-16));
#814 = PCURVE('',#202,#815);
#815 = DEFINITIONAL_REPRESENTATION('',(#816),#819);
#816 = B_SPLINE_CURVE_WITH_KNOTS('',1,(#817,#818),.UNSPECIFIED.,.F.,.F.,
  (2,2),(10.61,13.2400006),.PIECEWISE_BEZIER_KNOTS.);
#817 = CARTESIAN_POINT('',(-0.33,9.963301413798));
#818 = CARTESIAN_POINT('',(2.3000006,9.963301413798));
#819 = ( GEOMETRIC_REPRESENTATION_CONTEXT(2) 
PARAMETRIC_REPRESENTATION_CONTEXT() REPRESENTATION_CONTEXT('2D SPACE',''
  ) );
#820 = PCURVE('',#535,#821);
#821 = DEFINITIONAL_REPRESENTATION('',(#822),#825);
#822 = B_SPLINE_CURVE_WITH_KNOTS('',1,(#823,#824),.UNSPECIFIED.,.F.,.F.,
  (2,2),(10.61,13.2400006),.PIECEWISE_BEZIER_KNOTS.);
#823 = CARTESIAN_POINT('',(4.089562394973,10.61));
#824 = CARTESIAN_POINT('',(4.089562394973,13.2400006));
#825 = ( GEOMETRIC_REPRESENTATION_CONTEXT(2) 
PARAMETRIC_REPRESENTATION_CONTEXT() REPRESENTATION_CONTEXT('2D SPACE',''
  ) );
#826 = ADVANCED_FACE('',(#827),#175,.T.);
#827 = FACE_BOUND('',#828,.T.);
#828 = EDGE_LOOP('',(#829,#830,#831,#854));
#829 = ORIENTED_EDGE('',*,*,#783,.F.);
#830 = ORIENTED_EDGE('',*,*,#158,.T.);
#831 = ORIENTED_EDGE('',*,*,#832,.T.);
#832 = EDGE_CURVE('',#133,#833,#835,.T.);
#833 = VERTEX_POINT('',#834);
#834 = CARTESIAN_POINT('',(0.1,-2.436698586202,-1.75));
#835 = SURFACE_CURVE('',#836,(#840,#847),.PCURVE_S1.);
#836 = LINE('',#837,#838);
#837 = CARTESIAN_POINT('',(0.1,-12.4,-1.75));
#838 = VECTOR('',#839,1.);
#839 = DIRECTION('',(-0.,1.,0.));
#840 = PCURVE('',#175,#841);
#841 = DEFINITIONAL_REPRESENTATION('',(#842),#846);
#842 = LINE('',#843,#844);
#843 = CARTESIAN_POINT('',(0.,0.));
#844 = VECTOR('',#845,1.);
#845 = DIRECTION('',(0.,-1.));
#846 = ( GEOMETRIC_REPRESENTATION_CONTEXT(2) 
PARAMETRIC_REPRESENTATION_CONTEXT() REPRESENTATION_CONTEXT('2D SPACE',''
  ) );
#847 = PCURVE('',#147,#848);
#848 = DEFINITIONAL_REPRESENTATION('',(#849),#853);
#849 = LINE('',#850,#851);
#850 = CARTESIAN_POINT('',(0.,0.));
#851 = VECTOR('',#852,1.);
#852 = DIRECTION('',(0.,1.));
#853 = ( GEOMETRIC_REPRESENTATION_CONTEXT(2) 
PARAMETRIC_REPRESENTATION_CONTEXT() REPRESENTATION_CONTEXT('2D SPACE',''
  ) );
#854 = ORIENTED_EDGE('',*,*,#855,.F.);
#855 = EDGE_CURVE('',#784,#833,#856,.T.);
#856 = SURFACE_CURVE('',#857,(#862,#869),.PCURVE_S1.);
#857 = CIRCLE('',#858,3.);
#858 = AXIS2_PLACEMENT_3D('',#859,#860,#861);
#859 = CARTESIAN_POINT('',(1.E-01,0.,2.42916797788E-15));
#860 = DIRECTION('',(1.,0.,2.22044604925E-16));
#861 = DIRECTION('',(2.22044604925E-16,0.,-1.));
#862 = PCURVE('',#175,#863);
#863 = DEFINITIONAL_REPRESENTATION('',(#864),#868);
#864 = CIRCLE('',#865,3.);
#865 = AXIS2_PLACEMENT_2D('',#866,#867);
#866 = CARTESIAN_POINT('',(1.75,-12.4));
#867 = DIRECTION('',(-1.,0.));
#868 = ( GEOMETRIC_REPRESENTATION_CONTEXT(2) 
PARAMETRIC_REPRESENTATION_CONTEXT() REPRESENTATION_CONTEXT('2D SPACE',''
  ) );
#869 = PCURVE('',#535,#870);
#870 = DEFINITIONAL_REPRESENTATION('',(#871),#875);
#871 = LINE('',#872,#873);
#872 = CARTESIAN_POINT('',(0.,10.94));
#873 = VECTOR('',#874,1.);
#874 = DIRECTION('',(1.,0.));
#875 = ( GEOMETRIC_REPRESENTATION_CONTEXT(2) 
PARAMETRIC_REPRESENTATION_CONTEXT() REPRESENTATION_CONTEXT('2D SPACE',''
  ) );
#876 = ADVANCED_FACE('',(#877),#147,.T.);
#877 = FACE_BOUND('',#878,.T.);
#878 = EDGE_LOOP('',(#879,#880,#881,#882));
#879 = ORIENTED_EDGE('',*,*,#832,.F.);
#880 = ORIENTED_EDGE('',*,*,#132,.T.);
#881 = ORIENTED_EDGE('',*,*,#571,.F.);
#882 = ORIENTED_EDGE('',*,*,#883,.F.);
#883 = EDGE_CURVE('',#833,#548,#884,.T.);
#884 = SURFACE_CURVE('',#885,(#889,#895),.PCURVE_S1.);
#885 = LINE('',#886,#887);
#886 = CARTESIAN_POINT('',(-10.84,-2.436698586202,-1.75));
#887 = VECTOR('',#888,1.);
#888 = DIRECTION('',(1.,0.,2.22044604925E-16));
#889 = PCURVE('',#147,#890);
#890 = DEFINITIONAL_REPRESENTATION('',(#891),#894);
#891 = B_SPLINE_CURVE_WITH_KNOTS('',1,(#892,#893),.UNSPECIFIED.,.F.,.F.,
  (2,2),(10.61,13.2400006),.PIECEWISE_BEZIER_KNOTS.);
#892 = CARTESIAN_POINT('',(-0.33,9.963301413798));
#893 = CARTESIAN_POINT('',(2.3000006,9.963301413798));
#894 = ( GEOMETRIC_REPRESENTATION_CONTEXT(2) 
PARAMETRIC_REPRESENTATION_CONTEXT() REPRESENTATION_CONTEXT('2D SPACE',''
  ) );
#895 = PCURVE('',#535,#896);
#896 = DEFINITIONAL_REPRESENTATION('',(#897),#900);
#897 = B_SPLINE_CURVE_WITH_KNOTS('',1,(#898,#899),.UNSPECIFIED.,.F.,.F.,
  (2,2),(10.61,13.2400006),.PIECEWISE_BEZIER_KNOTS.);
#898 = CARTESIAN_POINT('',(5.335215565797,10.61));
#899 = CARTESIAN_POINT('',(5.335215565797,13.2400006));
#900 = ( GEOMETRIC_REPRESENTATION_CONTEXT(2) 
PARAMETRIC_REPRESENTATION_CONTEXT() REPRESENTATION_CONTEXT('2D SPACE',''
  ) );
#901 = ADVANCED_FACE('',(#902,#905),#95,.F.);
#902 = FACE_BOUND('',#903,.F.);
#903 = EDGE_LOOP('',(#904));
#904 = ORIENTED_EDGE('',*,*,#80,.T.);
#905 = FACE_BOUND('',#906,.F.);
#906 = EDGE_LOOP('',(#907));
#907 = ORIENTED_EDGE('',*,*,#908,.F.);
#908 = EDGE_CURVE('',#909,#909,#911,.T.);
#909 = VERTEX_POINT('',#910);
#910 = CARTESIAN_POINT('',(-6.8,-1.224646799147E-15,-5.));
#911 = SURFACE_CURVE('',#912,(#917,#924),.PCURVE_S1.);
#912 = CIRCLE('',#913,5.);
#913 = AXIS2_PLACEMENT_3D('',#914,#915,#916);
#914 = CARTESIAN_POINT('',(-6.8,0.,6.750155989721E-16));
#915 = DIRECTION('',(1.,-0.,2.22044604925E-16));
#916 = DIRECTION('',(2.22044604925E-16,0.,-1.));
#917 = PCURVE('',#95,#918);
#918 = DEFINITIONAL_REPRESENTATION('',(#919),#923);
#919 = CIRCLE('',#920,5.);
#920 = AXIS2_PLACEMENT_2D('',#921,#922);
#921 = CARTESIAN_POINT('',(-6.750155989721E-16,0.));
#922 = DIRECTION('',(1.,0.));
#923 = ( GEOMETRIC_REPRESENTATION_CONTEXT(2) 
PARAMETRIC_REPRESENTATION_CONTEXT() REPRESENTATION_CONTEXT('2D SPACE',''
  ) );
#924 = PCURVE('',#925,#930);
#925 = CYLINDRICAL_SURFACE('',#926,5.);
#926 = AXIS2_PLACEMENT_3D('',#927,#928,#929);
#927 = CARTESIAN_POINT('',(-9.84,0.,0.));
#928 = DIRECTION('',(1.,0.,2.22044604925E-16));
#929 = DIRECTION('',(2.22044604925E-16,0.,-1.));
#930 = DEFINITIONAL_REPRESENTATION('',(#931),#935);
#931 = LINE('',#932,#933);
#932 = CARTESIAN_POINT('',(0.,3.04));
#933 = VECTOR('',#934,1.);
#934 = DIRECTION('',(1.,0.));
#935 = ( GEOMETRIC_REPRESENTATION_CONTEXT(2) 
PARAMETRIC_REPRESENTATION_CONTEXT() REPRESENTATION_CONTEXT('2D SPACE',''
  ) );
#936 = ADVANCED_FACE('',(#937),#433,.F.);
#937 = FACE_BOUND('',#938,.F.);
#938 = EDGE_LOOP('',(#939,#940,#963,#1281));
#939 = ORIENTED_EDGE('',*,*,#323,.F.);
#940 = ORIENTED_EDGE('',*,*,#941,.F.);
#941 = EDGE_CURVE('',#942,#324,#944,.T.);
#942 = VERTEX_POINT('',#943);
#943 = CARTESIAN_POINT('',(-3.18,-3.086109933851E-16,3.));
#944 = SEAM_CURVE('',#945,(#949,#956),.PCURVE_S1.);
#945 = LINE('',#946,#947);
#946 = CARTESIAN_POINT('',(-3.18,-3.086109933851E-16,0.));
#947 = VECTOR('',#948,1.);
#948 = DIRECTION('',(0.,0.,1.));
#949 = PCURVE('',#433,#950);
#950 = DEFINITIONAL_REPRESENTATION('',(#951),#955);
#951 = LINE('',#952,#953);
#952 = CARTESIAN_POINT('',(6.28318530718,-0.));
#953 = VECTOR('',#954,1.);
#954 = DIRECTION('',(0.,1.));
#955 = ( GEOMETRIC_REPRESENTATION_CONTEXT(2) 
PARAMETRIC_REPRESENTATION_CONTEXT() REPRESENTATION_CONTEXT('2D SPACE',''
  ) );
#956 = PCURVE('',#433,#957);
#957 = DEFINITIONAL_REPRESENTATION('',(#958),#962);
#958 = LINE('',#959,#960);
#959 = CARTESIAN_POINT('',(0.,-0.));
#960 = VECTOR('',#961,1.);
#961 = DIRECTION('',(0.,1.));
#962 = ( GEOMETRIC_REPRESENTATION_CONTEXT(2) 
PARAMETRIC_REPRESENTATION_CONTEXT() REPRESENTATION_CONTEXT('2D SPACE',''
  ) );
#963 = ORIENTED_EDGE('',*,*,#964,.T.);
#964 = EDGE_CURVE('',#942,#942,#965,.T.);
#965 = SURFACE_CURVE('',#966,(#1069,#1175),.PCURVE_S1.);
#966 = B_SPLINE_CURVE_WITH_KNOTS('',6,(#967,#968,#969,#970,#971,#972,
    #973,#974,#975,#976,#977,#978,#979,#980,#981,#982,#983,#984,#985,
    #986,#987,#988,#989,#990,#991,#992,#993,#994,#995,#996,#997,#998,
    #999,#1000,#1001,#1002,#1003,#1004,#1005,#1006,#1007,#1008,#1009,
    #1010,#1011,#1012,#1013,#1014,#1015,#1016,#1017,#1018,#1019,#1020,
    #1021,#1022,#1023,#1024,#1025,#1026,#1027,#1028,#1029,#1030,#1031,
    #1032,#1033,#1034,#1035,#1036,#1037,#1038,#1039,#1040,#1041,#1042,
    #1043,#1044,#1045,#1046,#1047,#1048,#1049,#1050,#1051,#1052,#1053,
    #1054,#1055,#1056,#1057,#1058,#1059,#1060,#1061,#1062,#1063,#1064,
    #1065,#1066,#1067,#1068),.UNSPECIFIED.,.T.,.F.,(7,5,5,5,5,5,5,5,5,5,
    5,5,5,5,5,5,5,5,5,5,7),(0.,6.988360700453E-02,9.975121140998E-02,
    0.120577571473,0.184648358638,0.249632860519,0.314805761538,
    0.378360978107,0.399432373671,0.429159657693,0.468336401531,
    0.544093045048,0.599450287673,0.620330423058,0.684566646107,
    0.749718943154,0.815060125802,0.878779447009,0.899905250598,
    0.929709292838,1.),.UNSPECIFIED.);
#967 = CARTESIAN_POINT('',(-3.18,0.,3.));
#968 = CARTESIAN_POINT('',(-3.18,0.10487645877,3.));
#969 = CARTESIAN_POINT('',(-3.190475313885,0.209211498863,2.995600321169
    ));
#970 = CARTESIAN_POINT('',(-3.211223082625,0.31128732533,2.986886488914)
  );
#971 = CARTESIAN_POINT('',(-3.241551938486,0.409432586831,2.974373708682
    ));
#972 = CARTESIAN_POINT('',(-3.280289763751,0.502135518941,2.958979662681
    ));
#973 = CARTESIAN_POINT('',(-3.345125460622,0.624963341656,2.93442114521)
  );
#974 = CARTESIAN_POINT('',(-3.365812443566,0.660625465848,2.926716761786
    ));
#975 = CARTESIAN_POINT('',(-3.387691278105,0.695141551765,2.918726938904
    ));
#976 = CARTESIAN_POINT('',(-3.410681788958,0.728485114151,2.910516252714
    ));
#977 = CARTESIAN_POINT('',(-3.434705589716,0.760634119228,2.902148246653
    ));
#978 = CARTESIAN_POINT('',(-3.47710471264,0.813142929027,2.887784401217)
  );
#979 = CARTESIAN_POINT('',(-3.494990972113,0.834128526645,2.881836320506
    ));
#980 = CARTESIAN_POINT('',(-3.513321393147,0.854524499184,2.875861406776
    ));
#981 = CARTESIAN_POINT('',(-3.532073872845,0.874328480356,2.86987911799)
  );
#982 = CARTESIAN_POINT('',(-3.55122767352,0.893539015956,2.863908152622)
  );
#983 = CARTESIAN_POINT('',(-3.63086373901,0.969428024081,2.839687231132)
  );
#984 = CARTESIAN_POINT('',(-3.69458583987,1.021085319072,2.821682590138)
  );
#985 = CARTESIAN_POINT('',(-3.761370057676,1.067103991358,2.804474354863
    ));
#986 = CARTESIAN_POINT('',(-3.830730114951,1.107478826386,2.788525898326
    ));
#987 = CARTESIAN_POINT('',(-3.902244923211,1.142207563842,2.774231207659
    ));
#988 = CARTESIAN_POINT('',(-4.049901250987,1.200758194053,2.749400899938
    ));
#989 = CARTESIAN_POINT('',(-4.126097913308,1.224418603042,2.738920889857
    ));
#990 = CARTESIAN_POINT('',(-4.203657254824,1.242197202331,2.730812268921
    ));
#991 = CARTESIAN_POINT('',(-4.282118951151,1.254062570423,2.725319669483
    ));
#992 = CARTESIAN_POINT('',(-4.361041791052,1.26,2.722572313089));
#993 = CARTESIAN_POINT('',(-4.519187119814,1.26,2.722572313089));
#994 = CARTESIAN_POINT('',(-4.598338371562,1.254028094932,2.725335617024
    ));
#995 = CARTESIAN_POINT('',(-4.677024479623,1.242093936395,2.730860073932
    ));
#996 = CARTESIAN_POINT('',(-4.754800515546,1.224212359234,2.739014957828
    ));
#997 = CARTESIAN_POINT('',(-4.831202158606,1.200415068864,2.749552858189
    ));
#998 = CARTESIAN_POINT('',(-4.978431569919,1.141845611696,2.774378309318
    ));
#999 = CARTESIAN_POINT('',(-5.049354939457,1.107359119388,2.78856730788)
  );
#1000 = CARTESIAN_POINT('',(-5.118156174526,1.067317016469,2.80438170557
    ));
#1001 = CARTESIAN_POINT('',(-5.18442418378,1.021721610999,2.821436947344
    ));
#1002 = CARTESIAN_POINT('',(-5.247684813213,0.970578024712,
    2.839281283513));
#1003 = CARTESIAN_POINT('',(-5.327188912437,0.895120503006,
    2.863415512738));
#1004 = CARTESIAN_POINT('',(-5.346595077204,0.875724072499,
    2.869455856822));
#1005 = CARTESIAN_POINT('',(-5.365591509614,0.855720065743,
    2.875508770195));
#1006 = CARTESIAN_POINT('',(-5.384156786566,0.835109954485,
    2.881554916627));
#1007 = CARTESIAN_POINT('',(-5.402268030938,0.813896188359,
    2.887574155295));
#1008 = CARTESIAN_POINT('',(-5.444777178085,0.761307262223,2.90196990316
    ));
#1009 = CARTESIAN_POINT('',(-5.468706426156,0.729331520643,
    2.910300975029));
#1010 = CARTESIAN_POINT('',(-5.491613230709,0.696172204368,
    2.918477168696));
#1011 = CARTESIAN_POINT('',(-5.513420387281,0.66185091819,2.926435868107
    ));
#1012 = CARTESIAN_POINT('',(-5.534048912037,0.626393637467,
    2.934113428838));
#1013 = CARTESIAN_POINT('',(-5.57894406809,0.541645461339,2.951107482343
    ));
#1014 = CARTESIAN_POINT('',(-5.602302194986,0.49150310546,2.960176968199
    ));
#1015 = CARTESIAN_POINT('',(-5.623250773333,0.439563075035,
    2.968485974852));
#1016 = CARTESIAN_POINT('',(-5.641577850356,0.386006444015,
    2.975877684933));
#1017 = CARTESIAN_POINT('',(-5.65709899446,0.331033360947,2.982213777953
    ));
#1018 = CARTESIAN_POINT('',(-5.693935084035,0.166238169357,
    2.997376112357));
#1019 = CARTESIAN_POINT('',(-5.707097448117,5.326733259506E-02,
    3.002990637612));
#1020 = CARTESIAN_POINT('',(-5.707831154103,-6.14989894493E-02,
    3.00334528598));
#1021 = CARTESIAN_POINT('',(-5.695915976107,-0.175285878553,
    2.998209576913));
#1022 = CARTESIAN_POINT('',(-5.672120149874,-0.285369750561,
    2.988237550034));
#1023 = CARTESIAN_POINT('',(-5.613640801528,-0.465350678229,
    2.964679080228));
#1024 = CARTESIAN_POINT('',(-5.583584499493,-0.538178929905,
    2.952776943735));
#1025 = CARTESIAN_POINT('',(-5.548685613169,-0.607481637659,
    2.939300785933));
#1026 = CARTESIAN_POINT('',(-5.509473914733,-0.672959881321,
    2.924673742568));
#1027 = CARTESIAN_POINT('',(-5.466494044756,-0.73437962391,
    2.909330194105));
#1028 = CARTESIAN_POINT('',(-5.40289528736,-0.813142929027,
    2.887784401217));
#1029 = CARTESIAN_POINT('',(-5.385009027887,-0.834128526645,
    2.881836320506));
#1030 = CARTESIAN_POINT('',(-5.366678606853,-0.854524499184,
    2.875861406776));
#1031 = CARTESIAN_POINT('',(-5.347926127155,-0.874328480356,
    2.86987911799));
#1032 = CARTESIAN_POINT('',(-5.32877232648,-0.893539015956,
    2.863908152622));
#1033 = CARTESIAN_POINT('',(-5.24913626099,-0.969428024081,
    2.839687231132));
#1034 = CARTESIAN_POINT('',(-5.18541416013,-1.021085319072,
    2.821682590138));
#1035 = CARTESIAN_POINT('',(-5.118629942324,-1.067103991358,
    2.804474354863));
#1036 = CARTESIAN_POINT('',(-5.049269885049,-1.107478826386,
    2.788525898326));
#1037 = CARTESIAN_POINT('',(-4.977755076789,-1.142207563842,
    2.774231207659));
#1038 = CARTESIAN_POINT('',(-4.830098749013,-1.200758194053,
    2.749400899938));
#1039 = CARTESIAN_POINT('',(-4.753902086692,-1.224418603042,
    2.738920889857));
#1040 = CARTESIAN_POINT('',(-4.676342745176,-1.242197202331,
    2.730812268921));
#1041 = CARTESIAN_POINT('',(-4.597881048849,-1.254062570423,
    2.725319669483));
#1042 = CARTESIAN_POINT('',(-4.518958208948,-1.26,2.722572313089));
#1043 = CARTESIAN_POINT('',(-4.360812880186,-1.26,2.722572313089));
#1044 = CARTESIAN_POINT('',(-4.281661628438,-1.254028094932,
    2.725335617024));
#1045 = CARTESIAN_POINT('',(-4.202975520377,-1.242093936395,
    2.730860073932));
#1046 = CARTESIAN_POINT('',(-4.125199484454,-1.224212359234,
    2.739014957828));
#1047 = CARTESIAN_POINT('',(-4.048797841394,-1.200415068864,
    2.749552858189));
#1048 = CARTESIAN_POINT('',(-3.901568430081,-1.141845611696,
    2.774378309318));
#1049 = CARTESIAN_POINT('',(-3.830645060543,-1.107359119388,
    2.78856730788));
#1050 = CARTESIAN_POINT('',(-3.761843825474,-1.067317016469,
    2.80438170557));
#1051 = CARTESIAN_POINT('',(-3.69557581622,-1.021721610999,
    2.821436947344));
#1052 = CARTESIAN_POINT('',(-3.632315186786,-0.970578024712,
    2.839281283513));
#1053 = CARTESIAN_POINT('',(-3.552811087563,-0.895120503006,
    2.863415512738));
#1054 = CARTESIAN_POINT('',(-3.533404922796,-0.875724072499,
    2.869455856822));
#1055 = CARTESIAN_POINT('',(-3.514408490386,-0.855720065743,
    2.875508770195));
#1056 = CARTESIAN_POINT('',(-3.495843213434,-0.835109954485,
    2.881554916627));
#1057 = CARTESIAN_POINT('',(-3.477731969062,-0.813896188359,
    2.887574155295));
#1058 = CARTESIAN_POINT('',(-3.435222821915,-0.761307262223,
    2.90196990316));
#1059 = CARTESIAN_POINT('',(-3.411293573844,-0.729331520643,
    2.910300975029));
#1060 = CARTESIAN_POINT('',(-3.388386769291,-0.696172204368,
    2.918477168696));
#1061 = CARTESIAN_POINT('',(-3.366579612719,-0.66185091819,
    2.926435868107));
#1062 = CARTESIAN_POINT('',(-3.345951087963,-0.626393637467,
    2.934113428838));
#1063 = CARTESIAN_POINT('',(-3.280901247683,-0.503599647963,
    2.958736585619));
#1064 = CARTESIAN_POINT('',(-3.24193497278,-0.410669958937,2.97421575946
    ));
#1065 = CARTESIAN_POINT('',(-3.21142157934,-0.312256433282,
    2.986803132915));
#1066 = CARTESIAN_POINT('',(-3.190543505585,-0.209878683879,
    2.995571676986));
#1067 = CARTESIAN_POINT('',(-3.18,-0.1052172691,3.));
#1068 = CARTESIAN_POINT('',(-3.18,0.,3.));
#1069 = PCURVE('',#433,#1070);
#1070 = DEFINITIONAL_REPRESENTATION('',(#1071),#1174);
#1071 = B_SPLINE_CURVE_WITH_KNOTS('',6,(#1072,#1073,#1074,#1075,#1076,
    #1077,#1078,#1079,#1080,#1081,#1082,#1083,#1084,#1085,#1086,#1087,
    #1088,#1089,#1090,#1091,#1092,#1093,#1094,#1095,#1096,#1097,#1098,
    #1099,#1100,#1101,#1102,#1103,#1104,#1105,#1106,#1107,#1108,#1109,
    #1110,#1111,#1112,#1113,#1114,#1115,#1116,#1117,#1118,#1119,#1120,
    #1121,#1122,#1123,#1124,#1125,#1126,#1127,#1128,#1129,#1130,#1131,
    #1132,#1133,#1134,#1135,#1136,#1137,#1138,#1139,#1140,#1141,#1142,
    #1143,#1144,#1145,#1146,#1147,#1148,#1149,#1150,#1151,#1152,#1153,
    #1154,#1155,#1156,#1157,#1158,#1159,#1160,#1161,#1162,#1163,#1164,
    #1165,#1166,#1167,#1168,#1169,#1170,#1171,#1172,#1173),
  .UNSPECIFIED.,.F.,.F.,(7,5,5,5,5,5,5,5,5,5,5,5,5,5,5,5,5,5,5,5,7),(0.,
    6.988360700453E-02,9.975121140998E-02,0.120577571473,0.184648358638,
    0.249632860519,0.314805761538,0.378360978107,0.399432373671,
    0.429159657693,0.468336401531,0.544093045048,0.599450287673,
    0.620330423058,0.684566646107,0.749718943154,0.815060125802,
    0.878779447009,0.899905250598,0.929709292838,1.),.UNSPECIFIED.);
#1072 = CARTESIAN_POINT('',(0.,3.));
#1073 = CARTESIAN_POINT('',(8.323528473827E-02,3.));
#1074 = CARTESIAN_POINT('',(0.166040716967,2.995600321169));
#1075 = CARTESIAN_POINT('',(0.248092051489,2.986886488914));
#1076 = CARTESIAN_POINT('',(0.329043299018,2.974373708682));
#1077 = CARTESIAN_POINT('',(0.408460385093,2.958979662681));
#1078 = CARTESIAN_POINT('',(0.518690285315,2.93442114521));
#1079 = CARTESIAN_POINT('',(0.551384818871,2.926716761786));
#1080 = CARTESIAN_POINT('',(0.583781031767,2.918726938904));
#1081 = CARTESIAN_POINT('',(0.615889526778,2.910516252714));
#1082 = CARTESIAN_POINT('',(0.647719220102,2.902148246653));
#1083 = CARTESIAN_POINT('',(0.701282480686,2.887784401217));
#1084 = CARTESIAN_POINT('',(0.723158750714,2.881836320506));
#1085 = CARTESIAN_POINT('',(0.744911514476,2.875861406776));
#1086 = CARTESIAN_POINT('',(0.766546405127,2.86987911799));
#1087 = CARTESIAN_POINT('',(0.788069325946,2.863908152622));
#1088 = CARTESIAN_POINT('',(0.875374681134,2.839687231132));
#1089 = CARTESIAN_POINT('',(0.940269519739,2.821682590138));
#1090 = CARTESIAN_POINT('',(1.004350822483,2.804474354863));
#1091 = CARTESIAN_POINT('',(1.067775342603,2.788525898326));
#1092 = CARTESIAN_POINT('',(1.130696170372,2.774231207659));
#1093 = CARTESIAN_POINT('',(1.256760716279,2.749400899938));
#1094 = CARTESIAN_POINT('',(1.319897655009,2.738920889857));
#1095 = CARTESIAN_POINT('',(1.382779981609,2.730812268921));
#1096 = CARTESIAN_POINT('',(1.445493806284,2.725319669483));
#1097 = CARTESIAN_POINT('',(1.508131081598,2.722572313089));
#1098 = CARTESIAN_POINT('',(1.633643247282,2.722572313089));
#1099 = CARTESIAN_POINT('',(1.696461803695,2.725335617024));
#1100 = CARTESIAN_POINT('',(1.759357590825,2.730860073932));
#1101 = CARTESIAN_POINT('',(1.82242345696,2.739014957828));
#1102 = CARTESIAN_POINT('',(1.885746336346,2.749552858189));
#1103 = CARTESIAN_POINT('',(2.011501502631,2.774378309318));
#1104 = CARTESIAN_POINT('',(2.073920268071,2.78856730788));
#1105 = CARTESIAN_POINT('',(2.13683504576,2.80438170557));
#1106 = CARTESIAN_POINT('',(2.200395360715,2.821436947344));
#1107 = CARTESIAN_POINT('',(2.264754264719,2.839281283513));
#1108 = CARTESIAN_POINT('',(2.351747730269,2.863415512738));
#1109 = CARTESIAN_POINT('',(2.373516336444,2.869455856822));
#1110 = CARTESIAN_POINT('',(2.395399265501,2.875508770195));
#1111 = CARTESIAN_POINT('',(2.41740264691,2.881554916627));
#1112 = CARTESIAN_POINT('',(2.43953229848,2.887574155295));
#1113 = CARTESIAN_POINT('',(2.49319989437,2.90196990316));
#1114 = CARTESIAN_POINT('',(2.524874843132,2.910300975029));
#1115 = CARTESIAN_POINT('',(2.556825772745,2.918477168696));
#1116 = CARTESIAN_POINT('',(2.589061521629,2.926435868107));
#1117 = CARTESIAN_POINT('',(2.621592566526,2.934113428838));
#1118 = CARTESIAN_POINT('',(2.697707891541,2.951107482343));
#1119 = CARTESIAN_POINT('',(2.741551862166,2.960176968199));
#1120 = CARTESIAN_POINT('',(2.785907416795,2.968485974852));
#1121 = CARTESIAN_POINT('',(2.83073344559,2.975877684933));
#1122 = CARTESIAN_POINT('',(2.875999353587,2.982213777953));
#1123 = CARTESIAN_POINT('',(3.010016761317,2.997376112357));
#1124 = CARTESIAN_POINT('',(3.099795188522,3.002990637612));
#1125 = CARTESIAN_POINT('',(3.190056052196,3.00334528598));
#1126 = CARTESIAN_POINT('',(3.280043969451,2.998209576913));
#1127 = CARTESIAN_POINT('',(3.368971518474,2.988237550034));
#1128 = CARTESIAN_POINT('',(3.519164491908,2.964679080228));
#1129 = CARTESIAN_POINT('',(3.581507425942,2.952776943735));
#1130 = CARTESIAN_POINT('',(3.642834702161,2.939300785933));
#1131 = CARTESIAN_POINT('',(3.703175239909,2.924673742568));
#1132 = CARTESIAN_POINT('',(3.762530151166,2.909330194105));
#1133 = CARTESIAN_POINT('',(3.842875134276,2.887784401217));
#1134 = CARTESIAN_POINT('',(3.864751404304,2.881836320506));
#1135 = CARTESIAN_POINT('',(3.886504168066,2.875861406776));
#1136 = CARTESIAN_POINT('',(3.908139058716,2.86987911799));
#1137 = CARTESIAN_POINT('',(3.929661979535,2.863908152622));
#1138 = CARTESIAN_POINT('',(4.016967334724,2.839687231132));
#1139 = CARTESIAN_POINT('',(4.081862173328,2.821682590138));
#1140 = CARTESIAN_POINT('',(4.145943476072,2.804474354863));
#1141 = CARTESIAN_POINT('',(4.209367996192,2.788525898326));
#1142 = CARTESIAN_POINT('',(4.272288823962,2.774231207659));
#1143 = CARTESIAN_POINT('',(4.398353369868,2.749400899938));
#1144 = CARTESIAN_POINT('',(4.461490308599,2.738920889857));
#1145 = CARTESIAN_POINT('',(4.524372635199,2.730812268921));
#1146 = CARTESIAN_POINT('',(4.587086459874,2.725319669483));
#1147 = CARTESIAN_POINT('',(4.649723735188,2.722572313089));
#1148 = CARTESIAN_POINT('',(4.775235900872,2.722572313089));
#1149 = CARTESIAN_POINT('',(4.838054457285,2.725335617024));
#1150 = CARTESIAN_POINT('',(4.900950244415,2.730860073932));
#1151 = CARTESIAN_POINT('',(4.96401611055,2.739014957828));
#1152 = CARTESIAN_POINT('',(5.027338989936,2.749552858189));
#1153 = CARTESIAN_POINT('',(5.153094156221,2.774378309318));
#1154 = CARTESIAN_POINT('',(5.21551292166,2.78856730788));
#1155 = CARTESIAN_POINT('',(5.27842769935,2.80438170557));
#1156 = CARTESIAN_POINT('',(5.341988014305,2.821436947344));
#1157 = CARTESIAN_POINT('',(5.406346918309,2.839281283513));
#1158 = CARTESIAN_POINT('',(5.493340383858,2.863415512738));
#1159 = CARTESIAN_POINT('',(5.515108990033,2.869455856822));
#1160 = CARTESIAN_POINT('',(5.536991919091,2.875508770195));
#1161 = CARTESIAN_POINT('',(5.5589953005,2.881554916627));
#1162 = CARTESIAN_POINT('',(5.58112495207,2.887574155295));
#1163 = CARTESIAN_POINT('',(5.63479254796,2.90196990316));
#1164 = CARTESIAN_POINT('',(5.666467496722,2.910300975029));
#1165 = CARTESIAN_POINT('',(5.698418426334,2.918477168696));
#1166 = CARTESIAN_POINT('',(5.730654175219,2.926435868107));
#1167 = CARTESIAN_POINT('',(5.763185220116,2.934113428838));
#1168 = CARTESIAN_POINT('',(5.873470831537,2.958736585619));
#1169 = CARTESIAN_POINT('',(5.95312117238,2.97421575946));
#1170 = CARTESIAN_POINT('',(6.034313953173,2.986803132915));
#1171 = CARTESIAN_POINT('',(6.11661508416,2.995571676986));
#1172 = CARTESIAN_POINT('',(6.199679538053,3.));
#1173 = CARTESIAN_POINT('',(6.28318530718,3.));
#1174 = ( GEOMETRIC_REPRESENTATION_CONTEXT(2) 
PARAMETRIC_REPRESENTATION_CONTEXT() REPRESENTATION_CONTEXT('2D SPACE',''
  ) );
#1175 = PCURVE('',#535,#1176);
#1176 = DEFINITIONAL_REPRESENTATION('',(#1177),#1280);
#1177 = B_SPLINE_CURVE_WITH_KNOTS('',6,(#1178,#1179,#1180,#1181,#1182,
    #1183,#1184,#1185,#1186,#1187,#1188,#1189,#1190,#1191,#1192,#1193,
    #1194,#1195,#1196,#1197,#1198,#1199,#1200,#1201,#1202,#1203,#1204,
    #1205,#1206,#1207,#1208,#1209,#1210,#1211,#1212,#1213,#1214,#1215,
    #1216,#1217,#1218,#1219,#1220,#1221,#1222,#1223,#1224,#1225,#1226,
    #1227,#1228,#1229,#1230,#1231,#1232,#1233,#1234,#1235,#1236,#1237,
    #1238,#1239,#1240,#1241,#1242,#1243,#1244,#1245,#1246,#1247,#1248,
    #1249,#1250,#1251,#1252,#1253,#1254,#1255,#1256,#1257,#1258,#1259,
    #1260,#1261,#1262,#1263,#1264,#1265,#1266,#1267,#1268,#1269,#1270,
    #1271,#1272,#1273,#1274,#1275,#1276,#1277,#1278,#1279),
  .UNSPECIFIED.,.T.,.F.,(7,5,5,5,5,5,5,5,5,5,5,5,5,5,5,5,5,5,5,5,7),(0.,
    6.988360700453E-02,9.975121140998E-02,0.120577571473,0.184648358638,
    0.249632860519,0.314805761538,0.378360978107,0.399432373671,
    0.429159657693,0.468336401531,0.544093045048,0.599450287673,
    0.620330423058,0.684566646107,0.749718943154,0.815060125802,
    0.878779447009,0.899905250598,0.929709292838,1.),.UNSPECIFIED.);
#1178 = CARTESIAN_POINT('',(3.14159265359,7.66));
#1179 = CARTESIAN_POINT('',(3.106633834,7.66));
#1180 = CARTESIAN_POINT('',(3.071855425567,7.649524686115));
#1181 = CARTESIAN_POINT('',(3.037753554848,7.628776917375));
#1182 = CARTESIAN_POINT('',(3.004810870261,7.598448061514));
#1183 = CARTESIAN_POINT('',(2.973503516766,7.559710236249));
#1184 = CARTESIAN_POINT('',(2.931750546395,7.494874539378));
#1185 = CARTESIAN_POINT('',(2.919590356313,7.474187556434));
#1186 = CARTESIAN_POINT('',(2.907782628762,7.452308721895));
#1187 = CARTESIAN_POINT('',(2.896337656439,7.429318211042));
#1188 = CARTESIAN_POINT('',(2.88526508699,7.405294410284));
#1189 = CARTESIAN_POINT('',(2.867119089078,7.36289528736));
#1190 = CARTESIAN_POINT('',(2.859848634868,7.345009027887));
#1191 = CARTESIAN_POINT('',(2.852764660629,7.326678606853));
#1192 = CARTESIAN_POINT('',(2.845869068487,7.307926127155));
#1193 = CARTESIAN_POINT('',(2.839163562439,7.28877232648));
#1194 = CARTESIAN_POINT('',(2.812610063837,7.20913626099));
#1195 = CARTESIAN_POINT('',(2.794381395581,7.14541416013));
#1196 = CARTESIAN_POINT('',(2.77800957705,7.078629942324));
#1197 = CARTESIAN_POINT('',(2.763541694687,7.009269885049));
#1198 = CARTESIAN_POINT('',(2.751023887649,6.937755076789));
#1199 = CARTESIAN_POINT('',(2.729824515332,6.790098749013));
#1200 = CARTESIAN_POINT('',(2.72119969515,6.713902086692));
#1201 = CARTESIAN_POINT('',(2.714686554224,6.636342745176));
#1202 = CARTESIAN_POINT('',(2.710328011286,6.557881048849));
#1203 = CARTESIAN_POINT('',(2.70814733352,6.478958208948));
#1204 = CARTESIAN_POINT('',(2.70814733352,6.320812880186));
#1205 = CARTESIAN_POINT('',(2.710340671846,6.241661628438));
#1206 = CARTESIAN_POINT('',(2.714724488002,6.162975520377));
#1207 = CARTESIAN_POINT('',(2.721275253348,6.085199484454));
#1208 = CARTESIAN_POINT('',(2.729949588904,6.008797841394));
#1209 = CARTESIAN_POINT('',(2.751154107125,5.861568430081));
#1210 = CARTESIAN_POINT('',(2.763583845105,5.790645060543));
#1211 = CARTESIAN_POINT('',(2.777932202656,5.721843825474));
#1212 = CARTESIAN_POINT('',(2.794154147947,5.65557581622));
#1213 = CARTESIAN_POINT('',(2.812203732221,5.592315186787));
#1214 = CARTESIAN_POINT('',(2.838611430178,5.512811087563));
#1215 = CARTESIAN_POINT('',(2.845382968777,5.493404922796));
#1216 = CARTESIAN_POINT('',(2.85234918527,5.474408490386));
#1217 = CARTESIAN_POINT('',(2.859508322903,5.455843213434));
#1218 = CARTESIAN_POINT('',(2.866858408945,5.437731969062));
#1219 = CARTESIAN_POINT('',(2.885032972087,5.395222821915));
#1220 = CARTESIAN_POINT('',(2.896046561345,5.371293573844));
#1221 = CARTESIAN_POINT('',(2.907429176433,5.348386769291));
#1222 = CARTESIAN_POINT('',(2.919171335717,5.326579612719));
#1223 = CARTESIAN_POINT('',(2.931262921955,5.305951087963));
#1224 = CARTESIAN_POINT('',(2.960074669582,5.26105593191));
#1225 = CARTESIAN_POINT('',(2.977056957475,5.237697805014));
#1226 = CARTESIAN_POINT('',(2.99458478657,5.216749226667));
#1227 = CARTESIAN_POINT('',(3.012599670497,5.198422149644));
#1228 = CARTESIAN_POINT('',(3.031040446347,5.18290100554));
#1229 = CARTESIAN_POINT('',(3.08620419406,5.146064915965));
#1230 = CARTESIAN_POINT('',(3.123874440446,5.132902551883));
#1231 = CARTESIAN_POINT('',(3.16206527685,5.132168845897));
#1232 = CARTESIAN_POINT('',(3.199971489439,5.144084023893));
#1233 = CARTESIAN_POINT('',(3.236787372352,5.167879850126));
#1234 = CARTESIAN_POINT('',(3.297292776907,5.226359198472));
#1235 = CARTESIAN_POINT('',(3.321878358958,5.256415500507));
#1236 = CARTESIAN_POINT('',(3.345397125057,5.291314386831));
#1237 = CARTESIAN_POINT('',(3.367749905455,5.330526085267));
#1238 = CARTESIAN_POINT('',(3.388847189986,5.373505955244));
#1239 = CARTESIAN_POINT('',(3.416066218102,5.43710471264));
#1240 = CARTESIAN_POINT('',(3.423336672312,5.454990972113));
#1241 = CARTESIAN_POINT('',(3.430420646551,5.473321393147));
#1242 = CARTESIAN_POINT('',(3.437316238693,5.492073872845));
#1243 = CARTESIAN_POINT('',(3.444021744741,5.51122767352));
#1244 = CARTESIAN_POINT('',(3.470575243342,5.59086373901));
#1245 = CARTESIAN_POINT('',(3.488803911598,5.65458583987));
#1246 = CARTESIAN_POINT('',(3.50517573013,5.721370057676));
#1247 = CARTESIAN_POINT('',(3.519643612493,5.790730114951));
#1248 = CARTESIAN_POINT('',(3.532161419531,5.862244923211));
#1249 = CARTESIAN_POINT('',(3.553360791847,6.009901250987));
#1250 = CARTESIAN_POINT('',(3.561985612029,6.086097913308));
#1251 = CARTESIAN_POINT('',(3.568498752955,6.163657254824));
#1252 = CARTESIAN_POINT('',(3.572857295894,6.242118951151));
#1253 = CARTESIAN_POINT('',(3.57503797366,6.321041791052));
#1254 = CARTESIAN_POINT('',(3.57503797366,6.479187119814));
#1255 = CARTESIAN_POINT('',(3.572844635334,6.558338371562));
#1256 = CARTESIAN_POINT('',(3.568460819177,6.637024479623));
#1257 = CARTESIAN_POINT('',(3.561910053831,6.714800515546));
#1258 = CARTESIAN_POINT('',(3.553235718275,6.791202158606));
#1259 = CARTESIAN_POINT('',(3.532031200055,6.938431569919));
#1260 = CARTESIAN_POINT('',(3.519601462074,7.009354939457));
#1261 = CARTESIAN_POINT('',(3.505253104524,7.078156174526));
#1262 = CARTESIAN_POINT('',(3.489031159232,7.14442418378));
#1263 = CARTESIAN_POINT('',(3.470981574958,7.207684813214));
#1264 = CARTESIAN_POINT('',(3.444573877002,7.287188912437));
#1265 = CARTESIAN_POINT('',(3.437802338402,7.306595077204));
#1266 = CARTESIAN_POINT('',(3.43083612191,7.325591509614));
#1267 = CARTESIAN_POINT('',(3.423676984277,7.344156786566));
#1268 = CARTESIAN_POINT('',(3.416326898235,7.362268030938));
#1269 = CARTESIAN_POINT('',(3.398152335092,7.404777178085));
#1270 = CARTESIAN_POINT('',(3.387138745834,7.428706426156));
#1271 = CARTESIAN_POINT('',(3.375756130746,7.451613230709));
#1272 = CARTESIAN_POINT('',(3.364013971462,7.473420387281));
#1273 = CARTESIAN_POINT('',(3.351922385224,7.494048912037));
#1274 = CARTESIAN_POINT('',(3.310176242743,7.559098752317));
#1275 = CARTESIAN_POINT('',(3.278789780465,7.59806502722));
#1276 = CARTESIAN_POINT('',(3.245755534162,7.62857842066));
#1277 = CARTESIAN_POINT('',(3.211552278841,7.649456494415));
#1278 = CARTESIAN_POINT('',(3.176665076623,7.66));
#1279 = CARTESIAN_POINT('',(3.14159265359,7.66));
#1280 = ( GEOMETRIC_REPRESENTATION_CONTEXT(2) 
PARAMETRIC_REPRESENTATION_CONTEXT() REPRESENTATION_CONTEXT('2D SPACE',''
  ) );
#1281 = ORIENTED_EDGE('',*,*,#941,.T.);
#1282 = ADVANCED_FACE('',(#1283,#1345),#535,.F.);
#1283 = FACE_BOUND('',#1284,.F.);
#1284 = EDGE_LOOP('',(#1285,#1314,#1335,#1336,#1337,#1338,#1339,#1340,
    #1341,#1342,#1343,#1344));
#1285 = ORIENTED_EDGE('',*,*,#1286,.T.);
#1286 = EDGE_CURVE('',#1287,#1287,#1289,.T.);
#1287 = VERTEX_POINT('',#1288);
#1288 = CARTESIAN_POINT('',(-9.84,-7.347880794884E-16,-3.));
#1289 = SURFACE_CURVE('',#1290,(#1295,#1302),.PCURVE_S1.);
#1290 = CIRCLE('',#1291,3.);
#1291 = AXIS2_PLACEMENT_3D('',#1292,#1293,#1294);
#1292 = CARTESIAN_POINT('',(-9.84,0.,2.22044604925E-16));
#1293 = DIRECTION('',(1.,0.,2.22044604925E-16));
#1294 = DIRECTION('',(2.22044604925E-16,0.,-1.));
#1295 = PCURVE('',#535,#1296);
#1296 = DEFINITIONAL_REPRESENTATION('',(#1297),#1301);
#1297 = LINE('',#1298,#1299);
#1298 = CARTESIAN_POINT('',(0.,1.));
#1299 = VECTOR('',#1300,1.);
#1300 = DIRECTION('',(1.,0.));
#1301 = ( GEOMETRIC_REPRESENTATION_CONTEXT(2) 
PARAMETRIC_REPRESENTATION_CONTEXT() REPRESENTATION_CONTEXT('2D SPACE',''
  ) );
#1302 = PCURVE('',#1303,#1308);
#1303 = PLANE('',#1304);
#1304 = AXIS2_PLACEMENT_3D('',#1305,#1306,#1307);
#1305 = CARTESIAN_POINT('',(-9.84,0.,0.));
#1306 = DIRECTION('',(1.,0.,2.22044604925E-16));
#1307 = DIRECTION('',(2.22044604925E-16,0.,-1.));
#1308 = DEFINITIONAL_REPRESENTATION('',(#1309),#1313);
#1309 = CIRCLE('',#1310,3.);
#1310 = AXIS2_PLACEMENT_2D('',#1311,#1312);
#1311 = CARTESIAN_POINT('',(-2.22044604925E-16,0.));
#1312 = DIRECTION('',(1.,0.));
#1313 = ( GEOMETRIC_REPRESENTATION_CONTEXT(2) 
PARAMETRIC_REPRESENTATION_CONTEXT() REPRESENTATION_CONTEXT('2D SPACE',''
  ) );
#1314 = ORIENTED_EDGE('',*,*,#1315,.T.);
#1315 = EDGE_CURVE('',#1287,#519,#1316,.T.);
#1316 = SEAM_CURVE('',#1317,(#1321,#1328),.PCURVE_S1.);
#1317 = LINE('',#1318,#1319);
#1318 = CARTESIAN_POINT('',(-10.84,-7.347880794884E-16,-3.));
#1319 = VECTOR('',#1320,1.);
#1320 = DIRECTION('',(1.,0.,2.22044604925E-16));
#1321 = PCURVE('',#535,#1322);
#1322 = DEFINITIONAL_REPRESENTATION('',(#1323),#1327);
#1323 = LINE('',#1324,#1325);
#1324 = CARTESIAN_POINT('',(0.,-0.));
#1325 = VECTOR('',#1326,1.);
#1326 = DIRECTION('',(0.,1.));
#1327 = ( GEOMETRIC_REPRESENTATION_CONTEXT(2) 
PARAMETRIC_REPRESENTATION_CONTEXT() REPRESENTATION_CONTEXT('2D SPACE',''
  ) );
#1328 = PCURVE('',#535,#1329);
#1329 = DEFINITIONAL_REPRESENTATION('',(#1330),#1334);
#1330 = LINE('',#1331,#1332);
#1331 = CARTESIAN_POINT('',(6.28318530718,-0.));
#1332 = VECTOR('',#1333,1.);
#1333 = DIRECTION('',(0.,1.));
#1334 = ( GEOMETRIC_REPRESENTATION_CONTEXT(2) 
PARAMETRIC_REPRESENTATION_CONTEXT() REPRESENTATION_CONTEXT('2D SPACE',''
  ) );
#1335 = ORIENTED_EDGE('',*,*,#547,.F.);
#1336 = ORIENTED_EDGE('',*,*,#883,.F.);
#1337 = ORIENTED_EDGE('',*,*,#855,.F.);
#1338 = ORIENTED_EDGE('',*,*,#808,.T.);
#1339 = ORIENTED_EDGE('',*,*,#758,.F.);
#1340 = ORIENTED_EDGE('',*,*,#691,.F.);
#1341 = ORIENTED_EDGE('',*,*,#663,.F.);
#1342 = ORIENTED_EDGE('',*,*,#616,.T.);
#1343 = ORIENTED_EDGE('',*,*,#518,.F.);
#1344 = ORIENTED_EDGE('',*,*,#1315,.F.);
#1345 = FACE_BOUND('',#1346,.F.);
#1346 = EDGE_LOOP('',(#1347));
#1347 = ORIENTED_EDGE('',*,*,#964,.F.);
#1348 = ADVANCED_FACE('',(#1349),#925,.T.);
#1349 = FACE_BOUND('',#1350,.T.);
#1350 = EDGE_LOOP('',(#1351,#1352,#1375,#1397));
#1351 = ORIENTED_EDGE('',*,*,#908,.F.);
#1352 = ORIENTED_EDGE('',*,*,#1353,.F.);
#1353 = EDGE_CURVE('',#1354,#909,#1356,.T.);
#1354 = VERTEX_POINT('',#1355);
#1355 = CARTESIAN_POINT('',(-9.84,-1.224646799147E-15,-5.));
#1356 = SEAM_CURVE('',#1357,(#1361,#1368),.PCURVE_S1.);
#1357 = LINE('',#1358,#1359);
#1358 = CARTESIAN_POINT('',(-9.84,-1.224646799147E-15,-5.));
#1359 = VECTOR('',#1360,1.);
#1360 = DIRECTION('',(1.,0.,2.22044604925E-16));
#1361 = PCURVE('',#925,#1362);
#1362 = DEFINITIONAL_REPRESENTATION('',(#1363),#1367);
#1363 = LINE('',#1364,#1365);
#1364 = CARTESIAN_POINT('',(6.28318530718,-0.));
#1365 = VECTOR('',#1366,1.);
#1366 = DIRECTION('',(0.,1.));
#1367 = ( GEOMETRIC_REPRESENTATION_CONTEXT(2) 
PARAMETRIC_REPRESENTATION_CONTEXT() REPRESENTATION_CONTEXT('2D SPACE',''
  ) );
#1368 = PCURVE('',#925,#1369);
#1369 = DEFINITIONAL_REPRESENTATION('',(#1370),#1374);
#1370 = LINE('',#1371,#1372);
#1371 = CARTESIAN_POINT('',(0.,-0.));
#1372 = VECTOR('',#1373,1.);
#1373 = DIRECTION('',(0.,1.));
#1374 = ( GEOMETRIC_REPRESENTATION_CONTEXT(2) 
PARAMETRIC_REPRESENTATION_CONTEXT() REPRESENTATION_CONTEXT('2D SPACE',''
  ) );
#1375 = ORIENTED_EDGE('',*,*,#1376,.T.);
#1376 = EDGE_CURVE('',#1354,#1354,#1377,.T.);
#1377 = SURFACE_CURVE('',#1378,(#1383,#1390),.PCURVE_S1.);
#1378 = CIRCLE('',#1379,5.);
#1379 = AXIS2_PLACEMENT_3D('',#1380,#1381,#1382);
#1380 = CARTESIAN_POINT('',(-9.84,0.,0.));
#1381 = DIRECTION('',(1.,-0.,2.22044604925E-16));
#1382 = DIRECTION('',(2.22044604925E-16,0.,-1.));
#1383 = PCURVE('',#925,#1384);
#1384 = DEFINITIONAL_REPRESENTATION('',(#1385),#1389);
#1385 = LINE('',#1386,#1387);
#1386 = CARTESIAN_POINT('',(0.,0.));
#1387 = VECTOR('',#1388,1.);
#1388 = DIRECTION('',(1.,0.));
#1389 = ( GEOMETRIC_REPRESENTATION_CONTEXT(2) 
PARAMETRIC_REPRESENTATION_CONTEXT() REPRESENTATION_CONTEXT('2D SPACE',''
  ) );
#1390 = PCURVE('',#1303,#1391);
#1391 = DEFINITIONAL_REPRESENTATION('',(#1392),#1396);
#1392 = CIRCLE('',#1393,5.);
#1393 = AXIS2_PLACEMENT_2D('',#1394,#1395);
#1394 = CARTESIAN_POINT('',(0.,0.));
#1395 = DIRECTION('',(1.,0.));
#1396 = ( GEOMETRIC_REPRESENTATION_CONTEXT(2) 
PARAMETRIC_REPRESENTATION_CONTEXT() REPRESENTATION_CONTEXT('2D SPACE',''
  ) );
#1397 = ORIENTED_EDGE('',*,*,#1353,.T.);
#1398 = ADVANCED_FACE('',(#1399,#1402),#1303,.F.);
#1399 = FACE_BOUND('',#1400,.F.);
#1400 = EDGE_LOOP('',(#1401));
#1401 = ORIENTED_EDGE('',*,*,#1376,.T.);
#1402 = FACE_BOUND('',#1403,.F.);
#1403 = EDGE_LOOP('',(#1404));
#1404 = ORIENTED_EDGE('',*,*,#1286,.F.);
#1405 = ( GEOMETRIC_REPRESENTATION_CONTEXT(3) 
GLOBAL_UNCERTAINTY_ASSIGNED_CONTEXT((#1409)) 
GLOBAL_UNIT_ASSIGNED_CONTEXT((#1406,#1407,#1408)) REPRESENTATION_CONTEXT
('Context #1','3D Context with UNIT and UNCERTAINTY') );
#1406 = ( LENGTH_UNIT() NAMED_UNIT(*) SI_UNIT(.MILLI.,.METRE.) );
#1407 = ( NAMED_UNIT(*) PLANE_ANGLE_UNIT() SI_UNIT($,.RADIAN.) );
#1408 = ( NAMED_UNIT(*) SI_UNIT($,.STERADIAN.) SOLID_ANGLE_UNIT() );
#1409 = UNCERTAINTY_MEASURE_WITH_UNIT(LENGTH_MEASURE(1.E-07),#1406,
  'distance_accuracy_value','confusion accuracy');
#1410 = PRODUCT_RELATED_PRODUCT_CATEGORY('part',$,(#7));
ENDSEC;
END-ISO-10303-21;
